<?xml version="1.0" encoding="utf-8"?>
<!-- Generator: Adobe Illustrator 18.1.1, SVG Export Plug-In . SVG Version: 6.00 Build 0)  -->
<svg version="1.0" id="Layer_1" xmlns="http://www.w3.org/2000/svg" xmlns:xlink="http://www.w3.org/1999/xlink" x="0px" y="0px"
	 viewBox="0 0 312.7 70.3" enable-background="new 0 0 312.7 70.3" xml:space="preserve">
<rect x="3.8" y="4" fill="#576D38" width="308.9" height="66.3"/>
<rect x="0" y="0" fill="#9FBC3D" width="308.9" height="66.3"/>
<path fill="#576D38" d="M12.1,33.2c0,12.7,4.6,24.2,12.3,33.2h77.3c7.6-8.9,12.3-20.5,12.3-33.2c0-12.7-4.6-24.2-12.3-33.2H24.4
	C16.8,8.9,12.1,20.5,12.1,33.2z"/>
<rect x="134.9" y="26.9" fill="none" width="155.9" height="22.8"/>
<text transform="matrix(1 0 0 1 134.9053 41.9893)" fill="#576D38" font-family="'Avenir-Black'" font-size="20">GENERAL</text>
<g>
	<g opacity="0.2">
		<g>
			<defs>
				<rect id="SVGID_1_" x="37" y="15.4" width="47.8" height="46.1"/>
			</defs>
			<clipPath id="SVGID_2_">
				<use xlink:href="#SVGID_1_"  overflow="visible"/>
			</clipPath>
			<path clip-path="url(#SVGID_2_)" fill="#231F20" d="M84.8,35.2c0-10.9-10.7-19.8-23.9-19.8C47.7,15.4,37,24.2,37,35.2
				c0,10.5,9.9,19.1,22.5,19.7c0.8,4,1.5,6.7,1.5,6.7s6-3.3,11.5-9C79.8,49.1,84.8,42.6,84.8,35.2"/>
		</g>
	</g>
	<path fill="#FFFFFF" d="M81.2,31.6c0,16.4-20.3,27.7-20.3,27.7s-11.2-46.1,0-46.1C72.1,13.2,81.2,21.4,81.2,31.6"/>
	<path fill="#FFFFFF" d="M84.8,33c0,10.9-10.7,19.8-23.9,19.8C47.7,52.7,37,43.9,37,33s10.7-19.8,23.9-19.8
		C74.1,13.2,84.8,22,84.8,33"/>
	<path fill="#515E73" d="M63.3,33c0-1.2-1.1-2.2-2.4-2.2c-1.3,0-2.4,1-2.4,2.2c0,1.2,1.1,2.2,2.4,2.2C62.2,35.2,63.3,34.2,63.3,33"
		/>
	<path fill="#515E73" d="M72.8,33c0-1.2-1.1-2.2-2.4-2.2c-1.3,0-2.4,1-2.4,2.2c0,1.2,1.1,2.2,2.4,2.2C71.8,35.2,72.8,34.2,72.8,33"
		/>
	<path fill="#515E73" d="M53.7,33c0-1.2-1.1-2.2-2.4-2.2c-1.3,0-2.4,1-2.4,2.2c0,1.2,1.1,2.2,2.4,2.2C52.6,35.2,53.7,34.2,53.7,33"
		/>
	<rect x="22.6" y="0" fill="none" width="76.5" height="70.3"/>
	<rect x="22.6" y="0" fill="none" width="76.5" height="70.3"/>
</g>
</svg>
