<?xml version="1.0" encoding="utf-8"?>
<!-- Generator: Adobe Illustrator 18.1.1, SVG Export Plug-In . SVG Version: 6.00 Build 0)  -->
<svg version="1.0" id="Layer_1" xmlns="http://www.w3.org/2000/svg" xmlns:xlink="http://www.w3.org/1999/xlink" x="0px" y="0px"
	 viewBox="0 0 220.6 220.6" enable-background="new 0 0 220.6 220.6" xml:space="preserve">
<circle fill="#FFFFFF" cx="110.3" cy="110.3" r="110.3"/>
<g>
	<g>
		<polygon fill="#713131" points="58.3,84.3 74.6,82.3 75.5,89.6 71.2,90.1 67.3,90.6 		"/>
	</g>
	<g>
		<g>
			<path fill="#333333" d="M152.4,118.2c0.8-0.1,1.6-0.5,2.2-1c2.9-2.9-0.1-8.1-3.4-12.7c-2.8-3.9-6-7.5-6.1-7.6l-3.6,3.2
				c4.2,4.6,7.8,9.8,9,12.6c-3.5-2.5-10.5-10.5-16-18l-3.9,2.9c4.5,6.1,15.5,20.3,21,20.7C151.9,118.2,152.1,118.2,152.4,118.2z"/>
		</g>
	</g>
	<g>
		<g>
			<path fill="#713131" d="M138.5,133.8c3.1-0.4,5.6-1.5,7.5-3.3c6.4-6.1,4.7-18.5,2.8-31.6c-0.1-1-0.3-2-0.4-3.1
				c-0.9-6.4-3.5-10.8-7.7-13.1c-7.2-4-16.3-0.1-16.7,0.1l2,4.4c0.1,0,7.3-3.2,12.4-0.3c2.8,1.6,4.5,4.8,5.2,9.5
				c0.1,1,0.3,2,0.4,3.1c1.6,11.3,3.3,23-1.4,27.4c-2.2,2.1-6.2,2.6-11.8,1.6l-0.9,4.8C133.2,133.9,136.1,134.1,138.5,133.8z"/>
		</g>
	</g>
	<g>
		<path fill="#333333" d="M88.3,184c-0.5-8.8,1.9-44.5,2-46l5.4,0.4c0,0.4-2.5,36.9-2,45.3L88.3,184z"/>
	</g>
	<g>
		<path fill="#333333" d="M123.3,184.2c-0.8-8.7,0.6-44.5,0.7-46l5.4,0.2c0,0.4-1.5,36.9-0.7,45.3L123.3,184.2z"/>
	</g>
	<g>
		<g>
			<path fill="#697736" d="M149,140.2c0.3,2.3-1.2,4.1-3.6,4.4l-60.9,7.1c-2.4,0.3-5.9-0.9-6.2-3.2L66.8,48.8
				c-0.3-2.3,2.9-4.5,5.3-4.7L133,37c2.4-0.3,4.2,1.3,4.5,3.6L149,140.2z"/>
		</g>
		<g>
			<path fill="#A1BF3C" d="M148.9,139.5c0.3,2.3-0.7,4.7-3.1,5l-53.1,6.2c-2.4,0.3-6-1.6-6.3-3.9L74.8,46.3c-0.3-2.3,3-2.9,5.5-3.2
				l53.1-6.2c2.4-0.3,3.7-0.2,4,2.1L148.9,139.5z"/>
		</g>
		<g>
			<path fill="#607132" d="M135.4,87.8c0.2,2-1.4,4.2-3.8,4.5l-37.7,4.4c-2.4,0.3-5.2-1.4-5.4-3.4L84,54c-0.2-2,2.2-3.4,4.6-3.6
				l37.7-4.4c2.4-0.3,4.4,0.6,4.6,2.6L135.4,87.8z"/>
		</g>
		<g>
			<path fill="#738140" d="M135.4,87.8c0.2,2-1.4,4.2-3.8,4.5l-37.7,4.4c-2.4,0.3-5.2-1.4-5.4-3.4L84,54c-0.2-2,2.2-3.4,4.6-3.6
				l37.7-4.4c2.4-0.3,4.4,0.6,4.6,2.6L135.4,87.8z"/>
		</g>
		<g>
			<path fill="#FFF1DC" d="M133.4,88c0.2,2-1.4,4.2-3.8,4.5l-37.7,4.4c-2.4,0.3-5.2-1.4-5.4-3.4l-4.5-39.2c-0.2-2,2.2-3.4,4.6-3.6
				l37.7-4.4c2.4-0.3,4.4,0.6,4.6,2.6L133.4,88z"/>
		</g>
		<g>
			<path fill="#432C31" d="M101.3,71.8c0.4,3.4-0.4,6.4-1.8,6.5c-1.4,0.2-2.8-2.5-3.2-5.9c-0.4-3.4,0.4-6.4,1.8-6.5
				C99.5,65.7,100.9,68.3,101.3,71.8z"/>
		</g>
		<g>
			<path fill="#432C31" d="M123.8,69.1c0.4,3.4-0.4,6.4-1.8,6.5c-1.4,0.2-2.8-2.5-3.2-5.9c-0.4-3.4,0.4-6.4,1.8-6.5
				C122,63,123.4,65.7,123.8,69.1z"/>
		</g>
		<g opacity="0.2">
			<path fill="#607132" d="M93.6,104.2c-1.2,2.5-0.3,6,2.1,7.8l11.4,8.7c2.4,1.8,5.3,1.3,6.5-1.2l0,0c1.2-2.5,0.3-6-2.1-7.8
				l-11.4-8.7C97.7,101.2,94.8,101.8,93.6,104.2L93.6,104.2z"/>
		</g>
		<g>
			<path fill="#607132" d="M104.5,113.7c-0.9,1.8-0.2,4.4,1.5,5.7c1.7,1.3,3.9,0.9,4.8-0.9c0.9-1.8,0.2-4.4-1.5-5.7
				C107.5,111.5,105.4,111.9,104.5,113.7z"/>
		</g>
		<g>
			<path fill="#607132" d="M95,106.4c-0.9,1.8-0.2,4.4,1.5,5.7c1.7,1.3,3.9,0.9,4.8-0.9c0.9-1.8,0.2-4.4-1.5-5.7
				C98.1,104.2,95.9,104.6,95,106.4z"/>
		</g>
		<g>
			<path fill="#F47E67" d="M105.7,113.2c-0.9,1.8-0.2,4.4,1.5,5.7c1.7,1.3,3.9,0.9,4.8-0.9c0.9-1.8,0.2-4.4-1.5-5.7
				C108.8,110.9,106.6,111.3,105.7,113.2z"/>
		</g>
		<g>
			<path fill="#F47E67" d="M96.3,105.9c-0.9,1.8-0.2,4.4,1.5,5.7c1.7,1.3,3.9,0.9,4.8-0.9c0.9-1.8,0.2-4.4-1.5-5.7
				C99.3,103.7,97.2,104.1,96.3,105.9z"/>
		</g>
		<g>
			<g>
				<path fill="#465224" d="M134,105.7l-3.4,0.4l-0.5-4c-0.1-0.8-0.7-1.4-1.4-1.3l-3.6,0.4c-0.7,0.1-1.2,0.8-1.1,1.6l0.5,4l-3.4,0.4
					c-0.7,0.1-1.2,0.8-1.1,1.6l0.5,4.2c0.1,0.8,0.7,1.4,1.4,1.3l3.4-0.4l0.5,4c0.1,0.8,0.7,1.4,1.4,1.3l3.6-0.4
					c0.7-0.1,1.2-0.8,1.1-1.6l-0.5-4l3.4-0.4c0.7-0.1,1.2-0.8,1.1-1.6l-0.5-4.2C135.3,106.2,134.7,105.6,134,105.7z"/>
			</g>
			<g>
				<path fill="#697736" d="M135.3,105.6l-3.4,0.4l-0.5-4c-0.1-0.8-0.7-1.4-1.4-1.3l-3.6,0.4c-0.7,0.1-1.2,0.8-1.1,1.6l0.5,4
					l-3.4,0.4c-0.7,0.1-1.2,0.8-1.1,1.6l0.5,4.2c0.1,0.8,0.7,1.4,1.4,1.3l3.4-0.4l0.5,4c0.1,0.8,0.7,1.4,1.4,1.3l3.6-0.4
					c0.7-0.1,1.2-0.8,1.1-1.6l-0.5-4l3.4-0.4c0.7-0.1,1.2-0.8,1.1-1.6l-0.5-4.2C136.7,106.1,136,105.5,135.3,105.6z"/>
			</g>
		</g>
	</g>
	<g>
		<g>
			<path fill="#713131" d="M85.3,140.1c3.1-0.4,5.6-1.5,7.5-3.3c6.4-6.1,4.7-18.5,2.8-31.6c-0.1-1-0.3-2-0.4-3.1
				c-0.9-6.4-3.5-10.8-7.7-13.1c-7.2-4-16.3-0.1-16.7,0.1l2,4.4c0.1,0,7.3-3.2,12.4-0.3c2.8,1.6,4.5,4.8,5.2,9.5
				c0.1,1,0.3,2,0.4,3.1c1.6,11.3,3.3,23-1.4,27.4c-2.2,2.1-6.2,2.6-11.8,1.6l-0.9,4.8C80,140.2,82.8,140.4,85.3,140.1z"/>
		</g>
	</g>
	<g>
		<g>
			<path fill="#333333" d="M92,126.5c0.2,0,0.4-0.1,0.6-0.1c2.2-0.4,3.9-1.7,5-3.6c3.3-6.2-1.2-18-1.7-19.4l-4.5,1.8
				c1.7,4.2,3.7,12.1,2,15.3c-0.4,0.7-0.9,1-1.7,1.2c-0.9,0.2-1.7,0-2.5-0.6c-5.3-3.6-9-18.1-10-23.4l-4.8,0.9
				c0.4,2.1,4.1,21.1,12,26.5C88.2,126.2,90.1,126.7,92,126.5z"/>
		</g>
	</g>
	<g>
		<path fill="#333333" d="M155,115.4c1-1.3,3.3-4.4-12-19.3l-3.4,3.5c5.9,5.7,11,12,11.2,13.7c0-0.1,0-0.5,0.3-0.8L155,115.4z"/>
	</g>
	<g>
		<path fill="#8A4141" d="M53.4,136.2c0.7,6,6.2,10.3,12.2,9.6l0,0c6-0.7,10.3-6.2,9.6-12.2l-4.2-35.8c-0.7-6-6.2-10.3-12.2-9.6l0,0
			c-6,0.7-10.3,6.2-9.6,12.2L53.4,136.2z"/>
	</g>
	<g>
		<g>
			<path fill="#713131" d="M74.4,139.8l4.8-0.6l-5-42.3c-0.9-7.9-8.1-13.5-16-12.6c-7.9,0.9-13.5,8.1-12.6,16l1.2,9.9l4.8-0.6
				l-1.2-9.9c-0.6-5.2,3.1-10,8.3-10.6c5.2-0.6,10,3.1,10.6,8.3L74.4,139.8z"/>
		</g>
	</g>
</g>
</svg>
