<?xml version="1.0" encoding="utf-8"?>
<!-- Generator: Adobe Illustrator 18.1.1, SVG Export Plug-In . SVG Version: 6.00 Build 0)  -->
<svg version="1.0" id="Layer_1" xmlns="http://www.w3.org/2000/svg" xmlns:xlink="http://www.w3.org/1999/xlink" x="0px" y="0px"
	 viewBox="0 0 972.8 286" enable-background="new 0 0 972.8 286" xml:space="preserve">
<g>
	<rect x="458.1" y="0" fill="#F6EFDF" width="339.4" height="223.5"/>
	<rect x="464.6" y="5" fill="#E49874" width="339.4" height="223.5"/>
	<rect x="458.1" y="0" fill="#F6EFDF" width="339.4" height="223.5"/>
	<rect x="467.2" y="8" fill="#07888C" width="321.2" height="207.5"/>
	<rect x="467.2" y="8" fill="#056065" width="321.2" height="7.2"/>
</g>
<g>
	<g>
		<g>
			<polygon fill="#06528B" points="957.6,185.5 943.1,187.2 943.8,193.6 947.6,193.2 951.1,192.8 			"/>
		</g>
		<g>
			<g>
				<path fill="#0467A8" d="M900.3,244.7c-2.8,0.3-5.1-0.1-7.2-1.3c-6.8-4-7.9-15.1-9-26.8c-0.1-0.9-0.2-1.8-0.3-2.7
					c-0.5-5.7,0.8-10.1,3.9-12.9c5.4-5,14.2-3.4,14.5-3.4l-0.8,4.2c-0.1,0-7-1.2-10.8,2.3c-2.1,1.9-2.9,5.1-2.5,9.3
					c0.1,0.9,0.2,1.8,0.3,2.8c0.9,10.2,1.9,20.7,6.8,23.5c2.4,1.4,5.9,1,10.5-1.1l1.8,3.9C904.9,243.8,902.5,244.5,900.3,244.7z"/>
			</g>
		</g>
		<g>
			<path fill="#333333" d="M934.4,283.7c0.5-7.8-1.7-39.6-1.8-41l-4.8,0.3c0,0.3,2.2,32.9,1.8,40.4L934.4,283.7z"/>
		</g>
		<g>
			<path fill="#333333" d="M917.3,283.9c0.7-7.8-0.6-39.7-0.6-41l-4.8,0.2c0,0.3,1.3,32.9,0.6,40.4L917.3,283.9z"/>
		</g>
		<g>
			<path fill="#333333" d="M857.3,194.6c6.9,3.8,36.6,15.3,37.9,15.8l1.8-4.5c-0.3-0.1-30.7-12-37.3-15.6L857.3,194.6z"/>
		</g>
		<g>
			<path fill="#697736" d="M891.9,252.5c0.2,2.1,1.9,3.3,4,3l54.2-6.5c2.1-0.3,5-2,4.7-4.1l-10.6-88.7c-0.2-2.1-3.4-3.3-5.6-3
				l-54.2,6.5c-2.1,0.3-3.4,2-3.2,4.1L891.9,252.5z"/>
		</g>
		<g>
			<path fill="#A1BF3C" d="M891.9,251.9c0.2,2,1.6,4,3.7,3.7l47.3-5.6c2.2-0.3,4.9-2.6,4.7-4.7l-10.7-89.5c-0.2-2-3.2-1.9-5.4-1.6
				l-47.3,5.6c-2.2,0.3-3.2,0.6-3,2.6L891.9,251.9z"/>
		</g>
		<g>
			<path fill="#607132" d="M892.9,204.3c0.2,1.8,2.1,3.3,4.2,3.1l33.6-4c2.1-0.3,4.2-2.3,4-4.1l-4.2-34.9c-0.2-1.8-2.6-2.5-4.7-2.2
				l-33.6,4c-2.1,0.3-3.7,1.4-3.5,3.2L892.9,204.3z"/>
		</g>
		<g>
			<path fill="#738140" d="M892.9,204.3c0.2,1.8,2.1,3.3,4.2,3.1l33.6-4c2.1-0.3,4.2-2.3,4-4.1l-4.2-34.9c-0.2-1.8-2.6-2.5-4.7-2.2
				l-33.6,4c-2.1,0.3-3.7,1.4-3.5,3.2L892.9,204.3z"/>
		</g>
		<g>
			<path fill="#FFEED8" d="M894.7,204.1c0.2,1.8,2.1,3.3,4.2,3.1l33.6-4c2.1-0.3,4.2-2.3,4-4.1l-4.2-34.9c-0.2-1.8-2.6-2.5-4.7-2.2
				l-33.6,4c-2.1,0.3-3.7,1.4-3.5,3.2L894.7,204.1z"/>
		</g>
		<g>
			<path fill="#432C31" d="M920.8,186.9c0.4,3.1,1.7,5.4,2.9,5.3c1.2-0.1,1.9-2.7,1.6-5.8c-0.4-3.1-1.7-5.4-2.9-5.3
				C921.1,181.2,920.4,183.8,920.8,186.9z"/>
		</g>
		<g>
			<path fill="#432C31" d="M900.7,189.2c0.4,3.1,1.7,5.4,2.9,5.3c1.2-0.1,2-2.7,1.6-5.8c-0.4-3.1-1.7-5.4-2.9-5.3
				C901.1,183.6,900.4,186.2,900.7,189.2z"/>
		</g>
		<g opacity="0.2">
			<path fill="#607132" d="M932.5,209.9c1.6,1.9,1.5,5.1-0.2,7.2l-8.1,9.9c-1.7,2.1-4.3,2.2-5.9,0.3l0,0c-1.6-1.9-1.5-5.1,0.2-7.2
				l8.1-9.9C928.3,208.1,930.9,208,932.5,209.9L932.5,209.9z"/>
		</g>
		<g>
			<path fill="#607132" d="M925,220.4c1.2,1.4,1.1,3.8-0.1,5.3c-1.2,1.5-3.2,1.6-4.3,0.2c-1.2-1.4-1.1-3.8,0.1-5.3
				C921.9,219.1,923.9,219,925,220.4z"/>
		</g>
		<g>
			<path fill="#607132" d="M931.7,212.1c1.2,1.4,1.1,3.8-0.1,5.3c-1.2,1.5-3.2,1.6-4.3,0.2c-1.2-1.4-1.1-3.8,0.1-5.3
				C928.6,210.8,930.6,210.7,931.7,212.1z"/>
		</g>
		<g>
			<path fill="#F47E67" d="M923.8,220.2c1.2,1.4,1.1,3.8-0.1,5.3c-1.2,1.5-3.2,1.6-4.3,0.2c-1.2-1.4-1.1-3.8,0.1-5.3
				C920.7,218.8,922.7,218.7,923.8,220.2z"/>
		</g>
		<g>
			<path fill="#F47E67" d="M930.5,211.9c1.2,1.4,1.1,3.8-0.1,5.3c-1.2,1.5-3.2,1.6-4.3,0.2c-1.2-1.4-1.1-3.8,0.1-5.3
				C927.4,210.6,929.4,210.5,930.5,211.9z"/>
		</g>
		<g>
			<g>
				<path fill="#465224" d="M897.8,219.5l3-0.4l-0.4-3.5c-0.1-0.7,0.3-1.4,0.9-1.4l3.2-0.4c0.6-0.1,1.2,0.4,1.3,1.2l0.4,3.5l3-0.4
					c0.6-0.1,1.2,0.5,1.3,1.2l0.4,3.7c0.1,0.7-0.3,1.4-1,1.4l-3,0.4l0.4,3.5c0.1,0.7-0.3,1.4-1,1.4l-3.2,0.4
					c-0.6,0.1-1.2-0.5-1.3-1.2l-0.4-3.6l-3,0.4c-0.6,0.1-1.2-0.4-1.3-1.2l-0.4-3.7C896.8,220.3,897.2,219.6,897.8,219.5z"/>
			</g>
			<g>
				<path fill="#607132" d="M896.6,219.7l3-0.4l-0.4-3.6c-0.1-0.7,0.3-1.4,1-1.4l3.2-0.4c0.6-0.1,1.2,0.4,1.3,1.2l0.4,3.6l3-0.4
					c0.6-0.1,1.2,0.5,1.3,1.2l0.4,3.7c0.1,0.7-0.3,1.4-1,1.4l-3,0.4l0.4,3.5c0.1,0.7-0.3,1.4-1,1.4l-3.2,0.4
					c-0.6,0.1-1.2-0.4-1.3-1.2l-0.4-3.6l-3,0.4c-0.6,0.1-1.2-0.5-1.3-1.2l-0.4-3.7C895.6,220.4,896,219.8,896.6,219.7z"/>
			</g>
		</g>
		<g>
			<g>
				<path fill="#0467A8" d="M947.2,239.3c-2.8,0.3-5.1-0.1-7.2-1.3c-6.8-4-7.9-15.1-9-26.8c-0.1-0.9-0.2-1.8-0.3-2.7
					c-0.5-5.7,0.8-10.1,3.9-12.9c5.4-5,14.2-3.4,14.5-3.4l-0.8,4.2c-0.1,0-7-1.2-10.8,2.3c-2.1,1.9-2.9,5.1-2.5,9.3
					c0.1,0.9,0.2,1.8,0.3,2.8c0.9,10.2,1.9,20.7,6.8,23.5c2.4,1.4,5.9,1,10.5-1.1l1.8,3.9C951.8,238.3,949.4,239,947.2,239.3z"/>
			</g>
		</g>
		<g>
			<path fill="#3681C3" d="M972.6,229.5c0.6,5.4-3.2,10.2-8.6,10.9l0,0c-5.4,0.6-10.2-3.2-10.9-8.6l-3.7-31.9
				c-0.6-5.4,3.2-10.2,8.6-10.9l0,0c5.4-0.6,10.2,3.2,10.9,8.6L972.6,229.5z"/>
		</g>
		<g>
			<g>
				<path fill="#0467A8" d="M955,236.9l-4.3,0.5l-4.4-37.7c-0.8-7,4.2-13.4,11.2-14.2c7-0.8,13.4,4.2,14.2,11.2l1,8.8l-4.3,0.5
					l-1-8.8c-0.5-4.7-4.8-8-9.4-7.5c-4.7,0.5-8,4.8-7.5,9.4L955,236.9z"/>
			</g>
		</g>
		<g>
			<g>
				<g>
					<polygon fill="#FFFFFF" points="927.1,193.7 908,197 888.5,198.5 888,202.2 928.5,197.2 					"/>
				</g>
				<g>
					<path fill="#E8314A" d="M908,197.9l3.3,26.6c0,0,0,0,0,0.1c0,0.1,0,0.1,0,0.2c0.3,1.3,1.5,2.2,2.8,2l17.4-4.2l-3.3-26.6
						l-17.5,3.1C909.7,199.3,908.6,198.8,908,197.9z"/>
				</g>
				<g>
					<path fill="#E8314A" d="M908.1,197.9l3.3,26.6c0,0,0,0.1,0,0.1c0,0.1,0,0.1,0,0.2c0,1.3-0.9,2.5-2.3,2.7l-17.9,0.1l-3.3-26.6
						l17.8-1.2C906.8,199.7,907.7,198.9,908.1,197.9z"/>
				</g>
				<g>
					<path fill="#221526" d="M911.4,224.8c0,0.9-0.4,1.8-1.2,2.3l-3.4-27.6c0.6-0.3,1-0.9,1.3-1.5l3.3,26.6c0,0,0,0.1,0,0.1
						C911.3,224.7,911.3,224.7,911.4,224.8z"/>
				</g>
			</g>
			<g>
				<g>
					<path fill="#FFFFFF" d="M913.6,210.5c-0.2,0-0.4,0-0.6,0c-0.2,0-0.4-0.1-0.6-0.2c-0.2-0.1-0.3-0.2-0.5-0.4
						c-0.1-0.2-0.2-0.4-0.3-0.6c-0.1-0.3,0-0.5,0-0.8c0.1-0.3,0.2-0.5,0.3-0.7c0.2-0.2,0.4-0.4,0.6-0.6c0.2-0.2,0.5-0.3,0.9-0.3
						c0.2,0,0.3,0,0.5,0c0.2,0,0.3,0,0.4,0.1c0.1,0,0.2,0.1,0.3,0.1c0.1,0.1,0.2,0.1,0.3,0.2l-0.5,0.7c-0.1-0.1-0.3-0.1-0.4-0.2
						c-0.1,0-0.3,0-0.5,0c-0.2,0-0.3,0.1-0.4,0.2c-0.1,0.1-0.2,0.2-0.3,0.3c-0.1,0.1-0.1,0.3-0.2,0.4c0,0.2,0,0.3,0,0.5
						c0,0.1,0.1,0.2,0.1,0.3c0.1,0.1,0.1,0.1,0.2,0.2c0.1,0,0.2,0.1,0.3,0.1c0.1,0,0.2,0,0.3,0c0.1,0,0.2,0,0.2-0.1
						c0.1,0,0.1-0.1,0.2-0.1l0-0.5l-0.7,0.1l0-0.7l1.6-0.3l-0.2,1.8c-0.1,0.1-0.3,0.2-0.5,0.3C914.1,210.3,913.8,210.4,913.6,210.5z
						"/>
				</g>
				<g>
					<path fill="#FFFFFF" d="M917.1,209.8c-0.4,0.1-0.8,0-1.1-0.1c-0.3-0.2-0.5-0.4-0.5-0.8c0-0.1,0-0.2,0-0.3c0-0.1,0-0.2,0-0.3
						l0.1-1.8l0.9-0.2l-0.1,1.9c0,0.1,0,0.1,0,0.2c0,0.1,0,0.1,0,0.2c0,0.2,0.1,0.3,0.2,0.3c0.1,0.1,0.2,0.1,0.4,0.1
						c0.2,0,0.3-0.1,0.4-0.3c0.1-0.1,0.1-0.2,0.1-0.3c0-0.1,0-0.2,0.1-0.4l0.2-2l0.9-0.2l-0.2,2.1c0,0.5-0.1,0.8-0.3,1.1
						c-0.1,0.2-0.3,0.3-0.5,0.4C917.5,209.7,917.3,209.7,917.1,209.8z"/>
				</g>
				<g>
					<path fill="#FFFFFF" d="M919.3,205.8l0.9-0.2l-0.3,3.6l-0.9,0.2L919.3,205.8z"/>
				</g>
				<g>
					<path fill="#FFFFFF" d="M920.9,205.5l1.1-0.2c0.3-0.1,0.6-0.1,0.8,0c0.2,0,0.4,0.1,0.6,0.2c0.3,0.2,0.5,0.5,0.6,0.9
						c0,0.3,0,0.5,0,0.7c-0.1,0.2-0.1,0.5-0.3,0.7c-0.2,0.2-0.4,0.4-0.7,0.6c-0.3,0.2-0.6,0.3-1,0.4l-1.4,0.3L920.9,205.5z
						 M921.9,207.9c0.2,0,0.4-0.1,0.5-0.2c0.2-0.1,0.3-0.2,0.4-0.3c0.1-0.1,0.1-0.2,0.2-0.4c0-0.1,0-0.3,0-0.4
						c0-0.1-0.1-0.2-0.1-0.3c0-0.1-0.1-0.1-0.2-0.2c-0.1-0.1-0.2-0.1-0.3-0.1c-0.1,0-0.3,0-0.4,0l-0.3,0.1l-0.1,1.8L921.9,207.9z"/>
				</g>
				<g>
					<path fill="#FFFFFF" d="M924.5,204.8l2.7-0.5l-0.1,0.8l-1.8,0.3l0,0.5l1.6-0.3l-0.1,0.8l-1.6,0.3l0,0.6l1.8-0.3l-0.1,0.8
						l-2.7,0.5L924.5,204.8z"/>
				</g>
				<g>
					<path fill="#FFFFFF" d="M913.5,212.9l1.4-0.3c0.2,0,0.4-0.1,0.6,0c0.2,0,0.3,0.1,0.4,0.1c0.1,0.1,0.2,0.1,0.3,0.2
						c0.1,0.1,0.1,0.2,0.1,0.3c0,0.2,0,0.4-0.1,0.6c-0.1,0.2-0.3,0.3-0.5,0.4c0.2,0,0.3,0.1,0.4,0.2c0.1,0.1,0.2,0.2,0.2,0.4
						c0,0.1,0,0.3,0,0.4c0,0.1-0.1,0.3-0.2,0.4c-0.1,0.1-0.3,0.2-0.4,0.3c-0.2,0.1-0.4,0.2-0.7,0.2l-1.8,0.3L913.5,212.9z
						 M914.9,215.4c0.2,0,0.3-0.1,0.4-0.2c0.1-0.1,0.1-0.2,0.1-0.3c0-0.2-0.2-0.2-0.5-0.2l-0.6,0.1l0,0.7L914.9,215.4z M915,214
						c0.2,0,0.3-0.1,0.4-0.2c0.1-0.1,0.1-0.2,0.1-0.3c0-0.1-0.1-0.1-0.1-0.2c-0.1,0-0.2,0-0.3,0l-0.6,0.1l0,0.6L915,214z"/>
				</g>
				<g>
					<path fill="#FFFFFF" d="M918.7,215.5c-0.2,0-0.5,0-0.7,0c-0.2,0-0.4-0.1-0.6-0.2c-0.2-0.1-0.3-0.2-0.4-0.4
						c-0.1-0.2-0.2-0.4-0.2-0.6c0-0.3,0-0.5,0-0.8c0.1-0.3,0.2-0.5,0.3-0.7c0.1-0.2,0.3-0.4,0.6-0.6c0.2-0.2,0.5-0.3,0.8-0.3
						c0.2,0,0.5,0,0.7,0c0.2,0,0.4,0.1,0.6,0.2c0.2,0.1,0.3,0.2,0.4,0.4c0.1,0.2,0.2,0.4,0.2,0.6c0,0.3,0,0.5,0,0.8
						c-0.1,0.3-0.2,0.5-0.3,0.7c-0.1,0.2-0.3,0.4-0.6,0.6C919.2,215.3,918.9,215.4,918.7,215.5z M918.6,214.6c0.1,0,0.3-0.1,0.4-0.2
						c0.1-0.1,0.2-0.2,0.3-0.3c0.1-0.1,0.1-0.2,0.1-0.4c0-0.1,0-0.3,0-0.4c0-0.1-0.1-0.2-0.1-0.3c0-0.1-0.1-0.2-0.2-0.2
						c-0.1-0.1-0.2-0.1-0.3-0.1c-0.1,0-0.2,0-0.3,0c-0.1,0-0.3,0.1-0.4,0.2c-0.1,0.1-0.2,0.2-0.3,0.3c-0.1,0.1-0.1,0.2-0.1,0.4
						c0,0.1,0,0.3,0,0.4c0,0.1,0.1,0.2,0.1,0.3c0,0.1,0.1,0.2,0.2,0.2c0.1,0.1,0.2,0.1,0.3,0.1C918.4,214.7,918.5,214.7,918.6,214.6
						z"/>
				</g>
				<g>
					<path fill="#FFFFFF" d="M922.6,214.8c-0.2,0-0.5,0-0.7,0c-0.2,0-0.4-0.1-0.6-0.2c-0.2-0.1-0.3-0.2-0.4-0.4
						c-0.1-0.2-0.2-0.4-0.2-0.6c0-0.3,0-0.5,0-0.8c0.1-0.3,0.2-0.5,0.3-0.7c0.1-0.2,0.3-0.4,0.6-0.6c0.2-0.2,0.5-0.3,0.8-0.3
						c0.2,0,0.5,0,0.7,0c0.2,0,0.4,0.1,0.6,0.2c0.2,0.1,0.3,0.2,0.4,0.4c0.1,0.2,0.2,0.4,0.2,0.6c0,0.3,0,0.5,0,0.8
						c-0.1,0.3-0.2,0.5-0.3,0.7c-0.1,0.2-0.3,0.4-0.6,0.6C923.1,214.6,922.9,214.7,922.6,214.8z M922.5,213.9c0.1,0,0.3-0.1,0.4-0.2
						c0.1-0.1,0.2-0.2,0.3-0.3c0.1-0.1,0.1-0.2,0.1-0.4c0-0.1,0-0.3,0-0.4c0-0.1-0.1-0.2-0.1-0.3c0-0.1-0.1-0.2-0.2-0.2
						c-0.1-0.1-0.2-0.1-0.3-0.1c-0.1,0-0.2,0-0.3,0c-0.1,0-0.3,0.1-0.4,0.2c-0.1,0.1-0.2,0.2-0.3,0.3c-0.1,0.1-0.1,0.2-0.1,0.4
						c0,0.1,0,0.3,0,0.4c0,0.1,0.1,0.2,0.1,0.3c0.1,0.1,0.1,0.2,0.2,0.2c0.1,0.1,0.2,0.1,0.3,0.1
						C922.3,213.9,922.4,213.9,922.5,213.9z"/>
				</g>
				<g>
					<path fill="#FFFFFF" d="M924.9,210.8l0.9-0.2l-0.1,1.4l1.1-1.6l1.2-0.2l-1.3,1.8l1.1,1.8l-1,0.2l-0.7-1.2l-0.5,0.6l-0.1,0.8
						l-0.9,0.2L924.9,210.8z"/>
				</g>
			</g>
		</g>
		<g>
			<g>
				<path fill="#333333" d="M933.5,228.3c-4.4,0.5-8.9-2.6-13.5-9.3l4.1-2.8c3.6,5.1,6.8,7.7,9.2,7.1c4.7-1.1,8.5-13.2,9.8-21.4
					l4.9,0.7c0,0.2-0.8,5.6-2.7,11.4c-2.7,8.3-6.4,13.1-10.8,14.1C934.2,228.2,933.9,228.2,933.5,228.3z"/>
			</g>
		</g>
	</g>
	<g>
		<g opacity="0.2">
			<g>
				<defs>
					<rect id="SVGID_1_" x="800.8" y="66" width="130.3" height="96.8"/>
				</defs>
				<clipPath id="SVGID_2_">
					<use xlink:href="#SVGID_1_"  overflow="visible"/>
				</clipPath>
				<path clip-path="url(#SVGID_2_)" fill="#231F20" d="M800.8,107.5c0-22.9,29.2-41.5,65.1-41.5c36,0,65.1,18.6,65.1,41.5
					c0,22.1-27,40-61.1,41.4c-2.2,8.4-4,14-4,14s-16.4-7-31.4-19C814.4,136.8,800.8,123.2,800.8,107.5"/>
			</g>
		</g>
		<path fill="#FFFFFF" d="M807.3,100.1c0,34.5,55.4,58.1,55.4,58.1s30.6-96.8,0-96.8C832,61.4,807.3,78.7,807.3,100.1"/>
		<path fill="#FFFFFF" d="M797.5,102.9c0,22.9,29.2,41.5,65.1,41.5c36,0,65.1-18.6,65.1-41.5c0-22.9-29.2-41.5-65.1-41.5
			C826.6,61.4,797.5,80,797.5,102.9"/>
		<rect x="758.4" y="33.8" fill="none" width="208.4" height="147.5"/>
		<rect x="758.4" y="33.8" fill="none" width="208.4" height="147.5"/>
	</g>
	<rect x="796.6" y="87.8" fill="none" width="132.7" height="31.2"/>
	<text transform="matrix(1 0 0 1 832.7593 100.2998)"><tspan x="0" y="0" fill="#057492" font-family="'Avenir-Black'" font-size="16.5751">WAIT A </tspan><tspan x="-6.6" y="17.4" fill="#057492" font-family="'Avenir-Black'" font-size="16.5751">MINUTE!</tspan></text>
</g>
<rect x="507.3" y="54.4" fill="none" width="243.3" height="87.7"/>
<text transform="matrix(1 0 0 1 523.0273 69.5254)"><tspan x="0" y="0" fill="#9ED8D5" font-family="'Avenir-Black'" font-size="20">DO YOU HAVE MORE </tspan><tspan x="1.6" y="24" fill="#9ED8D5" font-family="'Avenir-Black'" font-size="20">QUESTIONS FOR US?</tspan><tspan x="64.3" y="57.2" fill="#FFFFFF" font-family="'Avenir-Black'" font-size="16">EMAIL US!</tspan></text>
<g>
	<g>
		<rect x="84" y="25.5" fill="#F6EFDF" width="216" height="248"/>
		<rect x="94" y="36.5" fill="#D79755" width="193" height="237"/>
		<rect x="104" y="41.5" fill="#78CDCE" width="88" height="232"/>
		<rect x="193" y="41.5" fill="#EED7AF" width="87" height="232"/>
		<polygon fill="#EED7AF" points="165,273.5 104,273.5 104,41.1 165,58.5 		"/>
		<polygon fill="#6F542E" points="95.6,36.5 102.6,44.5 277.4,44.5 288.1,36.5 		"/>
		<rect x="186" y="44.5" fill="#AF8B5A" width="10" height="229"/>
		<g>
			<path fill="#FFFFFF" d="M209.6,110.8c0-13.4,11.3-24.3,25.2-24.3c13.9,0,25.2,10.9,25.2,24.3c0,13.4-11.3,24.3-25.2,24.3
				C220.9,135.1,209.6,124.2,209.6,110.8z"/>
			<path fill="#D4D4D4" d="M214,110.8c0-11.1,9.3-20,20.8-20c11.5,0,20.8,9,20.8,20c0,11.1-9.3,20-20.8,20
				C223.3,130.8,214,121.8,214,110.8z"/>
			<path fill="#68CAD9" d="M216.4,110.8c0-9.8,8.2-17.7,18.4-17.7c10.2,0,18.4,7.9,18.4,17.7c0,9.8-8.2,17.7-18.4,17.7
				C224.7,128.5,216.4,120.5,216.4,110.8z"/>
		</g>
	</g>
	<rect x="300" y="26.2" fill="#E49874" width="6.3" height="247.3"/>
</g>
<g>
	<g>
		<path fill="#7DAF43" d="M38.2,247.1c0,0-6.3-20.8-8.1-36.1c-1.9-15.2-11.3-24.5-18.2-29.2c1.8,17.3-1.7,27.1,4,34.6
			C21.5,224,38.2,247.1,38.2,247.1z"/>
		<path fill="#697736" d="M41.5,239.1c0,0-3.1,1.8,3.5-14.1c6.6-15.9,0.5-37.3,0.5-37.3s-12.7,8.2-12.2,21.6
			c0.5,13.4-0.1,22,1.1,28.1C35.7,243.4,41.5,239.1,41.5,239.1z"/>
		<path fill="#7DAF43" d="M41.6,244.1c0,0-4.7-9.9,10-11.7c14.8-1.8,20.7-11.8,23-18c-8.5,3.2-18.7,1.2-20.2,2.8
			C53,218.8,35.7,235.4,41.6,244.1z"/>
		<path fill="#697736" d="M31.5,243.6c0,0,1.2-10.2-8.5-10.7c-9.7-0.5-20.3-11.5-23-17.4c6,2.4,15.7,3.5,18.8,4.7
			C20.5,220.9,33.6,234.6,31.5,243.6z"/>
	</g>
	<path fill="#553A3D" d="M14.3,237.5c8.9,0,17.1,0,21.3,0c0,0,1.1,0,3.1,0c4.3,0,12.7,0,21.7,0c9.2,9-4.3,46-4.3,46H38.6h-3.1h-17
		C18.6,283.5,5.1,246.5,14.3,237.5z"/>
	<path fill="#432C31" d="M66.7,244.4c-0.4,1.1-1.7,2.1-2.9,2.1H10.4c-1.2,0-2.5-1-2.9-2.1l-1.9-5.7c-0.4-1.1,0.3-2.1,1.5-2.1h60
		c1.2,0,1.9,1,1.5,2.1L66.7,244.4z"/>
</g>
<g>
	<g>
		<path fill="#7DAF43" d="M489.2,245.1c0,0-6.3-20.8-8.1-36.1c-1.9-15.2-11.3-24.5-18.2-29.2c1.8,17.3-1.7,27.1,4,34.6
			C472.5,222,489.2,245.1,489.2,245.1z"/>
		<path fill="#697736" d="M492.5,237.1c0,0-3.1,1.8,3.5-14.1c6.6-15.9,0.5-37.3,0.5-37.3s-12.7,8.2-12.2,21.6
			c0.5,13.4-0.1,22,1.1,28.1C486.7,241.4,492.5,237.1,492.5,237.1z"/>
		<path fill="#7DAF43" d="M492.6,242.1c0,0-4.7-9.9,10-11.7c14.8-1.8,20.7-11.8,23-18c-8.5,3.2-18.7,1.2-20.2,2.8
			C504,216.8,486.7,233.4,492.6,242.1z"/>
		<path fill="#697736" d="M482.5,241.6c0,0,1.2-10.2-8.5-10.7c-9.7-0.5-20.3-11.5-23-17.4c6,2.4,15.7,3.5,18.8,4.7
			C471.5,218.9,484.6,232.6,482.5,241.6z"/>
	</g>
	<path fill="#553A3D" d="M465.3,235.5c8.9,0,17.1,0,21.3,0c0,0,1.1,0,3.1,0c4.3,0,12.7,0,21.7,0c9.2,9-4.3,46-4.3,46h-17.3h-3.1h-17
		C469.6,281.5,456.1,244.5,465.3,235.5z"/>
	<path fill="#432C31" d="M517.7,242.4c-0.4,1.1-1.7,2.1-2.9,2.1h-53.5c-1.2,0-2.5-1-2.9-2.1l-1.9-5.7c-0.4-1.1,0.3-2.1,1.5-2.1h60
		c1.2,0,1.9,1,1.5,2.1L517.7,242.4z"/>
</g>
<g>
	<g>
		<path fill="#7DAF43" d="M806.2,247.1c0,0-6.3-20.8-8.1-36.1c-1.9-15.2-11.3-24.5-18.2-29.2c1.8,17.3-1.7,27.1,4,34.6
			C789.5,224,806.2,247.1,806.2,247.1z"/>
		<path fill="#697736" d="M809.5,239.1c0,0-3.1,1.8,3.5-14.1c6.6-15.9,0.5-37.3,0.5-37.3s-12.7,8.2-12.2,21.6
			c0.6,13.4-0.1,22,1.1,28.1C803.7,243.4,809.5,239.1,809.5,239.1z"/>
		<path fill="#7DAF43" d="M809.6,244.1c0,0-4.7-9.9,10-11.7c14.8-1.8,20.7-11.8,23-18c-8.5,3.2-18.7,1.2-20.2,2.8
			C821,218.8,803.7,235.4,809.6,244.1z"/>
		<path fill="#697736" d="M799.5,243.6c0,0,1.2-10.2-8.5-10.7c-9.7-0.5-20.3-11.5-23-17.4c6,2.4,15.7,3.5,18.8,4.7
			C788.5,220.9,801.6,234.6,799.5,243.6z"/>
	</g>
	<path fill="#553A3D" d="M782.3,237.5c8.9,0,17.1,0,21.3,0c0,0,1.1,0,3.1,0c4.3,0,12.7,0,21.7,0c9.2,9-4.3,46-4.3,46h-17.3h-3.1h-17
		C786.6,283.5,773.1,246.5,782.3,237.5z"/>
	<path fill="#432C31" d="M834.7,244.4c-0.4,1.1-1.7,2.1-2.9,2.1h-53.5c-1.2,0-2.5-1-2.9-2.1l-1.9-5.7c-0.4-1.1,0.3-2.1,1.5-2.1h60
		c1.2,0,1.9,1,1.5,2.1L834.7,244.4z"/>
</g>
<g>
	<g>
		<g>
			<circle fill="#FFFFFF" cx="628.8" cy="172.7" r="18.4"/>
		</g>
	</g>
	<g>
		<polygon fill="#66708B" points="628.8,179.6 619.9,170.8 621.6,169.1 628.8,176.3 635.9,169.1 637.6,170.8 		"/>
	</g>
</g>
<g>
	<path fill="#4E4E4E" d="M412.6,155.7h-69.2c-8.1,0-14.7,6.6-14.7,14.7v90.9h98.7v-90.9C427.4,162.3,420.8,155.7,412.6,155.7z"/>
	<path fill="#1A1A1A" d="M432.3,197.5c-8.1,0-14.7,6.6-14.7,14.7V227h-79v-14.7c0-8.1-6.6-14.7-14.7-14.7c-8.1,0-14.7,6.6-14.7,14.7
		v34.4c0,8.1,6.6,14.7,14.7,14.7h108.5c8.1,0,14.7-6.6,14.7-14.7v-34.4C447,204.1,440.4,197.5,432.3,197.5z"/>
	<g>
		<g>
			<polygon fill="#FFFFFF" points="333.6,281.1 328.7,281.1 328.7,261.4 338.5,261.4 			"/>
		</g>
	</g>
	<g>
		<g>
			<polygon fill="#FFFFFF" points="422.4,281.1 427.4,281.1 427.4,261.4 417.5,261.4 			"/>
		</g>
	</g>
</g>
<g>
	<path opacity="0.6" fill="#A0A093" d="M3.8,116.2c0-17.1,13.9-31,31-31s31,13.9,31,31c0,17.1-13.9,31-31,31S3.8,133.3,3.8,116.2z"
		/>
	<path fill="#FFFFFF" d="M4.3,113.6C4.3,96.7,18,83,34.9,83c16.9,0,30.6,13.7,30.6,30.6c0,16.9-13.7,30.6-30.6,30.6
		C18,144.1,4.3,130.5,4.3,113.6z"/>
	<path fill="#EF4449" d="M10.4,113.6c0-13.5,10.9-24.4,24.4-24.4c13.5,0,24.4,10.9,24.4,24.4c0,13.5-10.9,24.4-24.4,24.4
		C21.4,138,10.4,127.1,10.4,113.6z"/>
	<path fill="#62C7C7" d="M13.3,113.6c0-11.9,9.6-21.5,21.5-21.5c11.9,0,21.5,9.6,21.5,21.5c0,11.9-9.6,21.5-21.5,21.5
		C23,135.1,13.3,125.5,13.3,113.6z"/>
	<path fill="#FFFFFF" d="M36.2,102.6c-0.9,0-1.7,0.7-1.7,1.7v9.6h-8.1c-0.7,0-1.3,0.8-1.3,1.7s0.6,1.7,1.3,1.7h9.3
		c0.1,0,0.3,0.1,0.4,0.1c0.1,0,0.3,0,0.4-0.1c0.5,0,0.9-0.4,1.1-0.9c0,0,0-0.1,0-0.1c0,0,0,0,0-0.1c0.1-0.2,0.1-0.3,0.1-0.5v-11.4
		C37.8,103.3,37.1,102.6,36.2,102.6z"/>
</g>
<g>
	<path fill="#1A1A1A" d="M280.9,286l-4.8,0c2.8-18.3-12.4-57.9-12.6-58.3l4.5-1.8C268.8,227.6,283.9,266.4,280.9,286z"/>
	<path fill="#1A1A1A" d="M237.3,285.5h-4.5c2.1-5,2.6-16.6,1.3-31.5c-1-11.5-2.7-21.3-2.7-21.4l4.8-1
		C236.4,233.3,243,272.5,237.3,285.5z"/>
	<path fill="#1A1A1A" d="M181.6,178.7c-7.9,0-16.4-4.5-25.1-13.4l3.5-3.4c9.3,9.4,17.8,13.3,25.4,11.5c13.6-3.3,20.3-23.9,20.3-24.1
		l4.7,1.5c-0.3,1-7.6,23.5-23.8,27.4C184.9,178.5,183.3,178.7,181.6,178.7z"/>
	<path fill="#697736" d="M296.2,233.9L270.7,84.1c-0.4-2.6-2.3-4.7-4-4.7l-63.4,0.4c-0.9,0-6.2,2.8-6.6,3.7c-0.4,0.2-0.7,0.6-1,1
		c-0.4,0.2-0.7,0.6-1,1c-0.4,0.2-0.7,0.6-1,1c-0.4,0.2-0.7,0.6-1,1c-0.4,0.2-0.7,0.6-1,1c-1.1,0.7-1.7,2.4-1.4,4.4l25.7,151
		c0.4,2.6,2.3,4.7,4.1,4.7l63.4-0.4c0.9,0,1.6-0.5,2-1.3c0.4-0.2,0.7-0.6,1-1c0.4-0.2,0.7-0.6,1-1c0.4-0.2,0.7-0.6,1-1
		c0.4-0.2,0.7-0.6,1-1c0.4-0.2,3-2.9,3.3-3.3C293.6,238.4,296.5,236,296.2,233.9z"/>
	<path fill="#A1BF3C" d="M286.1,243.3c0.4,2.6-0.6,4.7-2.4,4.7l-63.4,0.4c-1.8,0-3.6-2.1-4.1-4.7l-25.7-151
		c-0.4-2.6,0.7-4.7,2.4-4.7l63.4-0.4c1.8,0,3.6,2.1,4.1,4.7L286.1,243.3z"/>
	<path fill="#738142" d="M260.3,144.2c0.4,2.1-0.5,3.8-1.9,3.8l-50.4,0.3c-1.4,0-2.9-1.7-3.2-3.7l-6.9-43.9
		c-0.4-2.1,0.5-3.8,1.9-3.8l50.4-0.3c1.4,0,2.9,1.7,3.2,3.7L260.3,144.2z"/>
	<path fill="#F7F0E8" d="M262,144.3c0.4,2.1-0.5,3.8-1.9,3.8l-50.4,0.3c-1.4,0-2.9-1.7-3.2-3.7l-6.9-43.9c-0.3-2.1,0.5-3.8,1.9-3.8
		l50.4-0.3c1.4,0,2.9,1.7,3.2,3.7L262,144.3z"/>
	<path opacity="0.2" fill="#738142" d="M261.3,169.8c2.9,2.7,3.4,6.8,1.3,9.2l-10.3,11.5c-2.1,2.4-6.2,2.1-9-0.6l0,0
		c-2.9-2.7-3.4-6.8-1.3-9.2l10.3-11.5C254.4,166.8,258.5,167.1,261.3,169.8L261.3,169.8z"/>
	<path fill="#738142" d="M250.9,181.2c2.1,2,2.5,5,1,6.8c-1.6,1.8-4.6,1.6-6.7-0.4c-2.1-2-2.5-5-1-6.8
		C245.8,179,248.8,179.2,250.9,181.2z"/>
	<path fill="#738142" d="M259.5,171.6c2.1,2,2.5,5,1,6.8c-1.6,1.8-4.6,1.6-6.7-0.4c-2.1-2-2.5-5-1-6.8
		C254.4,169.4,257.4,169.6,259.5,171.6z"/>
	<path fill="#F06362" d="M249.8,181.3c2.1,2,2.5,5,1,6.8c-1.6,1.8-4.6,1.6-6.7-0.4c-2.1-2-2.5-5-1-6.8
		C244.7,179.2,247.7,179.4,249.8,181.3z"/>
	<path fill="#F06362" d="M258.4,171.8c2.1,2,2.5,5,1,6.8c-1.6,1.8-4.6,1.6-6.7-0.4c-2.1-2-2.5-5-1-6.8
		C253.3,169.6,256.3,169.8,258.4,171.8z"/>
	<path fill="#1A1A1A" d="M272.9,226.4l-4.2-2.5c15.9-27.1,3-77.8,2.9-78.3l4.7-1.2c0.1,0.5,3.4,13.4,4.7,29.9
		C282.7,196.7,280,214.3,272.9,226.4z"/>
	<g>
		<path fill="#4D5927" d="M216.7,181l4,0.2l0.8,4.8c0.2,1,0.9,1.8,1.7,1.8l4.2,0.2c0.8,0,1.3-0.7,1.2-1.7l-0.8-4.8l4,0.2
			c0.8,0,1.3-0.7,1.2-1.7l-0.8-5c-0.2-1-0.9-1.8-1.7-1.8l-4-0.2l-0.8-4.8c-0.2-1-0.9-1.8-1.7-1.8l-4.2-0.2c-0.8,0-1.3,0.7-1.2,1.7
			l0.8,4.8l-4-0.2c-0.8,0-1.3,0.7-1.2,1.7l0.8,5C215.2,180.2,215.9,181,216.7,181z"/>
		<path fill="#697736" d="M214.3,181.7l4,0.2l0.8,4.8c0.2,1,0.9,1.8,1.7,1.8l4.2,0.2c0.8,0,1.3-0.7,1.2-1.7l-0.8-4.8l4,0.2
			c0.8,0,1.3-0.7,1.2-1.7l-0.8-5c-0.2-1-0.9-1.8-1.7-1.8l-4-0.1l-0.8-4.8c-0.2-1-0.9-1.8-1.7-1.8l-4.2-0.2c-0.8,0-1.3,0.7-1.2,1.7
			l0.8,4.8l-4-0.2c-0.8,0-1.3,0.7-1.2,1.7l0.8,5C212.7,180.8,213.5,181.6,214.3,181.7z"/>
	</g>
	<g>
		
			<rect x="221.9" y="130" transform="matrix(0.9981 -6.240245e-02 6.240245e-02 0.9981 -7.7997 14.5368)" fill="#432C31" width="13.9" height="4.3"/>
		
			<rect x="207.8" y="121.3" transform="matrix(0.9981 -6.219910e-02 6.219910e-02 0.9981 -7.2328 13.6665)" fill="#432C31" width="16.1" height="3.4"/>
		
			<rect x="207.8" y="115.5" transform="matrix(0.998 -6.255974e-02 6.255974e-02 0.998 -6.9101 13.7314)" fill="#432C31" width="16.1" height="3.4"/>
		<path fill="#432C31" d="M218.3,120.3c-0.1,1.3-1.2,2.4-2.5,2.3c-1.3-0.1-2.4-1.2-2.3-2.5c0.1-1.3,1.2-2.4,2.5-2.3
			C217.3,117.9,218.3,119,218.3,120.3z"/>
		
			<rect x="232.5" y="120.3" transform="matrix(0.9981 -6.227070e-02 6.227070e-02 0.9981 -7.1369 15.255)" fill="#432C31" width="17.4" height="3.7"/>
		<polygon fill="#432C31" points="249.9,117.2 232.5,118.2 232.3,114.6 249.7,113.5 		"/>
		<path fill="#432C31" d="M243.7,119.2c-0.1,1.4-1.3,2.6-2.7,2.5c-1.4-0.1-2.6-1.3-2.5-2.7c0.1-1.4,1.3-2.6,2.7-2.5
			C242.6,116.6,243.8,117.8,243.7,119.2z"/>
	</g>
</g>
</svg>
