<?xml version="1.0" encoding="utf-8"?>
<!-- Generator: Adobe Illustrator 18.1.1, SVG Export Plug-In . SVG Version: 6.00 Build 0)  -->
<svg version="1.0" id="Layer_1" xmlns="http://www.w3.org/2000/svg" xmlns:xlink="http://www.w3.org/1999/xlink" x="0px" y="0px"
	 viewBox="0 0 220.6 220.6" enable-background="new 0 0 220.6 220.6" xml:space="preserve">
<circle fill="#057492" cx="110.3" cy="110.3" r="110.3"/>
<g>
	<path fill="#06485F" d="M111.7,35.2v146.7h-8.3c0,9.1,6.1,8.7,6.1,8.7h2.2h54.9c0.1,0,0.2,0,0.2,0h0.1c0.8,0,5.1-0.6,5.1-9.6V35.2
		H111.7z"/>
	<g>
		<path fill="#D9EFF2" d="M164.9,187.3c0.8,0,5.1-0.6,5.1-9.6V31.9h-60.3v155.4H164.9z"/>
		<path fill="#A9DDE0" d="M107.5,187.3c0,0-6.1,0.3-6.1-8.7h57.3c0,9.1,6.1,8.7,6.1,8.7H107.5z"/>
	</g>
	<g>
		<g>
			<g>
				<path fill="#70C2BD" d="M153.9,100L153.9,100c-1.3,0-2.6-0.4-3.8-1.2l-1.4-0.7c-2.1-0.8-4.2-1.2-6.2-1.2c-2.1,0-3.6,0.5-4.1,0.7
					l-1.1,0.5c-0.9,0.4-1.8,0.6-2.8,0.6c-2.6,0-4.9-1.5-6-3.8c-1.1-2.3-0.7-4.9,0.8-6.9c0.5-0.7,1.2-1.4,2.2-2
					c2.5-1.4,6.3-2.3,10.5-2.3c1,0,2,0,3,0.1c6.1,0.5,11.7,2.8,14,5.7l0,0l0.2,0.4c0,0,0,0.1,0.1,0.1l0,0c0.3,0.5,0.5,1,0.6,1.4
					c0.6,2,0.3,4.1-0.9,5.7C158.1,99,156.1,100,153.9,100z M142.6,96.2c2.1,0,4.2,0.4,6.4,1.3l0,0l1.5,0.7c1,0.7,2.2,1.1,3.4,1.1
					c1.9,0,3.7-0.9,4.9-2.5c1.1-1.5,1.3-3.4,0.8-5.2l0,0c-0.1-0.4-0.3-0.8-0.6-1.2l-0.1-0.1c-1.7-2.4-6.6-5.1-13.8-5.7
					c-1-0.1-2-0.1-2.9-0.1c-4.1,0-7.8,0.8-10.2,2.2c-0.9,0.5-1.6,1.1-2,1.8l0,0c-1.4,1.8-1.7,4.1-0.7,6.2c1,2.1,3.1,3.4,5.4,3.4
					c0.9,0,1.7-0.2,2.5-0.6l1.1-0.5C138.8,96.7,140.4,96.2,142.6,96.2z"/>
			</g>
			<g>
				<path fill="#70C2BD" d="M144.8,83.7c0-0.1-0.1-1.8,1.3-2.9c1.4-1.1,3.9-1.1,7.3,0c3.2,1.1,4.1,0.6,4.3,0.3
					c0.7-1-1.1-3.8-2.2-5.2l0.5-0.4c0.4,0.5,1.2,1.5,1.8,2.7c0.8,1.5,0.9,2.6,0.5,3.3c-0.6,0.9-2.3,0.9-5.1,0
					c-3.1-1.1-5.5-1.1-6.7-0.2c-1.1,0.9-1,2.2-1,2.3L144.8,83.7z"/>
			</g>
		</g>
		<g>
			<path fill="#70C2BD" d="M145.7,87.8C145.7,87.8,145.7,87.8,145.7,87.8l-1.9-0.2c-0.8-0.1-1.6-1-1.5-1.7l0.2-2.3
				c0.1-0.6,0.6-0.9,1.4-0.9c0.1,0,0.2,0,0.3,0l1.8,0.2c0.3,0,1.2,0.1,1.1,1.2l-0.2,2.3C146.9,87.1,146.5,87.8,145.7,87.8z
				 M144,83.4c-0.1,0-0.7,0-0.8,0.3l-0.2,2.3c0,0.4,0.5,0.9,0.9,0.9l1.8,0.2c0,0,0,0,0,0c0.3,0,0.5-0.4,0.5-0.8l0.2-2.3
				c0-0.3,0-0.4-0.5-0.4l-1.8-0.2C144.2,83.4,144.1,83.4,144,83.4z"/>
		</g>
		<g>
			<path fill="#70C2BD" d="M154.9,92.7c0,0-0.1,0-0.1,0c-0.3,0-0.6-0.2-0.8-0.4c-0.2-0.3-0.3-0.6-0.3-0.9c0.1-0.7,0.7-1.2,1.3-1.1
				c0.7,0.1,1.2,0.7,1.1,1.3C156.1,92.2,155.6,92.7,154.9,92.7z M154.9,90.9c-0.3,0-0.5,0.2-0.6,0.5c0,0.1,0,0.3,0.1,0.4
				c0.1,0.1,0.2,0.2,0.4,0.2c0.3,0,0.6-0.2,0.6-0.5C155.5,91.2,155.3,90.9,154.9,90.9C155,90.9,155,90.9,154.9,90.9z"/>
		</g>
		<g>
			<path fill="#70C2BD" d="M154.6,96.3c0,0-0.1,0-0.1,0c-0.3,0-0.6-0.2-0.8-0.4c-0.2-0.3-0.3-0.6-0.3-0.9c0.1-0.7,0.7-1.2,1.3-1.1
				c0.7,0.1,1.2,0.7,1.1,1.3C155.8,95.8,155.3,96.3,154.6,96.3z M154.6,94.5c-0.3,0-0.5,0.2-0.6,0.5c0,0.1,0,0.3,0.1,0.4
				c0.1,0.1,0.2,0.2,0.4,0.2c0.3,0,0.6-0.2,0.6-0.5C155.2,94.8,155,94.5,154.6,94.5C154.7,94.5,154.6,94.5,154.6,94.5z"/>
		</g>
		<g>
			<path fill="#70C2BD" d="M153,94.3c0,0-0.1,0-0.1,0c-0.7-0.1-1.2-0.7-1.1-1.3c0.1-0.7,0.7-1.2,1.3-1.1c0.3,0,0.6,0.2,0.8,0.4
				c0.2,0.3,0.3,0.6,0.3,0.9C154.2,93.8,153.6,94.3,153,94.3z M153,92.5c-0.3,0-0.5,0.2-0.6,0.5c0,0.3,0.2,0.6,0.5,0.6
				c0.3,0,0.6-0.2,0.6-0.5c0-0.1,0-0.3-0.1-0.4C153.3,92.6,153.2,92.6,153,92.5C153,92.5,153,92.5,153,92.5z"/>
		</g>
		<g>
			<path fill="#70C2BD" d="M156.6,94.7c0,0-0.1,0-0.1,0c-0.7-0.1-1.2-0.7-1.1-1.3c0.1-0.7,0.7-1.2,1.3-1.1c0.3,0,0.6,0.2,0.8,0.4
				c0.2,0.3,0.3,0.6,0.3,0.9C157.8,94.2,157.2,94.7,156.6,94.7z M156.6,92.9c-0.3,0-0.5,0.2-0.6,0.5c0,0.3,0.2,0.6,0.5,0.6
				c0.3,0,0.6-0.2,0.6-0.5c0-0.1,0-0.3-0.1-0.4C156.9,92.9,156.8,92.9,156.6,92.9C156.6,92.9,156.6,92.9,156.6,92.9z"/>
		</g>
		<g>
			<path fill="#70C2BD" d="M132.6,94.8c-0.4,0-0.7-0.2-0.9-0.4c-0.4-0.5-0.4-1.3,0.1-1.7l3.8-3.2c0.2-0.2,0.5-0.3,0.8-0.3
				c0.4,0,0.7,0.2,0.9,0.4c0.4,0.5,0.4,1.3-0.1,1.7l-3.8,3.2C133.2,94.7,132.9,94.8,132.6,94.8z M136.4,89.9c-0.1,0-0.2,0-0.3,0.1
				l-3.8,3.2c-0.2,0.2-0.2,0.5-0.1,0.7c0.2,0.2,0.5,0.2,0.7,0.1l3.8-3.2c0.2-0.2,0.2-0.5,0.1-0.7C136.7,90,136.6,89.9,136.4,89.9z"
				/>
		</g>
		<g>
			<path fill="#70C2BD" d="M136.1,95.1c-0.4,0-0.7-0.2-0.9-0.4l-3.2-3.8c-0.2-0.2-0.3-0.5-0.3-0.9c0-0.3,0.2-0.6,0.4-0.8
				c0.2-0.2,0.5-0.3,0.8-0.3c0.4,0,0.7,0.2,0.9,0.4l3.2,3.8c0.4,0.5,0.4,1.2-0.1,1.7C136.7,95,136.4,95.1,136.1,95.1z M132.9,89.6
				c-0.1,0-0.2,0-0.3,0.1c-0.1,0.1-0.2,0.2-0.2,0.3c0,0.1,0,0.3,0.1,0.4l3.2,3.8c0.2,0.2,0.5,0.2,0.7,0.1c0.2-0.2,0.2-0.5,0.1-0.7
				l-3.2-3.8C133.2,89.7,133.1,89.6,132.9,89.6z"/>
		</g>
		<g>
			<path fill="#70C2BD" d="M143.4,92C143.3,92,143.3,92,143.4,92l-2.1-0.2c-0.4,0-0.8-0.4-0.7-0.9c0-0.4,0.4-0.8,0.9-0.7l2,0.2
				c0.2,0,0.4,0.1,0.6,0.3c0.1,0.2,0.2,0.4,0.2,0.6C144.1,91.7,143.8,92,143.4,92z M141.4,90.6c-0.1,0-0.1,0.2-0.1,0.3
				c0,0.1,0,0.2,0.1,0.2l2,0.2c0.1,0,0.1,0,0.1-0.1c0,0,0-0.1,0-0.1c0,0,0-0.2-0.1-0.2L141.4,90.6L141.4,90.6z"/>
		</g>
		<g>
			<path fill="#70C2BD" d="M148.2,92.4C148.2,92.4,148.2,92.4,148.2,92.4l-2.1-0.2c-0.4,0-0.8-0.4-0.7-0.9c0-0.4,0.4-0.8,0.9-0.7
				l2,0.2c0.4,0,0.8,0.4,0.7,0.9C149,92.1,148.6,92.4,148.2,92.4z M146.2,91.6c-0.1,0-0.1-0.1-0.1,0C146,91.7,146.1,91.6,146.2,91.6
				l2,0.1c0.1,0,0.1-0.1,0.1-0.1c0-0.1,0,0-0.1,0L146.2,91.6L146.2,91.6z"/>
		</g>
	</g>
	<g id="Floppy_disc_1_">
		<g id="body_2_">
			<g>
				<path fill="#70C2BD" d="M141.3,57.1h-15.9c-0.7,0-1.3-0.6-1.3-1.3V39.9c0-0.7,0.6-1.3,1.3-1.3h13.7l3.5,3.5v13.7
					C142.6,56.5,142,57.1,141.3,57.1z M125.4,39.7c-0.1,0-0.3,0.1-0.3,0.3v15.9c0,0.1,0.1,0.3,0.3,0.3h15.9c0.1,0,0.3-0.1,0.3-0.3
					V42.5l-2.9-2.9H125.4z"/>
			</g>
		</g>
		<g id="top_1_">
			<g>
				<path fill="#70C2BD" d="M138.1,46h-9.5c-0.7,0-1.3-0.6-1.3-1.3v-6.1h12.2v6.1C139.4,45.4,138.8,46,138.1,46z M128.3,39.7v5
					c0,0.1,0.1,0.3,0.3,0.3h9.5c0.1,0,0.3-0.1,0.3-0.3v-5H128.3z"/>
			</g>
		</g>
		<g id="Rectangle_5_1_">
			<g>
				<path fill="#70C2BD" d="M138.4,44.9h-4v-5.3h4V44.9z M135.5,43.9h1.9v-3.2h-1.9V43.9z"/>
			</g>
		</g>
		<g id="bottom_1_">
			<g>
				<path fill="#70C2BD" d="M139.4,57.1h-12.2v-8.2c0-0.7,0.6-1.3,1.3-1.3h9.5c0.7,0,1.3,0.6,1.3,1.3V57.1z M128.3,56h10v-7.1
					c0-0.1-0.1-0.3-0.3-0.3h-9.5c-0.1,0-0.3,0.1-0.3,0.3V56z"/>
			</g>
		</g>
		<g id="text_lines_1_">
			<g>
				<path fill="#70C2BD" d="M136.9,55h-7.1c-0.4,0-0.7-0.3-0.7-0.7c0-0.4,0.3-0.7,0.7-0.7h7.1c0.4,0,0.7,0.3,0.7,0.7
					C137.6,54.7,137.3,55,136.9,55z M136.9,52.9h-7.1c-0.4,0-0.7-0.3-0.7-0.7c0-0.4,0.3-0.7,0.7-0.7h7.1c0.4,0,0.7,0.3,0.7,0.7
					C137.6,52.6,137.3,52.9,136.9,52.9z M136.9,50.8h-7.1c-0.4,0-0.7-0.3-0.7-0.7c0-0.4,0.3-0.7,0.7-0.7h7.1c0.4,0,0.7,0.3,0.7,0.7
					C137.6,50.5,137.3,50.8,136.9,50.8z"/>
			</g>
		</g>
	</g>
	<g>
		<g>
			<path fill="#70C2BD" d="M151,143.4l-1.5-2.1l-0.9,0l-1.6,1.9l-1.9-0.8l0.2-2.5l-0.7-0.6l-2.5,0.4l-0.9-1.8l1.8-1.8l-0.1-0.9
				l-2.2-1.3l0.4-2l2.5-0.2l0.5-0.8l-0.9-2.4l1.6-1.2l2.1,1.4l0.9-0.3l0.9-2.4l2,0.1l0.7,2.4l0.9,0.4l2.2-1.3l1.5,1.4l-1.1,2.3
				l0.4,0.8l2.5,0.4l0.3,2l-2.3,1.1l-0.2,0.9l1.6,1.9l-1.1,1.7l-2.5-0.7l-0.7,0.6v2.5L151,143.4z M148.3,140.6l1.6,0.1l1.4,1.9
				l1-0.3v-2.4l1.3-1l2.3,0.6l0.6-0.9l-1.5-1.8l0.3-1.6l2.1-1l-0.1-1l-2.3-0.4l-0.7-1.4l1-2.2l-0.8-0.7l-2.1,1.2l-1.5-0.6l-0.6-2.3
				l-1,0l-0.8,2.2l-1.5,0.5l-1.9-1.4l-0.8,0.6l0.8,2.2l-0.9,1.4l-2.4,0.2l-0.2,1l2.1,1.2l0.2,1.6L142,138l0.5,0.9l2.3-0.4l1.2,1.1
				l-0.2,2.4l1,0.4L148.3,140.6z M149.4,138.9c-2.3,0-4.2-1.9-4.2-4.2c0-2.3,1.9-4.2,4.2-4.2c2.3,0,4.2,1.9,4.2,4.2
				C153.6,137,151.7,138.9,149.4,138.9z M149.4,131.2c-1.9,0-3.5,1.6-3.5,3.5c0,1.9,1.6,3.5,3.5,3.5c1.9,0,3.5-1.6,3.5-3.5
				C152.9,132.8,151.4,131.2,149.4,131.2z"/>
		</g>
		<g>
			<path fill="#70C2BD" d="M149.4,138.9c-2.3,0-4.2-1.9-4.2-4.2c0-2.3,1.9-4.2,4.2-4.2c2.3,0,4.2,1.9,4.2,4.2
				C153.6,137,151.7,138.9,149.4,138.9z M149.4,131.2c-1.9,0-3.5,1.6-3.5,3.5c0,1.9,1.6,3.5,3.5,3.5c1.9,0,3.5-1.6,3.5-3.5
				C152.9,132.8,151.4,131.2,149.4,131.2z"/>
		</g>
		<g>
			<path fill="#70C2BD" d="M149.4,137.2c-1.4,0-2.5-1.1-2.5-2.5c0-1.4,1.1-2.5,2.5-2.5c1.4,0,2.5,1.1,2.5,2.5
				C152,136.1,150.8,137.2,149.4,137.2z M149.4,132.8c-1,0-1.9,0.8-1.9,1.9c0,1,0.8,1.9,1.9,1.9c1,0,1.9-0.8,1.9-1.9
				C151.3,133.7,150.5,132.8,149.4,132.8z"/>
		</g>
		<g>
			<path fill="#70C2BD" d="M157.9,130.6l-1.6-0.5l-0.2-2.1l-0.4-0.4l-2.1-0.1l-0.6-1.5l1.5-1.5l0.1-0.6l-1.2-1.8l0.8-1.4l2.1,0.2
				l0.5-0.3l0.6-2.1l1.6-0.2l1.1,1.8l0.6,0.2l2-0.8l1.2,1.1l-0.7,2l0.2,0.6l1.9,1.1l-0.1,1.6l-2,0.7l-0.3,0.5l0.3,2.1l-1.4,0.9
				l-1.8-1.1l-0.6,0.1L157.9,130.6z M156.9,129.6l0.7,0.2l1.3-1.4l1.1-0.1l1.7,1l0.6-0.4l-0.3-1.9l0.6-0.9l1.8-0.6l0.1-0.8l-1.7-1
				l-0.4-1l0.6-1.8l-0.6-0.5l-1.8,0.7l-1-0.3l-1-1.7l-0.8,0.1l-0.6,1.9l-0.9,0.6l-1.9-0.2l-0.4,0.7l1.1,1.6l-0.1,1.1l-1.4,1.4
				l0.3,0.7l2,0.1l0.8,0.8L156.9,129.6z M159.1,127.3L159.1,127.3c-0.4,0-0.8-0.1-1.2-0.3c-0.7-0.3-1.3-0.9-1.5-1.6
				c-0.3-0.7-0.3-1.5,0.1-2.2c0.5-1,1.5-1.7,2.7-1.7c0.4,0,0.8,0.1,1.2,0.3c0.7,0.3,1.3,0.9,1.5,1.6c0.3,0.7,0.3,1.5-0.1,2.2
				C161.3,126.7,160.2,127.3,159.1,127.3z M159.1,122.2c-0.9,0-1.7,0.5-2,1.3c-0.2,0.5-0.3,1.2-0.1,1.7c0.2,0.6,0.6,1,1.2,1.2
				c0.3,0.1,0.6,0.2,0.9,0.2l0,0c0.9,0,1.7-0.5,2-1.3c0.2-0.5,0.3-1.2,0.1-1.7c-0.2-0.6-0.6-1-1.2-1.2
				C159.7,122.3,159.4,122.2,159.1,122.2z"/>
		</g>
		<g>
			<path fill="#70C2BD" d="M159.1,127.3L159.1,127.3c-0.4,0-0.8-0.1-1.2-0.3c-0.7-0.3-1.3-0.9-1.5-1.6c-0.3-0.7-0.3-1.5,0.1-2.2
				c0.5-1,1.5-1.7,2.7-1.7c0.4,0,0.8,0.1,1.2,0.3c0.7,0.3,1.3,0.9,1.5,1.6c0.3,0.7,0.3,1.5-0.1,2.2
				C161.3,126.7,160.2,127.3,159.1,127.3z M159.1,122.2c-0.9,0-1.7,0.5-2,1.3c-0.2,0.5-0.3,1.2-0.1,1.7c0.2,0.6,0.6,1,1.2,1.2
				c0.3,0.1,0.6,0.2,0.9,0.2l0,0c0.9,0,1.7-0.5,2-1.3c0.2-0.5,0.3-1.2,0.1-1.7c-0.2-0.6-0.6-1-1.2-1.2
				C159.7,122.3,159.4,122.2,159.1,122.2z"/>
		</g>
		<g>
			<path fill="#70C2BD" d="M159.1,126.3L159.1,126.3c-0.3,0-0.5-0.1-0.8-0.2c-0.9-0.4-1.3-1.5-0.9-2.4c0.3-0.7,1-1.1,1.7-1.1
				c0.3,0,0.5,0.1,0.8,0.2c0.9,0.4,1.3,1.5,0.9,2.4C160.5,125.8,159.8,126.3,159.1,126.3z M159.1,123.3c-0.5,0-0.9,0.3-1.1,0.7
				c-0.3,0.6,0,1.3,0.6,1.5c0.2,0.1,0.3,0.1,0.5,0.1c0.5,0,0.9-0.3,1.1-0.7c0.3-0.6,0-1.3-0.6-1.5
				C159.4,123.3,159.2,123.3,159.1,123.3z"/>
		</g>
	</g>
	<g>
		<g>
			<g>
				<path fill="#70C2BD" d="M125.7,165.6c-2.7,0-4.9-5.6-4.9-12.8c0-7.2,2.1-12.8,4.9-12.8c2.7,0,4.9,5.6,4.9,12.8
					C130.6,159.9,128.4,165.6,125.7,165.6L125.7,165.6z M125.7,140.7c-2,0-4.1,4.8-4.1,12c0,7.2,2.1,12,4.1,12c2,0,4.1-4.8,4.1-12
					C129.8,145.6,127.7,140.7,125.7,140.7L125.7,140.7z"/>
			</g>
			<g>
				<path fill="#70C2BD" d="M133.6,160.5c-2.7,0-6.6-1.3-10.4-3.5c-6.2-3.6-10-8.3-8.7-10.6c0.5-0.9,1.6-1.3,3.1-1.3
					c2.7,0,6.6,1.3,10.4,3.5c6.2,3.6,10,8.3,8.7,10.6C136.3,160,135.2,160.5,133.6,160.5L133.6,160.5z M117.8,145.8
					c-0.9,0-2,0.2-2.4,0.9c-1,1.7,2.1,5.9,8.4,9.5c3.7,2.1,7.4,3.4,10,3.4c0.9,0,2-0.2,2.4-0.9c1-1.7-2.1-5.9-8.4-9.5
					C124,147.1,120.3,145.8,117.8,145.8L117.8,145.8z"/>
			</g>
			<g>
				<path fill="#70C2BD" d="M117.8,160.5L117.8,160.5c-1.6,0-2.7-0.5-3.1-1.3c-1.4-2.4,2.4-7,8.7-10.6c3.8-2.2,7.7-3.5,10.4-3.5
					c1.6,0,2.6,0.5,3.1,1.3c1.4,2.4-2.4,7-8.7,10.6C124.3,159.1,120.5,160.5,117.8,160.5L117.8,160.5z M133.6,145.8
					c-2.6,0-6.3,1.3-10,3.4c-6.2,3.6-9.3,7.8-8.4,9.5c0.4,0.7,1.6,0.9,2.4,0.9h0c2.6,0,6.3-1.3,10-3.4c6.2-3.6,9.3-7.8,8.4-9.5
					C135.7,146,134.5,145.8,133.6,145.8L133.6,145.8z"/>
			</g>
		</g>
		<g>
			<circle fill="#70C2BD" cx="125.7" cy="152.7" r="2.4"/>
			<path fill="#70C2BD" d="M125.9,152.4c0,0.6-0.5,1-1,1c-0.6,0-1-0.5-1-1c0-0.6,0.4-1,1-1C125.5,151.4,125.9,151.8,125.9,152.4z"/>
		</g>
		<g>
			<circle fill="#70C2BD" cx="118.2" cy="145.2" r="1.6"/>
			<circle fill="#70C2BD" cx="117.7" cy="145" r="0.6"/>
		</g>
		<g>
			<path fill="#70C2BD" d="M136.9,150.4c0,0.9-0.7,1.6-1.6,1.6c-0.9,0-1.6-0.7-1.6-1.6c0-0.9,0.7-1.6,1.6-1.6
				C136.2,148.8,136.9,149.5,136.9,150.4z"/>
			<circle fill="#70C2BD" cx="134.8" cy="150.2" r="0.6"/>
		</g>
		<g>
			<path fill="#70C2BD" d="M124.8,162.4c0,0.9-0.7,1.6-1.6,1.6c-0.9,0-1.6-0.7-1.6-1.6c0-0.9,0.7-1.6,1.6-1.6
				C124.1,160.8,124.8,161.5,124.8,162.4z"/>
			<circle fill="#70C2BD" cx="122.7" cy="162.1" r="0.6"/>
		</g>
	</g>
	<path fill="#70C2BD" d="M135.9,124.9l-4.6-5.9c-0.6-0.7-1.5-0.7-2.1,0l-4.6,5.9c-0.6,0.7-0.3,1.3,0.5,1.3h2.5v3.9
		c0,0.7,0.6,1.3,1.3,1.3h2.6c0.7,0,1.3-0.6,1.3-1.3v-3.9h2.5C136.2,126.2,136.5,125.6,135.9,124.9z"/>
	<path fill="#70C2BD" d="M148.8,48.5l4.6,5.9c0.6,0.7,1.5,0.7,2.1,0l4.6-5.9c0.6-0.7,0.3-1.3-0.5-1.3H157v-3.9
		c0-0.7-0.6-1.3-1.3-1.3h-2.6c-0.7,0-1.3,0.6-1.3,1.3v3.9h-2.5C148.4,47.2,148.2,47.8,148.8,48.5z"/>
	<g>
		<rect x="117.6" y="64.3" fill="#818181" width="47.5" height="2.6"/>
	</g>
	<g>
		<rect x="117.6" y="69.8" fill="#818181" width="47.5" height="2.6"/>
	</g>
	<g>
		<rect x="117.6" y="103.4" fill="#818181" width="47.5" height="2.6"/>
	</g>
	<g>
		<rect x="117.6" y="108.9" fill="#818181" width="47.5" height="2.6"/>
	</g>
	<g>
		<rect x="144.2" y="152.6" fill="#818181" width="21.1" height="2.6"/>
	</g>
	<g>
		<rect x="144.2" y="158" fill="#818181" width="21.1" height="2.6"/>
	</g>
	<g>
		<rect x="144.2" y="163.9" fill="#818181" width="21.1" height="2.6"/>
	</g>
</g>
<g>
	<polygon fill="#333333" points="148.1,93.8 102.9,100.7 102.4,96.4 147.5,89.5 	"/>
	<path fill="#333333" d="M64.7,190c-0.4-5.5,1.4-27.9,1.5-28.9l3.9,0.2c0,0.2-1.8,23.1-1.4,28.4L64.7,190z"/>
	<path fill="#333333" d="M94.9,190.1c-0.6-5.5,0.5-27.9,0.5-28.9l3.9,0.1c0,0.2-1.1,23.2-0.5,28.5L94.9,190.1z"/>
	<path fill="#697736" d="M114.7,162.6c0,1.9-1.5,3.2-3.8,3.2l-57.4-0.1c-2.3,0-5.4-1.3-5.4-3.2l0.3-109.8c0-1.9,3.2-3.3,5.4-3.3
		l57.4,0.1c2.3,0,3.8,1.5,3.8,3.4L114.7,162.6z"/>
	<path fill="#9FBC3D" d="M114.7,162c0,1.9-1.2,3.8-3.5,3.8l-50-0.1c-2.3,0-5.4-1.9-5.4-3.8l0.3-110.5c0-1.9,3.1-2.1,5.4-2.1l50,0.1
		c2.3,0,3.5,0.2,3.4,2.1L114.7,162z"/>
	<path fill="#607132" d="M107.8,90.9c0,1.6-1.8,3.3-4,3.3l-35.5-0.1c-2.3,0-4.6-1.6-4.6-3.3l0.1-32.2c0-1.6,2.4-2.5,4.6-2.5
		l35.5,0.1c2.3,0,4,0.9,4,2.5L107.8,90.9z"/>
	<path fill="#738140" d="M107.8,90.9c0,1.6-1.8,3.3-4,3.3l-35.5-0.1c-2.3,0-4.6-1.6-4.6-3.3l0.1-32.2c0-1.6,2.4-2.5,4.6-2.5
		l35.5,0.1c2.3,0,4,0.9,4,2.5L107.8,90.9z"/>
	<path fill="#F5EDE5" d="M105.9,90.9c0,1.6-1.8,3.3-4,3.3l-35.5-0.1c-2.3,0-4.6-1.6-4.6-3.3l0.1-32.2c0-1.6,2.4-2.5,4.6-2.5
		l35.5,0.1c2.3,0,4,0.9,4,2.5L105.9,90.9z"/>
	<ellipse fill="#432C31" cx="76" cy="74.6" rx="2" ry="5.1"/>
	<path fill="#432C31" d="M97.8,74.6c0,2.8-0.9,5.1-2,5.1c-1.1,0-1.9-2.3-1.9-5.1c0-2.8,0.9-5.1,2-5.1C97,69.5,97.8,71.8,97.8,74.6z"
		/>
	<path opacity="0.2" fill="#607132" d="M67.2,100.2c-1.4,1.9-0.9,4.8,1.1,6.5l9.6,8.2c2,1.7,4.8,1.5,6.2-0.4l0,0
		c1.4-1.9,0.9-4.8-1.1-6.5l-9.6-8.2C71.4,98.2,68.6,98.3,67.2,100.2L67.2,100.2z"/>
	<path fill="#607132" d="M76.3,109c-1,1.4-0.7,3.6,0.8,4.8c1.5,1.3,3.5,1.1,4.5-0.3c1-1.4,0.7-3.6-0.8-4.8
		C79.3,107.4,77.3,107.6,76.3,109z"/>
	<path fill="#607132" d="M68.3,102.2c-1,1.4-0.7,3.6,0.8,4.8c1.5,1.3,3.5,1.1,4.5-0.3c1-1.4,0.7-3.6-0.8-4.8
		C71.3,100.6,69.3,100.7,68.3,102.2z"/>
	<path fill="#F47E67" d="M77.5,108.6c-1,1.4-0.7,3.6,0.8,4.8c1.5,1.3,3.5,1.1,4.5-0.3c1-1.4,0.7-3.6-0.8-4.8
		C80.5,107.1,78.5,107.2,77.5,108.6z"/>
	<path fill="#F47E67" d="M69.5,101.8c-1,1.4-0.7,3.6,0.8,4.8c1.5,1.3,3.5,1.1,4.6-0.3c1-1.4,0.7-3.6-0.8-4.8
		C72.5,100.3,70.5,100.4,69.5,101.8z"/>
	<g>
		<path fill="#F5A649" d="M61.6,43.4c0,0-7.1,3.9-0.6,6.6c5.4,2.2,21.8,3,21.8,3s30.6-0.7,22.1-6.6C89.1,35.1,61.6,43.4,61.6,43.4z"
			/>
		<path fill="#FDE56F" d="M61.7,46.4c0,0,1.1-19.2,19.5-19.2c18.3,0,20.2,19.3,20.2,19.3S85.2,52.8,61.7,46.4z"/>
		<path fill="#F5A649" d="M77.1,27.6c0,0,9.8-1.2,7.1,22.1c5.8,0,6.2-0.8,6.2-0.8S91.9,24.6,77.1,27.6z"/>
	</g>
	<g>
		<path fill="#553A3D" d="M68.1,141.3l0.1-21.8c0-1.5-1.6-2.7-3.6-2.7l-5,0l-23.9-0.1c-2,0-3.6,1.2-3.6,2.7l-0.1,21.8
			c0,1.5,1.6,2.7,3.6,2.7l23.9,0.1l5,0C66.4,144,68.1,142.8,68.1,141.3"/>
	</g>
	<path fill="#EF9C4B" d="M69.9,141.3l0.1-21.8c0-1.5-1.6-2.7-3.6-2.7l-5,0l-23.9-0.1c-2,0-3.6,1.2-3.6,2.7l-0.1,21.8
		c0,1.5,1.6,2.7,3.6,2.7l23.9,0.1l5,0C68.2,144,69.9,142.8,69.9,141.3"/>
	<g>
		<defs>
			<polygon id="SVGID_1_" points="35.7,119.4 35.7,141.2 64.5,141.3 64.5,119.5 			"/>
		</defs>
		<use xlink:href="#SVGID_1_"  overflow="visible" fill="#62474C"/>
		<clipPath id="SVGID_2_">
			<use xlink:href="#SVGID_1_"  overflow="visible"/>
		</clipPath>
		<polygon clip-path="url(#SVGID_2_)" fill="#62474C" points="35.7,141.2 35.7,119.4 64.5,119.5 64.5,141.3 		"/>
	</g>
	<polygon fill="#FFFFFF" points="37.5,141.2 37.5,119.4 66.3,119.5 66.3,141.3 	"/>
	
		<rect x="41.6" y="129.7" transform="matrix(2.878380e-03 -1 1 2.878380e-03 -81.6889 177.5267)" fill="#8CB9AD" width="13.2" height="0"/>
	
		<rect x="35.1" y="129.2" transform="matrix(2.852988e-03 -1 1 2.852988e-03 -87.5135 171.8409)" fill="#8CB9AD" width="14.5" height="1.3"/>
	
		<rect x="38.3" y="129.2" transform="matrix(2.922010e-03 -1 1 2.922010e-03 -84.3295 175.0418)" fill="#8CB9AD" width="14.5" height="1.3"/>
	
		<rect x="41.5" y="129.2" transform="matrix(2.818656e-03 -1 1 2.818656e-03 -81.1412 178.2644)" fill="#8CB9AD" width="14.5" height="1.3"/>
	
		<rect x="44.7" y="129.2" transform="matrix(2.887440e-03 -1 1 2.887440e-03 -77.9568 181.4632)" fill="#8CB9AD" width="14.5" height="1.3"/>
	
		<rect x="47.9" y="129.2" transform="matrix(2.956342e-03 -1 1 2.956342e-03 -74.7759 184.6657)" fill="#8CB9AD" width="14.5" height="1.3"/>
	
		<rect x="51.1" y="129.2" transform="matrix(2.887559e-03 -1 1 2.887559e-03 -71.5863 187.8814)" fill="#8CB9AD" width="14.5" height="1.3"/>
	<g>
		<defs>
			<polygon id="SVGID_3_" points="62.7,124.9 62.7,135.8 69.9,135.8 69.9,124.9 			"/>
		</defs>
		<clipPath id="SVGID_4_">
			<use xlink:href="#SVGID_3_"  overflow="visible"/>
		</clipPath>
		<path clip-path="url(#SVGID_4_)" fill="#231F20" d="M69.9,133.8l0-6.8l0-2l-2.7,0l-0.9,0l-0.9,0c-1.5,0-2.7,0.9-2.7,2l0,6.8
			c0,1.1,1.2,2.1,2.7,2.1l0.9,0l0.9,0l2.7,0L69.9,133.8z"/>
	</g>
	<path fill="#62474C" d="M71.7,133.8l0-6.8l0-2l-2.7,0l-0.9,0l-0.9,0c-1.5,0-2.7,0.9-2.7,2l0,6.8c0,1.1,1.2,2.1,2.7,2.1l0.9,0l0.9,0
		l2.7,0L71.7,133.8z"/>
	<path fill="#333333" d="M49.5,139.9c-10.5-28.7-0.2-45.8,0.3-46.5l3.8,1.8l-1.9-0.9l1.9,0.9c-0.1,0.2-9.9,16.6,0,43.6L49.5,139.9z"
		/>
	<g>
		<path fill="#465224" d="M104.6,105.3l-3.2,0l0-3.3c0-0.7-0.5-1.2-1.2-1.2l-3.4,0c-0.6,0-1.2,0.5-1.2,1.2l0,3.3l-3.2,0
			c-0.6,0-1.2,0.5-1.2,1.2l0,3.4c0,0.7,0.5,1.2,1.2,1.2l3.2,0l0,3.3c0,0.7,0.5,1.2,1.2,1.2l3.4,0c0.6,0,1.2-0.5,1.2-1.2l0-3.3l3.2,0
			c0.6,0,1.2-0.5,1.2-1.2l0-3.4C105.7,105.9,105.2,105.3,104.6,105.3z"/>
		<path fill="#607132" d="M105.8,105.3l-3.2,0l0-3.3c0-0.7-0.5-1.2-1.2-1.2l-3.4,0c-0.6,0-1.2,0.5-1.2,1.2l0,3.3l-3.2,0
			c-0.6,0-1.2,0.5-1.2,1.2l0,3.4c0,0.7,0.5,1.2,1.2,1.2l3.2,0l0,3.3c0,0.7,0.5,1.2,1.2,1.2l3.4,0c0.6,0,1.2-0.5,1.2-1.2l0-3.3l3.2,0
			c0.6,0,1.2-0.5,1.2-1.2l0-3.4C107,105.9,106.5,105.3,105.8,105.3z"/>
	</g>
	<path fill="#432C31" d="M86.7,85.8c2.4,0,4.3-2.2,4.3-7.2h-1.7c0,5-1.5,5.7-2.6,5.7c-1.1,0-2.6-0.7-2.6-5.7h-1.7
		C82.4,83.6,84.3,85.8,86.7,85.8z"/>
</g>
</svg>
