<?xml version="1.0" encoding="utf-8"?>
<!-- Generator: Adobe Illustrator 18.1.1, SVG Export Plug-In . SVG Version: 6.00 Build 0)  -->
<svg version="1.0" id="Layer_1" xmlns="http://www.w3.org/2000/svg" xmlns:xlink="http://www.w3.org/1999/xlink" x="0px" y="0px"
	 viewBox="0 0 481.8 283.9" enable-background="new 0 0 481.8 283.9" xml:space="preserve">
<g>
	<rect x="7.1" y="0" fill="#F6EFDF" width="339.4" height="223.5"/>
	<rect x="13.6" y="5" fill="#E49874" width="339.4" height="223.5"/>
	<rect x="7.1" y="0" fill="#F6EFDF" width="339.4" height="223.5"/>
	<rect x="16.2" y="8" fill="#07888C" width="321.2" height="207.5"/>
	<rect x="16.2" y="8" fill="#056065" width="321.2" height="7.2"/>
</g>
<g>
	<g>
		<g>
			<polygon fill="#06528B" points="466.6,185.5 452.1,187.2 452.8,193.6 456.6,193.2 460.1,192.8 			"/>
		</g>
		<g>
			<g>
				<path fill="#0467A8" d="M409.3,244.7c-2.8,0.3-5.1-0.1-7.2-1.3c-6.8-4-7.9-15.1-9-26.8c-0.1-0.9-0.2-1.8-0.3-2.7
					c-0.5-5.7,0.8-10.1,3.9-12.9c5.4-5,14.2-3.4,14.5-3.4l-0.8,4.2c-0.1,0-7-1.2-10.8,2.3c-2.1,1.9-2.9,5.1-2.5,9.3
					c0.1,0.9,0.2,1.8,0.3,2.8c0.9,10.2,1.9,20.7,6.8,23.5c2.4,1.4,5.9,1,10.5-1.1l1.8,3.9C413.9,243.8,411.5,244.5,409.3,244.7z"/>
			</g>
		</g>
		<g>
			<path fill="#333333" d="M443.4,283.7c0.5-7.8-1.7-39.6-1.8-41l-4.8,0.3c0,0.3,2.2,32.9,1.8,40.4L443.4,283.7z"/>
		</g>
		<g>
			<path fill="#333333" d="M426.3,283.9c0.7-7.8-0.6-39.7-0.6-41l-4.8,0.2c0,0.3,1.3,32.9,0.6,40.4L426.3,283.9z"/>
		</g>
		<g>
			<path fill="#333333" d="M366.3,194.6c6.9,3.8,36.6,15.3,37.9,15.8l1.8-4.5c-0.3-0.1-30.7-12-37.3-15.6L366.3,194.6z"/>
		</g>
		<g>
			<path fill="#697736" d="M400.9,252.5c0.2,2.1,1.9,3.3,4,3l54.2-6.5c2.1-0.3,5-2,4.7-4.1l-10.6-88.7c-0.2-2.1-3.4-3.3-5.6-3
				l-54.2,6.5c-2.1,0.3-3.4,2-3.2,4.1L400.9,252.5z"/>
		</g>
		<g>
			<path fill="#A1BF3C" d="M400.9,251.9c0.2,2,1.6,4,3.7,3.7l47.3-5.6c2.2-0.3,4.9-2.6,4.7-4.7l-10.7-89.5c-0.2-2-3.2-1.9-5.4-1.6
				l-47.3,5.6c-2.2,0.3-3.2,0.6-3,2.6L400.9,251.9z"/>
		</g>
		<g>
			<path fill="#607132" d="M401.9,204.3c0.2,1.8,2.1,3.3,4.2,3.1l33.6-4c2.1-0.3,4.2-2.3,4-4.1l-4.2-34.9c-0.2-1.8-2.6-2.5-4.7-2.2
				l-33.6,4c-2.1,0.3-3.7,1.4-3.5,3.2L401.9,204.3z"/>
		</g>
		<g>
			<path fill="#738140" d="M401.9,204.3c0.2,1.8,2.1,3.3,4.2,3.1l33.6-4c2.1-0.3,4.2-2.3,4-4.1l-4.2-34.9c-0.2-1.8-2.6-2.5-4.7-2.2
				l-33.6,4c-2.1,0.3-3.7,1.4-3.5,3.2L401.9,204.3z"/>
		</g>
		<g>
			<path fill="#FFEED8" d="M403.7,204.1c0.2,1.8,2.1,3.3,4.2,3.1l33.6-4c2.1-0.3,4.2-2.3,4-4.1l-4.2-34.9c-0.2-1.8-2.6-2.5-4.7-2.2
				l-33.6,4c-2.1,0.3-3.7,1.4-3.5,3.2L403.7,204.1z"/>
		</g>
		<g>
			<path fill="#432C31" d="M429.8,186.9c0.4,3.1,1.7,5.4,2.9,5.3c1.2-0.1,1.9-2.7,1.6-5.8c-0.4-3.1-1.7-5.4-2.9-5.3
				C430.1,181.2,429.4,183.8,429.8,186.9z"/>
		</g>
		<g>
			<path fill="#432C31" d="M409.7,189.2c0.4,3.1,1.7,5.4,2.9,5.3c1.2-0.1,2-2.7,1.6-5.8c-0.4-3.1-1.7-5.4-2.9-5.3
				C410.1,183.6,409.4,186.2,409.7,189.2z"/>
		</g>
		<g opacity="0.2">
			<path fill="#607132" d="M441.5,209.9c1.6,1.9,1.5,5.1-0.2,7.2l-8.1,9.9c-1.7,2.1-4.3,2.2-5.9,0.3l0,0c-1.6-1.9-1.5-5.1,0.2-7.2
				l8.1-9.9C437.3,208.1,439.9,208,441.5,209.9L441.5,209.9z"/>
		</g>
		<g>
			<path fill="#607132" d="M434,220.4c1.2,1.4,1.1,3.8-0.1,5.3c-1.2,1.5-3.2,1.6-4.3,0.2c-1.2-1.4-1.1-3.8,0.1-5.3
				C430.9,219.1,432.9,219,434,220.4z"/>
		</g>
		<g>
			<path fill="#607132" d="M440.7,212.1c1.2,1.4,1.1,3.8-0.1,5.3c-1.2,1.5-3.2,1.6-4.3,0.2c-1.2-1.4-1.1-3.8,0.1-5.3
				C437.6,210.8,439.6,210.7,440.7,212.1z"/>
		</g>
		<g>
			<path fill="#F47E67" d="M432.8,220.2c1.2,1.4,1.1,3.8-0.1,5.3c-1.2,1.5-3.2,1.6-4.3,0.2c-1.2-1.4-1.1-3.8,0.1-5.3
				C429.7,218.8,431.7,218.7,432.8,220.2z"/>
		</g>
		<g>
			<path fill="#F47E67" d="M439.5,211.9c1.2,1.4,1.1,3.8-0.1,5.3c-1.2,1.5-3.2,1.6-4.3,0.2c-1.2-1.4-1.1-3.8,0.1-5.3
				C436.4,210.6,438.4,210.5,439.5,211.9z"/>
		</g>
		<g>
			<g>
				<path fill="#465224" d="M406.8,219.5l3-0.4l-0.4-3.5c-0.1-0.7,0.3-1.4,0.9-1.4l3.2-0.4c0.6-0.1,1.2,0.4,1.3,1.2l0.4,3.5l3-0.4
					c0.6-0.1,1.2,0.5,1.3,1.2l0.4,3.7c0.1,0.7-0.3,1.4-1,1.4l-3,0.4l0.4,3.5c0.1,0.7-0.3,1.4-1,1.4l-3.2,0.4
					c-0.6,0.1-1.2-0.5-1.3-1.2l-0.4-3.6l-3,0.4c-0.6,0.1-1.2-0.4-1.3-1.2l-0.4-3.7C405.8,220.3,406.2,219.6,406.8,219.5z"/>
			</g>
			<g>
				<path fill="#607132" d="M405.6,219.7l3-0.4l-0.4-3.6c-0.1-0.7,0.3-1.4,1-1.4l3.2-0.4c0.6-0.1,1.2,0.4,1.3,1.2l0.4,3.6l3-0.4
					c0.6-0.1,1.2,0.5,1.3,1.2l0.4,3.7c0.1,0.7-0.3,1.4-1,1.4l-3,0.4l0.4,3.5c0.1,0.7-0.3,1.4-1,1.4l-3.2,0.4
					c-0.6,0.1-1.2-0.4-1.3-1.2l-0.4-3.6l-3,0.4c-0.6,0.1-1.2-0.5-1.3-1.2l-0.4-3.7C404.6,220.4,405,219.8,405.6,219.7z"/>
			</g>
		</g>
		<g>
			<g>
				<path fill="#0467A8" d="M456.2,239.3c-2.8,0.3-5.1-0.1-7.2-1.3c-6.8-4-7.9-15.1-9-26.8c-0.1-0.9-0.2-1.8-0.3-2.7
					c-0.5-5.7,0.8-10.1,3.9-12.9c5.4-5,14.2-3.4,14.5-3.4l-0.8,4.2c-0.1,0-7-1.2-10.8,2.3c-2.1,1.9-2.9,5.1-2.5,9.3
					c0.1,0.9,0.2,1.8,0.3,2.8c0.9,10.2,1.9,20.7,6.8,23.5c2.4,1.4,5.9,1,10.5-1.1l1.8,3.9C460.8,238.3,458.4,239,456.2,239.3z"/>
			</g>
		</g>
		<g>
			<path fill="#3681C3" d="M481.6,229.5c0.6,5.4-3.2,10.2-8.6,10.9l0,0c-5.4,0.6-10.2-3.2-10.9-8.6l-3.7-31.9
				c-0.6-5.4,3.2-10.2,8.6-10.9l0,0c5.4-0.6,10.2,3.2,10.9,8.6L481.6,229.5z"/>
		</g>
		<g>
			<g>
				<path fill="#0467A8" d="M464,236.9l-4.3,0.5l-4.4-37.7c-0.8-7,4.2-13.4,11.2-14.2c7-0.8,13.4,4.2,14.2,11.2l1,8.8l-4.3,0.5
					l-1-8.8c-0.5-4.7-4.8-8-9.4-7.5c-4.7,0.5-8,4.8-7.5,9.4L464,236.9z"/>
			</g>
		</g>
		<g>
			<g>
				<g>
					<polygon fill="#FFFFFF" points="436.1,193.7 417,197 397.5,198.5 397,202.2 437.5,197.2 					"/>
				</g>
				<g>
					<path fill="#E8314A" d="M417,197.9l3.3,26.6c0,0,0,0,0,0.1c0,0.1,0,0.1,0,0.2c0.3,1.3,1.5,2.2,2.8,2l17.4-4.2l-3.3-26.6
						l-17.5,3.1C418.7,199.3,417.6,198.8,417,197.9z"/>
				</g>
				<g>
					<path fill="#E8314A" d="M417.1,197.9l3.3,26.6c0,0,0,0.1,0,0.1c0,0.1,0,0.1,0,0.2c0,1.3-0.9,2.5-2.3,2.7l-17.9,0.1l-3.3-26.6
						l17.8-1.2C415.8,199.7,416.7,198.9,417.1,197.9z"/>
				</g>
				<g>
					<path fill="#221526" d="M420.4,224.8c0,0.9-0.4,1.8-1.2,2.3l-3.4-27.6c0.6-0.3,1-0.9,1.3-1.5l3.3,26.6c0,0,0,0.1,0,0.1
						C420.3,224.7,420.3,224.7,420.4,224.8z"/>
				</g>
			</g>
			<g>
				<g>
					<path fill="#FFFFFF" d="M422.6,210.5c-0.2,0-0.4,0-0.6,0c-0.2,0-0.4-0.1-0.6-0.2c-0.2-0.1-0.3-0.2-0.5-0.4
						c-0.1-0.2-0.2-0.4-0.3-0.6c-0.1-0.3,0-0.5,0-0.8c0.1-0.3,0.2-0.5,0.3-0.7c0.2-0.2,0.4-0.4,0.6-0.6c0.2-0.2,0.5-0.3,0.9-0.3
						c0.2,0,0.3,0,0.5,0c0.2,0,0.3,0,0.4,0.1c0.1,0,0.2,0.1,0.3,0.1c0.1,0.1,0.2,0.1,0.3,0.2l-0.5,0.7c-0.1-0.1-0.3-0.1-0.4-0.2
						c-0.1,0-0.3,0-0.5,0c-0.2,0-0.3,0.1-0.4,0.2c-0.1,0.1-0.2,0.2-0.3,0.3c-0.1,0.1-0.1,0.3-0.2,0.4c0,0.2,0,0.3,0,0.5
						c0,0.1,0.1,0.2,0.1,0.3c0.1,0.1,0.1,0.1,0.2,0.2c0.1,0,0.2,0.1,0.3,0.1c0.1,0,0.2,0,0.3,0c0.1,0,0.2,0,0.2-0.1
						c0.1,0,0.1-0.1,0.2-0.1l0-0.5l-0.7,0.1l0-0.7l1.6-0.3l-0.2,1.8c-0.1,0.1-0.3,0.2-0.5,0.3C423.1,210.3,422.8,210.4,422.6,210.5z
						"/>
				</g>
				<g>
					<path fill="#FFFFFF" d="M426.1,209.8c-0.4,0.1-0.8,0-1.1-0.1c-0.3-0.2-0.5-0.4-0.5-0.8c0-0.1,0-0.2,0-0.3c0-0.1,0-0.2,0-0.3
						l0.1-1.8l0.9-0.2l-0.1,1.9c0,0.1,0,0.1,0,0.2c0,0.1,0,0.1,0,0.2c0,0.2,0.1,0.3,0.2,0.3c0.1,0.1,0.2,0.1,0.4,0.1
						c0.2,0,0.3-0.1,0.4-0.3c0.1-0.1,0.1-0.2,0.1-0.3c0-0.1,0-0.2,0.1-0.4l0.2-2l0.9-0.2l-0.2,2.1c0,0.5-0.1,0.8-0.3,1.1
						c-0.1,0.2-0.3,0.3-0.5,0.4C426.5,209.7,426.3,209.7,426.1,209.8z"/>
				</g>
				<g>
					<path fill="#FFFFFF" d="M428.3,205.8l0.9-0.2l-0.3,3.6l-0.9,0.2L428.3,205.8z"/>
				</g>
				<g>
					<path fill="#FFFFFF" d="M429.9,205.5l1.1-0.2c0.3-0.1,0.6-0.1,0.8,0c0.2,0,0.4,0.1,0.6,0.2c0.3,0.2,0.5,0.5,0.6,0.9
						c0,0.3,0,0.5,0,0.7c-0.1,0.2-0.1,0.5-0.3,0.7c-0.2,0.2-0.4,0.4-0.7,0.6c-0.3,0.2-0.6,0.3-1,0.4l-1.4,0.3L429.9,205.5z
						 M430.9,207.9c0.2,0,0.4-0.1,0.5-0.2c0.2-0.1,0.3-0.2,0.4-0.3c0.1-0.1,0.1-0.2,0.2-0.4c0-0.1,0-0.3,0-0.4
						c0-0.1-0.1-0.2-0.1-0.3c0-0.1-0.1-0.1-0.2-0.2c-0.1-0.1-0.2-0.1-0.3-0.1c-0.1,0-0.3,0-0.4,0l-0.3,0.1l-0.1,1.8L430.9,207.9z"/>
				</g>
				<g>
					<path fill="#FFFFFF" d="M433.5,204.8l2.7-0.5l-0.1,0.8l-1.8,0.3l0,0.5l1.6-0.3l-0.1,0.8l-1.6,0.3l0,0.6l1.8-0.3l-0.1,0.8
						l-2.7,0.5L433.5,204.8z"/>
				</g>
				<g>
					<path fill="#FFFFFF" d="M422.5,212.9l1.4-0.3c0.2,0,0.4-0.1,0.6,0c0.2,0,0.3,0.1,0.4,0.1c0.1,0.1,0.2,0.1,0.3,0.2
						c0.1,0.1,0.1,0.2,0.1,0.3c0,0.2,0,0.4-0.1,0.6c-0.1,0.2-0.3,0.3-0.5,0.4c0.2,0,0.3,0.1,0.4,0.2c0.1,0.1,0.2,0.2,0.2,0.4
						c0,0.1,0,0.3,0,0.4c0,0.1-0.1,0.3-0.2,0.4c-0.1,0.1-0.3,0.2-0.4,0.3c-0.2,0.1-0.4,0.2-0.7,0.2l-1.8,0.3L422.5,212.9z
						 M423.9,215.4c0.2,0,0.3-0.1,0.4-0.2c0.1-0.1,0.1-0.2,0.1-0.3c0-0.2-0.2-0.2-0.5-0.2l-0.6,0.1l0,0.7L423.9,215.4z M424,214
						c0.2,0,0.3-0.1,0.4-0.2c0.1-0.1,0.1-0.2,0.1-0.3c0-0.1-0.1-0.1-0.1-0.2c-0.1,0-0.2,0-0.3,0l-0.6,0.1l0,0.6L424,214z"/>
				</g>
				<g>
					<path fill="#FFFFFF" d="M427.7,215.5c-0.2,0-0.5,0-0.7,0c-0.2,0-0.4-0.1-0.6-0.2c-0.2-0.1-0.3-0.2-0.4-0.4
						c-0.1-0.2-0.2-0.4-0.2-0.6c0-0.3,0-0.5,0-0.8c0.1-0.3,0.2-0.5,0.3-0.7c0.1-0.2,0.3-0.4,0.6-0.6c0.2-0.2,0.5-0.3,0.8-0.3
						c0.2,0,0.5,0,0.7,0c0.2,0,0.4,0.1,0.6,0.2c0.2,0.1,0.3,0.2,0.4,0.4c0.1,0.2,0.2,0.4,0.2,0.6c0,0.3,0,0.5,0,0.8
						c-0.1,0.3-0.2,0.5-0.3,0.7c-0.1,0.2-0.3,0.4-0.6,0.6C428.2,215.3,427.9,215.4,427.7,215.5z M427.6,214.6c0.1,0,0.3-0.1,0.4-0.2
						c0.1-0.1,0.2-0.2,0.3-0.3c0.1-0.1,0.1-0.2,0.1-0.4c0-0.1,0-0.3,0-0.4c0-0.1-0.1-0.2-0.1-0.3c0-0.1-0.1-0.2-0.2-0.2
						c-0.1-0.1-0.2-0.1-0.3-0.1c-0.1,0-0.2,0-0.3,0c-0.1,0-0.3,0.1-0.4,0.2c-0.1,0.1-0.2,0.2-0.3,0.3c-0.1,0.1-0.1,0.2-0.1,0.4
						c0,0.1,0,0.3,0,0.4c0,0.1,0.1,0.2,0.1,0.3c0,0.1,0.1,0.2,0.2,0.2c0.1,0.1,0.2,0.1,0.3,0.1C427.4,214.7,427.5,214.7,427.6,214.6
						z"/>
				</g>
				<g>
					<path fill="#FFFFFF" d="M431.6,214.8c-0.2,0-0.5,0-0.7,0c-0.2,0-0.4-0.1-0.6-0.2c-0.2-0.1-0.3-0.2-0.4-0.4
						c-0.1-0.2-0.2-0.4-0.2-0.6c0-0.3,0-0.5,0-0.8c0.1-0.3,0.2-0.5,0.3-0.7c0.1-0.2,0.3-0.4,0.6-0.6c0.2-0.2,0.5-0.3,0.8-0.3
						c0.2,0,0.5,0,0.7,0c0.2,0,0.4,0.1,0.6,0.2c0.2,0.1,0.3,0.2,0.4,0.4c0.1,0.2,0.2,0.4,0.2,0.6c0,0.3,0,0.5,0,0.8
						c-0.1,0.3-0.2,0.5-0.3,0.7c-0.1,0.2-0.3,0.4-0.6,0.6C432.1,214.6,431.9,214.7,431.6,214.8z M431.5,213.9c0.1,0,0.3-0.1,0.4-0.2
						c0.1-0.1,0.2-0.2,0.3-0.3c0.1-0.1,0.1-0.2,0.1-0.4c0-0.1,0-0.3,0-0.4c0-0.1-0.1-0.2-0.1-0.3c0-0.1-0.1-0.2-0.2-0.2
						c-0.1-0.1-0.2-0.1-0.3-0.1c-0.1,0-0.2,0-0.3,0c-0.1,0-0.3,0.1-0.4,0.2c-0.1,0.1-0.2,0.2-0.3,0.3c-0.1,0.1-0.1,0.2-0.1,0.4
						c0,0.1,0,0.3,0,0.4c0,0.1,0.1,0.2,0.1,0.3c0.1,0.1,0.1,0.2,0.2,0.2c0.1,0.1,0.2,0.1,0.3,0.1
						C431.3,213.9,431.4,213.9,431.5,213.9z"/>
				</g>
				<g>
					<path fill="#FFFFFF" d="M433.9,210.8l0.9-0.2l-0.1,1.4l1.1-1.6l1.2-0.2l-1.3,1.8l1.1,1.8l-1,0.2l-0.7-1.2l-0.5,0.6l-0.1,0.8
						l-0.9,0.2L433.9,210.8z"/>
				</g>
			</g>
		</g>
		<g>
			<g>
				<path fill="#333333" d="M442.5,228.3c-4.4,0.5-8.9-2.6-13.5-9.3l4.1-2.8c3.6,5.1,6.8,7.7,9.2,7.1c4.7-1.1,8.5-13.2,9.8-21.4
					l4.9,0.7c0,0.2-0.8,5.6-2.7,11.4c-2.7,8.3-6.4,13.1-10.8,14.1C443.2,228.2,442.9,228.2,442.5,228.3z"/>
			</g>
		</g>
	</g>
</g>
<rect x="56.3" y="54.4" fill="none" width="243.3" height="87.7"/>
<text transform="matrix(1 0 0 1 72.0273 69.5254)"><tspan x="0" y="0" fill="#9ED8D5" font-family="'Avenir-Black'" font-size="20">DO YOU HAVE MORE </tspan><tspan x="1.6" y="24" fill="#9ED8D5" font-family="'Avenir-Black'" font-size="20">QUESTIONS FOR US?</tspan><tspan x="64.3" y="57.2" fill="#FFFFFF" font-family="'Avenir-Black'" font-size="16">EMAIL US!</tspan></text>
<g>
	<g>
		<path fill="#7DAF43" d="M38.2,245.1c0,0-6.3-20.8-8.1-36.1c-1.9-15.2-11.3-24.5-18.2-29.2c1.8,17.3-1.7,27.1,4,34.6
			C21.5,222,38.2,245.1,38.2,245.1z"/>
		<path fill="#697736" d="M41.5,237.1c0,0-3.1,1.8,3.5-14.1c6.6-15.9,0.5-37.3,0.5-37.3s-12.7,8.2-12.2,21.6
			c0.5,13.4-0.1,22,1.1,28.1C35.7,241.4,41.5,237.1,41.5,237.1z"/>
		<path fill="#7DAF43" d="M41.6,242.1c0,0-4.7-9.9,10-11.7c14.8-1.8,20.7-11.8,23-18c-8.5,3.2-18.7,1.2-20.2,2.8
			C53,216.8,35.7,233.4,41.6,242.1z"/>
		<path fill="#697736" d="M31.5,241.6c0,0,1.2-10.2-8.5-10.7c-9.7-0.5-20.3-11.5-23-17.4c6,2.4,15.7,3.5,18.8,4.7
			C20.5,218.9,33.6,232.6,31.5,241.6z"/>
	</g>
	<path fill="#553A3D" d="M14.3,235.5c8.9,0,17.1,0,21.3,0c0,0,1.1,0,3.1,0c4.3,0,12.7,0,21.7,0c9.2,9-4.3,46-4.3,46H38.6h-3.1h-17
		C18.6,281.5,5.1,244.5,14.3,235.5z"/>
	<path fill="#432C31" d="M66.7,242.4c-0.4,1.1-1.7,2.1-2.9,2.1H10.4c-1.2,0-2.5-1-2.9-2.1l-1.9-5.7c-0.4-1.1,0.3-2.1,1.5-2.1h60
		c1.2,0,1.9,1,1.5,2.1L66.7,242.4z"/>
</g>
<g>
	<g>
		<path fill="#7DAF43" d="M355.2,247.1c0,0-6.3-20.8-8.1-36.1c-1.9-15.2-11.3-24.5-18.2-29.2c1.8,17.3-1.7,27.1,4,34.6
			C338.5,224,355.2,247.1,355.2,247.1z"/>
		<path fill="#697736" d="M358.5,239.1c0,0-3.1,1.8,3.5-14.1c6.6-15.9,0.5-37.3,0.5-37.3s-12.7,8.2-12.2,21.6
			c0.6,13.4-0.1,22,1.1,28.1C352.7,243.4,358.5,239.1,358.5,239.1z"/>
		<path fill="#7DAF43" d="M358.6,244.1c0,0-4.7-9.9,10-11.7c14.8-1.8,20.7-11.8,23-18c-8.5,3.2-18.7,1.2-20.2,2.8
			C370,218.8,352.7,235.4,358.6,244.1z"/>
		<path fill="#697736" d="M348.5,243.6c0,0,1.2-10.2-8.5-10.7c-9.7-0.5-20.3-11.5-23-17.4c6,2.4,15.7,3.5,18.8,4.7
			C337.5,220.9,350.6,234.6,348.5,243.6z"/>
	</g>
	<path fill="#553A3D" d="M331.3,237.5c8.9,0,17.1,0,21.3,0c0,0,1.1,0,3.1,0c4.3,0,12.7,0,21.7,0c9.2,9-4.3,46-4.3,46h-17.3h-3.1h-17
		C335.6,283.5,322.1,246.5,331.3,237.5z"/>
	<path fill="#432C31" d="M383.7,244.4c-0.4,1.1-1.7,2.1-2.9,2.1h-53.5c-1.2,0-2.5-1-2.9-2.1l-1.9-5.7c-0.4-1.1,0.3-2.1,1.5-2.1h60
		c1.2,0,1.9,1,1.5,2.1L383.7,244.4z"/>
</g>
<g>
	<g>
		<g>
			<circle fill="#FFFFFF" cx="177.8" cy="172.7" r="18.4"/>
		</g>
	</g>
	<g>
		<polygon fill="#66708B" points="177.8,179.6 168.9,170.8 170.6,169.1 177.8,176.3 184.9,169.1 186.6,170.8 		"/>
	</g>
</g>
</svg>
