<?xml version="1.0" encoding="utf-8"?>
<!-- Generator: Adobe Illustrator 18.1.1, SVG Export Plug-In . SVG Version: 6.00 Build 0)  -->
<svg version="1.0" id="Layer_1" xmlns="http://www.w3.org/2000/svg" xmlns:xlink="http://www.w3.org/1999/xlink" x="0px" y="0px"
	 viewBox="0 0 312.7 70.3" enable-background="new 0 0 312.7 70.3" xml:space="preserve">
<rect x="3.8" y="4" fill="#872D34" width="308.9" height="66.3"/>
<rect x="0" y="0" fill="#EA5059" width="308.9" height="66.3"/>
<path fill="#872D34" d="M11.5,33.2c0,12.7,4.6,24.2,12.3,33.2h77.3c7.6-8.9,12.3-20.5,12.3-33.2c0-12.7-4.6-24.2-12.3-33.2H23.8
	C16.1,8.9,11.5,20.5,11.5,33.2z"/>
<rect x="134.3" y="15.5" fill="none" width="155.9" height="45.6"/>
<text transform="matrix(1 0 0 1 134.2881 30.5982)"><tspan x="0" y="0" fill="#872D34" font-family="'Avenir-Black'" font-size="20">GAME </tspan><tspan x="0" y="21" fill="#872D34" font-family="'Avenir-Black'" font-size="20">DEVELOPMENT</tspan></text>
<g>
	<path fill="#EA5059" d="M77.6,55.8c1.6,2.8,5,4,7.9,2.9c3-1.1,4.8-4.2,4.2-7.3l-2.4-14.2c-0.6-3.5-2.7-6.5-5.8-8.3
		c-3.1-1.8-6.7-2.1-10.1-0.9l-3.7,1.4c-1.8,0.7-3.8,0.7-5.6,0L58.6,28c-3.3-1.2-7-0.9-10.1,0.9c-3.1,1.8-5.2,4.8-5.8,8.3l-2.4,14.2
		c-0.5,3.1,1.2,6.2,4.2,7.3c3,1.1,6.3-0.1,7.9-2.9l0.3-0.4c1.5-2.5,4.1-4,7-4h10.6c2.9,0,5.6,1.5,7,4L77.6,55.8z"/>
	<path fill="#FFE7D2" d="M74.6,53.8c1.6,2.8,5,4,7.9,2.9c3-1.1,4.8-4.2,4.2-7.3l-2.4-14.2c-0.6-3.5-2.7-6.5-5.8-8.3
		c-3.1-1.8-6.7-2.1-10.1-0.9l-3.7,1.4c-1.8,0.7-3.8,0.7-5.6,0L55.6,26c-3.3-1.2-7-0.9-10.1,0.9c-3.1,1.8-5.2,4.8-5.8,8.3l-2.4,14.2
		c-0.5,3.1,1.2,6.2,4.2,7.3c3,1.1,6.3-0.1,7.9-2.9l0.3-0.4c1.5-2.5,4.1-4,7-4h10.6c2.9,0,5.6,1.5,7,4L74.6,53.8z"/>
	<circle fill="#EA5059" cx="73.1" cy="32.2" r="2.4"/>
	<circle fill="#EA5059" cx="73.1" cy="42" r="2.4"/>
	<circle fill="#EA5059" cx="77.9" cy="37.1" r="2.4"/>
	<circle fill="#EA5059" cx="68.2" cy="37.1" r="2.4"/>
	<g>
		<g>
			<path fill="#F5EDE5" d="M75,16.3c-0.1,0.1-0.2,0.3-0.3,0.4c-0.7,0.7-1.9,0.7-2.6,0c-5-5-13.2-5-18.2,0c-0.7,0.7-1.9,0.7-2.6,0
				c-0.7-0.7-0.7-1.9,0-2.6c6.4-6.4,16.9-6.4,23.3,0C75.3,14.7,75.4,15.6,75,16.3z"/>
		</g>
		<g>
			<path fill="#F5EDE5" d="M69.8,21.5c-0.1,0.1-0.2,0.3-0.3,0.4c-0.7,0.7-1.9,0.7-2.6,0c-1-1-2.4-1.6-3.9-1.6
				c-1.5,0-2.9,0.6-3.9,1.6c-0.7,0.7-1.9,0.7-2.6,0c-0.7-0.7-0.7-1.9,0-2.6c1.7-1.7,4-2.7,6.5-2.7c2.4,0,4.8,1,6.5,2.7
				C70.1,19.9,70.2,20.8,69.8,21.5z"/>
		</g>
	</g>
	<g>
		<path fill="#A1BF3C" d="M52.3,41.4c0,0.7-0.5,1.2-1.2,1.2h-1.2c-0.7,0-1.2-0.5-1.2-1.2v-9.8c0-0.7,0.5-1.2,1.2-1.2H51
			c0.7,0,1.2,0.5,1.2,1.2V41.4z"/>
		<path fill="#A1BF3C" d="M45.5,38.3c-0.7,0-1.2-0.5-1.2-1.2v-1.2c0-0.7,0.5-1.2,1.2-1.2h9.8c0.7,0,1.2,0.5,1.2,1.2v1.2
			c0,0.7-0.6,1.2-1.2,1.2H45.5z"/>
	</g>
</g>
</svg>
