<?xml version="1.0" encoding="utf-8"?>
<!-- Generator: Adobe Illustrator 18.1.1, SVG Export Plug-In . SVG Version: 6.00 Build 0)  -->
<svg version="1.0" id="Layer_1" xmlns="http://www.w3.org/2000/svg" xmlns:xlink="http://www.w3.org/1999/xlink" x="0px" y="0px"
	 viewBox="0 0 121.6 105.2" enable-background="new 0 0 121.6 105.2" xml:space="preserve">
<g>
	<g>
		<rect x="6.9" y="0" fill="none" width="105.2" height="105.2"/>
		<g>
			<path fill="#F48374" d="M79.2,55.3c0,0-10.4,30.5-48.2,11.4c-44.5-22.5-24-65.5-24-65.5S-16.8,42.7,23.4,72
				c14,10.2,35.5,13.8,45.1,7.3C77.1,73.5,80.3,65.8,79.2,55.3z"/>
			<path fill="#F48374" d="M63.1,56.7c0,0-32.9,6.2-43.5-30.4c0,0-2,30.7,40.7,41.5l8-1.1C68.3,66.7,71.4,54,63.1,56.7z"/>
			<g>
				<polygon fill="#134A89" enable-background="new    " points="79.4,44.3 85.6,31 85.4,45.7 96.9,36.4 90.3,49.6 104.7,46.2 
					93,55.2 107.4,58.3 93,61.5 104.7,70.5 90.3,67.1 96.9,80.3 85.4,71 85.6,85.7 79.4,72.4 73.1,85.7 73.3,71 61.8,80.3 
					68.4,67.1 54,70.5 65.7,61.5 51.3,58.3 65.7,55.2 54,46.2 68.4,49.6 61.8,36.4 73.3,45.7 73.1,31 				"/>
				<path fill="#FFFFFF" d="M79.4,43.1c-0.8-1.7-5.8-12.4-5.8-12.4l-1,0.2c0,0,0.1,11.8,0.1,13.7C71.3,43.4,62.2,36,62.2,36
					l-0.8,0.6c0,0,5.2,10.6,6.1,12.2c-1.8-0.4-13.3-3.2-13.3-3.2l-0.4,0.9c0,0,9.3,7.3,10.8,8.4c-1.8,0.4-13.3,2.9-13.3,2.9v1
					c0,0,11.5,2.5,13.3,2.9c-1.5,1.1-10.8,8.4-10.8,8.4l0.4,0.9c0,0,11.5-2.7,13.3-3.2c-0.8,1.7-6.1,12.2-6.1,12.2l0.8,0.6
					c0,0,9.1-7.5,10.6-8.6c0,1.9-0.1,13.7-0.1,13.7l1,0.2c0,0,5-10.7,5.8-12.4c0.8,1.7,5.8,12.4,5.8,12.4l1-0.2
					c0,0-0.1-11.8-0.1-13.7c1.4,1.2,10.6,8.6,10.6,8.6l0.8-0.6c0,0-5.2-10.6-6.1-12.2c1.8,0.4,13.3,3.2,13.3,3.2l0.4-0.9
					c0,0-9.3-7.3-10.8-8.4c1.8-0.4,13.3-2.9,13.3-2.9v-1c0,0-11.5-2.5-13.3-2.9c1.5-1.1,10.8-8.4,10.8-8.4l-0.4-0.9
					c0,0-11.5,2.7-13.3,3.2c0.8-1.7,6.1-12.2,6.1-12.2L96.5,36c0,0-9.2,7.5-10.6,8.6c0-1.8,0.1-13.7,0.1-13.7l-1-0.2
					C85.1,30.7,80.1,41.4,79.4,43.1z M79.8,44.5c0,0,3.9-8.2,5.3-11.2c0,3.3-0.1,13.5-0.1,13.5s7.9-6.4,10.5-8.5
					c-1.5,3-6,12.1-6,12.1s9.9-2.4,13.1-3.1c-2.6,2-10.6,8.3-10.6,8.3s10,2.2,13.2,2.9c-3.2,0.7-13.2,2.9-13.2,2.9s8,6.3,10.6,8.3
					c-3.2-0.8-13.1-3.1-13.1-3.1s4.5,9.1,6,12.1c-2.6-2.1-10.5-8.5-10.5-8.5s0.1,10.2,0.1,13.5c-1.4-3-5.7-12.2-5.7-12.2
					s-4.3,9.2-5.7,12.2c0-3.3,0.1-13.5,0.1-13.5s-7.9,6.4-10.5,8.5c1.5-3,6-12.1,6-12.1s-9.9,2.4-13.1,3.1c2.6-2,10.6-8.3,10.6-8.3
					s-10-2.2-13.2-2.9c3.2-0.7,13.2-2.9,13.2-2.9s-8-6.3-10.6-8.3c3.2,0.8,13.1,3.1,13.1,3.1s-4.5-9.1-6-12.1
					c2.6,2.1,10.5,8.5,10.5,8.5s-0.1-10.2-0.1-13.5c1.4,3,5.7,12.2,5.7,12.2L79.8,44.5z"/>
				<polygon fill="#FFDB5D" points="79.4,49.1 83.6,40.2 83.5,50 91.1,43.8 86.7,52.6 96.3,50.3 88.5,56.3 98.1,58.4 88.5,60.5 
					96.3,66.5 86.7,64.2 91.1,73 83.5,66.8 83.6,76.6 79.4,67.8 75.3,76.6 75.4,66.8 67.8,73 72.1,64.2 62.6,66.5 70.3,60.5 
					60.8,58.4 70.3,56.3 62.6,50.3 72.1,52.6 67.8,43.8 75.4,50 75.3,40.2 				"/>
			</g>
			<g>
				<g>
					<path fill="#4F343D" d="M14.9,75.3L14.9,75.3c-0.1,0-2.4,1.6-3.6,2.4c-1.2-0.8-3.6-2.4-3.6-2.4l-0.1,0
						c-0.9-0.5-1.9-0.4-2.7,0.2c-0.9,0.7-1.1,1.4-1.1,1.9c0,0,0,6.6,0,6.6c0,0.9,0.4,1.4,0.7,1.8c0.3,0.3,0.9,0.7,1.8,0.7
						c1.4,0,2.5-1,2.5-2.5c0,0,0-1,0-1.9c0.2,0.2,0.7,0.5,0.7,0.5l-0.2-0.1c0.6,0.5,1.3,0.8,1.9,0.8c0.6,0,1.2-0.3,1.9-0.8l-0.1,0.1
						c0,0,0.5-0.3,0.7-0.5c0,0.9,0,2,0,2c0,1.4,1,2.5,2.5,2.5c1.5,0,2.5-1,2.5-2.5v-6.6v0c0-0.8-0.4-1.6-1.2-2
						C16.8,74.8,15.8,74.8,14.9,75.3z"/>
				</g>
				<g>
					<path fill="#4F343D" d="M27.7,75.4L27.7,75.4c0,0-2.3,1.6-3.5,2.3c-1.2-0.8-3.5-2.3-3.5-2.3c-1.2-0.8-2.6-0.5-3.4,0.7
						c-0.3,0.5-0.5,1-0.5,1.4c0,0.8,0.4,1.5,1.1,2c0,0,2.8,1.8,3.8,2.5c0,0.8,0,1.9,0,1.9c0,1.5,1,2.5,2.5,2.5c1.4,0,2.5-1,2.5-2.5
						v0c0,0,0-1.1,0-1.9c1-0.7,3.7-2.5,3.7-2.5c0.7-0.5,1.1-1.2,1.1-2c0-0.5-0.1-1-0.5-1.4C30.3,74.9,28.9,74.6,27.7,75.4z"/>
				</g>
				<g>
					<path fill="#4F343D" d="M34.5,75L34.5,75c-3.1,0-4.9,1.8-4.9,4.9v1.6c0,3.1,1.8,5,4.9,5h6.6c2,0,3.3-1.3,3.3-3.3v-1.7
						c0-0.9-0.3-1.7-0.8-2.3c0.5-0.4,0.8-1.1,0.8-1.8c0,0,0,0,0,0c0-0.9-0.4-1.5-0.7-1.8c-0.3-0.3-0.9-0.7-1.8-0.7L34.5,75z"/>
				</g>
				<g>
					<path fill="#4F343D" d="M46.6,74.9c-1.3,0-2.3,0.8-2.6,2.1l0,0l-1.5,6.8V84c0,0.9,0.3,1.4,0.6,1.7c0.4,0.5,1.1,0.8,1.8,0.8
						c1.3,0,2.2-0.8,2.5-2.1l0,0c0,0,0.1-0.6,0.2-1.1c1.4,0,3.1,0,4.4,0c0.2,0.6,0.3,1.2,0.3,1.2c0.3,1.3,1.3,2.1,2.5,2.1
						c1.4,0,2.4-1,2.4-2.5v-0.2l-1.6-6.7l0,0.1c-0.2-1.3-1.3-2.2-2.6-2.2H46.6z M52.6,78.3c0.1,0.2,0.2,0.9,0.4,1.6
						c-0.6,0-5.5,0-6.3,0c0.2-0.7,0.3-1.4,0.3-1.6C47.8,78.3,51.8,78.3,52.6,78.3z"/>
					<polygon fill="#4F343D" points="52.7,76.6 45.6,76.6 44.5,81.6 55.3,81.6 54,76.6 					"/>
				</g>
				<g>
					<path fill="#4F343D" d="M66.3,75.3L66.3,75.3c-0.1,0-2.4,1.6-3.6,2.4c-1.2-0.8-3.6-2.4-3.6-2.4l-0.1,0
						c-0.9-0.5-1.9-0.4-2.7,0.2c-0.9,0.7-1.1,1.4-1.1,1.9c0,0,0,6.6,0,6.6c0,0.9,0.4,1.4,0.7,1.8c0.3,0.3,0.9,0.7,1.8,0.7
						c1.4,0,2.5-1,2.5-2.5c0,0,0-1,0-1.9c0.2,0.2,0.7,0.5,0.7,0.5l-0.2-0.1c0.6,0.5,1.3,0.8,1.9,0.8c0.6,0,1.2-0.3,1.9-0.8l-0.1,0.1
						c0,0,0.5-0.3,0.7-0.5c0,0.9,0,2,0,2c0,1.4,1,2.5,2.5,2.5c1.5,0,2.5-1,2.5-2.5v-6.6l0,0c0-0.8-0.4-1.6-1.2-2
						C68.2,74.8,67.2,74.8,66.3,75.3z"/>
				</g>
				<g>
					<path fill="#4F343D" d="M70.7,74.9c-1.5,0-2.5,1-2.5,2.5V84c0,1.5,1,2.5,2.5,2.5h9.9c1.5,0,2.5-1,2.5-2.5
						c0-1.2-0.7-2.1-1.8-2.4c0.1-0.3,0.2-0.6,0.2-0.9c0-0.3-0.1-0.6-0.2-0.9c1.1-0.3,1.8-1.2,1.8-2.4c0-1.5-1-2.5-2.5-2.5H70.7z"/>
				</g>
				<g>
					<path fill="#4F343D" d="M81.1,77.4V84c0,1.5,1,2.5,2.5,2.5h7.4c1.5,0,2.8-0.4,3.6-1.3c0.9-0.9,1.3-2.1,1.3-3.6v-1.6
						c0-1.5-0.4-2.8-1.3-3.6c-0.9-0.9-2.1-1.3-3.6-1.3l-7.4,0C82.1,75,81.1,76,81.1,77.4z M84.4,78.3c1.3,0,6.5,0,6.5,0
						c0.6,0,1.1,0.1,1.3,0.3c0.2,0.2,0.3,0.7,0.3,1.3v1.6c0,0.6-0.1,1.1-0.3,1.3c-0.3,0.3-0.8,0.3-1.3,0.3c0,0-5.2,0-6.5,0
						C84.4,82.1,84.4,79.4,84.4,78.3z"/>
					<path fill="#4F343D" d="M90.9,76.6h-8.2l0,8.3h8.2c1.3,0,2-0.5,2.4-0.9c0.4-0.4,0.9-1.2,0.9-2.4v-1.6
						C94.2,77.9,92.9,76.6,90.9,76.6L90.9,76.6L90.9,76.6z M90.9,79.9C90.9,79.9,90.9,79.9,90.9,79.9c0,0,0,1.6,0,1.6c0,0-3,0-4.9,0
						c0-0.7,0-0.9,0-1.6C87.9,79.9,90.9,79.9,90.9,79.9z"/>
				</g>
				<g>
					<path fill="#4F343D" d="M96.4,74.9c-1.5,0-2.5,1-2.5,2.5V84c0,1.5,1,2.5,2.5,2.5h9.9c1.5,0,2.5-1,2.5-2.5
						c0-1.2-0.7-2.1-1.8-2.4c0.1-0.3,0.1-0.6,0.1-0.9c0-0.3-0.1-0.6-0.1-0.9c1.1-0.3,1.8-1.2,1.8-2.4c0-1.5-1-2.5-2.5-2.5H96.4z"/>
				</g>
				<g>
					<path fill="#4F343D" d="M118.8,75c-0.5,0-1.1,0.3-1.7,1l0,0c0,0-1.6,2.3-2.9,4.1c-1.3-1.8-3-4.3-3-4.3l-0.1-0.1
						c-1-1-2.4-1-3.4,0c-0.9,0.9-1.1,2.1-0.5,3.1l0,0.1l4.9,6.7l0.1,0.1c0.6,0.5,1.3,0.8,1.9,0.8c0.6,0,1.2-0.3,1.8-0.8l0.2-0.1
						l4.9-6.6l0,0c0.8-1.1,0.7-2.5-0.4-3.4C120,75,119.3,74.9,118.8,75z"/>
				</g>
				<path fill="#62C7C7" d="M17.1,77.4V84c0,0.5-0.3,0.8-0.8,0.8c-0.5,0-0.8-0.3-0.8-0.8l0-5.1l-3.3,2.2c-0.3,0.3-0.6,0.4-0.8,0.4
					c-0.2,0-0.5-0.1-0.8-0.4L7.2,79v5c0,0.5-0.3,0.8-0.8,0.8c-0.5,0-0.8-0.3-0.8-0.8v-6.6c0-0.2,0.1-0.4,0.4-0.6
					c0.3-0.2,0.6-0.2,0.9,0l4.4,2.9l4.4-2.9c0.4-0.2,0.7-0.2,0.9,0C16.9,76.9,17.1,77.1,17.1,77.4z"/>
				<path fill="#62C7C7" d="M29.5,78.2l-4.5,3l0,2.8c0,0.6-0.3,0.8-0.8,0.8c-0.5,0-0.8-0.3-0.8-0.8l0-2.8l-4.5-3
					c-0.5-0.3-0.5-0.7-0.2-1.1c0.3-0.4,0.7-0.5,1.1-0.2l4.4,2.9l4.4-2.9c0.5-0.3,0.8-0.2,1.1,0.2C30,77.5,29.9,77.9,29.5,78.2z"/>
				<path fill="#FFFFFF" d="M34.5,76.7l7.4,0c0.5,0,0.8,0.3,0.8,0.8c0,0.5-0.3,0.8-0.8,0.8h-7.4c-1.1,0-1.6,0.6-1.6,1.7v1.6
					c0,1.1,0.6,1.7,1.7,1.7h6.5v-1.7H37c-0.5,0-0.8-0.3-0.8-0.8c0-0.5,0.3-0.8,0.8-0.8h4.1c1.1,0,1.7,0.6,1.7,1.7v1.7
					c0,1.1-0.6,1.6-1.7,1.6h-6.6c-2.2,0-3.3-1.1-3.3-3.3v-1.6C31.2,77.7,32.3,76.7,34.5,76.7z"/>
				<path fill="#FFFFFF" d="M44.1,84l1.4-6.6c0.1-0.5,0.5-0.8,1-0.8h6.6c0.5,0,0.9,0.3,1,0.8l1.5,6.5c0,0.5-0.2,0.8-0.7,0.8
					c-0.5,0-0.8-0.3-0.9-0.8l-0.6-2.4h-7.1L45.8,84c-0.1,0.5-0.4,0.8-0.9,0.8C44.4,84.8,44.1,84.6,44.1,84z M53.1,79.9l-0.4-1.6
					h-5.8l-0.4,1.6H53.1z"/>
				<path fill="#FFFFFF" d="M68.5,77.4V84c0,0.5-0.3,0.8-0.8,0.8c-0.5,0-0.8-0.3-0.8-0.8l0-5.1l-3.3,2.2c-0.3,0.3-0.6,0.4-0.8,0.4
					c-0.2,0-0.5-0.1-0.8-0.4L58.6,79v5c0,0.5-0.3,0.8-0.8,0.8c-0.5,0-0.8-0.3-0.8-0.8v-6.6c0-0.2,0.1-0.4,0.4-0.6
					c0.3-0.2,0.6-0.2,0.9,0l4.4,2.9l4.4-2.9c0.4-0.2,0.7-0.2,0.9,0C68.3,76.9,68.5,77.1,68.5,77.4z"/>
				<path fill="#FFFFFF" d="M69.9,84v-6.6c0-0.5,0.3-0.8,0.8-0.8h9.9c0.5,0,0.8,0.3,0.8,0.8c0,0.5-0.3,0.8-0.8,0.8h-9v1.6h7.4
					c0.5,0,0.8,0.3,0.8,0.8c0,0.6-0.3,0.8-0.8,0.8h-7.4v1.6h9c0.5,0,0.8,0.3,0.8,0.8c0,0.5-0.3,0.8-0.8,0.8h-9.9
					C70.1,84.8,69.9,84.6,69.9,84z"/>
				<path fill="#62C7C7" d="M94.2,79.9v1.6c0,2.2-1.1,3.3-3.3,3.3h-7.4c-0.5,0-0.8-0.3-0.8-0.8v-6.5c0-0.5,0.3-0.8,0.8-0.8l7.4,0
					C93.1,76.7,94.2,77.7,94.2,79.9z M84.4,83.2h6.5c1.1,0,1.7-0.6,1.7-1.7v-1.6c0-1.1-0.6-1.6-1.7-1.7h-6.6L84.4,83.2z"/>
				<path fill="#62C7C7" d="M95.6,84v-6.6c0-0.5,0.3-0.8,0.8-0.8h9.9c0.5,0,0.8,0.3,0.8,0.8c0,0.5-0.3,0.8-0.8,0.8h-9v1.6h7.4
					c0.5,0,0.8,0.3,0.8,0.8c0,0.6-0.3,0.8-0.8,0.8h-7.4v1.6h9c0.5,0,0.8,0.3,0.8,0.8c0,0.5-0.3,0.8-0.8,0.8h-9.9
					C95.8,84.8,95.6,84.6,95.6,84z"/>
				<path fill="#62C7C7" d="M119.8,78l-4.7,6.4c-0.3,0.3-0.6,0.4-0.8,0.4c-0.2,0-0.5-0.1-0.8-0.4l-4.8-6.5c-0.2-0.4-0.2-0.7,0.2-1.1
					c0.4-0.3,0.7-0.3,1.1,0l4.3,6l4.2-6c0.3-0.4,0.7-0.5,1.1-0.1C120,77.2,120.1,77.6,119.8,78z"/>
			</g>
		</g>
	</g>
</g>
</svg>
