<?xml version="1.0" encoding="utf-8"?>
<!-- Generator: Adobe Illustrator 18.1.1, SVG Export Plug-In . SVG Version: 6.00 Build 0)  -->
<svg version="1.0" id="Layer_1" xmlns="http://www.w3.org/2000/svg" xmlns:xlink="http://www.w3.org/1999/xlink" x="0px" y="0px"
	 viewBox="0 0 220.6 220.6" enable-background="new 0 0 220.6 220.6" xml:space="preserve">
<circle fill="#FFFFFF" cx="110.3" cy="110.3" r="110.3"/>
<g>
	<g>
		<path fill="#1D1E1E" d="M85,187.4c-0.4-6.4,1.4-32.6,1.5-33.7l4,0.3c0,0.3-1.9,27-1.5,33.2L85,187.4z"/>
		<path fill="#1D1E1E" d="M115.8,187.5c-0.6-6.4,0.5-32.7,0.5-33.8l4,0.2c0,0.3-1.1,27.1-0.5,33.3L115.8,187.5z"/>
		<path fill="#697736" d="M136,157.6c0,2.9-2.2,5.2-4.9,5.2H75.1c-2.7,0-4.9-2.3-4.9-5.2V51.4c0-2.9,2.2-5.2,4.9-5.2h55.9
			c2.7,0,4.9,2.3,4.9,5.2V157.6z"/>
		<path fill="#1D1E1E" d="M168.6,92.4c-1.2,5.4-3.9,9.4-8.1,12c-10.7,6.5-27,0.7-27.7,0.4l1.2-3.2c0.2,0.1,15.5,5.5,24.7-0.1
			c3.9-2.3,6.2-6.4,6.9-12l3.4,0.5C168.9,90.8,168.7,91.6,168.6,92.4z"/>
		<path fill="#9FBC3D" d="M138.9,157.6c0,2.9-2.1,5.2-4.6,5.2H81.2c-2.6,0-4.6-2.3-4.6-5.2V51.4c0-2.9,2.1-5.2,4.6-5.2h53.1
			c2.6,0,4.6,2.3,4.6,5.2V157.6z"/>
		<path opacity="0.2" fill="#738142" d="M84.6,103.6c-2.4,2.4-2.4,6.2,0,8.5L96,123.5c2.4,2.4,6.2,2.4,8.5,0l0,0
			c2.4-2.4,2.4-6.2,0-8.5l-11.4-11.4C90.8,101.2,87,101.2,84.6,103.6L84.6,103.6z"/>
		<circle fill="#738142" cx="99.4" cy="118.8" r="4.3"/>
		<path fill="#738142" d="M87.2,106.6c-1.7,1.7-1.7,4.4,0,6.1c1.7,1.7,4.4,1.7,6.1,0c1.7-1.7,1.7-4.4,0-6.1
			C91.6,105,88.9,105,87.2,106.6z"/>
		<path fill="#F6927B" d="M97.1,115.2c-1.7,1.7-1.7,4.4,0,6.1c1.7,1.7,4.4,1.7,6.1,0c1.7-1.7,1.7-4.4,0-6.1
			C101.5,113.5,98.8,113.5,97.1,115.2z"/>
		<path fill="#F6927B" d="M88,106.1c-1.7,1.7-1.7,4.4,0,6.1c1.7,1.7,4.4,1.7,6.1,0c1.7-1.7,1.7-4.4,0-6.1
			C92.4,104.4,89.7,104.4,88,106.1z"/>
		<g>
			<path fill="#57632B" d="M131.3,109.8H128v-3.8c0-0.8-0.5-1.4-1.2-1.4h-3.4c-0.7,0-1.2,0.6-1.2,1.4v3.8H119
				c-0.7,0-1.2,0.6-1.2,1.4v4c0,0.8,0.5,1.4,1.2,1.4h3.3v3.8c0,0.8,0.5,1.4,1.2,1.4h3.4c0.7,0,1.2-0.6,1.2-1.4v-3.8h3.3
				c0.7,0,1.2-0.6,1.2-1.4v-4C132.5,110.4,132,109.8,131.3,109.8z"/>
			<path fill="#697736" d="M132.6,109.8h-3.3v-3.8c0-0.8-0.5-1.4-1.2-1.4h-3.4c-0.7,0-1.2,0.6-1.2,1.4v3.8h-3.3
				c-0.7,0-1.2,0.6-1.2,1.4v4c0,0.8,0.5,1.4,1.2,1.4h3.3v3.8c0,0.8,0.5,1.4,1.2,1.4h3.4c0.7,0,1.2-0.6,1.2-1.4v-3.8h3.3
				c0.7,0,1.2-0.6,1.2-1.4v-4C133.8,110.4,133.3,109.8,132.6,109.8z"/>
		</g>
		<path fill="#738142" d="M134.1,87.5c0,2.9-2.3,5.2-5.2,5.2H88.3c-2.9,0-5.2-2.3-5.2-5.2V56.6c0-2.9,2.3-5.2,5.2-5.2h40.5
			c2.9,0,5.2,2.3,5.2,5.2V87.5z"/>
		<path fill="#FFF0E7" d="M132.8,87.5c0,2.9-2.3,5.2-5.2,5.2H87.1c-2.9,0-5.2-2.3-5.2-5.2V56.6c0-2.9,2.3-5.2,5.2-5.2h40.5
			c2.9,0,5.2,2.3,5.2,5.2V87.5z"/>
		<path fill="#553B40" d="M99.7,70.4c0,3.3-0.9,6-2,6c-1.1,0-2-2.7-2-6c0-3.3,0.9-6,2-6C98.8,64.4,99.7,67.1,99.7,70.4z"/>
		<path fill="#553B40" d="M121,70.4c0,3.3-0.9,6-2,6c-1.1,0-2-2.7-2-6c0-3.3,0.9-6,2-6C120.1,64.4,121,67.1,121,70.4z"/>
		<g>
			<path fill="#1D1E1E" d="M59.3,105.9c-2.1-0.5-4.2-1.3-6.2-2.6c-7.9-5-12.7-15.1-14.2-30.2l4.4-0.5c1.4,13.6,5.5,22.7,12.2,26.9
				c7.9,4.9,16.9,1.4,17,1.4l1.5,4.3C73.6,105.1,66.9,107.7,59.3,105.9z"/>
		</g>
		<circle fill="#553B40" cx="108.6" cy="79.5" r="3.8"/>
	</g>
	<g>
		<path fill="#637285" d="M172.1,96.2c0.6,1,0.2,2.1-0.9,2.4l-2,0.5c-1.1,0.3-2.4,0-3-1L157,78.6c-0.6-1-0.2-2.1,0.9-2.4l2-0.5
			c1.1-0.3,2.6,0.4,3.2,1.4L172.1,96.2z"/>
		<path fill="#F37B75" d="M192.6,68.1c0.3,1.1-0.4,2.3-1.6,2.5l-8.2,1.9c-1.1,0.3-2.3-0.4-2.5-1.6l-1-4.1c-0.3-1.1,0.4-2.3,1.6-2.5
			l8.2-1.9c1.1-0.3,2.3,0.4,2.5,1.6L192.6,68.1z"/>
		<path fill="#637285" d="M164.2,75.8c0.3,1.1-0.4,2.3-1.6,2.5l-8.2,1.9c-1.1,0.3-2.3-0.4-2.5-1.6l-1.4-6.1
			c-0.3-1.1,0.4-2.3,1.6-2.5l8.2-1.9c1.1-0.3,2.3,0.4,2.5,1.6L164.2,75.8z"/>
		<path fill="#F1D9C8" d="M184.6,52.3c-2.5,3.1-4.4,9-15.7,11.6l-13.3,3.1l2.4,14.6l14.3-3.4c11.3-2.7,15.6,1.7,19.2,3.4L184.6,52.3
			z"/>
		<path fill="#F37B75" d="M161,80.9l-2,0.5l-2,0.5c-1.1,0.3-2.3-0.4-2.5-1.6L152,70.1c-0.3-1.1,0.4-2.3,1.6-2.5l2-0.5l2-0.5
			L161,80.9z"/>
		<path fill="#637285" d="M193.5,81.3c0.2,0.8-0.3,1.7-1.2,1.9c-0.8,0.2-1.7-0.3-1.9-1.2l-7-29.6c-0.2-0.8,0.3-1.7,1.2-1.9
			c0.8-0.2,1.7,0.3,1.9,1.2L193.5,81.3z"/>
	</g>
</g>
</svg>
