<?xml version="1.0" encoding="utf-8"?>
<!-- Generator: Adobe Illustrator 18.1.1, SVG Export Plug-In . SVG Version: 6.00 Build 0)  -->
<svg version="1.0" id="Layer_1" xmlns="http://www.w3.org/2000/svg" xmlns:xlink="http://www.w3.org/1999/xlink" x="0px" y="0px"
	 viewBox="0 0 312.7 70.3" enable-background="new 0 0 312.7 70.3" xml:space="preserve">
<rect x="3.8" y="4" fill="#242251" width="308.9" height="66.3"/>
<rect x="0" y="0" fill="#4C497F" width="308.9" height="66.3"/>
<path fill="#242251" d="M12.1,34.3c0,12.7,4.6,24.2,12.3,33.2h77.3c7.6-8.9,12.3-20.5,12.3-33.2c0-12.7-4.6-24.2-12.3-33.2H24.4
	C16.8,10,12.1,21.6,12.1,34.3z"/>
<rect x="134.9" y="16.6" fill="none" width="155.9" height="45.6"/>
<text transform="matrix(1 0 0 1 134.9067 31.6958)"><tspan x="0" y="0" fill="#959CCE" font-family="'Avenir-Black'" font-size="20">THE GAME </tspan><tspan x="0" y="21" fill="#959CCE" font-family="'Avenir-Black'" font-size="20">INDUSTRY</tspan></text>
<g>
	<path fill="#FFFFFF" d="M68,12.2c-0.2-0.3-0.3-0.6-0.3-0.6l0.1-0.1c0,0,0.2,0.1,0.6,0.2c0.2,0.1,0.4,0.1,0.7,0.2
		c0.2,0.1,0.5,0.2,0.8,0.2c0.1,0,0.3,0.1,0.4,0.1c0.1,0,0.2,0,0.2,0c0.1,0,0.2,0,0.2,0c0.3,0,0.6,0,0.9,0c0.1,0,0.3-0.1,0.5-0.1
		c0.1-0.1,0.3-0.1,0.5-0.2c0.1,0,0.1-0.1,0.2-0.1c0.1,0,0.2-0.1,0.3-0.2l0.5-0.4c0,0,0,0,0,0l0,0l0,0l0,0l0,0l0.1-0.1l0.1-0.1
		l0.3-0.2c0.2-0.2,0.4-0.3,0.5-0.4c0.2-0.2,0.4-0.3,0.6-0.4c0.2-0.1,0.4-0.2,0.6-0.4c0.5-0.2,1-0.3,1.5-0.3c0.1,0,0.2,0,0.3,0
		c0.1,0,0.2,0.1,0.3,0.1c0.2,0.1,0.4,0.2,0.6,0.2c0.3,0.2,0.6,0.4,0.8,0.6c0.2,0.2,0.4,0.4,0.5,0.6c0.1,0.2,0.2,0.3,0.2,0.4
		c0,0.1,0.1,0.2,0.1,0.2L80,11.7c0,0-0.2-0.1-0.6-0.2c-0.2-0.1-0.4-0.2-0.7-0.2c-0.2-0.1-0.5-0.2-0.8-0.3c-0.1-0.1-0.3-0.1-0.4-0.1
		c-0.1,0-0.1,0-0.2-0.1c-0.1,0-0.1,0-0.2-0.1c-0.3-0.1-0.6-0.2-1-0.2c-0.2,0-0.4,0-0.6,0.1c-0.2,0.1-0.4,0.1-0.5,0.3
		c-0.1,0.1-0.3,0.3-0.4,0.5l-0.1,0.3l-0.1,0.1l0,0.1l0,0l0,0l0,0l0,0c0,0,0,0,0,0L74,12.5c-0.1,0.2-0.3,0.4-0.5,0.6
		c-0.2,0.2-0.4,0.3-0.6,0.5c-0.2,0.1-0.5,0.2-0.8,0.3C71.5,14,71,14,70.5,13.9c-0.2,0-0.5-0.1-0.7-0.2c-0.2-0.1-0.4-0.2-0.5-0.3
		c-0.3-0.2-0.6-0.4-0.8-0.6C68.3,12.6,68.1,12.4,68,12.2z M91.2,45.6v12.1H35.8V45.6h3.8V32l10.6-6.8V32l10.6-6.8V32l10.6-6.8v13.5
		h3.7l2-23.8h6.1L85,38.6h4.1v7L91.2,45.6L91.2,45.6z M53.2,40.4h-8.4v7.1h8.4V40.4z M67.6,40.4h-8.4v7.1h8.4V40.4z"/>
	<polygon fill="#EA5059" points="50.2,31.8 50.2,25.2 39.9,31.8 	"/>
	<polygon fill="#EA5059" points="71.5,31.8 71.5,25.2 61.2,31.8 	"/>
	<polygon fill="#EA5059" points="60.9,31.8 60.9,25.2 50.5,31.8 	"/>
	<path fill="#C2E7EC" d="M68.5,12.8c0.2,0.2,0.5,0.4,0.8,0.6c0.2,0.1,0.3,0.2,0.5,0.3c0.2,0.1,0.4,0.2,0.7,0.2
		c0.5,0.1,1,0.1,1.6-0.1c0.3-0.1,0.5-0.2,0.8-0.3c0.2-0.2,0.5-0.3,0.6-0.5c0.2-0.2,0.4-0.4,0.5-0.6l0.3-0.6c0,0,0,0,0,0l0,0l0,0l0,0
		l0,0l0-0.1l0.1-0.1l0.1-0.3c0.1-0.2,0.3-0.3,0.4-0.5c0.1-0.1,0.4-0.2,0.5-0.3c0.2-0.1,0.4-0.1,0.6-0.1c0.4,0,0.7,0.1,1,0.2
		c0.1,0,0.2,0,0.2,0.1c0.1,0,0.1,0,0.2,0.1c0.1,0,0.3,0.1,0.4,0.1c0.3,0.1,0.6,0.2,0.8,0.3c0.3,0.1,0.5,0.2,0.7,0.2
		c0.4,0.1,0.6,0.2,0.6,0.2l0.1-0.1c0,0,0-0.1-0.1-0.2c0-0.1-0.1-0.2-0.2-0.4c-0.1-0.2-0.3-0.4-0.5-0.6c-0.2-0.2-0.5-0.4-0.8-0.6
		c-0.2-0.1-0.3-0.2-0.6-0.2c-0.1,0-0.2-0.1-0.3-0.1c-0.1,0-0.2,0-0.3,0c-0.5-0.1-1,0.1-1.5,0.3c-0.2,0.1-0.4,0.2-0.6,0.4
		c-0.2,0.2-0.4,0.3-0.6,0.4c-0.2,0.2-0.4,0.3-0.5,0.4l-0.3,0.2l-0.1,0.1l-0.1,0.1l0,0l0,0l0,0l0,0c0,0,0,0,0,0L73,11.8
		c-0.1,0.1-0.2,0.1-0.3,0.2c-0.1,0-0.1,0.1-0.2,0.1c-0.1,0.1-0.3,0.1-0.5,0.2c-0.2,0.1-0.3,0.1-0.5,0.1c-0.3,0-0.6,0-0.9,0
		c-0.1,0-0.1,0-0.2,0c-0.1,0-0.1,0-0.2,0c-0.2,0-0.3-0.1-0.4-0.1c-0.3-0.1-0.6-0.2-0.8-0.2c-0.3-0.1-0.5-0.2-0.7-0.2
		c-0.4-0.1-0.6-0.2-0.6-0.2l-0.1,0.1c0,0,0.1,0.2,0.3,0.6C68.1,12.4,68.3,12.6,68.5,12.8z"/>
</g>
</svg>
