<?xml version="1.0" encoding="utf-8"?>
<!-- Generator: Adobe Illustrator 18.1.1, SVG Export Plug-In . SVG Version: 6.00 Build 0)  -->
<svg version="1.0" id="Layer_1" xmlns="http://www.w3.org/2000/svg" xmlns:xlink="http://www.w3.org/1999/xlink" x="0px" y="0px"
	 viewBox="0 0 966.4 153" enable-background="new 0 0 966.4 153" xml:space="preserve">
<g>
	<g>
		<linearGradient id="SVGID_1_" gradientUnits="userSpaceOnUse" x1="98.7048" y1="55.8848" x2="98.7048" y2="142.1205">
			<stop  offset="2.140550e-02" style="stop-color:#F8EEE1"/>
			<stop  offset="1" style="stop-color:#F8EEE1;stop-opacity:0"/>
		</linearGradient>
		<polygon fill="url(#SVGID_1_)" points="122.3,77.6 99.5,55.9 75.9,77.5 0,153 99.5,153 197.4,153 		"/>
		<path fill="#FFFFFF" d="M114.7,78.9c0,8.8-7.2,16-16,16c-8.8,0-16-7.2-16-16c0-8.8,7.2-16,16-16C107.5,62.9,114.7,70.1,114.7,78.9
			z"/>
		<rect x="97.4" fill="#565758" width="4" height="50"/>
		<polygon fill="#565758" points="99,83 134.5,83 116.7,67.4 99,53 81.2,68 63.5,83 		"/>
		<rect x="94.4" y="49" fill="#868787" width="10" height="7"/>
	</g>
	<g>
		<linearGradient id="SVGID_2_" gradientUnits="userSpaceOnUse" x1="464.7046" y1="55.8848" x2="464.7046" y2="142.1205">
			<stop  offset="2.140550e-02" style="stop-color:#F8EEE1"/>
			<stop  offset="1" style="stop-color:#F8EEE1;stop-opacity:0"/>
		</linearGradient>
		<polygon fill="url(#SVGID_2_)" points="488.3,77.6 465.5,55.9 441.9,77.5 366,153 465.5,153 563.4,153 		"/>
		<path fill="#FFFFFF" d="M480.7,78.9c0,8.8-7.2,16-16,16c-8.8,0-16-7.2-16-16c0-8.8,7.2-16,16-16C473.5,62.9,480.7,70.1,480.7,78.9
			z"/>
		<rect x="463.4" fill="#565758" width="4" height="50"/>
		<polygon fill="#565758" points="465,83 500.5,83 482.7,67.4 465,53 447.2,68 429.5,83 		"/>
		<rect x="460.4" y="49" fill="#868787" width="10" height="7"/>
	</g>
	<g>
		<linearGradient id="SVGID_3_" gradientUnits="userSpaceOnUse" x1="867.7046" y1="55.8848" x2="867.7046" y2="142.1205">
			<stop  offset="2.140550e-02" style="stop-color:#F8EEE1"/>
			<stop  offset="1" style="stop-color:#F8EEE1;stop-opacity:0"/>
		</linearGradient>
		<polygon fill="url(#SVGID_3_)" points="891.3,77.6 868.5,55.9 844.9,77.5 769,153 868.5,153 966.4,153 		"/>
		<path fill="#FFFFFF" d="M883.7,78.9c0,8.8-7.2,16-16,16c-8.8,0-16-7.2-16-16c0-8.8,7.2-16,16-16C876.5,62.9,883.7,70.1,883.7,78.9
			z"/>
		<rect x="866.4" fill="#565758" width="4" height="50"/>
		<polygon fill="#565758" points="868,83 903.5,83 885.7,67.4 868,53 850.2,68 832.5,83 		"/>
		<rect x="863.4" y="49" fill="#868787" width="10" height="7"/>
	</g>
</g>
</svg>
