<?xml version="1.0" encoding="utf-8"?>
<!-- Generator: Adobe Illustrator 18.1.1, SVG Export Plug-In . SVG Version: 6.00 Build 0)  -->
<svg version="1.0" id="Layer_1" xmlns="http://www.w3.org/2000/svg" xmlns:xlink="http://www.w3.org/1999/xlink" x="0px" y="0px"
	 viewBox="0 0 632.6 194.8" enable-background="new 0 0 632.6 194.8" xml:space="preserve">
<g>
	<circle fill="#F5EDE5" cx="287.9" cy="23.3" r="19.2"/>
	<polyline fill="#F5EDE5" points="295.2,36.6 308.4,47.1 301.4,23.3 	"/>
</g>
<g>
	<circle fill="#62BAC1" cx="423.3" cy="19.3" r="19.2"/>
	<polyline fill="#62BAC1" points="418.8,33.7 408,46.6 410.1,22 	"/>
</g>
<g>
	<circle fill="#62BAC1" cx="187.5" cy="23.8" r="19.2"/>
	<polyline fill="#62BAC1" points="197.5,35.1 212.7,42.5 200.7,20.9 	"/>
</g>
<g>
	<circle fill="#F5EDE5" cx="68.1" cy="83.1" r="19.2"/>
	<polyline fill="#F5EDE5" points="82.1,88.7 99,88.6 78.6,74.5 	"/>
</g>
<g>
	<path fill="#F4BD27" d="M68.2,86.2c-0.8-0.1-1.3-0.7-1.4-1.5l-0.1-1.9c-0.1-0.9,0.5-1.5,1.4-1.5c2.4-0.1,3.6-0.8,3.7-2.1l0-0.1
		c0.1-1.2-0.8-2-2.4-2.1c-1.2-0.1-2.2,0.2-3.3,0.8c-0.3,0.2-0.8,0.4-1.3,0.3c-1-0.1-1.8-1-1.8-2.1c0-0.5,0.3-1,0.8-1.4
		c1.5-1.1,3.4-1.7,5.9-1.5c3.9,0.3,6.5,2.6,6.2,6.2l0,0.1c-0.3,3.5-2.8,4.7-5.8,5.1L70,85c-0.2,0.7-0.8,1.3-1.6,1.2L68.2,86.2z
		 M68,88c1.4,0.1,2.3,1.2,2.2,2.5l0,0.1c-0.1,1.3-1.2,2.2-2.6,2.1c-1.4-0.1-2.3-1.2-2.2-2.5l0-0.1C65.5,88.9,66.6,87.9,68,88z"/>
</g>
<g>
	<path fill="#F4BD27" d="M289,27.3c-0.8,0.2-1.5-0.2-1.8-0.8l-0.8-1.7c-0.4-0.8-0.1-1.6,0.7-2c2.2-1,3-2.1,2.6-3.3l0-0.1
		c-0.4-1.2-1.5-1.6-3-1.1c-1.1,0.4-2,1-2.7,2c-0.2,0.3-0.6,0.7-1,0.8c-1,0.3-2.1-0.2-2.4-1.2c-0.2-0.5-0.1-1.1,0.2-1.6
		c1-1.6,2.5-2.9,4.8-3.6c3.8-1.2,6.9-0.1,8.1,3.4l0,0.1c1.1,3.3-0.8,5.4-3.5,6.9l0.1,0.5c0.1,0.7-0.2,1.5-1,1.7L289,27.3z M289.6,29
		c1.3-0.4,2.6,0.2,3,1.5l0,0.1c0.4,1.3-0.3,2.5-1.6,3c-1.3,0.4-2.6-0.2-3-1.5l0-0.1C287.6,30.7,288.2,29.4,289.6,29z"/>
</g>
<g>
	<path fill="#057492" d="M421.8,22.6c-0.7-0.3-1.1-1.1-0.9-1.8l0.4-1.8c0.2-0.9,0.9-1.3,1.8-1.1c2.3,0.6,3.6,0.3,4.1-0.9l0-0.1
		c0.5-1.1-0.1-2.2-1.6-2.7c-1.1-0.4-2.2-0.5-3.4-0.2c-0.4,0.1-0.9,0.1-1.3,0c-1-0.4-1.5-1.5-1.1-2.5c0.2-0.5,0.6-0.9,1.2-1.1
		c1.8-0.6,3.8-0.6,6,0.3c3.7,1.5,5.4,4.3,4.1,7.7l0,0.1c-1.3,3.2-4.1,3.7-7.1,3.1l-0.3,0.4c-0.4,0.6-1.1,1-1.9,0.7L421.8,22.6z
		 M421.1,24.3c1.3,0.5,1.8,1.8,1.4,3.1l0,0.1c-0.5,1.2-1.8,1.8-3.1,1.3c-1.3-0.5-1.8-1.8-1.4-3.1l0,0
		C418.5,24.4,419.9,23.8,421.1,24.3z"/>
</g>
<g>
	<path fill="#F3F3F3" d="M518.7,189.5c0.1-2,1.7-3.5,3.7-3.5h28.8c2,0,3.6,1.6,3.7,3.5H518.7z"/>
	<rect x="532.4" y="154.9" fill="#F3F3F3" width="8.7" height="32.1"/>
	<g>
		<path fill="#4E4E4E" d="M500.1,135.1c1.1,1.4,2.3,2.7,3.5,4c18,18,47.2,18,65.2,0c18-18,18-47.2,0-65.2c-1.3-1.3-2.6-2.4-4-3.5
			l4.6-4.6c1.4,1.1,2.7,2.3,3.9,3.6c20.6,20.6,20.6,53.9,0,74.4c-20.6,20.6-53.9,20.6-74.4,0c-1.3-1.3-2.5-2.6-3.6-3.9L500.1,135.1z
			"/>
	</g>
	<polygon fill="#F3F3F3" points="562.9,78.3 559.7,75.1 571.9,62.8 575.1,66 	"/>
	<path fill="#4E4E4E" d="M578,64.3c0-2.3-1.8-4.1-4.1-4.1c-2.3,0-4.1,1.8-4.1,4.1c0,2.3,1.8,4.1,4.1,4.1
		C576.1,68.4,578,66.5,578,64.3z"/>
	<path fill="#4E4E4E" d="M506.3,193.7c0.1-3.3,2.8-5.9,6.2-5.9H561c3.3,0,6,2.6,6.2,5.9H506.3z"/>
	
		<rect x="498.2" y="129.1" transform="matrix(-0.7077 -0.7066 0.7066 -0.7077 757.2508 588.7775)" fill="#F3F3F3" width="4.5" height="17.3"/>
	<circle fill="#4F343D" cx="494" cy="144" r="4.1"/>
	<g>
		<path fill="#5569B1" d="M563.9,78.5c15.4,15.4,15.4,40.5,0,55.9c-15.4,15.4-40.5,15.4-55.9,0c-15.4-15.4-15.4-40.5,0-55.9
			C523.4,63,548.5,63,563.9,78.5z"/>
		<path fill="#153E65" d="M563.9,78.5c15.4,15.4,15.4,40.5,0,55.9c-15.4,15.4-40.5,15.4-55.9,0"/>
		<path fill="#374F97" d="M563.9,78.5c15.4,15.4,15.4,40.5,0,55.9c-15.4,15.4-40.5,15.4-55.9,0"/>
		<g opacity="0.5">
			<g>
				<path fill="#AFBDE1" d="M500.4,88.7c0,0.1,0,0.2,0,0.3c0,0.1-0.1,0.3-0.2,0.3c0,0.1-0.7,1.4-1.3,2.9c-0.6,1.5-1.7,5.8-1.6,6
					c0,0.2,0.2,0.8,0.4,1.2c0.2,0.3,0.7,1.2,0.8,1.2c0.1,0,0.8-0.1,1.1-0.5c0,0,0,0,0.5-0.4c0.3-0.2,0.3-0.2,0.3-0.2
					c0.3,0,0.8-0.3,1.1-0.6c0.3-0.3,1.1-1.1,1-1.3c-0.1-0.2,0-1.2,0.3-1.8c0,0,0,0,0-0.5c0-0.4,0-0.4,0-0.4c-0.3,0.1-0.4,0-0.2-0.1
					c0.2-0.2,0.1-0.7,0-0.9c-0.1-0.2-0.5-0.6-0.4-0.8c0.1-0.2,0.3-1.1,0.2-1.3c-0.1-0.2-0.3-1-0.2-1.1c0.1-0.1-0.2-0.8-0.5-1.1
					C501.5,88.8,500.4,88.6,500.4,88.7z"/>
			</g>
			<g>
				<path fill="#AFBDE1" d="M573.9,116.7c0.8-3.6,1.4-6.6,1.3-6.6c-0.1,0-0.3-0.3-0.2-0.6c0-0.2-0.6-0.7-0.7-0.6
					c-0.1,0.1-0.3-0.2-0.1-0.5c0.2-0.4,0.9-0.6,0.9-0.7c0-0.1,0.2-0.5,0-0.5c-0.2,0-0.9-0.4-1.2-0.3c-0.3,0.1-1.2,0.2-1.2,0.4
					c0,0.2-0.5,0.2-0.5,0c0-0.2,0.3-0.8,0.4-0.7c0.1,0.1,0.8-0.2,1.3-0.6c0.5-0.5,0.6-1.7,0.4-1.8c-0.2,0-0.8,0-0.9-0.4
					c-0.1-0.4-0.9-0.2-1-0.4c-0.1-0.2-0.8-0.7-0.9-0.8c-0.1,0-0.7,0.2-0.8,0c-0.2-0.2-0.7-0.5-0.9-0.4c-0.2,0.1-0.7,0.4-0.7,0.5
					c0,0.1-0.3,0.4-0.6,0.4c-0.2-0.1-0.9-0.3-1-0.2c-0.1,0.1-0.4,0-0.5,0.1c0,0.1-0.4,0.6-0.4,0.7c0,0.1-0.1,0.5,0.2,0.5
					c0.2,0,0.7,0.3,0.5,0.4c-0.2,0-0.7,0.5-0.8,0.8c-0.1,0.3-0.5,0.9,0,0.9c0.5,0.1,2,0.6,2.2,0.8c0.2,0.2,0.5-0.4,0.2-1.3
					c0,0,0,0,0.7-0.9c0.4-0.5,0.4-0.5,0.4-0.5c0.4,0.1,0.9,0.2,1.2,0.3c0.2,0.1,0.5,0.7,0.7,0.7c0.2,0.1,0.6,0.5,0.4,0.4
					c-0.1-0.1-0.7,0.1-0.8,0.3c-0.2,0.2-0.6,1-0.5,1.3c0.1,0.3,0.7,1.3,0.6,1.4c-0.1,0-0.3,0.5-0.3,0.8c0,0.3-0.1,1.4-0.2,1.7
					c0,0.3,0,1.1-0.1,1.2c-0.1,0.1-0.1,0.3-0.3,0.2c-0.2-0.1-1,0.5-1.3,0.4c-0.3-0.1-1.2-0.2-1.2-0.4c0-0.1-0.4-0.1-0.4-0.3
					c0-0.1-0.6,0-0.9,0.2c-0.3,0.2-0.9,0.3-0.6-0.1c0.3-0.3,0.4-1.1,0.5-1c0.1,0.1,0.4-0.1,0.3-0.2c-0.1-0.1-0.1-0.7,0.2-1.2
					c0.3-0.5,1.8-1.9,1.8-2c0-0.1-0.5-0.3-0.6-0.3c-0.2,0.1-0.5-0.4-0.7-0.3c-0.3,0.1-0.9-0.5-1.1-0.3c-0.2,0.2-0.8,0.6-1,0.5
					c-0.1-0.1-0.4-0.4-0.3-0.6c0.1-0.1,0-0.3-0.3-0.2c-0.3,0.1-1.3,0.2-1.4,0.3c-0.1,0.1-0.4,0.4-0.6,0.3c-0.3,0-1,0.4-1,0.3
					c0-0.1-0.6-0.1-0.8,0.1c-0.2,0.2-1.2,1.2-1.4,1.3c-0.2,0.1-0.9,0-1,0.2c-0.1,0.2-0.3,0.6-0.1,0.6c0.2,0.1,0.3,0.5,0.4,0.4
					c0.1,0,0.4-0.1,0.5,0c0.1,0.2,0.6,0.2,0.7-0.2c0.1-0.4,0.6-1.2,0.6-0.8c0,0.4,0.8,0.9,0.7,1c-0.1,0-0.3,0.5-0.2,0.7
					c0.1,0.2-0.2,0.7-0.5,0.7c-0.2,0-0.8,0.2-0.7,0.5c0,0.3,0.3,1,0.2,0.9c0-0.1,0.5-0.1,0.6,0.2c0.2,0.4,0.2,1.3,0.1,1.4
					c-0.1,0-0.5,0.6-0.4,0.9c0.1,0.3,0.3,1.2,0.2,1.4c0,0.3-0.9,1-0.9,1.1c0,0.1,0.2,0.4,0.1,0.5c-0.1,0.1-0.3,0.9-0.2,1.4
					c0.1,0.5-0.5,1.8-0.6,1.8c-0.2,0.1-0.6,0.3-0.8,0.5c-0.1,0.2-0.6,0.9-0.4,0.9c0.3,0.1,1.3-0.4,1.6-0.3c0.3,0.1,1,0.7,0.9,0.7
					c0,0.1,0,0.3,0.3,0.4c0.3,0.1,1,0.9,1,1.1c0,0.2-0.2,1.6-0.8,2.5c-0.6,0.9-2.2,0.1-2.1-0.1c0.1-0.2,0.2-0.9,0-1
					c-0.1-0.1-0.8-0.5-1-0.2c-0.2,0.3-1,0.9-1.3,0.7c-0.3-0.2-1.3,0.1-1.6,0.5c-0.3,0.4-1.3,0.9-1.3,0.7c0-0.2-0.3-0.8-0.5-0.8
					c-0.2-0.1-0.6,0-0.7-0.3c0-0.3,0.2-1.3,0.1-1.4c-0.1-0.1-0.2-0.5-0.3-0.5c-0.2,0-0.5-0.2-0.4-0.3c0.1-0.1-0.5-0.5-0.7-0.5
					c-0.3,0-1,0.2-1,0.1c0-0.1-0.4-0.4-0.7-0.5c-0.4-0.1-1.5-0.4-1.8-0.2c-0.3,0.1-1.5,0-2.2-0.1c-0.6-0.1-1.5,0.5-1.7,0.5
					c-0.1,0-0.7-0.4-1-0.5c-0.3-0.1-1-0.2-1.2-0.3c-0.1-0.1-0.7-0.5-0.9-0.6c-0.3-0.1-1-0.1-1-0.3c0-0.2-0.7-0.1-1.1,0.1
					c0,0,0,0-0.4,0.4c-0.3,0.3-0.3,0.3-0.3,0.3c-0.2,0.3-0.4,0.6-0.5,0.7c-0.1,0.1-0.2,0.9-0.2,1.1c0,0.2-0.4,0.8-0.4,0.9
					c0,0.1,0.1,0.4,0,0.5c-0.1,0.1-0.4,0.8-0.8,1.2c-0.3,0.4-1.2,1.6-1.2,1.8c0.1,0.2,0.4,1.1,0.3,1.3c0,0.2-0.2,0.9-0.4,1
					c-0.1,0.1-0.5,0.7-0.4,1c0,0.3-0.6,1.3-0.6,1.4c0,0.2-0.2,0.7-0.1,0.7c0.1,0.1,0.1,0.3,0.2,0.5c0.1,0.1,0.3,0.6,0.1,0.7
					c-0.2,0.1-0.9,1-0.8,1.2c0,0.3,0.4,1.2,0.2,1.5c-0.2,0.3,0.1,1.2-0.3,1.4c-0.4,0.3-0.9,1-1.1,1c-0.2,0-0.7,0.5-0.8,0.7
					c-0.1,0.2,0,0.7,0,0.9c-0.1,0.2-0.7,0.8-0.9,0.8c-0.1-0.1-0.7,0.4-0.9,0.4c-0.2,0-0.5,0-0.4,0.3c0.1,0.2,0.7,0.8,0.8,0.9
					c0.2,0,0.6,0.2,0.6,0.2c0,0,0.1,0,0.2-0.1c0.1,0,0.6-0.4,0.9-0.5c0.3-0.2,1.3-0.5,1.6-0.7c0.3-0.3,1.5-1.2,1.7-1.4
					c0.2-0.1,0.5-0.7,0.6-0.6c0.1,0.1,0.4-0.5,0.3-0.8c-0.1-0.2,0.5-0.7,0.5-0.6c0,0.1,1-0.3,1.5-0.9c0.5-0.5,1.2-2,1.6-2.3
					c0.4-0.3,1.1-1.3,1.2-1.4c0.1-0.1,0.5-0.2,0.6-0.3c0.1-0.1,0.5-0.7,0.9-0.9c0.4-0.2,1.6-0.7,2-0.7c0.4,0,1.4,0,1.4-0.2
					c0-0.1,0.7-0.4,1.1-0.2c0.4,0.1,1.5-0.9,1.4-1c-0.1-0.1,0.1-0.4,0.3-0.3c0.2,0.1,0.9,0,1.2-0.2c0.3-0.2,1.1-1.5,1.1-1.7
					c0-0.3,0.7-1.1,0.7-1.2c0-0.1,0.4-0.5,0.7-0.6c0.2-0.1,0.8-0.4,0.8-0.3c0,0.1,0.2,0.4,0.5,0.4c0.4,0,1.3,0.4,1.4,0.3
					c0.1-0.1,0.4-0.2,0.6-0.2c0.2,0,0.8-0.1,1,0c0.2,0.1,0.7,0.5,0.9,0.4c0.2-0.1,1.1,0,1.6,0.3c0.5,0.3,2.1,1,2.5,0.9
					c0.4-0.1,1.6-1.1,1.9-1.1c0.3,0,1.2-0.1,1.3-0.2c0.1-0.1,0.2,0.1,0,0.2c-0.2,0.1-0.7,0.7-0.6,0.7c0.1,0,0.7,0.3,1,0.1
					c0.3-0.2,1.2-0.2,1.3-0.3c0.1-0.1,0.4-0.5,0.8-0.7c0.4-0.2,1.5-0.6,1.5-0.6C568.4,128.9,573.2,120.3,573.9,116.7z"/>
			</g>
			<g>
				<path fill="#AFBDE1" d="M575.1,102.9c0.1,0.1,0.1-1.1-0.1-2.7c-0.2-1.6-1.3-5.7-1.4-5.8c-0.1-0.1-0.2,0.3-0.1,0.6
					c0.1,0.3,0.3,1.2,0.2,1.2c-0.1,0-0.3,0.6-0.2,0.8c0.1,0.2,0.1,1,0.1,1.3c0.1,0.3,0.5,1.3,0.5,1.6c0,0.3-0.6,1.2-0.4,1.4
					c0.1,0.1,0.3,0.3,0.3,0.2c-0.1-0.1-0.5,0.2-0.5,0.3c-0.1,0.1,0.4,0.8,0.6,1.1c0.3,0.4,1.1,1.5,1.2,1.4c0.1,0,0.2-0.1,0.2-0.2
					c0-0.1-0.2-0.5-0.4-0.6C574.9,103.4,575,102.8,575.1,102.9z"/>
			</g>
			<g>
				<path fill="#AFBDE1" d="M528.1,67.6c-2.2,0.5-4,1-4,1.2c0,0.2-0.3,0.6-0.5,0.5c-0.2-0.1-0.7-0.4-0.9-0.3
					c-0.3,0.1-1.3,0.6-1.6,0.8c-0.4,0.3-1.3,1.5-1.4,1.9c-0.1,0.4-0.4,1.6-0.3,1.8c0.1,0.2-0.4,1.2-1,1.7c-0.6,0.5-0.9,2-0.6,2.1
					c0.2,0.1,1.1-0.5,1.3-0.5c0.2,0,0.8-0.1,0.6,0c-0.2,0.1-0.2,0.7-0.2,0.8c0,0.1,0.1,0.4,0.1,0.5c0,0.1-0.5,0.5-0.7,0.5
					c-0.2,0.1-0.8,0.2-0.9,0.3c-0.2,0.1-0.8,0.4-1.1,0.7c-0.3,0.3-0.8,1.3-0.8,1.3c0,0.1,0,0.6-0.1,1.1c-0.2,0.5-0.3,1.9,0,2.1
					c0.3,0.3,0,0.9-0.1,0.9c-0.1-0.1-0.4,0-0.6,0.2c-0.1,0.2-0.5,1.2-1.1,1.9c-0.6,0.7-0.2,2.2-0.1,2.1c0.1-0.1,0.6-0.2,0.9-0.1
					c0.3,0,0.9,0.1,0.8,0.3c-0.1,0.2-0.8,0.8-1,0.9c-0.3,0-1.2,0.1-1.6,0.2c-0.4,0.1-0.9,0.9-0.4,1c0.5,0,2,0,2.2-0.1
					c0.2-0.1,0.8-0.6,0.8-0.7c0-0.1,0.4-0.6,0.6-0.6c0.2-0.1,0.8-0.1,1-0.2c0.1-0.1,0.5-0.4,0.7-0.1c0.2,0.2,0.9,0.1,0.9,0
					c0-0.1,0.6-0.5,0.9-0.6c0.3-0.1,1.1-0.1,1.2,0.2c0.1,0.2,0.2,1.1,0.3,1.3c0,0.2-0.5,1-0.6,1.2c-0.1,0.1,0.3,0.5,0.2,0.6
					c-0.1,0.1-0.2,0.3-0.2,0.4c0.1,0.1,0,0.6-0.3,1.1c-0.3,0.4-1,1.8-0.9,1.9c0.1,0.2,0.6,0.2,0.7,0c0.1-0.1,0.6-0.5,0.9-0.6
					c0.2-0.1,1.1-0.3,1.5-0.5c0.4-0.2,1.4-0.5,1.6-0.6c0.2-0.1,0.7-0.4,0.9-0.4c0.2,0.1,0.7,0,0.7-0.1c0.1-0.1,0.5-0.3,1.1-0.4
					c0,0,0,0,0.5,0.8c0.2,0.2,0.2,0.2,0.2,0.2c0.2-0.1,0.4,0,0.4,0.3c0,0.2,0.7,0.8,0.8,0.7c0.1-0.1,0.9-0.3,1.4-0.4
					c0.5-0.1,1.8,0.1,1.9,0.2c0,0.1,0,0.5-0.2,0.5c-0.2,0.1-0.8-0.1-1.1,0c-0.3,0.1-1,0.4-1,0.2c0-0.2-0.7-0.6-1-0.5
					c-0.3,0.1-1.1,0.5-1.1,0.7c0,0.2-0.5,1-0.5,1.3c0,0.3,0.3,1.1,0.2,1.2c-0.1,0.1,0,0.8,0.2,1.3c0.2,0.5,1,1.7,1.5,1.5
					c0.4-0.2,1.8-0.6,2.3-0.8c0.5-0.1,1.9-0.4,2.2-0.6c0.3-0.2,0.7-0.2,0.6-0.1c-0.2,0.1-0.7,0.6-1,0.7c-0.2,0-1.1,0.1-1.4,0.2
					c-0.3,0.1-1.6,0.9-2,0.9c-0.4,0-1.7,0.5-1.8,0.3c-0.2-0.2-0.5-0.7-0.5-0.9c0-0.2-0.7-0.6-0.9-0.4c-0.3,0.2-1,1.3-1.2,2
					c-0.2,0.7-0.6,2.6-0.6,2.8c0,0.2-0.1,1.1-0.3,1.4c-0.2,0.3-1.1,1.7-1.7,2.3c-0.6,0.6-1.9,2.6-2,3.2c0,0.6-1.3,2.6-1.2,2.7
					c0.1,0.1,0.1,0.7,0,0.9c-0.1,0.2-0.7,1-0.7,1.4c0,0.4-0.4,1.9-0.2,2.5c0.1,0.6,1.5,1.7,2.1,1.4c0.6-0.3,2.2-0.9,2.3-1.1
					c0.2-0.2,1.1-0.9,1.5-1.1c0.5-0.2,2-0.8,2.3-1.2c0.3-0.4,1.2-1.7,1.5-2c0.4-0.3,1.6-0.8,2-1.1c0.4-0.2,1.8-1.1,2-1.4
					c0.2-0.4,1.4-1.3,1.5-1.2c0.1,0.1,0.4,0.6,0.6,0.6c0.2,0.1,1,0.4,1.2,0.2c0,0,0,0,0.2,0.2c0.4,0.3,0.4,0.3,0.4,0.3
					c-0.2,0.4-0.2,1,0.1,1.2c0.3,0.3,1.1,1,1.5,1.1c0.4,0.1,1.8,0.1,2.2,0c0.4-0.2,1.9-0.9,2.5-1.4c0.5-0.5,2-2.2,2.1-2.5
					c0.1-0.3,0.7-1.8,0.7-2.6c0,0,0,0,0.1-0.4c0.2-0.7,0.2-0.7,0.2-0.7c0.6-0.7,1-1.5,0.9-1.8c-0.1-0.2,0-1-0.1-1.1
					c-0.2-0.1-0.7-0.4-0.9-0.8c-0.1-0.4-1.2-1.7-1.3-2c-0.1-0.3-0.9-1.1-1.1-1c-0.1,0.1-0.2,0.4-0.3,0.4c-0.1,0-1,0.3-1.5,0.1
					c-0.5-0.2-1.8-0.4-1.7-0.6c0.1-0.2-0.4-1.1-1-1.5c-0.5-0.4-1.8-1.4-1.6-1.7c0.2-0.3,0.3-1.1,0.4-1.2c0.1-0.1,0.3-0.3,0.2-0.1
					c-0.2,0.2,0.3,0.6,0.3,0.4c0.1-0.1,0.9,0.4,1.2,1c0,0,0,0,0.6,0.1c0.3,0,0.3,0,0.3,0c0.2-0.1,0.5-0.3,0.7-0.4
					c0.1-0.1,0.6-0.7,0.6-0.7c0,0.1,0,0.4-0.3,0.6c-0.3,0.2-0.8,0.8-1,0.7c-0.2-0.1-0.5,0.3-0.3,0.5c0.2,0.1,0.6,0,0.6-0.1
					c0,0,0.2,0,0.3,0.1c0.1,0.2,0.6,0.2,0.7,0c0.1-0.1,0.6-0.5,0.8-0.6c0,0,0,0,0.2-0.1c0.1,0,0.5-0.2,0.6-0.2
					c0.8-0.2,0.8-0.2,0.8-0.2c0.8,0,1.1,0.1,0.6,0.1c-0.5,0-1.6,0.4-1.4,0.3c0.2,0,0.1,0.5,0,0.4c-0.1,0-0.3,0.4-0.2,0.6
					c0.1,0.2-0.3,0.9-0.1,1c0.2,0.1,0.6-0.3,0.5-0.5c-0.1-0.1,0.2-0.5,0.5-0.6c0.3-0.1,1.1,0.2,1.2,0.2c0.1-0.1,0.1,0.2-0.3,0.4
					c-0.4,0.2,0.1,0.9,0.5,0.6c0.4-0.3,0.9-1,1-0.7c0,0.3,0.7,0.8,0.6,1.2c-0.1,0.3-0.1,1.4-0.3,1.8c-0.2,0.4-0.5,1.4-0.3,1.4
					c0.2,0.1,0.6,0.7,0.8,0.7c0.2,0,0.9,0.5,1.1,0.3c0.2-0.1,0.9-0.7,1.2-1c0.2-0.3,0.5-1.2,0.3-1.5c-0.2-0.3-1-0.9-1-1
					c0-0.1,0.3-0.5,0.5-0.5c0.2,0,1-0.4,1.1-0.2c0.1,0.2,0.5,0.1,0.6-0.1c0-0.2-0.1-0.8,0-1c0-0.2-0.4-0.8-0.4-0.9
					c0-0.1,0.4,0,0.6,0.3c0.3,0.3,0.9,1,0.8,0.8c0-0.1,0.1-0.6,0.3-0.7c0.2-0.1,0.7-0.8,0.6-1c-0.1-0.2,0.3-0.6,0.4-0.5
					c0.1,0,0.7-0.1,0.9-0.3c0.2-0.3,1-1.2,0.9-1.4c0-0.2-0.5-0.5-0.5-0.4c-0.1,0.1-0.2,0.5-0.3,0.5c-0.1,0-0.7,0-1,0.1
					c-0.3,0.1-1.2,0.9-1.3,0.9c-0.1,0-0.5,0.2-0.6,0.4c-0.1,0.2-0.4,0.8-0.3,0.6c0.2-0.2-0.3-0.9-0.2-1.1c0.1-0.2,0.2-0.7,0.1-0.9
					c-0.1-0.2-0.4-0.8-0.3-0.9c0.1-0.1,0.4-0.1,0.5-0.2c0.1-0.2,0.4-0.7,0.6-0.5c0.2,0.2,0.9-0.1,1.2-0.4c0.3-0.3,1.1-0.9,1.4-1.2
					c0.2-0.4,0-1.4,0-1.5c0.1-0.1,0.2-0.4,0.2-0.4c-0.1-0.1-0.2-0.3-0.1-0.6c0.1-0.3,0.5-1.5,0.5-1.9c0-0.4,0-1.6,0-1.7
					c0-0.1-0.2-0.3-0.3-0.6c0-0.3-0.2-1.1-0.4-1.2c-0.2-0.2-0.7-0.5-0.9-0.5c-0.2,0-0.9,0.1-1.1-0.1c-0.2-0.1-1.2-0.3-1.7-0.6
					c-0.5-0.3-1.4,0.2-1.4-0.1c0-0.3,0.5-1.2,0.4-1.2c-0.1-0.1-0.5-0.3-0.7-0.1c-0.1,0.1-0.5,0.2-0.5-0.2c0-0.3-0.5-1.5-0.7-1.8
					c-0.2-0.3-0.8-0.8-0.6-0.6c0.2,0.1,0.5-0.6,0.3-0.7c-0.2-0.1-1-1.1-1-1.5c0-0.4,0.1-1.5-0.1-1.5c-0.2,0-0.6-0.2-0.6-0.3
					c0.1-0.2-0.5-0.5-0.6-0.3c-0.1,0.1-0.5,0.2-0.4,0c0-0.2,0.2-0.6-0.1-0.7c-0.3-0.1-0.8-0.3-0.6-0.3c0.2,0.1,0.7-0.4,0.7-0.6
					c-0.1-0.1-0.2-0.6-0.1-0.8c0.1-0.2,0.1-0.7,0-0.8c-0.1-0.2-0.3-0.8-0.5-1.1c-0.2-0.3-0.4-1-0.6-1c-0.1,0-0.4-0.3-0.3-0.4
					c0.1-0.2-0.4-0.8-0.2-1c0.2-0.2,0-0.7-0.1-0.7c-0.2,0-0.9-0.3-1.1-0.5c-0.2-0.2-0.8-0.8-1-0.8c-0.2,0-0.9,0.3-1,0.5
					c0,0.2-0.7,0.4-1.2,0.1c0,0,0,0-0.3-0.2c-0.1-0.1-0.2-0.3-0.4-0.4c-0.3-0.1-0.3-0.1-0.3-0.1C536.5,66.8,530.3,67.1,528.1,67.6z"
					/>
			</g>
			<g>
				<path fill="#AFBDE1" d="M517.5,71.2c-0.3,0.1-0.5,0.3-0.5,0.3c0,0,0.1,0.1,0.2,0c0.1-0.1,0.4,0.2,0.3,0.5
					c-0.1,0.2,0.6,0.2,0.7-0.1c0.1-0.2,0.7-0.9,0.6-1C518.7,70.8,517.7,71,517.5,71.2z"/>
			</g>
			<g>
				<path fill="#AFBDE1" d="M510.4,84.4c0.1,0.1,0.2,0,0.2-0.2c0.1-0.2-0.2-0.6,0-0.8c0.2-0.2,0.2-0.6,0-0.7c-0.2-0.1-0.8,0.2-1,0.1
					c-0.2-0.1-0.6,0.6-0.5,0.8c0.2,0.2,0.2,0.8,0.3,0.8C509.6,84.3,510.3,84.3,510.4,84.4z"/>
			</g>
			<g>
				<path fill="#AFBDE1" d="M506.2,88.7c-0.3,0.1-0.4,0.2-0.2,0.2c0.1,0.1,0.6,0.2,0.6,0.4c0,0.1,0,0.3,0.6,0
					c0.6-0.3,0.8-1.7,0.5-1.8c-0.2-0.1-0.9,0.3-0.9,0.4C506.9,88,506.5,88.6,506.2,88.7z"/>
			</g>
			<g>
				<path fill="#AFBDE1" d="M508.5,88.4c-0.2,0.2-0.5,0.6-0.7,0.9c-0.2,0.3-0.2,0.9-0.3,0.9c-0.1,0-0.1,0-0.1,0.1
					c0.1,0.1,0.1,0.4,0.3,0.4c0.3,0,1.2,0.7,1.5,0.6c0.3-0.1,0.9-1,0.8-1.6c-0.2-0.6,0.6-2.4,0.3-2.5c-0.2-0.1-0.9-0.1-1,0.1
					C509.3,87.5,508.7,88.2,508.5,88.4z"/>
			</g>
			<g>
				<path fill="#AFBDE1" d="M506.4,92c-0.2,0,0.1,0.2,0.6,0.5c0.5,0.3,1.9,1.3,2,1.1c0.1-0.2-0.1-0.7-0.5-0.9
					C508.2,92.5,506.6,92,506.4,92z"/>
			</g>
			<g>
				<path fill="#AFBDE1" d="M514.6,81.8c0,0.2,0.1,0.4,0.2,0.3c0.2-0.1,0.7-0.4,0.7-0.7C515.6,81.1,514.6,81.6,514.6,81.8z"/>
			</g>
			<g>
				<path fill="#AFBDE1" d="M513.2,82.5c-0.3-0.2-0.7-0.2-0.8,0.1c-0.1,0.2-0.2,0.9,0,0.9C512.6,83.5,513.5,82.7,513.2,82.5z"/>
			</g>
			<g>
				<path fill="#AFBDE1" d="M505.1,85.1c-0.4,0.5,0.1,1.3,0.7,1.4C506.4,86,505.7,85.2,505.1,85.1z"/>
			</g>
			<g>
				<path fill="#AFBDE1" d="M514.9,75.2c0.1,0.4,0.3,0.7,0.4,0.7c0.1,0,0.3,0.3,0.3,0.6c0,0.2-0.1,0.9,0.1,1c0.2,0,0.6-0.4,0.5-0.5
					c-0.1-0.1-0.3-0.2-0.2-0.1c0.1,0.2,0.4-0.3,0.4-0.6c0-0.3-0.2-1.3-0.2-1.5c0-0.3-0.1-1.1-0.1-1.1c0-0.1,0.2-0.4,0.4-0.6
					c0.2-0.2,1-0.9,0.9-0.9c-0.1-0.1-0.6,0-1,0.4C515.9,72.7,514.7,74.8,514.9,75.2z"/>
			</g>
			<g>
				<path fill="#AFBDE1" d="M520.4,69.8c-0.5,0.2-1,0.4-1.5,0.7C519.4,70.6,519.9,70.2,520.4,69.8z"/>
			</g>
			<g>
				<path fill="#AFBDE1" d="M513.8,92.2c0.6,0.1,1,0.1,0.7,0.1c-0.2,0,0-0.5-0.1-0.4c-0.1,0-0.7-0.1-1.1,0c0,0,0,0-0.4,0.1
					c-0.4,0.1-0.4,0.1-0.4,0.1c-0.6,0-1.5,0-1.9,0.2c-0.4,0.2-0.7,0.9-0.4,1C510.6,93.3,513.2,92.1,513.8,92.2z"/>
			</g>
			<g>
				<path fill="#AFBDE1" d="M519.3,94.8c0.1-0.3,0-0.6-0.2-0.6c-0.2,0-0.9,0.4-0.9,0.6C518.1,94.9,519.1,95.1,519.3,94.8z"/>
			</g>
			<g>
				<path fill="#AFBDE1" d="M517.9,109.4c-0.2,0.3-0.4,0.6-0.3,0.7c0,0.1-0.2,0.4-0.2,0.5c-0.1,0.1-0.5,0.6-0.6,0.8
					c-0.1,0.2-0.5,1.3-0.4,1.4c0.1,0.2,0.7,0.4,0.9,0.2c0.2-0.2,1.2-0.8,1.3-1c0.1-0.2,0.4-0.7,0.5-0.7c0.2-0.1,0.6-0.8,0.7-1.1
					c0.1-0.3-0.1-1.3,0.1-1.6c0.2-0.3,0.3-0.8,0-0.6C519.6,108.2,518.1,109.1,517.9,109.4z"/>
			</g>
			<g>
				<path fill="#AFBDE1" d="M528.8,141.1c0.4-0.3,0-0.9-0.4-0.4C528.5,140.8,528.6,140.9,528.8,141.1z"/>
			</g>
			<g>
				<path fill="#AFBDE1" d="M561,101.3c-0.1,0.4-0.2,0.8-0.2,1c0,0.2,0,0.6,0.2,0.5c0.2-0.1,0.7,0.2,0.8,0.4c0.1,0.1,0.9,0,1.4-0.6
					c0.6-0.6,2.2-1,2.2-1.3c0-0.2,0.4-0.5,0.3-0.7c0-0.2,0.2-0.7,0.4-0.6c0.3,0.1,0.9-0.3,0.7-0.4c-0.2-0.2,0.1-0.5,0.1-0.3
					c0,0.2,0.7,0.3,0.8,0.2c0.1-0.2,0.6-0.6,0.8-0.7c0.2-0.1,1-0.5,1.3-0.3c0.3,0.2,1,0.5,0.9,0.7c0,0.1,0.5,0.5,0.8,0.7
					c0.2,0.1,0.8-0.3,0.6-0.6c-0.2-0.2-0.6-0.8-0.4-0.8c0.2,0.1,0.6,0.5,0.8,0.5c0.2,0,0.2,0.3,0.3,0.3c0.1,0,0.5,0.1,0.5-0.1
					c0-0.2-0.5-0.8-0.6-1.1c-0.1-0.3-0.1-1,0-0.8c0.1,0.1,0.4-0.8,0.3-1.4c-0.2-0.6-1.3-2.4-1.6-2.7c-0.3-0.3-1.2-1.2-1-1.3
					c0.2-0.1,0.4-0.7,0.3-0.9c-0.1-0.2-1-1.2-1.4-1.5c-0.4-0.3-0.9-1.4-1-1.5c-0.1-0.1-0.6-0.2-0.7-0.4c-0.1-0.2-0.8-0.7-1.1-1
					c-0.3-0.3-0.8-0.1-0.6,0.2c0.2,0.3-0.2,1-0.3,0.7c-0.1-0.3-0.8-0.8-0.9-0.8c-0.2,0-0.6-0.3-0.8-0.5c-0.1-0.2-0.5,0.3-0.4,0.5
					c0.1,0.2,0.3,0.8,0.3,1c0,0.2,0.2,0.6,0.1,0.7c-0.1,0-0.5,0.6-0.5,0.8c0,0.1,0.1,0.4-0.1,0.2c-0.2-0.2-0.8,0.3-0.7,0.5
					c0.2,0.2,0,0.9-0.6,1.3c-0.6,0.4-0.4,1.5-0.6,1.5c-0.2,0-0.5,0.5-0.4,0.5c0.1,0,0.2,0.1-0.1,0.1c-0.2,0-0.2,0.6,0.1,0.7
					c0.3,0.1,1,0.5,1,0.6c0,0.1-0.1,0.3-0.4,0.3c-0.3-0.1-0.5-0.3-0.5,0c0,0.3-0.3,1.2-0.3,1.5c0,0.3,0.4,1.3,0.4,1.5
					c0,0.2,0.1,0.7,0.1,0.9c0,0.2,0.6,0.6,0.5,0.7C561.9,99.5,561.1,100.9,561,101.3z"/>
			</g>
			<g>
				<path fill="#AFBDE1" d="M559,83.3c-0.1-0.1-0.4-0.2-0.6-0.2c-0.2,0-0.4-0.3-0.8-0.5c-0.4-0.1-1.2,0.9-0.9,1
					c0.3,0.1,0.9,0.4,0.8,0.7c-0.2,0.3-0.5,1.1-0.4,1.2c0.1,0.1,0.7,0,0.8,0.1c0.2,0.1,0.6,0,0.6-0.2c0-0.3,0.5-0.8,0.5-0.5
					c0,0.2,0.5,0.8,0.5,0.7c0.1-0.1,0.5-0.4,0.7-0.3c0.2,0.1,0.6-0.5,0.5-0.9c-0.1-0.4-0.8-0.5-0.6-0.5c0.2-0.1,0-0.7-0.2-0.8
					C559.8,83,559.2,83.4,559,83.3z"/>
			</g>
			<g>
				<path fill="#AFBDE1" d="M559.7,82.4c0.1-0.1-0.2-0.5-0.6-0.9c-0.4-0.4-1.8-1.3-1.8-1.1c0,0.2,0.1,1,0.5,1.3
					C558.2,82,559.6,82.5,559.7,82.4z"/>
			</g>
			<g>
				<path fill="#AFBDE1" d="M552.6,99.4c-0.1,0.1-0.2,0.4,0,0.6c0.1,0.2,0.5,0.5,0.6,0.4c0.2-0.1,0.5-0.6,0.4-0.6
					c-0.1-0.1,0.1-0.7,0.1-0.7C553.5,98.8,552.7,99.2,552.6,99.4z"/>
			</g>
			<g>
				<path fill="#AFBDE1" d="M556.9,95.8c0.1,0.2,0.4,0.3,0.7,0.2c0.2-0.1,0.7,0.3,0.8,0.1c0-0.2,0.3-0.5,0.3-0.4
					c0,0.1,0.3,0.2,0.2,0c-0.1-0.2,0.4-0.8,0.2-0.7c-0.2,0-0.8-0.3-0.9-0.4c-0.2-0.1-0.7-0.7-1-0.7c-0.2,0.1-0.8,0.9-0.7,1
					C556.6,95,556.8,95.5,556.9,95.8z"/>
			</g>
			<g>
				<path fill="#AFBDE1" d="M549.7,78.9c0-0.3-0.1-0.8-0.2-1.3c-0.1-0.4-0.9-1.7-0.8-1.7c0-0.1,0-0.3-0.1-0.4
					c-0.1-0.1-0.4-0.1-0.6,0.3c-0.1,0.3,0.4,1.5,0.4,1.9c0,0.4,0.3,1.6-0.1,1.8c-0.3,0.2-1.2,0.7-1.2,0.8c0,0.1,0.2,0.4,0.5,0.4
					c0.3,0.1,1.1,0,1.1-0.2C548.8,80.4,549.7,79.1,549.7,78.9z"/>
			</g>
			<g>
				<path fill="#AFBDE1" d="M552.1,76c0.6-0.5,0-1.6-0.7-0.9C551.8,75.3,551.4,76,552.1,76z"/>
			</g>
			<g>
				<path fill="#AFBDE1" d="M545.8,70c0.1-0.1-0.1-0.6-0.4-1c-0.4-0.4-1.1-0.3-0.9,0C544.7,69.3,545.7,70.1,545.8,70z"/>
			</g>
			<g>
				<path fill="#AFBDE1" d="M569.5,108.2c-0.1,0,0.1,0.1,0.5,0.2c0.4,0.1-0.1,1.1,0.1,1.2c0.2,0.2,0.7-0.2,0.7-0.4
					c0-0.2,0-0.7-0.2-0.7C570.5,108.4,569.6,108.1,569.5,108.2z"/>
			</g>
			<g>
				<path fill="#AFBDE1" d="M552.5,122.2c-0.1-0.1-0.2,0-0.3,0.2c-0.1,0.2,0.3,0.6,0.4,0.5C552.7,122.8,552.6,122.3,552.5,122.2z"/>
			</g>
			<g>
				<path fill="#AFBDE1" d="M555,123.9c0.2,0.2,0.5,0.4,0.8,0.4c0.3,0,1,0.4,1.1,0.6c0.1,0.2,0.6,0.6,0.6,0.5c0.1-0.1,0.1-0.7-0.2-1
					c-0.3-0.3-1.1-0.9-1.3-1c-0.2,0-0.8-0.1-0.9-0.2c-0.1,0-0.7,0-0.9-0.3c-0.3-0.3-1.2,0.1-1,0.3c0.2,0.2,0.2,0.6,0.4,0.6
					c0.2,0,0.7,0.4,0.9,0.3C554.6,124.1,554.8,123.7,555,123.9z"/>
			</g>
			<g>
				<path fill="#AFBDE1" d="M554.8,124.8c-0.2,0-0.3,0.1-0.2,0.2c0.1,0.1,0.4,0.5,0.5,0.4C555.2,125.3,554.9,124.8,554.8,124.8z"/>
			</g>
			<g>
				<path fill="#AFBDE1" d="M556.7,123.4c0.1,0.1,0.2,0.1,0.3,0c0.1-0.1,0.2-0.3,0-0.4C556.9,122.9,556.6,123.3,556.7,123.4z"/>
			</g>
			<g>
				<path fill="#AFBDE1" d="M556.3,122.7c0.2-0.2,0.3-0.3,0.2-0.4c0,0-0.3-0.2-0.4-0.1C556,122.3,556.1,122.9,556.3,122.7z"/>
			</g>
			<g>
				<path fill="#AFBDE1" d="M555.1,122.8c0,0.1,0.2,0.1,0.3,0c0.1-0.1,0.2-0.4,0.1-0.5c-0.1-0.1-0.6,0.1-0.7,0
					c-0.1-0.1-0.3,0.1-0.2,0.4C554.6,122.8,555,122.7,555.1,122.8z"/>
			</g>
			<g>
				<path fill="#AFBDE1" d="M501.9,85.9c-0.3,0.5-0.4,0.7-0.3,0.6c0.1-0.1,0.8-0.4,1.2-0.3c0.4,0.1,1.7,0.3,1.7,0.5
					c0.1,0.2,0.3,0,0.3-0.1c0-0.1,0.1-0.5,0-0.4c-0.1,0-0.5-0.4-0.5-0.5c0-0.1-0.1-0.6-0.2-0.7c-0.1-0.1-0.6-0.5-0.7-0.5
					C503.3,84.4,502.1,85.5,501.9,85.9z"/>
			</g>
		</g>
		<path fill="#C8E5F8" d="M574.1,102.5c0.1,0,0.1,0.2,0,0.2C574.1,102.7,574,102.5,574.1,102.5z"/>
		<path fill="#C8E5F8" d="M561.8,108.6c0.1,0,0.1,0.2,0,0.2C561.7,108.8,561.7,108.6,561.8,108.6z"/>
	</g>
</g>
<g>
	<path fill="#010101" d="M169.7,83.2l2.8,2.4c0,0-9.3,9.3,0,43.4c4.4,28.5-4.1,20.8-4.1,20.8l-8,2.9V96.8L169.7,83.2z"/>
	<path fill="#1A1A1A" d="M155.6,83.2h14.1c0,0-5.4,9.4-4.1,25.9c1.3,16.5,5.2,32.2,0,36.5c-5.2,4.3-14.6,4.2-14.6,4.2V84.2
		L155.6,83.2z"/>
	<g>
		<path fill="#333333" d="M100.8,146.3c12.5-25,6.6-42.1,6.4-42.8l-3.3,1.2l1.7-0.6l-1.7,0.6c0.1,0.2,5.6,16.4-6.2,40L100.8,146.3z"
			/>
		<path fill="#697736" d="M108.1,167.4c0.1,1.8,1.4,2.9,3.3,2.8l46.5-3.2c1.8-0.1,4.3-1.5,4.2-3.3L155,61.9
			c-0.1-1.8-2.8-2.9-4.6-2.8l-46.5,3.2c-1.8,0.1-3,1.6-2.9,3.3L108.1,167.4z"/>
		<path fill="#9FBC3D" d="M108.1,166.9c0.1,1.8,1.2,3.4,3,3.3l40.5-2.8c1.9-0.1,4.3-2.1,4.2-3.8l-7.2-102.5
			c-0.1-1.7-2.7-1.8-4.5-1.6l-40.5,2.8c-1.9,0.1-2.8,0.4-2.7,2.1L108.1,166.9z"/>
		<path fill="#607132" d="M109.2,100.6c0.1,1.5,1.6,2.9,3.5,2.8l28.8-2c1.8-0.1,3.7-1.8,3.5-3.3l-2.1-29.9c-0.1-1.5-2.1-2.2-3.9-2.1
			l-28.8,2c-1.8,0.1-3.2,1.1-3.1,2.6L109.2,100.6z"/>
		<path fill="#738140" d="M109.2,100.6c0.1,1.5,1.6,2.9,3.5,2.8l28.8-2c1.8-0.1,3.7-1.8,3.5-3.3l-2.1-29.9c-0.1-1.5-2.1-2.2-3.9-2.1
			l-28.8,2c-1.8,0.1-3.2,1.1-3.1,2.6L109.2,100.6z"/>
		<path fill="#F5EDE5" d="M110.8,100.5c0.1,1.5,1.6,2.9,3.5,2.8l28.8-2c1.8-0.1,3.7-1.8,3.5-3.3l-2.1-29.9c-0.1-1.5-2.1-2.2-3.9-2.1
			l-28.8,2c-1.8,0.1-3.2,1.1-3.1,2.6L110.8,100.5z"/>
		
			<ellipse transform="matrix(-0.9976 6.954075e-02 -6.954075e-02 -0.9976 273.5187 157.9627)" fill="#432C31" cx="134" cy="83.7" rx="1.6" ry="4.8"/>
		
			<ellipse transform="matrix(-0.9976 6.985422e-02 -6.985422e-02 -0.9976 241.4218 161.2949)" fill="#432C31" cx="117.9" cy="84.9" rx="1.6" ry="4.8"/>
		<path opacity="0.2" fill="#607132" d="M142.7,107.1c1.3,1.7,1.1,4.4-0.5,6.1l-7.3,8.1c-1.5,1.7-3.8,1.7-5,0l0,0
			c-1.3-1.7-1.1-4.4,0.5-6.1l7.3-8.1C139.2,105.4,141.5,105.4,142.7,107.1L142.7,107.1z"/>
		<path fill="#607132" d="M135.9,115.6c0.9,1.2,0.8,3.3-0.3,4.5c-1.1,1.2-2.8,1.2-3.7,0c-0.9-1.2-0.8-3.3,0.3-4.5
			C133.3,114.4,135,114.4,135.9,115.6z"/>
		<path fill="#607132" d="M142,108.9c0.9,1.2,0.8,3.3-0.3,4.5c-1.1,1.2-2.8,1.2-3.7,0c-0.9-1.2-0.8-3.3,0.3-4.5
			C139.4,107.6,141.1,107.6,142,108.9z"/>
		<path fill="#F47E67" d="M134.9,115.4c0.9,1.2,0.8,3.3-0.3,4.5c-1.1,1.2-2.8,1.2-3.7,0c-0.9-1.2-0.8-3.3,0.3-4.5
			C132.3,114.2,134,114.2,134.9,115.4z"/>
		<path fill="#F47E67" d="M141,108.7c0.9,1.2,0.8,3.3-0.3,4.5c-1.1,1.2-2.8,1.2-3.7,0c-0.9-1.2-0.8-3.3,0.3-4.5
			C138.4,107.4,140.1,107.4,141,108.7z"/>
		<path fill="#333333" d="M159.5,142.9c6.7-27.1-2.7-42.5-3.1-43.1l-3,1.9l1.5-0.9l-1.5,0.9c0.1,0.1,9,14.8,2.7,40.4L159.5,142.9z"
			/>
		<g>
			<path fill="#465224" d="M112.8,113.8l2.6-0.2l-0.2-3c0-0.6,0.3-1.1,0.9-1.2l2.7-0.2c0.5,0,1,0.4,1,1l0.2,3l2.6-0.2
				c0.5,0,1,0.4,1,1l0.2,3.2c0,0.6-0.3,1.1-0.9,1.2l-2.6,0.2l0.2,3c0,0.6-0.3,1.1-0.9,1.2l-2.7,0.2c-0.5,0-1-0.4-1-1l-0.2-3
				l-2.6,0.2c-0.5,0-1-0.4-1-1l-0.2-3.2C111.9,114.4,112.2,113.8,112.8,113.8z"/>
			<path fill="#607132" d="M111.7,113.9l2.6-0.2l-0.2-3c0-0.6,0.3-1.1,0.9-1.2l2.7-0.2c0.5,0,1,0.4,1,1l0.2,3l2.6-0.2
				c0.5,0,1,0.4,1,1l0.2,3.2c0,0.6-0.3,1.1-0.9,1.2l-2.6,0.2l0.2,3c0,0.6-0.3,1.1-0.9,1.2l-2.7,0.2c-0.5,0-1-0.4-1-1l-0.2-3
				l-2.6,0.2c-0.5,0-1-0.4-1-1l-0.2-3.2C110.8,114.4,111.2,113.9,111.7,113.9z"/>
		</g>
	</g>
</g>
<g>
	<path fill="#010101" d="M266.6,83.2l2.8,2.4c0,0-9.3,9.3,0,43.4c4.4,28.5-4.1,20.8-4.1,20.8l-8,2.9V96.8L266.6,83.2z"/>
	<path fill="#1A1A1A" d="M252.5,83.2h14.1c0,0-5.4,9.4-4.1,25.9c1.3,16.5,5.2,32.2,0,36.5c-5.2,4.3-14.6,4.2-14.6,4.2V84.2
		L252.5,83.2z"/>
	<g>
		<path fill="#333333" d="M193.4,133.4c15.3-23.4,11.5-41,11.3-41.7l-3.4,0.8l1.7-0.4l-1.7,0.4c0,0.2,3.6,17-10.8,39L193.4,133.4z"
			/>
		<path fill="#697736" d="M198.3,155.3c-0.1,1.8,1.1,3,2.9,3.1l46.5,2.2c1.8,0.1,4.5-1,4.5-2.8l4.8-102c0.1-1.8-2.4-3.2-4.3-3.3
			l-46.5-2.2c-1.8-0.1-3.1,1.2-3.2,3L198.3,155.3z"/>
		<path fill="#9FBC3D" d="M198.3,154.8c-0.1,1.8,0.8,3.5,2.6,3.6l40.6,1.9c1.9,0.1,4.5-1.5,4.6-3.3l4.8-102.6
			c0.1-1.8-2.5-2.1-4.3-2.1L206,50.4c-1.9-0.1-2.8,0.1-2.9,1.8L198.3,154.8z"/>
		<path fill="#607132" d="M207.1,89c-0.1,1.5,1.3,3.1,3.1,3.2l28.8,1.3c1.8,0.1,3.8-1.3,3.9-2.9l1.4-29.9c0.1-1.5-1.8-2.4-3.7-2.5
			l-28.8-1.3c-1.8-0.1-3.3,0.7-3.4,2.2L207.1,89z"/>
		<path fill="#738140" d="M207.1,89c-0.1,1.5,1.3,3.1,3.1,3.2l28.8,1.3c1.8,0.1,3.8-1.3,3.9-2.9l1.4-29.9c0.1-1.5-1.8-2.4-3.7-2.5
			l-28.8-1.3c-1.8-0.1-3.3,0.7-3.4,2.2L207.1,89z"/>
		<path fill="#F5EDE5" d="M208.7,89.1c-0.1,1.5,1.3,3.1,3.1,3.2l28.8,1.3c1.8,0.1,3.8-1.3,3.9-2.9l1.4-29.9c0.1-1.5-1.8-2.4-3.7-2.5
			L213.4,57c-1.8-0.1-3.3,0.7-3.4,2.2L208.7,89.1z"/>
		
			<ellipse transform="matrix(-0.9989 -4.676392e-02 4.676392e-02 -0.9989 463.6043 161.18)" fill="#432C31" cx="233.7" cy="75.2" rx="1.6" ry="4.8"/>
		
			<ellipse transform="matrix(-0.9989 -4.644978e-02 4.644978e-02 -0.9989 431.4006 158.852)" fill="#432C31" cx="217.5" cy="74.4" rx="1.6" ry="4.8"/>
		<path opacity="0.2" fill="#607132" d="M239.6,99.3c1.1,1.8,0.5,4.5-1.2,6l-8.2,7.2c-1.7,1.5-3.9,1.2-5-0.6l0,0
			c-1.1-1.8-0.5-4.5,1.2-6l8.2-7.2C236.4,97.3,238.6,97.5,239.6,99.3L239.6,99.3z"/>
		<path fill="#607132" d="M231.9,107.1c0.8,1.3,0.4,3.3-0.9,4.4c-1.3,1.1-2.9,0.9-3.7-0.4c-0.8-1.3-0.4-3.3,0.9-4.4
			C229.5,105.5,231.1,105.7,231.9,107.1z"/>
		<path fill="#607132" d="M238.7,101.1c0.8,1.3,0.4,3.3-0.9,4.4c-1.3,1.1-2.9,0.9-3.7-0.4c-0.8-1.3-0.4-3.3,0.9-4.4
			C236.3,99.5,237.9,99.7,238.7,101.1z"/>
		<path fill="#F47E67" d="M230.9,106.7c0.8,1.3,0.4,3.3-0.9,4.4c-1.3,1.1-2.9,0.9-3.7-0.4c-0.8-1.3-0.4-3.3,0.9-4.4
			C228.5,105.2,230.1,105.4,230.9,106.7z"/>
		<path fill="#F47E67" d="M237.7,100.7c0.8,1.3,0.4,3.3-0.9,4.4c-1.3,1.1-2.9,0.9-3.7-0.4c-0.8-1.3-0.4-3.3,0.9-4.4
			C235.3,99.2,236.9,99.4,237.7,100.7z"/>
		<path fill="#333333" d="M252.1,136.9c9.8-26.2,2.2-42.5,1.9-43.2l-3.2,1.5l1.6-0.8l-1.6,0.8c0.1,0.2,7.2,15.8-2,40.5L252.1,136.9z
			"/>
		<g>
			<path fill="#465224" d="M209.1,102.6l2.6,0.1l0.1-3c0-0.6,0.5-1.1,1-1.1l2.7,0.1c0.5,0,0.9,0.5,0.9,1.2l-0.1,3l2.6,0.1
				c0.5,0,0.9,0.5,0.9,1.2l-0.1,3.2c0,0.6-0.5,1.1-1,1.1l-2.6-0.1l-0.1,3c0,0.6-0.5,1.1-1,1.1l-2.7-0.1c-0.5,0-0.9-0.5-0.9-1.2
				l0.1-3l-2.6-0.1c-0.5,0-0.9-0.5-0.9-1.2l0.1-3.2C208.1,103,208.6,102.5,209.1,102.6z"/>
			<path fill="#607132" d="M208.1,102.5l2.6,0.1l0.1-3c0-0.6,0.5-1.1,1-1.1l2.7,0.1c0.5,0,0.9,0.5,0.9,1.2l-0.1,3l2.6,0.1
				c0.5,0,0.9,0.5,0.9,1.2l-0.1,3.2c0,0.6-0.5,1.1-1,1.1l-2.6-0.1l-0.1,3c0,0.6-0.5,1.1-1,1.1l-2.7-0.1c-0.5,0-0.9-0.5-0.9-1.2
				l0.1-3l-2.6-0.1c-0.5,0-0.9-0.5-0.9-1.2l0.1-3.2C207.1,103,207.5,102.5,208.1,102.5z"/>
		</g>
	</g>
</g>
<g>
	<path fill="#010101" d="M363.5,83.2l2.8,2.4c0,0-9.3,9.3,0,43.4c4.4,28.5-4.1,20.8-4.1,20.8l-8,2.9V96.8L363.5,83.2z"/>
	<path fill="#1A1A1A" d="M349.4,83.2h14.1c0,0-5.4,9.4-4.1,25.9c1.3,16.5,5.2,32.2,0,36.5c-5.2,4.3-14.6,4.2-14.6,4.2V84.2
		L349.4,83.2z"/>
	<g>
		<path fill="#333333" d="M288.9,74.9c-2.5,27.9,9.2,41.6,9.7,42.1l2.6-2.3l-1.3,1.2l1.3-1.2c-0.1-0.1-11.2-13.3-8.9-39.5
			L288.9,74.9z"/>
		<path fill="#697736" d="M299.2,162.9c0.1,1.8,1.5,2.9,3.3,2.7l46.4-3.6c1.8-0.1,4.3-1.6,4.2-3.3L345.2,57
			c-0.1-1.8-2.8-2.9-4.6-2.8l-46.4,3.6c-1.8,0.1-3,1.6-2.8,3.3L299.2,162.9z"/>
		<path fill="#9FBC3D" d="M299.2,162.4c0.1,1.8,1.2,3.4,3.1,3.3l40.5-3.1c1.9-0.1,4.3-2.1,4.1-3.8l-7.9-102.4
			c-0.1-1.7-2.7-1.7-4.6-1.6l-40.5,3.1c-1.9,0.1-2.8,0.4-2.6,2.1L299.2,162.4z"/>
		<path fill="#607132" d="M299.7,96c0.1,1.5,1.7,2.9,3.5,2.8l28.7-2.2c1.8-0.1,3.6-1.8,3.5-3.3l-2.3-29.9c-0.1-1.5-2.1-2.2-3.9-2.1
			l-28.7,2.2c-1.8,0.1-3.2,1.1-3.1,2.6L299.7,96z"/>
		<path fill="#738140" d="M299.7,96c0.1,1.5,1.7,2.9,3.5,2.8l28.7-2.2c1.8-0.1,3.6-1.8,3.5-3.3l-2.3-29.9c-0.1-1.5-2.1-2.2-3.9-2.1
			l-28.7,2.2c-1.8,0.1-3.2,1.1-3.1,2.6L299.7,96z"/>
		<path fill="#F5EDE5" d="M301.3,95.9c0.1,1.5,1.7,2.9,3.5,2.8l28.7-2.2c1.8-0.1,3.6-1.8,3.5-3.3l-2.3-29.9
			c-0.1-1.5-2.1-2.2-3.9-2.1l-28.7,2.2c-1.8,0.1-3.2,1.1-3.1,2.6L301.3,95.9z"/>
		
			<ellipse transform="matrix(-0.997 7.723848e-02 -7.723848e-02 -0.997 653.9649 132.6843)" fill="#432C31" cx="324.4" cy="79" rx="1.6" ry="4.8"/>
		
			<ellipse transform="matrix(-0.997 7.754701e-02 -7.754701e-02 -0.997 621.9073 136.3287)" fill="#432C31" cx="308.3" cy="80.2" rx="1.6" ry="4.8"/>
		<path opacity="0.2" fill="#607132" d="M333.3,102.2c1.3,1.7,1.1,4.4-0.4,6.1l-7.2,8.2c-1.5,1.7-3.7,1.7-5,0l0,0
			c-1.3-1.7-1.1-4.4,0.4-6.1l7.2-8.2C329.8,100.6,332,100.6,333.3,102.2L333.3,102.2z"/>
		<path fill="#607132" d="M326.6,110.9c0.9,1.2,0.8,3.3-0.3,4.5c-1.1,1.2-2.8,1.3-3.7,0c-0.9-1.2-0.8-3.3,0.3-4.5
			C324,109.6,325.6,109.6,326.6,110.9z"/>
		<path fill="#607132" d="M332.6,104.1c0.9,1.2,0.8,3.3-0.3,4.5c-1.1,1.3-2.8,1.3-3.7,0c-0.9-1.2-0.8-3.3,0.3-4.5
			C330,102.8,331.6,102.8,332.6,104.1z"/>
		<path fill="#F47E67" d="M325.6,110.6c0.9,1.2,0.8,3.3-0.3,4.5c-1.1,1.3-2.8,1.3-3.7,0c-0.9-1.2-0.8-3.3,0.3-4.5
			C323,109.4,324.6,109.4,325.6,110.6z"/>
		<path fill="#F47E67" d="M331.6,103.8c0.9,1.2,0.8,3.3-0.3,4.5c-1.1,1.3-2.8,1.3-3.7,0c-0.9-1.2-0.8-3.3,0.3-4.5
			C329,102.6,330.6,102.6,331.6,103.8z"/>
		<path fill="#333333" d="M350.4,137.9c6.5-27.2-3.1-42.5-3.5-43.1l-3,1.9l1.5-1l-1.5,0.9c0.1,0.1,9.1,14.8,3,40.4L350.4,137.9z"/>
		<g>
			<path fill="#465224" d="M303.4,109.2l2.6-0.2l-0.2-3c0-0.6,0.3-1.1,0.9-1.2l2.7-0.2c0.5,0,1,0.4,1,1l0.2,3l2.6-0.2
				c0.5,0,1,0.4,1,1l0.2,3.2c0,0.6-0.3,1.1-0.9,1.2l-2.6,0.2l0.2,3c0,0.6-0.3,1.1-0.9,1.2l-2.7,0.2c-0.5,0-1-0.4-1-1l-0.2-3
				l-2.6,0.2c-0.5,0-1-0.4-1-1l-0.2-3.2C302.5,109.8,302.9,109.3,303.4,109.2z"/>
			<path fill="#607132" d="M302.4,109.3l2.6-0.2l-0.2-3c0-0.6,0.3-1.1,0.9-1.2l2.7-0.2c0.5,0,1,0.4,1,1l0.2,3l2.6-0.2
				c0.5,0,1,0.4,1,1l0.2,3.2c0,0.6-0.3,1.1-0.9,1.2l-2.6,0.2l0.2,3c0,0.6-0.3,1.1-0.9,1.2l-2.7,0.2c-0.5,0-1-0.4-1-1l-0.2-3
				l-2.6,0.2c-0.5,0-1-0.4-1-1l-0.2-3.2C301.5,109.9,301.9,109.3,302.4,109.3z"/>
		</g>
	</g>
</g>
<g>
	<path fill="#010101" d="M460.4,83.2l2.8,2.4c0,0-9.3,9.3,0,43.4c4.4,28.5-4.1,20.8-4.1,20.8l-8,2.9V96.8L460.4,83.2z"/>
	<path fill="#1A1A1A" d="M446.3,83.2h14.1c0,0-5.4,9.4-4.1,25.9c1.3,16.5,5.2,32.2,0,36.5c-5.2,4.3-14.6,4.2-14.6,4.2V84.2
		L446.3,83.2z"/>
	<g>
		<path fill="#333333" d="M377.5,80.6c9.2,26.4,25.5,34.1,26.2,34.4l1.5-3.2l-0.7,1.6l0.7-1.6c-0.2-0.1-15.7-7.5-24.4-32.3
			L377.5,80.6z"/>
		<path fill="#697736" d="M385.1,158.2c-0.2,1.8,0.8,3.1,2.6,3.4l46.1,6.5c1.8,0.3,4.5-0.6,4.8-2.3l14.3-101.1
			c0.2-1.8-2.1-3.4-3.9-3.7l-46.1-6.5c-1.8-0.3-3.2,0.9-3.5,2.7L385.1,158.2z"/>
		<path fill="#9FBC3D" d="M385.2,157.7c-0.2,1.7,0.4,3.6,2.3,3.9l40.2,5.7c1.9,0.3,4.6-1.1,4.9-2.9l14.4-101.7
			c0.2-1.7-2.2-2.3-4.1-2.5l-40.2-5.7c-1.9-0.3-2.8-0.2-3,1.5L385.2,157.7z"/>
		<path fill="#607132" d="M400.1,93c-0.2,1.5,1,3.2,2.8,3.5l28.5,4c1.8,0.3,3.9-1,4.2-2.5l4.2-29.7c0.2-1.5-1.6-2.6-3.4-2.9l-28.6-4
			c-1.8-0.3-3.4,0.4-3.6,1.9L400.1,93z"/>
		<path fill="#738140" d="M400.1,93c-0.2,1.5,1,3.2,2.8,3.5l28.5,4c1.8,0.3,3.9-1,4.2-2.5l4.2-29.7c0.2-1.5-1.6-2.6-3.4-2.9l-28.6-4
			c-1.8-0.3-3.4,0.4-3.6,1.9L400.1,93z"/>
		<path fill="#F5EDE5" d="M401.6,93.3c-0.2,1.5,1,3.2,2.8,3.5l28.5,4c1.8,0.3,3.9-1,4.2-2.5l4.2-29.7c0.2-1.5-1.6-2.6-3.4-2.9
			l-28.5-4c-1.8-0.3-3.4,0.4-3.6,1.9L401.6,93.3z"/>
		
			<ellipse transform="matrix(-0.9902 -0.1398 0.1398 -0.9902 840.0626 222.4435)" fill="#432C31" cx="427.8" cy="81.7" rx="1.6" ry="4.8"/>
		
			<ellipse transform="matrix(-0.9901 -0.14 0.14 -0.9901 808.4991 215.8191)" fill="#432C31" cx="411.8" cy="79.5" rx="1.6" ry="4.8"/>
		<path opacity="0.2" fill="#607132" d="M431.5,106.3c0.9,1.9,0.1,4.5-1.7,5.9l-8.8,6.4c-1.8,1.3-4,0.9-4.9-1.1l0,0
			c-0.9-1.9-0.1-4.5,1.7-5.9l8.8-6.4C428.4,104,430.6,104.4,431.5,106.3L431.5,106.3z"/>
		<path fill="#607132" d="M423.1,113.3c0.7,1.4,0.1,3.4-1.3,4.3c-1.3,1-3,0.6-3.6-0.8c-0.6-1.4-0.1-3.4,1.3-4.3
			C420.8,111.6,422.4,111.9,423.1,113.3z"/>
		<path fill="#607132" d="M430.4,108c0.7,1.4,0.1,3.4-1.3,4.3c-1.4,1-3,0.6-3.6-0.8c-0.7-1.4-0.1-3.4,1.3-4.3
			C428.1,106.2,429.7,106.6,430.4,108z"/>
		<path fill="#F47E67" d="M422.1,112.9c0.7,1.4,0.1,3.4-1.3,4.3c-1.3,1-3,0.6-3.6-0.8c-0.6-1.4-0.1-3.4,1.3-4.3
			C419.9,111.1,421.5,111.5,422.1,112.9z"/>
		<path fill="#F47E67" d="M429.5,107.5c0.6,1.4,0.1,3.4-1.3,4.3c-1.4,1-3,0.6-3.6-0.8c-0.6-1.4-0.1-3.4,1.3-4.3
			C427.2,105.8,428.8,106.1,429.5,107.5z"/>
		<path fill="#333333" d="M424.3,140.9c20.8-18.7,21.5-36.7,21.6-37.5l-3.5-0.1l1.8,0.1l-1.8-0.1c0,0.2-0.8,17.3-20.4,35
			L424.3,140.9z"/>
		<g>
			<path fill="#465224" d="M400.8,106.7l2.6,0.4l0.4-3c0.1-0.6,0.6-1,1.1-1l2.7,0.4c0.5,0.1,0.9,0.6,0.8,1.2l-0.4,3l2.6,0.4
				c0.5,0.1,0.9,0.6,0.8,1.2l-0.4,3.2c-0.1,0.6-0.6,1-1.1,1l-2.6-0.4l-0.4,3c-0.1,0.6-0.6,1-1.1,1l-2.7-0.4
				c-0.5-0.1-0.9-0.6-0.8-1.2l0.4-3l-2.6-0.4c-0.5-0.1-0.9-0.6-0.8-1.2l0.4-3.2C399.8,107.1,400.3,106.6,400.8,106.7z"/>
			<path fill="#607132" d="M399.8,106.6l2.6,0.4l0.4-3c0.1-0.6,0.6-1,1.1-1l2.7,0.4c0.5,0.1,0.9,0.6,0.8,1.2l-0.4,3l2.6,0.4
				c0.5,0.1,0.9,0.6,0.8,1.2l-0.4,3.2c-0.1,0.6-0.6,1-1.1,1l-2.6-0.4l-0.4,3c-0.1,0.6-0.6,1-1.1,1l-2.7-0.4
				c-0.5-0.1-0.9-0.6-0.8-1.2l0.4-3l-2.6-0.4c-0.5-0.1-0.9-0.6-0.8-1.2l0.4-3.2C398.8,106.9,399.3,106.5,399.8,106.6z"/>
		</g>
		
			<ellipse transform="matrix(0.9898 0.1424 -0.1424 0.9898 16.795 -58.8001)" fill="#432C31" cx="419.2" cy="87.9" rx="3.2" ry="2.8"/>
	</g>
</g>
<rect x="65.7" y="125.6" fill="#F48374" width="434.9" height="69.1"/>
<rect x="186.8" y="136.6" fill="#FFFFFF" width="204" height="44"/>
<g>
	<g>
		<path fill="#D0AB81" d="M268.9,172.6V148h10.3v3.4h-5.3v6.7h3.7v3.5h-3.7v11H268.9z"/>
		<path fill="#D0AB81" d="M280.4,172.6l5.3-24.6h4.4l5.3,24.6h-4.9l-1-5.3h-3.2l-1,5.3H280.4z M286.6,164.2h2.5l-1.2-9.1
			L286.6,164.2z"/>
		<path fill="#D0AB81" d="M298.5,164.5v-8.3c0-4.9,1.8-8.7,7.2-8.7c5.5,0,7.2,3.8,7.2,8.7v8.1c0,2.7-0.7,5.6-2.9,7.5
			c0.4,0.9,2.2,0.9,2.4,0.9v3c-3.3,0-4.7-1.6-5.5-2.8c-0.5,0.1-0.9,0.1-1.4,0.1C300.7,173.1,298.5,169.5,298.5,164.5z M308.1,165.6
			V155c0-1.6-0.4-3.6-2.3-3.6c-1.9,0-2.3,2.1-2.3,3.6v10.6c0,1.6,0.4,3.6,2.3,3.6C307.7,169.2,308.1,167.2,308.1,165.6z"/>
	</g>
	<g>
		<path fill="#553B40" d="M266.9,171.6v-24.6h10.3v3.4h-5.3v6.7h3.7v3.5h-3.7v11H266.9z"/>
		<path fill="#553B40" d="M278.4,171.6l5.3-24.6h4.4l5.3,24.6h-4.9l-1-5.3h-3.2l-1,5.3H278.4z M284.6,163.2h2.5l-1.2-9.1
			L284.6,163.2z"/>
		<path fill="#553B40" d="M296.5,163.5v-8.3c0-4.9,1.8-8.7,7.2-8.7c5.5,0,7.2,3.8,7.2,8.7v8.1c0,2.7-0.7,5.6-2.9,7.5
			c0.4,0.9,2.2,0.9,2.4,0.9v3c-3.3,0-4.7-1.6-5.5-2.8c-0.5,0.1-0.9,0.1-1.4,0.1C298.7,172.1,296.5,168.5,296.5,163.5z M306.1,164.6
			v-10.6c0-1.6-0.4-3.6-2.3-3.6c-1.9,0-2.3,2.1-2.3,3.6v10.6c0,1.6,0.4,3.6,2.3,3.6C305.7,168.2,306.1,166.2,306.1,164.6z"/>
	</g>
</g>
<g>
	<g>
		<path fill="#A1BF3C" d="M24.4,170.2c0,0-4-13.3-5.2-23c-1.2-9.7-7.2-15.6-11.6-18.6c1.2,11-1.1,17.3,2.5,22.1
			C13.7,155.4,24.4,170.2,24.4,170.2z"/>
		<path fill="#697736" d="M26.5,165.1c0,0-2,1.2,2.2-9c4.2-10.2,0.3-23.8,0.3-23.8s-8.1,5.3-7.8,13.8c0.4,8.5-0.1,14,0.7,17.9
			C22.8,167.9,26.5,165.1,26.5,165.1z"/>
		<path fill="#A1BF3C" d="M26.5,168.3c0,0-3-6.3,6.4-7.5c9.4-1.1,13.2-7.5,14.7-11.5c-5.4,2-12,0.8-12.9,1.8
			C33.8,152.1,22.8,162.8,26.5,168.3z"/>
		<path fill="#697736" d="M20.1,167.9c0,0,0.7-6.5-5.4-6.8c-6.2-0.3-13-7.3-14.7-11.1c3.8,1.5,10,2.3,12,3
			C13.1,153.5,21.4,162.2,20.1,167.9z"/>
	</g>
	<path fill="#553A3D" d="M9.1,163.6c5.7,0,10.9,0,13.6,0c0,0,0.7,0,2,0c2.8,0,8.1,0,13.8,0c5.9,7-2.8,30-2.8,30H24.7h-2H11.9
		C11.9,193.6,3.3,170.6,9.1,163.6z"/>
	<path fill="#432C31" d="M42.6,168.8c-0.2,0.7-1.1,1.7-1.8,1.7H6.6c-0.8,0-1.6-1-1.8-1.7l-1.2-3.8c-0.2-0.7,0.2-1.5,1-1.5h38.3
		c0.8,0,1.2,0.8,1,1.5L42.6,168.8z"/>
</g>
<g>
	<g>
		<path fill="#A1BF3C" d="M78.4,170.2c0,0-4-13.3-5.2-23c-1.2-9.7-7.2-15.6-11.6-18.6c1.2,11-1.1,17.3,2.5,22.1
			C67.7,155.4,78.4,170.2,78.4,170.2z"/>
		<path fill="#697736" d="M80.5,165.1c0,0-2,1.2,2.2-9c4.2-10.2,0.3-23.8,0.3-23.8s-8.1,5.3-7.8,13.8c0.4,8.5-0.1,14,0.7,17.9
			C76.8,167.9,80.5,165.1,80.5,165.1z"/>
		<path fill="#A1BF3C" d="M80.5,168.3c0,0-3-6.3,6.4-7.5c9.4-1.1,13.2-7.5,14.7-11.5c-5.4,2-12,0.8-12.9,1.8
			C87.8,152.1,76.8,162.8,80.5,168.3z"/>
		<path fill="#697736" d="M74.1,167.9c0,0,0.7-6.5-5.4-6.8c-6.2-0.3-13-7.3-14.7-11.1c3.8,1.5,10,2.3,12,3
			C67.1,153.5,75.4,162.2,74.1,167.9z"/>
	</g>
	<path fill="#553A3D" d="M63.1,163.6c5.7,0,10.9,0,13.6,0c0,0,0.7,0,2,0c2.8,0,8.1,0,13.8,0c5.9,7-2.8,30-2.8,30H78.7h-2H65.9
		C65.9,193.6,57.3,170.6,63.1,163.6z"/>
	<path fill="#432C31" d="M96.6,168.8c-0.2,0.7-1.1,1.7-1.8,1.7H60.6c-0.8,0-1.6-1-1.8-1.7l-1.2-3.8c-0.2-0.7,0.2-1.5,1-1.5h38.3
		c0.8,0,1.2,0.8,1,1.5L96.6,168.8z"/>
</g>
<g>
	<g>
		<path fill="#A1BF3C" d="M609.4,170.2c0,0-4-13.3-5.2-23c-1.2-9.7-7.2-15.6-11.6-18.6c1.2,11-1.1,17.3,2.5,22.1
			C598.7,155.4,609.4,170.2,609.4,170.2z"/>
		<path fill="#697736" d="M611.5,165.1c0,0-2,1.2,2.2-9c4.2-10.2,0.3-23.8,0.3-23.8s-8.1,5.3-7.8,13.8c0.4,8.5-0.1,14,0.7,17.9
			C607.8,167.9,611.5,165.1,611.5,165.1z"/>
		<path fill="#A1BF3C" d="M611.5,168.3c0,0-3-6.3,6.4-7.5c9.4-1.1,13.2-7.5,14.7-11.5c-5.4,2-12,0.8-12.9,1.8
			C618.8,152.1,607.8,162.8,611.5,168.3z"/>
		<path fill="#697736" d="M605.1,167.9c0,0,0.7-6.5-5.4-6.8c-6.2-0.3-13-7.3-14.7-11.1c3.8,1.5,10,2.3,12,3
			C598.1,153.5,606.4,162.2,605.1,167.9z"/>
	</g>
	<path fill="#553A3D" d="M594.1,163.6c5.7,0,10.9,0,13.6,0c0,0,0.7,0,2,0c2.8,0,8.1,0,13.8,0c5.9,7-2.8,30-2.8,30h-11.1h-2h-10.8
		C596.9,193.6,588.3,170.6,594.1,163.6z"/>
	<path fill="#432C31" d="M627.6,168.8c-0.2,0.7-1.1,1.7-1.8,1.7h-34.1c-0.8,0-1.6-1-1.8-1.7l-1.2-3.8c-0.2-0.7,0.2-1.5,1-1.5h38.3
		c0.8,0,1.2,0.8,1,1.5L627.6,168.8z"/>
</g>
</svg>
