<?xml version="1.0" encoding="utf-8"?>
<!-- Generator: Adobe Illustrator 18.1.1, SVG Export Plug-In . SVG Version: 6.00 Build 0)  -->
<svg version="1.0" id="Layer_1" xmlns="http://www.w3.org/2000/svg" xmlns:xlink="http://www.w3.org/1999/xlink" x="0px" y="0px"
	 viewBox="0 0 220.6 220.6" enable-background="new 0 0 220.6 220.6" xml:space="preserve">
<circle fill="#FFFFFF" cx="110.3" cy="110.3" r="110.3"/>
<g>
	<path fill="#333333" d="M87.6,193.1c-0.4-6.7,1.5-33.8,1.5-35l4.1,0.3c0,0.3-1.9,28.1-1.5,34.5L87.6,193.1z"/>
	<path fill="#333333" d="M119.5,193.3c-0.6-6.7,0.5-33.9,0.5-35l4.1,0.2c0,0.3-1.1,28.1-0.6,34.5L119.5,193.3z"/>
	<path fill="#697736" d="M136.3,162c0,3-2.3,5.4-5.1,5.4h-58c-2.8,0-5.1-2.4-5.1-5.4V51.7c0-3,2.3-5.4,5.1-5.4h58
		c2.8,0,5.1,2.4,5.1,5.4V162z"/>
	<path fill="#333333" d="M170.2,94.3c-1.3,5.6-4.1,9.8-8.4,12.4c-11.1,6.7-28,0.7-28.7,0.4l1.2-3.3c0.2,0.1,16,5.7,25.7-0.1
		c4-2.4,6.4-6.6,7.2-12.4l3.5,0.5C170.5,92.6,170.3,93.5,170.2,94.3z"/>
	<path fill="#9FBC3D" d="M139.4,162c0,3-2.2,5.4-4.8,5.4H79.5c-2.7,0-4.8-2.4-4.8-5.4V51.7c0-3,2.2-5.4,4.8-5.4h55.1
		c2.7,0,4.8,2.4,4.8,5.4V162z"/>
	<path opacity="0.2" fill="#607132" d="M131.6,106.9c2.4,2.4,2.4,6.4,0,8.9l-11.8,11.8c-2.4,2.4-6.4,2.4-8.9,0l0,0
		c-2.4-2.4-2.4-6.4,0-8.9l11.8-11.8C125.2,104.4,129.2,104.4,131.6,106.9L131.6,106.9z"/>
	<path fill="#607132" d="M119.5,118.5c1.7,1.7,1.7,4.6,0,6.3c-1.7,1.7-4.6,1.7-6.3,0c-1.7-1.7-1.7-4.6,0-6.3
		C114.9,116.8,117.7,116.8,119.5,118.5z"/>
	<path fill="#607132" d="M128.9,109c1.7,1.7,1.7,4.6,0,6.3c-1.7,1.7-4.6,1.7-6.3,0c-1.7-1.7-1.7-4.6,0-6.3
		C124.4,107.3,127.2,107.3,128.9,109z"/>
	<path fill="#F47E67" d="M120.7,118.4c1.7,1.7,1.7,4.6,0,6.3c-1.7,1.7-4.6,1.7-6.3,0c-1.7-1.7-1.7-4.6,0-6.3
		C116.1,116.7,118.9,116.7,120.7,118.4z"/>
	<circle fill="#F47E67" cx="127" cy="112.2" r="4.5"/>
	<g>
		<path fill="#465224" d="M97.9,112.3h-3.4v-4c0-0.8-0.6-1.5-1.2-1.5h-3.6c-0.7,0-1.2,0.6-1.2,1.5v4h-3.4c-0.7,0-1.2,0.7-1.2,1.5
			v4.2c0,0.8,0.6,1.5,1.2,1.5h3.4v4c0,0.8,0.6,1.5,1.2,1.5h3.6c0.7,0,1.2-0.7,1.2-1.5v-4h3.4c0.7,0,1.2-0.7,1.2-1.5v-4.2
			C99.1,112.9,98.6,112.3,97.9,112.3z"/>
		<path fill="#607132" d="M99.3,112.3h-3.4v-4c0-0.8-0.6-1.5-1.2-1.5h-3.6c-0.7,0-1.2,0.6-1.2,1.5v4h-3.4c-0.7,0-1.2,0.7-1.2,1.5
			v4.2c0,0.8,0.6,1.5,1.2,1.5h3.4v4c0,0.8,0.6,1.5,1.2,1.5h3.6c0.7,0,1.2-0.7,1.2-1.5v-4h3.4c0.7,0,1.2-0.7,1.2-1.5v-4.2
			C100.5,112.9,99.9,112.3,99.3,112.3z"/>
	</g>
	<path fill="#607132" d="M134.4,89.2c0,3-2.4,5.4-5.4,5.4H86.9c-3,0-5.4-2.4-5.4-5.4V57.1c0-3,2.4-5.4,5.4-5.4H129
		c3,0,5.4,2.4,5.4,5.4V89.2z"/>
	<path fill="#F5EDE5" d="M133.1,89.2c0,3-2.4,5.4-5.4,5.4H85.6c-3,0-5.4-2.4-5.4-5.4V57.1c0-3,2.4-5.4,5.4-5.4h42.1
		c3,0,5.4,2.4,5.4,5.4V89.2z"/>
	<path fill="#432C31" d="M98.7,71.5c0,3.4-0.9,6.2-2.1,6.2c-1.1,0-2.1-2.8-2.1-6.2c0-3.4,0.9-6.2,2.1-6.2
		C97.8,65.3,98.7,68,98.7,71.5z"/>
	<path fill="#432C31" d="M120.8,71.5c0,3.4-0.9,6.2-2.1,6.2c-1.1,0-2.1-2.8-2.1-6.2c0-3.4,0.9-6.2,2.1-6.2
		C119.8,65.3,120.8,68,120.8,71.5z"/>
	<path fill="#432C31" d="M114.1,78.8c0,4.2-2.8,7.7-6.2,7.7c-3.4,0-6.2-3.4-6.2-7.7"/>
	<g>
		<path fill="#F5A649" d="M86.7,39c0,0-6.5,4.1-0.5,7c5,2.3,20.1,3.2,20.1,3.2s28.2-0.7,20.4-7C112,30.2,86.7,39,86.7,39z"/>
		<path fill="#FDE56F" d="M86.7,42.2c0,0,1.1-20.3,18-20.3c16.9,0,18.6,20.4,18.6,20.4S108.4,48.9,86.7,42.2z"/>
		<path fill="#F5A649" d="M101,22.3c0,0,9-1.3,6.6,23.3c5.4,0,5.8-0.8,5.8-0.8S114.6,19.2,101,22.3z"/>
	</g>
	<g>
		<path fill="#333333" d="M79.2,117c1.9,1.3,4,2.4,6.5,3.2c9.6,3,21.1,0,34-9.1l-2.7-3.9c-11.7,8.1-21.8,11-29.9,8.4
			c-9.6-3-13.2-12.6-13.3-12.7l-4.5,1.6C69.6,105,72.3,112.2,79.2,117z"/>
	</g>
</g>
</svg>
