<?xml version="1.0" encoding="utf-8"?>
<!-- Generator: Adobe Illustrator 18.1.1, SVG Export Plug-In . SVG Version: 6.00 Build 0)  -->
<svg version="1.0" id="Layer_1" xmlns="http://www.w3.org/2000/svg" xmlns:xlink="http://www.w3.org/1999/xlink" x="0px" y="0px"
	 viewBox="0 0 312.7 70.7" enable-background="new 0 0 312.7 70.7" xml:space="preserve">
<rect x="3.8" y="4.4" fill="#172A3E" width="308.9" height="66.3"/>
<rect x="0" y="0.4" fill="#0C819E" width="308.9" height="66.3"/>
<g>
	<rect x="134.3" y="15.8" fill="none" width="169.9" height="42"/>
	<text transform="matrix(1 0 0 1 134.2881 30.956)"><tspan x="0" y="0" fill="#172A3E" font-family="'Avenir-Black'" font-size="20">STUDENTS &amp; </tspan><tspan x="0" y="21" fill="#172A3E" font-family="'Avenir-Black'" font-size="20">PARENTS</tspan></text>
</g>
<path fill="#62BAC1" d="M11.5,33.2c0,12.7,4.6,24.2,12.3,33.2h77.3c7.6-8.9,12.3-20.5,12.3-33.2c0-12.7-4.6-24.2-12.3-33.2H23.8
	C16.1,8.9,11.5,20.5,11.5,33.2z"/>
<g>
	<path fill-rule="evenodd" clip-rule="evenodd" fill="#EA5059" d="M78.6,13c2.3-0.3,2.8,0.9,2.8,3c-0.1,10.4-0.1,20.7-0.1,31.1
		c-0.6,1.6-1.9,1.9-3.4,1.9C69.8,48.9,61.7,49,53.6,49c-1.5,0-3.2,0.3-4.5-0.8c-1.2-1.4-1.2-3.1-1.2-4.8c0-8.4,0-16.9,0-25.3
		c0-1.8-0.1-3.7,1.6-4.9c6.7,0,13.4-0.1,20.1-0.1c2.4,1.9,1.2,4.6,1.6,7c0.2,1.3-0.6,3.2,2,2.6c1.6-0.4,4.3,1.4,3.9-2.6
		C76.9,17.7,76.2,14.9,78.6,13z"/>
	<path fill-rule="evenodd" clip-rule="evenodd" fill="#872D34" d="M49.5,13.1c0,11.6-0.1,23.1-0.1,34.7c-0.8,1.9-3.2,0.6-4.2,1.9
		c-0.2,0.4-0.4,0.8-0.4,1.2c0,0.4,0,0.8,0,1.3c0.1,0.4,0.2,0.8,0.5,1.2c1.3,1.3,3.7,0,4.8,2c0.4,1,0.2,1.8-0.5,2.6
		c-10.7,0.3-8.7,0.8-8.8-8.3c-0.1-10.5,0-20.9,0-31.4c0-5.2,0-5.2,5.2-5.2C47.1,13,48.3,13.1,49.5,13.1z"/>
	<path fill-rule="evenodd" clip-rule="evenodd" fill="#EA5059" d="M49.5,58c0-0.9-0.1-1.8-0.1-2.7c1-1.5,2.5-1.2,3.9-1.2
		c6.4-0.1,12.8,0,19.2,0c2.6,0,4.9-0.1,4.6-3.7c-0.1-1,0.7-1.8,1.4-2.5c1,0,2-0.1,2.8-0.8c0,2.7,0,5.3,0.1,8c0.1,2.2-0.8,3-3,3
		C68.8,58,59.2,58,49.5,58z"/>
	<path fill-rule="evenodd" clip-rule="evenodd" fill="#872D34" d="M78.6,13c0,4.1,0,8.2,0,12.3c-2,0.1-2.9-2-4.3-1.9
		c-1.4,0.1-2.7,1.3-4.7,2.3c0-4.5,0-8.6,0-12.8C71.4,10.9,76.9,10.9,78.6,13z"/>
	<path fill-rule="evenodd" clip-rule="evenodd" fill="#FFFFFF" d="M78.5,47.9c0,7.2,0,7.2-7.1,7.2c-7.3,0-14.7,0.1-22,0.1
		c-1.4,0-2.9-0.1-4.3-0.1c-1,0-1.6-0.2-1.4-1.4c1.1-1.1,2.5-0.7,3.8-0.8c6.9,0,13.8,0,20.7,0c-7,0-14,0-21,0c-1.2,0-2.5,0.3-3.4-0.8
		c0-0.5,0-0.9,0-1.4c1.1-1.1,2.5-0.7,3.8-0.8c6.9,0,13.8,0,20.7,0c-7,0-14,0-21,0c-1.2,0-2.5,0.3-3.4-0.8c-0.3-1.5,0.8-1.4,1.7-1.4
		c1.3,0,2.6-0.1,3.9-0.1C59.1,47.8,68.8,47.9,78.5,47.9z"/>
	<path fill-rule="evenodd" clip-rule="evenodd" fill="#F4BD27" d="M43.7,52.2c10.4,0,20.8,0,31.2,0c0,0.5,0,1,0,1.5
		c-10.4,0-20.8,0-31.2,0C43.7,53.2,43.7,52.7,43.7,52.2z"/>
	<path fill-rule="evenodd" clip-rule="evenodd" fill="#F4BD27" d="M43.7,49.3c10.4,0,20.8,0,31.2,0c0,0.5,0,1,0,1.5
		c-10.4,0-20.8,0-31.2,0C43.7,50.3,43.7,49.8,43.7,49.3z"/>
</g>
</svg>
