<?xml version="1.0" encoding="utf-8"?>
<!-- Generator: Adobe Illustrator 18.1.1, SVG Export Plug-In . SVG Version: 6.00 Build 0)  -->
<svg version="1.0" id="Layer_1" xmlns="http://www.w3.org/2000/svg" xmlns:xlink="http://www.w3.org/1999/xlink" x="0px" y="0px"
	 viewBox="0 0 220.6 220.6" enable-background="new 0 0 220.6 220.6" xml:space="preserve">
<circle fill="#ED6562" cx="110.3" cy="110.3" r="110.3"/>
<path fill="#FEFAD4" d="M185.9,54.6c0-13-11.7-23.4-26.1-23.4c-14.4,0-26.1,10.5-26,23.5c0,11.5,9.2,21,21.2,23
	c-4,5.5-7.5,9.7-7.5,9.7s17.8-6.1,25.9-12.8C180.9,70.6,185.9,63.1,185.9,54.6z"/>
<g>
	<path fill="#DCDDDE" d="M127.2,89.6c0,0-68.5-13.7-70.1-5.6c-1.7,8.5-8.4,89.6-8.4,89.6l43.3,5.6l38.9-8.5L127.2,89.6z"/>
	<path fill="#434343" d="M159.4,117.5c-16.5-12.3-44.1-22.6-44.4-22.7l1.4-4.1c1.2,0.4,28.5,10.5,45.4,23.2L159.4,117.5z"/>
	<path fill="#697736" d="M113.1,172c0,0.7-0.6,1.3-1.3,1.3H57.3c-0.7,0-1.3-0.6-1.3-1.3V43c0-0.7,0.6-1.3,1.3-1.3h54.5
		c0.7,0,1.3,0.6,1.3,1.3V172z"/>
	<path fill="#434343" d="M73.8,200.7c-0.4-6.2,1.3-31.5,1.3-32.6l3.8,0.3c0,0.3-1.7,26.1-1.3,32.1L73.8,200.7z"/>
	<path fill="#434343" d="M103.6,200.8c-0.6-6.2,0.4-31.6,0.4-32.6l3.8,0.1c0,0.3-1,26.2-0.4,32.2L103.6,200.8z"/>
	<path fill="#A1BF3C" d="M120.2,172c0,0.7-0.6,1.3-1.3,1.3H64.4c-0.7,0-1.3-0.6-1.3-1.3V43c0-0.7,0.6-1.3,1.3-1.3h54.5
		c0.7,0,1.3,0.6,1.3,1.3V172z"/>
	<path fill="#738142" d="M113.3,88.7c0,2.2-1.2,4.8-3.5,4.8H74.3c-2.2,0-2-2.5-2-4.8V53.3c0-2.3-0.2-4.8,2-4.8h35.5
		c2.2,0,3.5,2.6,3.5,4.8V88.7z"/>
	<path fill="#F7F0E8" d="M113.3,88.7c0,2.2-2.2,4.8-4.3,4.8H73c-2.1,0-0.6-2.5-0.6-4.8V53.3c0-2.3-1.4-4.8,0.6-4.8h36.1
		c2.1,0,4.3,2.6,4.3,4.8V88.7z"/>
	<path fill="#553B40" d="M86.5,70.3c0,3.2-0.9,5.8-1.9,5.8c-1.1,0-1.9-2.6-1.9-5.8c0-3.2,0.9-5.8,1.9-5.8
		C85.6,64.5,86.5,67.1,86.5,70.3z"/>
	<path fill="#553B40" d="M106.1,70.3c0,3.2-0.9,5.8-1.9,5.8c-1.1,0-1.9-2.6-1.9-5.8c0-3.2,0.9-5.8,1.9-5.8
		C105.3,64.5,106.1,67.1,106.1,70.3z"/>
	<path opacity="0.2" fill="#738142" d="M114.1,99.2c1.4,2.2,0.9,5.4-1,7.4l-9.5,9.3c-2,1.9-4.7,1.7-6.1-0.4l0,0
		c-1.4-2.1-0.9-5.4,1-7.4l9.5-9.3C110,96.9,112.7,97.1,114.1,99.2L114.1,99.2z"/>
	<path fill="#738142" d="M103.9,109.1c1,1.6,0.7,4-0.8,5.4c-1.5,1.4-3.5,1.3-4.5-0.3c-1-1.6-0.7-4,0.8-5.4
		C100.8,107.4,102.8,107.5,103.9,109.1z"/>
	<path fill="#738142" d="M111.8,101.4c1,1.6,0.7,4-0.8,5.4c-1.4,1.4-3.5,1.3-4.5-0.3c-1-1.6-0.7-4,0.8-5.4
		C108.7,99.7,110.7,99.8,111.8,101.4z"/>
	<path fill="#F48374" d="M105.2,108.7c1,1.6,0.7,4-0.8,5.4c-1.4,1.4-3.5,1.3-4.5-0.3c-1-1.6-0.7-4,0.8-5.4
		C102.2,107,104.2,107.2,105.2,108.7z"/>
	<path fill="#F48374" d="M113.1,101c1,1.6,0.7,4-0.8,5.4c-1.5,1.4-3.5,1.3-4.5-0.3c-1-1.6-0.7-4,0.8-5.4
		C110,99.3,112.1,99.4,113.1,101z"/>
	<path fill="#434343" d="M45.1,102.6c-4.7,0-8.9-0.9-10.6-3.9C32,94.2,36,87.4,46.8,77l2.7,2.8C36.7,92,37.4,95.9,37.9,96.8
		c1.1,2,9.2,3.2,23.1-0.5l1,3.7C59.7,100.6,51.9,102.6,45.1,102.6z"/>
	<path fill="#FFFFFF" d="M51.3,94.4L57,84c0,0,23.7,29.2,15.2,95.2c-10.2-0.4-23.7-5.6-23.7-5.6l3.5-67.1c0,0-25.3,4.2-22.8-9.2
		C31.8,84,33.8,84,33.8,84l8.6,5.6c0,0-2.9,5.4-0.8,5.6C43.7,95.4,50.1,96.5,51.3,94.4z"/>
	<path fill="#FFFFFF" d="M127.2,89.6c0,0-14.4,60.5-12.3,88.1c11.7,1.3,15.9-6.9,15.9-6.9l2.3-64.2l19.5,13.4l7.3-11.5
		C159.9,108.4,149.1,99.4,127.2,89.6z"/>
	<path fill="#BABAB0" d="M68.1,123c0,1.2-0.9,2.1-2.1,2.1c-1.2,0-2.1-0.9-2.1-2.1c0-1.2,0.9-2.1,2.1-2.1
		C67.1,120.9,68.1,121.9,68.1,123z"/>
	<circle fill="#BABAB0" cx="67" cy="135" r="2.1"/>
	<circle fill="#BABAB0" cx="68" cy="146.9" r="2.1"/>
	<g>
		<path fill="#4D5927" d="M86,105.7h-3.2V102c0-0.7-0.5-1.4-1.2-1.4h-3.3c-0.6,0-1.2,0.6-1.2,1.4v3.7H74c-0.6,0-1.2,0.6-1.2,1.4v3.9
			c0,0.7,0.5,1.4,1.2,1.4h3.2v3.7c0,0.7,0.5,1.4,1.2,1.4h3.3c0.6,0,1.2-0.6,1.2-1.4v-3.7H86c0.6,0,1.2-0.6,1.2-1.4V107
			C87.1,106.3,86.6,105.7,86,105.7z"/>
		<path fill="#697736" d="M87.2,105.7h-3.2V102c0-0.7-0.5-1.4-1.2-1.4h-3.3c-0.6,0-1.2,0.6-1.2,1.4v3.7h-3.2c-0.6,0-1.2,0.6-1.2,1.4
			v3.9c0,0.7,0.5,1.4,1.2,1.4h3.2v3.7c0,0.7,0.5,1.4,1.2,1.4h3.3c0.6,0,1.2-0.6,1.2-1.4v-3.7h3.2c0.6,0,1.2-0.6,1.2-1.4V107
			C88.4,106.3,87.9,105.7,87.2,105.7z"/>
	</g>
</g>
</svg>
