<?xml version="1.0" encoding="utf-8"?>
<!-- Generator: Adobe Illustrator 18.1.1, SVG Export Plug-In . SVG Version: 6.00 Build 0)  -->
<svg version="1.0" id="Layer_1" xmlns="http://www.w3.org/2000/svg" xmlns:xlink="http://www.w3.org/1999/xlink" x="0px" y="0px"
	 viewBox="0 0 336.4 167.3" enable-background="new 0 0 336.4 167.3" xml:space="preserve">
<g>
	<g>
		<path fill="#1D1E1E" d="M40.2,167.1c-0.3-5.6,1.2-28.4,1.3-29.3l3.5,0.2c0,0.2-1.6,23.5-1.3,28.9L40.2,167.1z"/>
		<path fill="#1D1E1E" d="M66.9,167.3c-0.5-5.6,0.4-28.4,0.5-29.4l3.5,0.1c0,0.2-0.9,23.6-0.5,28.9L66.9,167.3z"/>
		<path fill="#697736" d="M84.5,141.3c0,2.5-1.9,4.6-4.3,4.6H31.6c-2.4,0-4.3-2-4.3-4.6V48.9c0-2.5,1.9-4.5,4.3-4.5h48.7
			c2.4,0,4.3,2,4.3,4.5V141.3z"/>
		<path fill="#1D1E1E" d="M112.9,84.5c-1.1,4.7-3.4,8.2-7.1,10.4c-9.3,5.6-23.5,0.6-24.1,0.3l1-2.8c0.1,0,13.4,4.8,21.5-0.1
			c3.4-2,5.4-5.5,6-10.4l3,0.4C113.2,83.1,113,83.9,112.9,84.5z"/>
		<path fill="#9FBC3D" d="M87.1,141.3c0,2.5-1.8,4.6-4,4.6H36.9c-2.2,0-4-2-4-4.6V48.9c0-2.5,1.8-4.5,4-4.5H83c2.2,0,4,2,4,4.5
			V141.3z"/>
		<path opacity="0.2" fill="#738142" d="M39.8,94.3c-2.1,2.1-2.1,5.4,0,7.4l9.9,9.9c2,2.1,5.4,2.1,7.4,0l0,0c2.1-2.1,2.1-5.4,0-7.4
			l-9.9-9.9C45.2,92.2,41.9,92.2,39.8,94.3L39.8,94.3z"/>
		<circle fill="#738142" cx="52.7" cy="107.5" r="3.7"/>
		<path fill="#738142" d="M42.1,96.9c-1.5,1.5-1.5,3.8,0,5.3c1.5,1.5,3.8,1.5,5.3,0c1.5-1.5,1.5-3.8,0-5.3
			C45.9,95.5,43.6,95.5,42.1,96.9z"/>
		<path fill="#F6927B" d="M50.7,104.4c-1.5,1.5-1.5,3.8,0,5.3c1.5,1.5,3.8,1.5,5.3,0c1.5-1.5,1.5-3.8,0-5.3
			C54.5,102.9,52.1,102.9,50.7,104.4z"/>
		<path fill="#F6927B" d="M42.8,96.5c-1.5,1.5-1.5,3.8,0,5.3c1.5,1.5,3.8,1.5,5.3,0c1.5-1.5,1.5-3.8,0-5.3
			C46.6,95,44.2,95,42.8,96.5z"/>
		<g>
			<path fill="#57632B" d="M80.4,99.6h-2.8v-3.3c0-0.7-0.5-1.2-1-1.2h-3c-0.6,0-1,0.5-1,1.2v3.3h-2.8c-0.6,0-1,0.5-1,1.2v3.5
				c0,0.7,0.5,1.2,1,1.2h2.8v3.3c0,0.7,0.5,1.2,1,1.2h3c0.6,0,1-0.5,1-1.2v-3.3h2.8c0.6,0,1-0.5,1-1.2v-3.5
				C81.5,100.2,81,99.6,80.4,99.6z"/>
			<path fill="#697736" d="M81.6,99.6h-2.8v-3.3c0-0.7-0.5-1.2-1-1.2h-3c-0.6,0-1,0.5-1,1.2v3.3h-2.8c-0.6,0-1,0.5-1,1.2v3.5
				c0,0.7,0.5,1.2,1,1.2h2.8v3.3c0,0.7,0.5,1.2,1,1.2h3c0.6,0,1-0.5,1-1.2v-3.3h2.8c0.6,0,1-0.5,1-1.2v-3.5
				C82.6,100.2,82.1,99.6,81.6,99.6z"/>
		</g>
		<path fill="#738142" d="M82.9,80.3c0,2.5-2,4.5-4.5,4.5H43.1c-2.5,0-4.5-2-4.5-4.5V53.4c0-2.5,2-4.5,4.5-4.5h35.3
			c2.5,0,4.5,2,4.5,4.5V80.3z"/>
		<path fill="#FFF0E7" d="M81.8,80.3c0,2.5-2,4.5-4.6,4.5H42c-2.5,0-4.5-2-4.5-4.5V53.4c0-2.5,2-4.5,4.5-4.5h35.3
			c2.5,0,4.6,2,4.6,4.5V80.3z"/>
		<path fill="#553B40" d="M53,65.4c0,2.9-0.8,5.2-1.7,5.2c-1,0-1.7-2.3-1.7-5.2c0-2.9,0.8-5.2,1.7-5.2C52.2,60.2,53,62.5,53,65.4z"
			/>
		<path fill="#553B40" d="M71.4,65.4c0,2.9-0.8,5.2-1.7,5.2c-1,0-1.7-2.3-1.7-5.2c0-2.9,0.8-5.2,1.7-5.2
			C70.7,60.2,71.4,62.5,71.4,65.4z"/>
		<g>
			<path fill="#1D1E1E" d="M17.8,96.2c-1.8-0.4-3.6-1.2-5.4-2.3C5.5,89.6,1.3,80.8,0,67.6l3.8-0.5C5,79,8.6,86.9,14.4,90.5
				c6.9,4.3,14.7,1.2,14.8,1.2l1.3,3.7C30.2,95.6,24.4,97.9,17.8,96.2z"/>
		</g>
		<circle fill="#553B40" cx="60.7" cy="73.3" r="3.3"/>
	</g>
	<polygon fill="#DA4230" points="100.3,92.4 106.3,94.4 126.6,28.1 120.6,26.1 	"/>
</g>
<g>
	<path fill="#62C7C7" d="M336.4,81.6c0,4.7-3.8,8.5-8.5,8.5H164.1c-4.7,0-8.5-3.8-8.5-8.5V8.5c0-4.7,3.8-8.5,8.5-8.5h163.8
		c4.7,0,8.5,3.8,8.5,8.5V81.6z"/>
	<polygon fill="#62C7C7" points="156.5,34.9 134.6,55.3 156.1,58.4 	"/>
</g>
<rect x="158.2" y="29.9" fill="none" width="174.2" height="50.7"/>
<text transform="matrix(1 0 0 1 181.5025 42.4668)"><tspan x="0" y="0" fill="#FFFFFF" font-family="'Avenir-Black'" font-size="16.5751">MORE COMING </tspan><tspan x="34.8" y="17.4" fill="#FFFFFF" font-family="'Avenir-Black'" font-size="16.5751">SOON!</tspan></text>
</svg>
