<?xml version="1.0" encoding="utf-8"?>
<!-- Generator: Adobe Illustrator 18.1.1, SVG Export Plug-In . SVG Version: 6.00 Build 0)  -->
<svg version="1.1" id="Layer_1" xmlns="http://www.w3.org/2000/svg" xmlns:xlink="http://www.w3.org/1999/xlink" x="0px" y="0px"
	 viewBox="0 0 359.3 310.6" enable-background="new 0 0 359.3 310.6" xml:space="preserve">
<g>
	<path fill="#B9946A" d="M330.4,160.2c0,3.4-2.7,6.1-6,6.1h-289c-3.3,0-6-2.7-6-6.1V10c0-3.4,2.7-6.1,6-6.1h289c3.3,0,6,2.7,6,6.1
		V160.2z"/>
	<path fill="#EDCA90" d="M332,157.7c0,3.4-2.7,6.2-6.1,6.2H33.4c-3.3,0-6.1-2.8-6.1-6.2V6.2C27.3,2.8,30,0,33.4,0h292.5
		c3.3,0,6.1,2.8,6.1,6.2V157.7z"/>
	<path fill="#69ACB6" d="M35.3,157.8c-1.6,0-2.9-1.3-2.9-2.9V7.4c0-1.6,1.3-2.9,2.9-2.9h289c1.6,0,2.9,1.3,2.9,2.9v147.5
		c0,1.6-1.3,2.9-2.9,2.9H35.3z"/>
	<path fill="#8CD3DA" d="M35.3,158.8c-1.6,0-2.9-1.3-2.9-2.9V10.2c0-1.6,1.3-2.9,2.9-2.9h289c1.6,0,2.9,1.3,2.9,2.9v145.7
		c0,1.6-1.3,2.9-2.9,2.9H35.3z"/>
	<g>
		<path fill="#69ACB6" d="M54.3,23.9v10.7l7.5,8C69.8,31.9,60.2,23.9,54.3,23.9"/>
		<path fill="#F2F2F2" d="M54.3,20.3c-7.9,0-14.3,6.4-14.3,14.3c0,7.9,6.4,14.3,14.3,14.3c7.9,0,14.3-6.4,14.3-14.3
			C68.5,26.7,62.1,20.3,54.3,20.3 M66.7,33.7h-1.2c-0.4-5.5-4.8-9.8-10.3-10.3v-1.2C61.3,22.7,66.2,27.6,66.7,33.7 M53.4,33.7h-8.5
			c0.4-4.5,4-8,8.5-8.5V33.7z M53.4,35.5V44c-4.5-0.4-8-4-8.5-8.5H53.4z M55.2,35.5h8.5c-0.4,4.5-4,8-8.5,8.5V35.5z M55.2,33.7v-8.5
			c4.5,0.4,8,4,8.5,8.5H55.2z M53.4,22.2v1.2c-5.5,0.4-9.8,4.8-10.3,10.3h-1.2C42.3,27.6,47.2,22.7,53.4,22.2 M41.9,35.5h1.2
			c0.4,5.5,4.8,9.8,10.3,10.3V47C47.2,46.6,42.3,41.7,41.9,35.5 M55.2,47v-1.2c5.5-0.4,9.8-4.8,10.3-10.3h1.2
			C66.2,41.7,61.3,46.6,55.2,47"/>
	</g>
	<path fill="#FFFFFF" d="M179.4,142.8c34.3,0,62.2-27.9,62.2-62.2c0-34.3-27.9-62.2-62.2-62.2"/>
	<path fill="#C5E7E9" d="M179.4,18.5c-34.3,0-62.2,27.9-62.2,62.2c0,34.3,27.9,62.2,62.2,62.2"/>
	<g>
		<g>
			<path fill="#74BEC5" d="M238.9,97.6c-0.8,0-1.9,0.4-1.9,0.7c0,0.3-1.1,0.8-1.5,0.9c-0.4,0.1-1.1,1.3-1.3,1.7
				c-0.2,0.4-1.1,0.3-1.4,0.4c-0.3,0.1-1,0.7-1,1.1c0,0.3-0.2,0.3-0.4-0.1c0,0,0,0-0.4,0.5c-0.5,0.6-0.5,0.6-0.5,0.6
				c-0.3,1-1.3,2.2-1.7,2.3c-0.3,0.1-0.4,1.8-0.4,2.4c0,0.7,0.3,1.5,0.6,1.9c0,0,0,0,0.1,0.5c0.1,1.1,0.1,1.1,0.1,1.1
				c-0.2,0.8,0.4,1.6,0.6,1.7c0.2,0.1,1.7-0.3,2.3-0.4c0.2-0.1,0.5-0.2,0.8-0.3c2.7-4.6,4.9-9.6,6.4-14.9
				C239.1,97.6,239,97.6,238.9,97.6z"/>
			<path fill="#74BEC5" d="M136.2,99.2c-0.1,0.2,1,1.3,1.5,1.7c0.4,0.4,1.3,2.3,1.5,2.9c0.2,0.6,0.1,1.6,0,1.9
				c-0.1,0.2,0.2,0.8,0.3,1c0,0.2-0.4,2-0.2,2.8c0.2,0.7-0.9,3-0.8,4.2c0,1.1,0.5,2.6,0.7,2.5c0.2-0.1,0.3,1-0.1,1.2
				c-0.3,0.1-0.8,1-0.6,1.1c0.2,0,0,0.9,0,1.3c0.1,0.4,0.4,2.7,0.4,3.3c0.1,0.6,0.9,2,1.1,2.5c0.2,0.5,0.4,1.4,0.4,1.6
				c0.1,0.1,0.2,0.3,0.2,0.3c0,0,0.7,0.3,0.9,0.4c0.2,0.1,1.5,0.1,2,0c0.4-0.1,0-0.5-0.2-0.7c-0.2-0.2-0.4-1.3-0.6-1.4
				c-0.2-0.1-0.3-1.4-0.1-1.7c0.2-0.3,1-0.8,1.1-1c0.1-0.2,0.1-1.4-0.1-1.6c-0.2-0.2,0.1-1.6-0.1-2.3c-0.2-0.7,1.2-1.3,1.3-1.9
				c0.1-0.6,1.6-1.2,1.9-1.4c0.3-0.3,0.6-1.9,0.5-2.2c-0.2-0.3,0.6-0.6,0.9-0.6c0.3,0,0.7-0.2,0.8-0.2c0.1,0,0.5-0.7,0.7-0.9
				c0.2-0.2,0.6-1.8,1-2.1c0.4-0.3,0.7-1.3,0.7-1.6c0-0.3,0.6-1.2,0.8-1.5c0.2-0.3,1.6-0.9,1.8-1c0.2-0.1,0.6-2.3,0.7-3.2
				c0.1-0.8,0.5-1.9,0.5-2.1c0-0.3,0.5-0.5,0.6-0.6c0.1-0.1,0.4-1.1,0.6-1.3c0.2-0.2,1-1.2,1-1.4c0-0.2,0.1-0.8,0.3-1.2
				c0,0,0,0,0-0.5c0-0.9,0-0.9,0-0.9c-0.2-0.7-1-1.5-1.2-1.3c-0.2,0.2-1.1-0.6-1.5-0.8c-0.4-0.2-1.5-0.3-1.8-0.3
				c-0.3,0-1.2-0.8-1.7-0.9c-0.4-0.1-1.5-0.3-1.7-0.5c-0.2-0.1-0.5-1.8-1.4-2.3c-0.9-0.5-2.4-1.8-2.6-2.2c-0.2-0.5-1.9-1.4-2.4-1.7
				c-0.5-0.3-1.3-0.4-1.4-0.3c-0.1,0.1-0.8-0.9-1.1-1.2c-0.3-0.3-1.4-0.5-1.4-0.3c0,0.3-0.7,0.1-0.9-0.1c-0.2-0.2-0.7,0.1-0.9,0.2
				c-0.2,0.1-1.1,1.4-1.5,1.7c-0.4,0.3-0.9-0.3-1.1-0.4c-0.3-0.1-1.2,0.2-1.5,0.4c-0.3,0.2-0.9-1.4-0.7-2.1c0.1-0.7-0.6-2.1-1.2-2.2
				c-0.6,0-0.8-1.5-0.7-2.1c0.1-0.6-1.1-0.9-1.4-0.9c-0.3,0-1.1,0.7-1.2,1.1c-0.1,0.4-2.9-0.5-2.6-2.2c0.3-1.6,1.6-3.4,1.9-3.6
				c0.3-0.2,2.1-0.3,2.5-0.1c0.4,0.2,0.7,0,0.8-0.1c0.1-0.1,1.5,0,1.9,0.2c0.4,0.2,1,1.8,1.5,2c0.4,0.2,0.6-1.1,0.7-1.4
				c0.1-0.3-0.2-1.1-0.3-1.3c-0.1-0.2,0.7-2.2,1.4-2.6c0.7-0.3,1.4-1.5,1.3-1.7c-0.1-0.2,0.5-0.4,0.7-0.4c0.2-0.1,0-1.7,0.2-2.1
				c0.3-0.4,1.5-1.1,1.9-1.3c0.4-0.2,0.7-1.2,0.6-1.4c-0.1-0.2,1-1.2,1.6-1.4c0.6-0.2,1.1,0.4,1,0.4c0.1-0.1,1-0.5,1.3-0.7
				c0.4-0.3,0-1-0.3-1.3c-0.3-0.2-0.1-1.1,0.2-1.2c0.3-0.1,0.6-0.8,0.5-1c-0.1-0.2,1.4,0.1,1.9-0.3c0.5-0.4,0.2,1-0.2,1.5
				c-0.4,0.6,0.3,1.1,0.6,1c0.3-0.1,0.5,0.3,0.6,0.5c0,0.2,0.6-0.2,1,0c0.4,0.2,0.6-0.5,0.6-0.8c0-0.3-0.9-0.9-1-1.3
				c-0.1-0.4-0.2-2.5-0.2-2.9c0-0.4-0.6-1.1-0.8-1c-0.2,0.1-0.6-1.1-0.9-1.4c-0.3-0.3-0.4-0.9-0.4-1.1c0-0.2-1-1.3-1.3-1.8
				c-0.2-0.5-0.6-0.4-0.6-0.2c0,0.2-0.7,0.3-1,0.2c-0.3,0-0.5-1.2-0.5-1.6c0-0.4-1.3-0.5-1.6-0.9c-0.2-0.3-1.1-0.2-1.2-0.4
				c-0.1-0.2-0.9-0.5-1.1-0.4c-0.2,0.1-0.1,3.2-0.2,4c-0.2,0.8-0.9,1.6-1.1,1.5c-0.3,0-0.1,0.6,0.1,0.5c0.2-0.1-0.5,0.9-0.6,1.5
				c-0.1,0.6-0.7,0-0.8-0.6c-0.1-0.6-0.7-1.4-0.9-1.2c-0.1,0.2-0.6-0.2-0.7-0.1c-0.2,0.1-1.4-0.7-1.9-1c-0.5-0.3-0.7-1.7-1-1.9
				c-0.3-0.1,0-0.3-0.1-0.5c0-0.2,0.9-1.1,1.2-1.4c0.3-0.3,1.3-1.7,1.7-2c0.4-0.3,0.7-1.1,0.7-1.2c-0.1-0.1,1.7-0.7,2.2-0.9
				c0.5-0.2,0.9-1.5,1-1.9c0.1-0.4-0.3-1.1-0.5-1.2c-0.2-0.1,0.7-0.1,1,0c0.3,0.1,1.2-0.3,1.6-0.1c0.4,0.2,1.1,0.6,1.7,1
				c0,0,0,0-0.1,1c-0.2,1.7-0.2,1.7-0.2,1.7c-1.4,0.6-1.8,1.6-1.3,1.6c0.5,0,2.8,1,3.4,1.5c0.6,0.5,0.8-0.7,1-1
				c0.2-0.4,0.1-1.5,0-1.7c-0.2-0.2,0.7-0.1,1,0.1c0.3,0.2,0.6-0.2,0.7-0.3c0.2-0.1,0.3-1,0.4-1.2c0.1-0.2-0.4-0.4-0.4-0.6
				c0-0.2-1-0.7-1.4-0.8c-0.3-0.2-0.4-0.9-0.2-1c0.2-0.1-0.1-1-0.3-1.3c-0.2-0.3-1.2-0.5-1.6-0.5c-0.4,0-0.7-0.8-0.9-0.9
				c-0.2-0.1-1.6-0.3-1.9-0.2c-0.3,0.1-1-1-1.5-0.6c-0.6,0.3-1.2-0.4-1.4-0.5c-0.3-0.1-1.6,1.3-1.6,2.3c0,1,0.5,2,0.7,2
				c0.2,0,0,0.9-0.3,1.2c-0.2,0.3-0.8-0.3-0.6-0.5c0.2-0.2-0.6-1.3-0.9-1.7c-0.2-0.3-0.9-0.6-1.4-0.8c-0.3,0.3-0.5,0.6-0.8,0.9
				c0.1,0.4,0.2,0.9,0.1,1.2c-0.2,0.6-0.7,0.7-0.7,0.4c0-0.1-0.3-0.2-0.6-0.2c-7.5,9-12.5,20.2-14,32.5c0.3,0.3,0.6,0.7,0.7,1
				c0.2,0.5,1.1,0.9,1.3,1c0.2,0.1,0.2-1,0.1-1.3c-0.1-0.3,0.2-0.5,0.2-0.3c0,0.2,0.9,1.2,1.2,1.6c0.3,0.4,0.6,2.7,0.9,3.2
				c0.3,0.5,3,1.6,3.9,1.8c0.9,0.2,2,1.2,2.2,1.5c0.2,0.3,1.3,0.4,1.6,0.5c0.3,0.1,0.9,0.9,1.1,1.1c0.2,0.2,0.4,0.6,0.4,0.8
				c0,0.1,1.5,0.7,1.9,1.1c0.4,0.4,1,0.3,1.1,0.1c0.1-0.2,0.4,0.8,0.6,1.2c0.2,0.3,0.2,1.2,0.1,1.3c-0.1,0.1-0.3,1.7-0.6,2
				c-0.3,0.3-0.8,2.6-0.7,3c0.1,0.4,0.8,1.4,1.2,1.5c0.3,0.1,0.2,0.6-0.1,0.7c-0.2,0-0.1,2.2,0.4,2.5C135.8,98,136.3,99,136.2,99.2z
				"/>
			<path fill="#74BEC5" d="M143.6,61.3L143.6,61.3C143.5,61.3,143.5,61.3,143.6,61.3z"/>
			<path fill="#74BEC5" d="M139.3,35.1c0.7-0.1,2-0.3,2.1-0.5c0.1-0.2,0.1-0.7-0.1-0.9c0.1,0,0.3,0,0.4,0c0.3,0,0.8-1.6,1.1-1.9
				c0.3-0.4,2-0.9,2.4-1.1c0.4-0.2,1.3-1.1,1.6-1.2c0.3-0.1,0.8-0.9,0.8-1.1c-0.1-0.2,1.2-0.9,1.6-1.1c0.5-0.2,0.7-0.7,0.5-0.8
				c-0.1,0-2.7,1.3-5.1,2.7c-2.7,1.8-5.3,3.9-7.7,6.1C137.7,35.3,138.8,35.1,139.3,35.1z"/>
			<path fill="#74BEC5" d="M235.5,84.2c0.1,0.2,0.8-0.4,1.3-0.5c0.4-0.1,0.7-1.3,0.4-1.4c-0.4-0.1-0.8-1-1.1-1.1
				c-0.3-0.1-0.7,0.4-0.7,0.8c0,0.4-0.8,0.5-1,0.8c-0.2,0.3-0.1,0.5,0,0.5C234.6,83.3,235.5,84.1,235.5,84.2z"/>
			<path fill="#74BEC5" d="M234.6,90.8c0.2-0.1,0-1.3-0.5-1.4c-0.5-0.1-1.8,1.6-1.5,2.5c0.2,1,0.5,0.9,0.6,0.7
				c0.1-0.2,0.9,0.1,1.1,0.2c0.2,0.1,0.2-0.2,0-0.5C234.2,91.9,234.4,90.8,234.6,90.8z"/>
			<path fill="#74BEC5" d="M232.1,89.6c0.1-0.4,0.1-1.8,0.2-2c0.1-0.3-0.7-1-1.1-1.2c-0.4-0.1-1.6,2.6-2.5,3.1
				c-0.9,0.5-1.2,2.1-1,2.5c0.2,0.4,2.1,0.6,2.4,0.9c0.3,0.3,0.7,0,0.9-0.1c0.2,0,0.1-0.2,0.1-0.2c-0.1,0,0.7-0.8,0.8-1.3
				C231.9,90.8,232,90,232.1,89.6z"/>
			<path fill="#74BEC5" d="M227,94.1c-0.7-0.3-1.5,0.1-1.6,0.4c-0.1,0.3,2.7,0.7,3.6,1c0.9,0.3,1.5,0.3,1.3,0.2
				C230.1,95.5,227.7,94.4,227,94.1z"/>
			<path fill="#74BEC5" d="M232.6,76c0.2-0.3-0.3-1.8-0.6-1.4c-0.3,0.3-0.1,1.2,0,1.5C232.1,76.4,232.4,76.3,232.6,76z"/>
			<path fill="#74BEC5" d="M234.3,79.2c0.2-0.4-0.2-0.8-0.8-0.9c-0.6-0.1-0.5,1.7-0.2,1.9C233.5,80.4,234.1,79.5,234.3,79.2z"/>
			<path fill="#74BEC5" d="M237.4,90.4c0.7,0.5,2.3,0.3,2.4-0.7C239.1,89.2,237.4,89.3,237.4,90.4z"/>
			<path fill="#74BEC5" d="M237,68.2c-0.3,0.2-0.5,0.7-0.4,1c0,0-0.1,0-0.1,0c-0.2,0-0.3,0.9,0,1.1c0.2,0.2,0.9-0.7,1.2-1
				c0.3-0.2,1-0.3,1-0.3c0.1,0.1,0.7-0.1,1.2-0.4c0.1,0,0.2-0.2,0.4-0.4c-0.1-0.7-0.3-1.4-0.5-2.1c-0.3,0.2-0.6,0.5-0.8,0.6
				C238.8,67,237.4,67.9,237,68.2z"/>
			<path fill="#74BEC5" d="M220.6,87.3C220.6,87.3,220.6,87.3,220.6,87.3C220.5,87.2,220.5,87.2,220.6,87.3z"/>
			<path fill="#74BEC5" d="M225.1,91.4c-0.3-0.6-1.1-1.6-1.9-2.2c0,0,0,0-0.3-0.5c-0.3-0.5-0.3-0.5-0.3-0.5
				c-0.3-0.6-1.2-1.1-1.3-1.2c-0.1-0.2-0.4,0.5-0.7,0.3c0.2,0.1,0.5,0.3,1,0.7c0.8,0.6,2.4,4.6,2.8,4.9
				C224.8,93.2,225.3,92,225.1,91.4z"/>
			<path fill="#74BEC5" d="M212.2,84.9c-0.2,0.5,1.2,1.4,1.3,1.2c0.1-0.2-0.2-1.3-0.4-1.6C212.9,84.3,212.5,84.4,212.2,84.9z"/>
			<path fill="#74BEC5" d="M193.5,106.5c0.1,0.5,1,0.9,1.3,0.8c0.3-0.1,1.1-1.5,1.2-2c0.1-0.4,0.2-1.3,0.2-1.5
				c0-0.2,0.1-0.7,0.2-0.8c0.1-0.1,0.3-0.6,0.4-1.1c0.1-0.6-0.6-3.1-0.6-3.6c0-0.5-0.5,0.2-0.7,0.7c-0.1,0.5-1.4,1.4-1.7,1.8
				c-0.3,0.4-0.6,1.7-0.5,1.9c0.1,0.2-0.1,1.1-0.2,1.4C193,104.4,193.4,106,193.5,106.5z"/>
			<path fill="#74BEC5" d="M147.6,124.2c0.3,0,0.6,0,0.9,0C148.6,123.3,147.6,123.4,147.6,124.2z"/>
			<path fill="#74BEC5" d="M170.4,28c-0.4,0-1.3-0.1-1.4-0.3c-0.2-0.2-1.5-0.3-1.9-0.2c-0.4,0.2-0.1-1,0.4-1.1
				c0.6-0.1,0.1-0.9-0.5-0.9c-0.6,0-2.1-0.2-2.4-0.1c-0.3,0.1-1-0.2-1.3-0.3c-0.2,0-2,0.5-2.8,0.5c-0.8,0-2.9,0-3.3,0.2
				c-0.4,0.1-0.8,1-0.7,1.3c0.1,0.3-2,0.3-2.6,0.3c-0.6,0-4.1,0.7-5,1.2c-0.9,0.5-1.6,1.8-1.3,1.8c0.3,0-0.5,0.7-1,0.9
				c-0.5,0.2-1.6,0.2-1.9,0.5c-0.3,0.3,0.3,0.5,0.4,0.6c0.1,0.2,0.4-0.2,0.7,0c0.3,0.2,1.3,0.3,1.6,0.4c0.3,0.1-0.8,0.3-1.4,0.4
				c-0.5,0-0.4,1.1,0,1.2c0.4,0.1,1.5,0.3,1.6,0.1c0.1-0.2,1.3,0.2,1.8,0.3c0.5,0.1,0.9,1.4,1.1,1.7c0.2,0.3,0.2,1.3,0.2,1.6
				c0,0.3,1,0.8,1.1,0.6c0.2-0.2,0.1,0.5-0.3,0.4c-0.4,0-0.1,1.1,0.4,1.3c0.5,0.2,0.2,0.9-0.1,1.1c-0.3,0.2-0.1,0.9-0.4,1.1
				c-0.3,0.2,1,2.5,1,3.7c0,1.2,0.7,2.1,1,2.1c0.3,0,1.2,0.2,1.4,0.5c0.1,0.2,0.6-0.2,0.8-0.4c0.2-0.2,0.6-0.8,0.9-1.2
				c0.3-0.5,1-2.8,1-3.1c0.1-0.3,1.2-0.1,1.4-0.2c0.2-0.1,1-0.7,1.2-0.9c0.2-0.2,1.8-0.8,2.2-1.1c0.4-0.3,1.1-1.6,1.5-1.9
				c0.3-0.3-0.2-0.2-0.6-0.5c-0.4-0.3-0.2-0.6-0.1-0.7c0.1-0.1,1.4,0.2,1.8,0.4c0.4,0.2,1.3-0.4,0.9-0.7c-0.3-0.2-0.2-0.2,0-0.1
				c0.2,0.1,0.3-0.8,0.1-0.9c-0.2-0.2,1.3-1.2,1-2.2c-0.3-1,0.4-2,0.8-2c0.4,0,0.3-1.1-0.2-1.2c-0.5-0.1,0-0.2,0.1-0.4
				c0.2-0.2,0.4-1.2,0.3-1.3c-0.1-0.2,0.7-0.4,0.8-0.6c0.1-0.2,1.1-0.7,1.4-0.7C170.6,28.8,170.8,27.9,170.4,28z"/>
			<path fill="#74BEC5" d="M178.5,28.8c-0.4-0.2-1.3,0.3-1.2,0.6c0.1,0.3-0.7-0.4-1.3-0.1c-0.6,0.3-0.8,1.3-0.5,1.5
				c0.3,0.1,0.5,1,0.5,1.1c0,0.2,1.2,0,1.4-0.2c0.3-0.2,0.2,0.8,0,1.1c-0.3,0.3,0.1,0.9,0.4,0.9c0.3,0,0.7,0.8,1.1,0.8
				c0.3,0,0.9-1.3,1-1.7c0.1-0.5,1.2-0.1,1.7,0.1c0.5,0.1,0.7-1.7,0.1-2c-0.5-0.3-1.2-0.1-1.4-0.4c-0.2-0.2-0.6-0.4-0.9-0.5
				C179.2,30.1,178.9,29,178.5,28.8z"/>
			<path fill="#74BEC5" d="M182.8,29.7c0.9,0.1,1.9-0.6,2.1-0.8c0.2-0.2-2.4-0.7-3.4-0.8c-1,0-1.8,0.1-1.8,0.3
				C179.7,28.6,182,29.6,182.8,29.7z"/>
			<path fill="#74BEC5" d="M166.8,53.4c-0.2-0.1-0.4,0.8-0.3,1.1c0.1,0.3,0.9,0.3,1.2,0.2c0.3-0.1,0.6-0.3,0.6-0.6
				c0-0.3-0.5-1.6-0.7-1.6C167.4,52.6,167.1,53.5,166.8,53.4z"/>
			<path fill="#74BEC5" d="M169.4,43.3c-0.2-0.3-1.6-0.3-1.9-0.3c-0.3,0-1.4-0.4-1.6-0.6c-0.2-0.2-0.3,0.8-0.7,1
				c-0.3,0.1,0.2,0.3,0.3,0.2c0.1-0.1,0,0.5-0.2,0.8c-0.1,0.2,0.9,0.4,1,0.7c0.1,0.3,0.6,0.6,1,0.5c0.4-0.1,1.2-0.5,1.5-0.5
				C169.3,45.1,169.6,43.7,169.4,43.3z"/>
			<path fill="#74BEC5" d="M198.3,35.5c0.5-0.5,2.4-1.1,2.6-1.6c0.2-0.5-0.1-0.9-0.3-0.9c-0.2,0-0.4,0.2-0.5,0.3
				c0,0.1-2.3,0.6-3,0.9c-0.7,0.3-1.5,0.8-1.8,1.1c-0.3,0.3-0.8,2.5-0.9,2.8c-0.2,0.2,0.7,1.2,1.1,1.4c0.4,0.2,1,0.1,1.1,0.1
				c0.2-0.1-0.2-1.6-0.4-2.1C196.1,36.9,197.9,35.9,198.3,35.5z"/>
			<path fill="#74BEC5" d="M195.9,29.7c0.7,0.7,1.1-0.3,1.9-0.2C197.9,28,195.9,28.5,195.9,29.7z"/>
			<path fill="#74BEC5" d="M210.2,30c0,0.3,2,0.5,2.6,0.4c0.6-0.1-0.1-1-1-1C211,29.4,210.3,29.7,210.2,30z"/>
			<path fill="#74BEC5" d="M135.8,45.2c-0.2,0.2,0,1.2,0.4,1.2c0.4,0,1.1-1.5,1.6-1.2c0.5,0.3,0.8,0.4,0.8,0.3
				c-0.1-0.2-1.5-0.8-1.7-0.9C136.7,44.5,136,45,135.8,45.2z"/>
			<path fill="#74BEC5" d="M141.1,79.3c0,0.2,0.9,0.1,1-0.1c0.1-0.3,0.1-0.5-0.2-0.5C141.7,78.7,141.1,79.2,141.1,79.3z"/>
			<path fill="#74BEC5" d="M137.1,77.9c0.4-0.1,0.2,0.6,0.3,0.9c0.1,0.3,1.1,0.5,1.3,0.6c0.2,0.2,0.7-0.3,1.1-0.3
				c0.4,0.1-0.1-1.4-0.8-1.4c-0.7,0-1.2-0.6-1.4-0.7c-0.2-0.1-1-0.6-1.2-0.7c-0.2-0.2-2-0.3-2.6-0.3c-0.6,0-1.3,0.6-1.3,0.8
				c-0.1,0.2,0.9,0.3,1.2,0.2c0.3-0.2,1.7,0.2,2,0.5C136.1,77.7,136.7,77.9,137.1,77.9z"/>
			<path fill="#74BEC5" d="M135.2,79.3c0,0.2,0.9,0.1,1.1,0.1c0.2,0,0.2-0.1,0-0.3C136.1,78.9,135.2,79.2,135.2,79.3z"/>
			<path fill="#74BEC5" d="M135.9,74.7c-0.2-0.1-0.4,0.3-0.4,0.5c0,0.2,0.1,0.3,0.3,0.3C135.9,75.4,136.1,74.8,135.9,74.7z"/>
			<path fill="#74BEC5" d="M137.8,74.8c-0.1-0.2-0.5-0.3-0.6-0.3c-0.1,0-0.2,0.3-0.2,0.7C137,75.5,137.8,75,137.8,74.8z"/>
			<path fill="#74BEC5" d="M139.1,76.9c0.4-0.2,0.4-0.6,0.2-0.6c-0.2,0-0.6-0.6-0.9-0.7c-0.2-0.1-0.4,0.4-0.4,0.6
				c0,0.2,0.1,0.4,0.3,0.3C138.5,76.5,138.8,77.1,139.1,76.9z"/>
			<path fill="#74BEC5" d="M240.2,91.1c-0.2,0.1-1.1,0.2-1.2,0c-0.1-0.2-0.3,0.4-0.5,0.5c-0.2,0.1-0.1,0.6,0.2,0.4
				c0.2-0.1,1.1,0.4,1.8,0.8c0.1-0.7,0.3-1.4,0.4-2.1C240.5,90.9,240.3,91.1,240.2,91.1z"/>
		</g>
		<g>
			<path fill="#74BEC5" d="M136.2,99.2c-0.1,0.2,1,1.3,1.5,1.7c0.4,0.4,1.3,2.3,1.5,2.9c0.2,0.6,0.1,1.6,0,1.9
				c-0.1,0.2,0.2,0.8,0.3,1c0,0.2-0.4,2-0.2,2.8c0.2,0.7-0.9,3-0.8,4.2c0,1.1,0.5,2.6,0.7,2.5c0.2-0.1,0.3,1-0.1,1.2
				c-0.3,0.1-0.8,1-0.6,1.1c0.2,0,0,0.9,0,1.3c0.1,0.4,0.4,2.7,0.4,3.3c0.1,0.6,0.9,2,1.1,2.5c0.2,0.5,0.4,1.4,0.4,1.6
				c0.1,0.1,0.2,0.3,0.2,0.3c0,0,0.7,0.3,0.9,0.4c0.2,0.1,1.5,0.1,2,0c0.4-0.1,0-0.5-0.2-0.7c-0.2-0.2-0.4-1.3-0.6-1.4
				c-0.2-0.1-0.3-1.4-0.1-1.7c0.2-0.3,1-0.8,1.1-1c0.1-0.2,0.1-1.4-0.1-1.6c-0.2-0.2,0.1-1.6-0.1-2.3c-0.2-0.7,1.2-1.3,1.3-1.9
				c0.1-0.6,1.6-1.2,1.9-1.4c0.3-0.3,0.6-1.9,0.5-2.2c-0.2-0.3,0.6-0.6,0.9-0.6c0.3,0,0.7-0.2,0.8-0.2c0.1,0,0.5-0.7,0.7-0.9
				c0.2-0.2,0.6-1.8,1-2.1c0.4-0.3,0.7-1.3,0.7-1.6c0-0.3,0.6-1.2,0.8-1.5c0.2-0.3,1.6-0.9,1.8-1c0.2-0.1,0.6-2.3,0.7-3.2
				c0.1-0.8,0.5-1.9,0.5-2.1c0-0.3,0.5-0.5,0.6-0.6c0.1-0.1,0.4-1.1,0.6-1.3c0.2-0.2,1-1.2,1-1.4c0-0.2,0.1-0.8,0.3-1.2
				c0,0,0,0,0-0.5c0-0.9,0-0.9,0-0.9c-0.2-0.7-1-1.5-1.2-1.3c-0.2,0.2-1.1-0.6-1.5-0.8c-0.4-0.2-1.5-0.3-1.8-0.3
				c-0.3,0-1.2-0.8-1.7-0.9c-0.4-0.1-1.5-0.3-1.7-0.5c-0.2-0.1-0.5-1.8-1.4-2.3c-0.9-0.5-2.4-1.8-2.6-2.2c-0.2-0.5-1.9-1.4-2.4-1.7
				c-0.5-0.3-1.3-0.4-1.4-0.3c-0.1,0.1-0.8-0.9-1.1-1.2c-0.3-0.3-1.4-0.5-1.4-0.3c0,0.3-0.7,0.1-0.9-0.1c-0.2-0.2-0.7,0.1-0.9,0.2
				c-0.2,0.1-1.1,1.4-1.5,1.7c-0.4,0.3-0.9-0.3-1.1-0.4c-0.3-0.1-1.2,0.2-1.5,0.4c-0.3,0.2-0.9-1.4-0.7-2.1c0.1-0.7-0.6-2.1-1.2-2.2
				c-0.6,0-0.8-1.5-0.7-2.1c0.1-0.6-1.1-0.9-1.4-0.9c-0.3,0-1.1,0.7-1.2,1.1c-0.1,0.4-2.9-0.5-2.6-2.2c0.3-1.6,1.6-3.4,1.9-3.6
				c0.3-0.2,2.1-0.3,2.5-0.1c0.4,0.2,0.7,0,0.8-0.1c0.1-0.1,1.5,0,1.9,0.2c0.4,0.2,1,1.8,1.5,2c0.4,0.2,0.6-1.1,0.7-1.4
				c0.1-0.3-0.2-1.1-0.3-1.3c-0.1-0.2,0.7-2.2,1.4-2.6c0.7-0.3,1.4-1.5,1.3-1.7c-0.1-0.2,0.5-0.4,0.7-0.4c0.2-0.1,0-1.7,0.2-2.1
				c0.3-0.4,1.5-1.1,1.9-1.3c0.4-0.2,0.7-1.2,0.6-1.4c-0.1-0.2,1-1.2,1.6-1.4c0.6-0.2,1.1,0.4,1,0.4c0.1-0.1,1-0.5,1.3-0.7
				c0.4-0.3,0-1-0.3-1.3c-0.3-0.2-0.1-1.1,0.2-1.2c0.3-0.1,0.6-0.8,0.5-1c-0.1-0.2,1.4,0.1,1.9-0.3c0.5-0.4,0.2,1-0.2,1.5
				c-0.4,0.6,0.3,1.1,0.6,1c0.3-0.1,0.5,0.3,0.6,0.5c0,0.2,0.6-0.2,1,0c0.4,0.2,0.6-0.5,0.6-0.8c0-0.3-0.9-0.9-1-1.3
				c-0.1-0.4-0.2-2.5-0.2-2.9c0-0.4-0.6-1.1-0.8-1c-0.2,0.1-0.6-1.1-0.9-1.4c-0.3-0.3-0.4-0.9-0.4-1.1c0-0.2-1-1.3-1.3-1.8
				c-0.2-0.5-0.6-0.4-0.6-0.2c0,0.2-0.7,0.3-1,0.2c-0.3,0-0.5-1.2-0.5-1.6c0-0.4-1.3-0.5-1.6-0.9c-0.2-0.3-1.1-0.2-1.2-0.4
				c-0.1-0.2-0.9-0.5-1.1-0.4c-0.2,0.1-0.1,3.2-0.2,4c-0.2,0.8-0.9,1.6-1.1,1.5c-0.3,0-0.1,0.6,0.1,0.5c0.2-0.1-0.5,0.9-0.6,1.5
				c-0.1,0.6-0.7,0-0.8-0.6c-0.1-0.6-0.7-1.4-0.9-1.2c-0.1,0.2-0.6-0.2-0.7-0.1c-0.2,0.1-1.4-0.7-1.9-1c-0.5-0.3-0.7-1.7-1-1.9
				c-0.3-0.1,0-0.3-0.1-0.5c0-0.2,0.9-1.1,1.2-1.4c0.3-0.3,1.3-1.7,1.7-2c0.4-0.3,0.7-1.1,0.7-1.2c-0.1-0.1,1.7-0.7,2.2-0.9
				c0.5-0.2,0.9-1.5,1-1.9c0.1-0.4-0.3-1.1-0.5-1.2c-0.2-0.1,0.7-0.1,1,0c0.3,0.1,1.2-0.3,1.6-0.1c0.4,0.2,1.1,0.6,1.7,1
				c0,0,0,0-0.1,1c-0.2,1.7-0.2,1.7-0.2,1.7c-1.4,0.6-1.8,1.6-1.3,1.6c0.5,0,2.8,1,3.4,1.5c0.6,0.5,0.8-0.7,1-1
				c0.2-0.4,0.1-1.5,0-1.7c-0.2-0.2,0.7-0.1,1,0.1c0.3,0.2,0.6-0.2,0.7-0.3c0.2-0.1,0.3-1,0.4-1.2c0.1-0.2-0.4-0.4-0.4-0.6
				c0-0.2-1-0.7-1.4-0.8c-0.3-0.2-0.4-0.9-0.2-1c0.2-0.1-0.1-1-0.3-1.3c-0.2-0.3-1.2-0.5-1.6-0.5c-0.4,0-0.7-0.8-0.9-0.9
				c-0.2-0.1-1.6-0.3-1.9-0.2c-0.3,0.1-1-1-1.5-0.6c-0.6,0.3-1.2-0.4-1.4-0.5c-0.3-0.1-1.6,1.3-1.6,2.3c0,1,0.5,2,0.7,2
				c0.2,0,0,0.9-0.3,1.2c-0.2,0.3-0.8-0.3-0.6-0.5c0.2-0.2-0.6-1.3-0.9-1.7c-0.2-0.3-0.9-0.6-1.4-0.8c-0.3,0.3-0.5,0.6-0.8,0.9
				c0.1,0.4,0.2,0.9,0.1,1.2c-0.2,0.6-0.7,0.7-0.7,0.4c0-0.1-0.3-0.2-0.6-0.2c-0.3,0.3-0.5,0.7-0.8,1c-0.3,0.3-0.5,0.7-0.8,1
				c-0.3,0.4-0.6,0.7-0.8,1.1c-0.2,0.3-0.5,0.7-0.7,1c-0.4,0.5-0.7,1-1,1.5c-0.3,0.5-0.6,1-1,1.5c-0.3,0.4-0.5,0.9-0.8,1.3
				c-0.2,0.3-0.3,0.6-0.5,0.9c-0.3,0.5-0.5,0.9-0.8,1.4c-0.1,0.3-0.3,0.5-0.4,0.8c-0.6,1.1-1.1,2.2-1.6,3.3c0,0,0,0.1,0,0.1
				c-0.2,0.6-0.5,1.1-0.7,1.7c-0.1,0.2-0.2,0.4-0.3,0.6c-0.2,0.6-0.4,1.2-0.7,1.8c0,0.1-0.1,0.2-0.1,0.3c-0.7,2-1.3,4-1.8,6.1
				c0,0.1-0.1,0.3-0.1,0.4c-0.5,2.1-0.9,4.3-1.1,6.5c0,0,0,0,0,0c0.3,0.3,0.6,0.7,0.7,1c0.2,0.5,1.1,0.9,1.3,1
				c0.2,0.1,0.2-1,0.1-1.3c-0.1-0.3,0.2-0.5,0.2-0.3c0,0.2,0.9,1.2,1.2,1.6c0.3,0.4,0.6,2.7,0.9,3.2c0.3,0.5,3,1.6,3.9,1.8
				c0.9,0.2,2,1.2,2.2,1.5c0.2,0.3,1.3,0.4,1.6,0.5c0.3,0.1,0.9,0.9,1.1,1.1c0.2,0.2,0.4,0.6,0.4,0.8c0,0.1,1.5,0.7,1.9,1.1
				c0.4,0.4,1,0.3,1.1,0.1c0.1-0.2,0.4,0.8,0.6,1.2c0.2,0.3,0.2,1.2,0.1,1.3c-0.1,0.1-0.3,1.7-0.6,2c-0.3,0.3-0.8,2.6-0.7,3
				c0.1,0.4,0.8,1.4,1.2,1.5c0.3,0.1,0.2,0.6-0.1,0.7c-0.2,0-0.1,2.2,0.4,2.5C135.8,98,136.3,99,136.2,99.2z"/>
			<line fill="#74BEC5" x1="143.6" y1="61.3" x2="143.6" y2="61.3"/>
			<path fill="#74BEC5" d="M139.3,35.1c0.7-0.1,2-0.3,2.1-0.5c0.1-0.2,0.1-0.7-0.1-0.9c0.1,0,0.3,0,0.4,0c0.3,0,0.8-1.6,1.1-1.9
				c0.3-0.4,2-0.9,2.4-1.1c0.4-0.2,1.3-1.1,1.6-1.2c0.3-0.1,0.8-0.9,0.8-1.1c-0.1-0.2,1.2-0.9,1.6-1.1c0.5-0.2,0.7-0.7,0.5-0.8
				c-0.1,0-2.7,1.3-5.1,2.7c0,0,0,0-0.1,0c-0.7,0.5-1.4,0.9-2,1.4c-0.5,0.3-0.9,0.7-1.3,1c-0.2,0.2-0.5,0.4-0.7,0.5
				c-0.5,0.4-1,0.9-1.6,1.3c-0.1,0.1-0.2,0.2-0.3,0.3c-0.6,0.5-1.1,1-1.7,1.5C137.7,35.3,138.8,35.1,139.3,35.1z"/>
			<path fill="#74BEC5" d="M178.7,65.4c-0.3,0-0.3,0.9,0,1c0.2,0.1,0.5-0.5,0.8-0.9v-3.5c0,0,0-0.1-0.1-0.1
				c-0.4-0.4-0.3-0.4,0.1-0.1V40.6c-0.3,0.3-0.6,0.6-0.8,0.7c-0.5,0.4-1.4,2.1-1.7,2.5c-0.3,0.4-0.7,0.5-0.9,0.5
				c-0.2,0-0.3,0.5-0.3,0.6c0,0.2-1.5,1-1.7,1.6c-0.2,0.7,0.1,2.2,0.1,2.8c0,0.6,0.6,1.7,1,1.7c0.4,0,0.2,0.9,0.1,1.2
				c-0.1,0.3,0.3,0.5,0.3,0.8c0,0.2-1.1,0.5-1.4,0.7c-0.3,0.1-0.8,0.8-0.9,1.1c-0.1,0.2-1.1,0.4-1.4,0.7c0.1-0.2,0.2-0.5,0.3-0.7
				c0.2-0.4-0.1-1-0.2-1.1c-0.2-0.1-0.2-1.9-0.5-2.3c-0.3-0.4-0.9-1-1-1.2c-0.2-0.1,0.1-0.6,0.2-0.8c0.1-0.2-0.8-0.3-1.1-0.2
				c-0.3,0.1-0.4,1.9-0.5,2.4c-0.1,0.5,0.5,1.2,0.6,1.3c0.1,0,0.1,0.9-0.2,0.9c-0.3,0-0.6,1.3-0.5,1.6c0.2,0.3-0.2,0.9-0.4,1
				c-0.2,0.1,1.3,0.1,1.9,0c0.7,0,1.2,0.3,1.1,0.3c-0.1,0.1-1.3,0.2-1.5,0.5c-0.2,0.3-1,0.8-1.2,1c-0.2,0.2,0.3,0.7,0.6,0.7
				c0.3,0,0.7,1.2,1,1.4c0.3,0.2,0.2,0.9,0.1,1c-0.1,0.2-1.7-0.1-2.4,0c-0.6,0.2-1.4,1.5-1.4,1.9c-0.1,0.5,0.1,1.9,0.2,2.3
				c0.1,0.4,1.4,0.6,1.6,0.8c0.3,0.2,1.5,0,1.8,0.1c0.2,0.1,1.1-1.2,1.3-1.9c0.2-0.6,1.5-1.8,1.7-2.2c0.3-0.4,1.7-0.4,2-0.6
				c0.4-0.2,0.2,1.1,0.3,1.8c0.2,0.7,1.5,0.6,1.3,0c-0.2-0.7,0.1-1,0.2-0.7c0.1,0.2,1.4,0.8,1.6,1.1C179,64.6,178.9,65.4,178.7,65.4
				z"/>
			<path fill="#74BEC5" d="M222.9,36.2c-0.1,0-0.2,0-0.2,0c-0.5-0.1-0.5-0.1-0.5-0.1c-0.9-0.2-1.4-1.1-1.3-1.4c0-0.1,0-0.2,0-0.4
				c-0.5-0.4-1-0.9-1.5-1.3c-0.4,0-0.9,0-1.1,0c-0.5,0-1.7-0.4-1.9-0.6c-0.2-0.2-0.9,0.2-0.9,0.6c0,0.4-1.3,0.6-1.4,0.9
				c-0.1,0.3-0.7,0.3-0.9,0.1c-0.1-0.2-1.3,0.4-1.8,0.5c-0.6,0.1-1.6,0.5-1.9,0.6c-0.2,0.1-0.8,0.7-0.9,0.9c-0.1,0.2-0.8,0.6-1,0.7
				c-0.2,0.1-0.2,1.1,0.1,1.3c0.3,0.1-0.6-0.1-0.9-0.3c-0.4-0.2-0.8,0.4-0.9,0.7c-0.1,0.2-0.5-0.1-0.4-0.4c0-0.3-0.9-0.6-1.1-0.3
				c-0.1,0.3-0.8-0.1-1-0.2c-0.3-0.1-1.4,1.1-1.9,1.5c-0.4,0.4-2.5,0.8-2.9,0.6c-0.4-0.2-0.8,0.9-0.4,1c0.3,0.1-0.8-0.1-1.5,0
				c-0.6,0.1-2.5,0.8-3,1.1c-0.5,0.3-0.8-0.1-0.8-0.3c0-0.3-0.7-0.5-0.9-0.6c-0.2-0.1-0.6,1.4-1,1.7c-0.4,0.3-0.8-1.2-1.7-1.4
				c-0.9-0.2-2.2-1.1-2.6-1.2c-0.4-0.1-1.2-0.9-1.4-1.2c-0.2-0.2-1.3-0.4-1.7-0.4c-0.4,0-1.5,0.7-1.8,0.9c-0.3,0.3-0.8,0.2-0.9,0.3
				c-0.2,0.1-1.5,1.4-2,1.8c-0.5,0.4-1.4,2.1-1.7,2.5c-0.3,0.4-0.7,0.5-0.9,0.5c-0.2,0-0.3,0.5-0.3,0.6c0,0.2-1.5,1-1.7,1.6
				c-0.2,0.7,0.1,2.2,0.1,2.8c0,0.6,0.6,1.7,1,1.7c0.4,0,0.2,0.9,0.1,1.2c-0.1,0.3,0.3,0.5,0.3,0.8c0,0.2-1.1,0.5-1.4,0.7
				c-0.3,0.1-0.8,0.8-0.9,1.1c-0.1,0.2-1.1,0.4-1.4,0.7c0.1-0.2,0.2-0.5,0.3-0.7c0.2-0.4-0.1-1-0.2-1.1c-0.2-0.1-0.2-1.9-0.5-2.3
				c-0.3-0.4-0.9-1-1-1.2c-0.2-0.1,0.1-0.6,0.2-0.8c0.1-0.2-0.8-0.3-1.1-0.2c-0.3,0.1-0.4,1.9-0.5,2.4c-0.1,0.5,0.5,1.2,0.6,1.3
				c0.1,0,0.1,0.9-0.2,0.9c-0.3,0-0.6,1.3-0.5,1.6c0.2,0.3-0.2,0.9-0.4,1c-0.2,0.1,1.3,0.1,1.9,0c0.7,0,1.2,0.3,1.1,0.3
				c-0.1,0.1-1.3,0.2-1.5,0.5c-0.2,0.3-1,0.8-1.2,1c-0.2,0.2,0.3,0.7,0.6,0.7c0.3,0,0.7,1.2,1,1.4c0.3,0.2,0.2,0.9,0.1,1
				c-0.1,0.2-1.7-0.1-2.4,0c-0.6,0.2-1.4,1.5-1.4,1.9c-0.1,0.5,0.1,1.9,0.2,2.3c0.1,0.4,1.4,0.6,1.6,0.8c0.3,0.2,1.5,0,1.8,0.1
				c0.2,0.1,1.1-1.2,1.3-1.9c0.2-0.6,1.5-1.8,1.7-2.2c0.3-0.4,1.7-0.4,2-0.6c0.4-0.2,0.2,1.1,0.3,1.8c0.2,0.7,1.5,0.6,1.3,0
				c-0.2-0.7,0.1-1,0.2-0.7c0.1,0.2,1.4,0.8,1.6,1.1c0.2,0.4,0.2,1.2-0.1,1.2c-0.3,0-0.3,0.9,0,1c0.3,0.1,0.7-1,1-1.2
				c0.3-0.2,0.6-0.8,0.4-0.9c-0.1-0.1,0.3-0.7,0.5-0.5c0.2,0.2-0.7-1.3-1.3-1.9c-0.6-0.6-0.2-0.3,0.9,0.6c0,0,0,0,0.7,1
				c0.1,0.2,0.3,0.7,0.4,0.9c0.2,0.3,0.2,0.3,0.2,0.3c0.1,0.4,0.3,1.3,0.3,1.6c0,0.3,0.6,0.8,0.9,0.7c0.3,0,0.6,0.2,0.5,0.2
				c-0.1,0,0.2,0.7,0.6,0.7c0.3,0,0.5-0.9,0.1-0.9c-0.3,0-0.3-1.3-0.3-1.8c0-0.6,0.2-1,0.4-1c0.1,0,0,1.1,0,1.4
				c0,0.3,0.1,0.8,0.3,1.1c0,0,0,0,0.4,0.3c0.8,0.6,0.8,0.6,0.8,0.6c1.1-0.3,2.6-0.1,2.6,0.2c-0.1,0.2,0.8,0.3,0.9-0.1
				c0-0.4,0.1,0,0.1,0.3c0,0.3-0.7,1.3-0.9,1.7c-0.1,0.5-2.7,0.1-3.8,0.1c-1.1-0.1-2.8,0.3-2.9,0.6c-0.1,0.3-1.1-0.3-2-0.8v0
				c-0.3-0.1-0.5-0.3-0.7-0.3c-0.8-0.3-1.4-1.6-1.6-1.7c-0.2-0.2,0.1-0.6,0.1-0.8c-0.1-0.2-1.9-0.3-2.4-0.1
				c-0.5,0.2-3.3,0.5-3.9,0.8c-0.6,0.3-1.6,0-1.9-0.1c-0.3-0.1-1,0.8-1.4,1c-0.4,0.2-0.8,1.4-1,2.8c0,0,0,0-0.5,1
				c-0.3,0.6-0.3,0.6-0.3,0.6c-0.9,0.7-1.9,3-2.2,3.4c-0.3,0.5-0.5,3.8-0.5,4.9c0,1.1,1,3.5,1.2,4.1c0.3,0.6,2,2.1,2.5,2.4
				c0.6,0.3,2.4,0.4,3,0.4c0.6,0,1.3-0.6,1.5-1.3c0,0,0,0,0.9,0.1c0.4,0,0.4,0,0.4,0c0,0.5,1.3,0.9,1.6,1.1c0.3,0.2,1.2,0,1.4,0
				c0.3-0.1,0.5,2.2,0.4,2.9c-0.2,0.7,0.5,3,0.6,3.7c0.2,0.7,1,2.6,1.1,3.3c0.1,0.7-0.5,3-0.6,3.8c-0.1,0.8,1,3,1.3,3.8
				c0.3,0.8,0.5,2.4,0.5,2.8c0,0,0,0,0,0c0,0.2,0.3,0.8,0.6,1.5c0.3,0.8,0.7,1.6,0.9,2.1c0.3,1,3.2,1.2,4,0.7
				c0.8-0.5,2.1-2.5,2.6-2.9c0.4-0.4,0.8-1.9,0.9-2.3c0.1-0.3,0.8-0.9,1-0.9c0.3-0.1,1.1-3.4,1.8-4.2c0.7-0.7,1.5-4.3,1.5-5.6
				c-0.1-1.3,0.5-3.7,0.6-4.3c0.2-0.6,1.1-1.6,1.3-1.8c0.3-0.2,2-2.7,2.5-3.7c0.5-0.9,1.1-2.9,1-3.4c-0.1-0.5-1.3-0.8-1.5-0.6
				c-0.2,0.2-1.3,0.4-1.7,0.4c-0.4,0-1.2-1.9-1.7-2.3c-0.5-0.4-1-2.6-1.3-3c-0.3-0.4-1.1-1.5-1.4-1.7c-0.3-0.2-0.3-1.4-0.4-1.7
				c-0.1-0.3,0.5,0.2,0.6,0.7c0.1,0.5,1.4,2.3,1.8,3c0.4,0.6,1.5,2.6,1.8,3.3c0.3,0.6,2.7,0.3,3.4-0.1c0.8-0.4,1.7-1,1.8-1.2
				c0-0.2,1.3-0.8,1.6-1.1c0.3-0.3,0.6-1.7,0.9-1.9c0.2-0.2-0.2-1.6-0.4-2c-0.3-0.4-1.5-0.7-1.7-0.6c-0.3,0.2-0.8-0.9-1-1.3
				c-0.2-0.4-1.1-0.9-1.2-1.2c-0.1-0.3,0.3-0.7,0.4-0.8c0.2-0.1,1.9,1.1,2.4,1.7c0.5,0.6,1.1,1.7,1.2,1.9c0.1,0.2,1.5,0.3,1.8,0.1
				c0.3-0.2,0.7-0.2,0.8,0.1c0,0,0,0,0.4-0.1c1.5-0.2,1.5-0.2,1.5-0.2c0.7,0.8,0.9,1.4,0.9,1.6c0,0.2,0.4,0.8,0.7,0.8
				c0.3,0.1,0.5,1.1,0.6,1.3c0.1,0.2,1,1.7,1.1,2.4c0.2,0.6,0.9,1.8,1.1,2.2c0.2,0.3,0.3,1.3,0.3,1.5c0,0.3,0.5,0.8,0.9,0.7
				c0.3,0,1-2.2,1.2-3c0.2-0.8,0.7-1.5,0.9-1.5c0.2,0,0.3-0.5,0.3-0.6c0-0.2,0.9-0.2,1-0.4c0.1-0.2,0.3-1.7,0.6-1.9
				c0.3-0.2,1.4-0.9,1.8-1.1c0.4-0.1,1.4,0.7,1.6,1.1c0.2,0.4,0.4,1.4,0.3,1.6c-0.1,0.2,0.5,1,1.1,1c0.5,0,0.7,0.7,0.7,0.9
				c0,0.2,0.7,1,0.9,1.3c0.1,0.3,0.1,1.2,0,1.4c-0.1,0.2,0,1.3,0.1,1.7c0.1,0.3,1.7,2,2.3,2.5c0.6,0.5,0.9-1,0.6-1.5
				c-0.3-0.5-1.4-1.6-1.6-1.9c-0.3-0.3-0.3-1.7-0.2-2c0.1-0.4,0.9,0.2,1.3,0.5c0.3,0.3,0.8,0.9,0.8,1.1c0,0.2,2.2-1,2.3-2.4
				c0.1-1.3,0.8-2.8,0.9-3.2c0.1-0.4-0.2-0.8-0.4-0.8c-0.2,0,0.3-1,0.9-1c0.6,0,2.1-1.6,2.4-2.3c0.3-0.7,1.1-1.2,1.1-1.3
				c0.1-0.1,0.6-1.6,0.7-2.3c0.1-0.6-0.4-1.6-0.4-2c-0.1-0.3-0.6-1.1-0.7-1.3c-0.1-0.2-0.3-1.1-0.2-1.3c0.1-0.2,0.6-0.3,0.7-0.5
				c0.1-0.2,0.7-0.8,0.6-1.1c0-0.3,0.4,0.4,0.7,0.6c0.3,0.2,0.6,1.8,1,2c0.4,0.2,1.8-1.7,1.6-2.9c-0.2-1.2,0.4-2.7,0.8-2.9
				c0.3-0.1,0.9-1.1,1.4-1.8C235,51.2,229.7,42.9,222.9,36.2z"/>
			<path fill="#74BEC5" d="M147.6,124.2c0.3,0,0.6,0,0.9,0C148.6,123.3,147.6,123.4,147.6,124.2z"/>
			<path fill="#74BEC5" d="M164.8,39.2c0.4,0.2,1.3-0.4,0.9-0.7c-0.3-0.2-0.2-0.2,0-0.1c0.2,0.1,0.3-0.8,0.1-0.9
				c-0.2-0.2,1.3-1.2,1-2.2c-0.3-1,0.4-2,0.8-2c0.4,0,0.3-1.1-0.2-1.2c-0.5-0.1,0-0.2,0.1-0.4c0.2-0.2,0.4-1.2,0.3-1.3
				c-0.1-0.2,0.7-0.4,0.8-0.6c0.1-0.2,1.1-0.7,1.4-0.7c0.3-0.1,0.5-0.9,0.2-0.9c-0.4,0-1.3-0.1-1.4-0.3c-0.2-0.2-1.5-0.3-1.9-0.2
				c-0.4,0.2-0.1-1,0.4-1.1c0.6-0.1,0.1-0.9-0.5-0.9c-0.6,0-2.1-0.2-2.4-0.1c-0.3,0.1-1-0.2-1.3-0.3c-0.2,0-2,0.5-2.8,0.5
				c-0.8,0-2.9,0-3.3,0.2c-0.4,0.1-0.8,1-0.7,1.3c0.1,0.3-2,0.3-2.6,0.3c-0.6,0-4.1,0.7-5,1.2c-0.9,0.5-1.6,1.8-1.3,1.8
				c0.3,0-0.5,0.7-1,0.9c-0.5,0.2-1.6,0.2-1.9,0.5c-0.3,0.3,0.3,0.5,0.4,0.6c0.1,0.2,0.4-0.2,0.7,0c0.3,0.2,1.3,0.3,1.6,0.4
				c0.3,0.1-0.8,0.3-1.4,0.4c-0.5,0-0.4,1.1,0,1.2c0.4,0.1,1.5,0.3,1.6,0.1c0.1-0.2,1.3,0.2,1.8,0.3c0.5,0.1,0.9,1.4,1.1,1.7
				c0.2,0.3,0.2,1.3,0.2,1.6c0,0.3,1,0.8,1.1,0.6c0.2-0.2,0.1,0.5-0.3,0.4c-0.4,0-0.1,1.1,0.4,1.3c0.5,0.2,0.2,0.9-0.1,1.1
				c-0.3,0.2-0.1,0.9-0.4,1.1c-0.3,0.2,1,2.5,1,3.7c0,1.2,0.7,2.1,1,2.1c0.3,0,1.2,0.2,1.4,0.5c0.1,0.2,0.6-0.2,0.8-0.4
				c0.2-0.2,0.6-0.8,0.9-1.2c0.3-0.5,1-2.8,1-3.1c0.1-0.3,1.2-0.1,1.4-0.2c0.2-0.1,1-0.7,1.2-0.9c0.2-0.2,1.8-0.8,2.2-1.1
				c0.4-0.3,1.1-1.6,1.5-1.9c0.3-0.3-0.2-0.2-0.6-0.5c-0.4-0.3-0.2-0.6-0.1-0.7C163.1,38.7,164.4,39,164.8,39.2z"/>
			<path fill="#74BEC5" d="M178.5,28.8c-0.4-0.2-1.3,0.3-1.2,0.6c0.1,0.3-0.7-0.4-1.3-0.1c-0.6,0.3-0.8,1.3-0.5,1.5
				c0.3,0.1,0.5,1,0.5,1.1c0,0.2,1.2,0,1.4-0.2c0.3-0.2,0.2,0.8,0,1.1c-0.3,0.3,0.1,0.9,0.4,0.9c0.3,0,0.7,0.8,1.1,0.8
				c0.2,0,0.4-0.3,0.6-0.7v-3.8l0,0C179.2,30.1,178.9,29,178.5,28.8z"/>
			<path fill="#74BEC5" d="M167.7,54.8c0.3-0.1,0.6-0.3,0.6-0.6c0-0.3-0.5-1.6-0.7-1.6c-0.2,0-0.6,0.9-0.8,0.9
				c-0.2-0.1-0.4,0.8-0.3,1.1C166.6,54.9,167.4,54.8,167.7,54.8z"/>
			<path fill="#74BEC5" d="M166.5,45.2c0.1,0.3,0.6,0.6,1,0.5c0.4-0.1,1.2-0.5,1.5-0.5c0.3,0,0.6-1.5,0.4-1.8
				c-0.2-0.3-1.6-0.3-1.9-0.3c-0.3,0-1.4-0.4-1.6-0.6c-0.2-0.2-0.3,0.8-0.7,1c-0.3,0.1,0.2,0.3,0.3,0.2c0.1-0.1,0,0.5-0.2,0.8
				C165.3,44.7,166.4,44.8,166.5,45.2z"/>
			<path fill="#74BEC5" d="M135.8,45.2c-0.2,0.2,0,1.2,0.4,1.2c0.4,0,1.1-1.5,1.6-1.2c0.5,0.3,0.8,0.4,0.8,0.3
				c-0.1-0.2-1.5-0.8-1.7-0.9C136.7,44.5,136,45,135.8,45.2z"/>
			<path fill="#74BEC5" d="M141.1,79.3c0,0.2,0.9,0.1,1-0.1c0.1-0.3,0.1-0.5-0.2-0.5C141.7,78.7,141.1,79.2,141.1,79.3z"/>
			<path fill="#74BEC5" d="M137.1,77.9c0.4-0.1,0.2,0.6,0.3,0.9c0.1,0.3,1.1,0.5,1.3,0.6c0.2,0.2,0.7-0.3,1.1-0.3
				c0.4,0.1-0.1-1.4-0.8-1.4c-0.7,0-1.2-0.6-1.4-0.7c-0.2-0.1-1-0.6-1.2-0.7c-0.2-0.2-2-0.3-2.6-0.3c-0.6,0-1.3,0.6-1.3,0.8
				c-0.1,0.2,0.9,0.3,1.2,0.2c0.3-0.2,1.7,0.2,2,0.5C136.1,77.7,136.7,77.9,137.1,77.9z"/>
			<path fill="#74BEC5" d="M135.2,79.3c0,0.2,0.9,0.1,1.1,0.1c0.2,0,0.2-0.1,0-0.3C136.1,78.9,135.2,79.2,135.2,79.3z"/>
			<path fill="#74BEC5" d="M135.9,74.7c-0.2-0.1-0.4,0.3-0.4,0.5c0,0.2,0.1,0.3,0.3,0.3C135.9,75.4,136.1,74.8,135.9,74.7z"/>
			<path fill="#74BEC5" d="M137.8,74.8c-0.1-0.2-0.5-0.3-0.6-0.3c-0.1,0-0.2,0.3-0.2,0.7C137,75.5,137.8,75,137.8,74.8z"/>
			<path fill="#74BEC5" d="M139.1,76.9c0.4-0.2,0.4-0.6,0.2-0.6c-0.2,0-0.6-0.6-0.9-0.7c-0.2-0.1-0.4,0.4-0.4,0.6
				c0,0.2,0.1,0.4,0.3,0.3C138.5,76.5,138.8,77.1,139.1,76.9z"/>
		</g>
		<path fill="#74BEC5" d="M141.4,33.8c-0.1-0.1-0.3,0.1-0.2,0.2C141.2,34.1,141.5,33.9,141.4,33.8z"/>
		<path fill="#74BEC5" d="M148.3,54.3c-0.1-0.1-0.3,0.1-0.2,0.2C148.1,54.6,148.4,54.4,148.3,54.3z"/>
	</g>
	<path opacity="0.3" fill="#FFFFFF" d="M254,157.8h70.4c1.6,0,2.9-1.3,2.9-2.9V9.2V7.4c0-1.6-1.3-2.9-2.9-2.9H197.1L254,157.8z"/>
</g>
<g>
	<g>
		<g>
			<path fill="#956C4F" d="M101.1,158.1c3.4-0.1,6.8-0.4,10.1-1.2c4.6-1.2,9.7-2.9,13-6.5c-5.1,3.5-12.2,4.1-18,4.6
				c-3.8,0.3-9.3,1-13.8-0.1c0,0.2,0,0.3,0,0.4c0,0.8,0.1,1.6,0.2,2.4c1.2,0.2,2.4,0.2,3.4,0.2C97.6,158.1,99.4,158.2,101.1,158.1z"
				/>
		</g>
		<g>
			<path fill="#956C4F" d="M106.2,152.7c5.6-0.5,13.3-1.1,17.9-5.1c-2.8-5.4-8.4-9.1-14.9-9.1c-8.4,0-15.3,6.1-16.6,14.1
				C96.9,153.8,102.7,153,106.2,152.7z"/>
		</g>
		<g>
			<path fill="#956C4F" d="M111.9,160.9c3.6-1.7,8.1-3.7,11.4-6.7c-3.6,2.6-8,4.1-12.2,5c-4.3,1-8.7,1.3-13.1,1.1
				c-1.5-0.1-3.3-0.1-4.9-0.3c0.4,1.5,1,2.8,1.8,4.1C100.7,164.5,106.8,163.3,111.9,160.9z"/>
		</g>
		<g>
			<path fill="#956C4F" d="M124.7,155.9c-3.4,3-7.9,5.2-11.7,7c-4.9,2.3-10.7,3.6-16.4,3.6c0.6,0.7,1.3,1.4,2.1,2
				c3.9-0.4,9.2-1.6,10.1-1.9C115,164.9,120.8,161.1,124.7,155.9z"/>
		</g>
		<g>
			<path fill="#956C4F" d="M107.4,169.2c-0.9,0.2-3.1,0.8-5.5,1.2c2.2,1,4.6,1.6,7.2,1.6c8.3,0,15.1-6,16.5-13.8
				C121.1,163.8,114.5,167.6,107.4,169.2z"/>
		</g>
		<g>
			<path fill="#D8A474" d="M124.1,147.6c-4.6,4-12.3,4.6-17.9,5.1c-3.5,0.3-9.3,1.1-13.6,0c-0.1,0.7-0.2,1.5-0.2,2.2
				c4.5,1.1,10,0.4,13.8,0.1c5.8-0.5,13-1.2,18-4.6c-3.3,3.6-8.4,5.4-13,6.5c-3.3,0.8-6.7,1.2-10.1,1.2c-1.7,0-3.4-0.1-5.1-0.2
				c-1-0.1-2.2-0.1-3.4-0.2c0.1,0.8,0.3,1.6,0.5,2.4c1.7,0.2,3.4,0.2,4.9,0.3c4.4,0.3,8.8-0.1,13.1-1.1c4.2-0.9,8.6-2.5,12.2-5
				c-3.3,2.9-7.8,5-11.4,6.7c-5.1,2.4-11.2,3.6-17,3.2c0.5,0.8,1.1,1.6,1.7,2.3c5.7,0,11.5-1.3,16.4-3.6c3.8-1.8,8.3-3.9,11.7-7
				c-3.9,5.2-9.7,9-15.9,10.7c-0.9,0.2-6.2,1.4-10.1,1.9c1,0.8,2.1,1.5,3.2,2c2.4-0.4,4.6-1,5.5-1.2c7-1.6,13.7-5.4,18.2-11
				c0.2-1,0.3-2,0.3-3C126,152.6,125.3,149.9,124.1,147.6z"/>
		</g>
	</g>
	<g>
		<path fill="#333333" d="M91,306.9c0.4-7.2-1.6-36.4-1.7-37.6l-4.4,0.3c0,0.3,2.1,30.2,1.6,37.1L91,306.9z"/>
	</g>
	<g>
		<path fill="#333333" d="M56.7,307.1c0.6-7.2-0.5-36.4-0.6-37.7l-4.4,0.2c0,0.3,1.2,30.2,0.6,37.1L56.7,307.1z"/>
	</g>
	<g>
		<path fill="#333333" d="M24.4,243.7c22.1-32.4,17.2-57.2,17-58.2l-4.8,1L39,186l-2.4,0.5c0,0.2,4.6,23.9-16.2,54.4L24.4,243.7z"/>
	</g>
	<g>
		<path fill="#BB5147" d="M34.7,271.2c0,2.5,1.8,4.2,4.3,4.2l65.3-0.2c2.6,0,6.2-1.7,6.2-4.2l-0.4-143.1c0-2.5-3.6-4.4-6.2-4.4
			l-65.3,0.2c-2.6,0-4.3,1.9-4.3,4.4L34.7,271.2z"/>
	</g>
	<g>
		<path fill="#F0826B" d="M34.1,270.5c0,2.5,1.3,4.9,3.9,4.9l57-0.1c2.6,0,6.2-2.5,6.2-4.9l-0.4-144.1c0-2.5-3.6-2.7-6.2-2.7
			l-57,0.1c-2.6,0-3.9,0.3-3.9,2.7L34.1,270.5z"/>
	</g>
	<g>
		<path fill="#607132" d="M41.9,177.7c0,2.1,2,4.2,4.6,4.2l40.4-0.1c2.6,0,5.3-2.1,5.3-4.3l-0.1-42c0-2.1-2.7-3.3-5.3-3.3l-40.4,0.1
			c-2.6,0-4.6,1.2-4.6,3.3L41.9,177.7z"/>
	</g>
	<g>
		<path fill="#BB5147" d="M41.9,177.7c0,2.1,2,4.2,4.6,4.2l40.4-0.1c2.6,0,5.3-2.1,5.3-4.3l-0.1-42c0-2.1-2.7-3.3-5.3-3.3l-40.4,0.1
			c-2.6,0-4.6,1.2-4.6,3.3L41.9,177.7z"/>
	</g>
	<g>
		<path fill="#FFF0E7" d="M44.1,177.7c0,2.1,2,4.2,4.6,4.2l40.4-0.1c2.6,0,5.3-2.1,5.3-4.3l-0.1-42c0-2.1-2.7-3.3-5.3-3.3l-40.4,0.1
			c-2.6,0-4.6,1.2-4.6,3.3L44.1,177.7z"/>
	</g>
	<g>
		<path fill="#432C31" d="M72,153.1c0,3.7,1,6.7,2.2,6.7c1.2,0,2.2-3,2.2-6.7c0-3.7-1-6.7-2.2-6.7C73,146.4,72,149.4,72,153.1z"/>
	</g>
	<g>
		<path fill="#432C31" d="M55.6,153.2c0,3.7,1,6.7,2.2,6.7c1.2,0,2.2-3,2.2-6.7c0-3.7-1-6.7-2.2-6.7
			C56.6,146.5,55.6,149.5,55.6,153.2z"/>
	</g>
	<g>
		<g opacity="0.2">
			<path fill="#CE756D" d="M91.4,190.8c1.2,1.9,0.8,4.7-0.9,6.4l-8.2,8c-1.7,1.7-4.1,1.5-5.3-0.4l0,0c-1.2-1.9-0.8-4.7,0.9-6.4
				l8.2-8C87.9,188.8,90.2,189,91.4,190.8L91.4,190.8z"/>
		</g>
		<g>
			<path fill="#BB5147" d="M83.7,199.4c0.9,1.4,0.6,3.5-0.7,4.7c-1.3,1.2-3,1.1-3.9-0.3c-0.9-1.4-0.6-3.5,0.7-4.7
				C81.1,197.9,82.8,198,83.7,199.4z"/>
		</g>
		<g>
			<path fill="#BB5147" d="M90.5,192.7c0.9,1.4,0.6,3.5-0.7,4.7c-1.3,1.2-3,1.1-3.9-0.3c-0.9-1.4-0.6-3.5,0.7-4.7
				C87.9,191.2,89.6,191.3,90.5,192.7z"/>
		</g>
		<g>
			<path fill="#99D5C5" d="M82.7,199.1c0.9,1.4,0.6,3.5-0.7,4.7c-1.3,1.2-3,1.1-3.9-0.3c-0.9-1.4-0.6-3.5,0.7-4.7
				C80,197.6,81.8,197.7,82.7,199.1z"/>
		</g>
		<g>
			<path fill="#99D5C5" d="M89.5,192.4c0.9,1.4,0.6,3.5-0.7,4.7c-1.3,1.2-3,1.1-3.9-0.3c-0.9-1.4-0.6-3.5,0.7-4.7
				C86.9,190.9,88.6,191,89.5,192.4z"/>
		</g>
	</g>
	<g>
		
			<rect x="101.3" y="228.4" transform="matrix(-2.602976e-03 -1 1 -2.602976e-03 -118.2123 338.8684)" fill="#8CB9AD" width="17.3" height="0"/>
	</g>
	<g>
		<path fill="#333333" d="M94.7,233.8c4.5-14,19.1-14.7,18.9-27.4c-0.3-15.8-5.3-24.8-5.6-25.3l-4.3,2.4l2.2-1.2l-2.2,1.2
			c0.1,0.1,4.4,8.4,4.9,23c0.4,9-14.3,12.5-18.6,25.9L94.7,233.8z"/>
	</g>
	<g>
		<g>
			<path fill="#BB5147" d="M45.1,195.4l2.9,0l0-3.4c0-0.7,0.5-1.3,1.1-1.3l3.1,0c0.6,0,1.1,0.6,1.1,1.3l0,3.4l2.9,0
				c0.6,0,1.1,0.6,1.1,1.2l0,3.6c0,0.7-0.5,1.3-1.1,1.3l-2.9,0l0,3.4c0,0.7-0.5,1.3-1.1,1.3l-3.1,0c-0.6,0-1.1-0.6-1.1-1.3l0-3.4
				l-2.9,0c-0.6,0-1.1-0.6-1.1-1.2l0-3.6C44.1,196,44.5,195.4,45.1,195.4z"/>
		</g>
		<g>
			<path fill="#99D5C5" d="M44,195.4l2.9,0l0-3.4c0-0.7,0.5-1.3,1.1-1.3l3.1,0c0.6,0,1.1,0.6,1.1,1.2l0,3.4l2.9,0
				c0.6,0,1.1,0.6,1.1,1.2l0,3.6c0,0.7-0.5,1.3-1.1,1.3l-2.9,0l0,3.4c0,0.7-0.5,1.3-1.1,1.3l-3.1,0c-0.6,0-1.1-0.6-1.1-1.2l0-3.4
				l-2.9,0c-0.6,0-1.1-0.6-1.1-1.3l0-3.6C42.9,196,43.4,195.4,44,195.4z"/>
		</g>
	</g>
	<g>
		<path fill="#432C31" d="M67.1,172.7c-2.8,0-4.9-5.5-4.9-7.5h1.9c0,2,1.7,6,2.9,6c1.2,0,2.9-4,2.9-6H72
			C72,167.2,69.9,172.7,67.1,172.7z"/>
	</g>
	<g>
		<path fill="#818181" d="M71.8,155.3c-2,0-3.6,1.6-3.6,3.6c-0.5-0.2-1.1-0.4-1.8-0.4c-0.7,0-1.4,0.1-1.9,0.4c0-2-1.6-3.6-3.6-3.6
			c-2,0-3.6,1.6-3.6,3.6c0,2,1.6,3.6,3.6,3.6c1.7,0,3.1-1.1,3.5-2.7c0.2-0.4,1.1-0.7,2-0.7c0.9,0,1.7,0.3,2,0.7
			c0.4,1.5,1.8,2.7,3.5,2.7c2,0,3.6-1.6,3.6-3.6C75.4,156.9,73.8,155.3,71.8,155.3z M60.9,161.7c-1.6,0-2.8-1.3-2.8-2.8
			c0-1.6,1.3-2.8,2.8-2.8c1.6,0,2.8,1.3,2.8,2.8c0,0.3,0,0.5-0.1,0.7c0,0.1-0.1,0.2-0.1,0.3C63.1,161,62.1,161.7,60.9,161.7z
			 M71.8,161.7c-1.2,0-2.2-0.7-2.6-1.8c0-0.1-0.1-0.2-0.1-0.3c-0.1-0.2-0.1-0.5-0.1-0.7c0-1.6,1.3-2.8,2.8-2.8
			c1.6,0,2.8,1.3,2.8,2.8C74.6,160.5,73.3,161.7,71.8,161.7z"/>
	</g>
	<g>
		<rect x="65.1" y="182" fill="#BB5147" width="2.1" height="21.9"/>
	</g>
	<g>
		<circle fill="#BB5147" cx="72" cy="186.8" r="1.3"/>
	</g>
	<g>
		<circle fill="#BB5147" cx="72" cy="192.9" r="1.3"/>
	</g>
	<g>
		<circle fill="#BB5147" cx="72" cy="198.9" r="1.3"/>
	</g>
</g>
<g>
	<g>
		<polygon fill="#B03531" points="231.2,206.8 218,206.8 218,212.7 221.4,212.7 224.6,212.7 		"/>
	</g>
	<g>
		<g>
			<path fill="#333333" d="M160.4,242.8c-0.7,0-1.3-0.2-1.8-0.6c-2.6-2-0.7-6.5,1.5-10.5c1.9-3.4,4.1-6.5,4.1-6.7l3.2,2.2
				c-2.9,4.1-5.3,8.6-6,10.9c2.6-2.3,7.4-9.4,11.1-15.9l3.4,1.9c-3,5.3-10.5,17.7-14.9,18.6C160.9,242.8,160.6,242.8,160.4,242.8z"
				/>
		</g>
	</g>
	<g>
		<g>
			<path fill="#F15B4C" d="M173.6,254c-2.5,0-4.6-0.6-6.3-1.9c-5.7-4.3-5.5-14.4-5.3-25c0-0.8,0-1.7,0.1-2.5
				c0.1-5.2,1.7-8.9,4.9-11.2c5.4-3.9,13.1-1.6,13.4-1.5l-1.1,3.7c-0.1,0-6.2-1.8-10,0.9c-2.1,1.5-3.2,4.2-3.3,8.1
				c0,0.8,0,1.7-0.1,2.5c-0.2,9.2-0.4,18.7,3.7,21.8c2,1.5,5.2,1.5,9.6,0.1l1.2,3.7C177.8,253.6,175.5,254,173.6,254z"/>
		</g>
	</g>
	<g>
		<path fill="#333333" d="M205.2,293.8c0.4-7.1-1.5-35.8-1.6-37.1l-4.4,0.3c0,0.3,2,29.7,1.6,36.5L205.2,293.8z"/>
	</g>
	<g>
		<path fill="#333333" d="M189.8,294c0.6-7-0.5-35.9-0.6-37.1l-4.4,0.2c0,0.3,1.2,29.8,0.6,36.5L189.8,294z"/>
	</g>
	<g>
		<path fill="#697736" d="M165.2,260.1c0,1.9,1.3,3.2,3.3,3.2l49.4-0.1c1.9,0,4.7-1.3,4.7-3.2l-0.3-80.8c0-1.9-2.7-3.3-4.7-3.3
			l-49.4,0.1c-2,0-3.3,1.4-3.3,3.3L165.2,260.1z"/>
	</g>
	<g>
		<path fill="#9FBC3D" d="M165.2,259.6c0,1.9,1,3.7,3,3.7l43.1-0.1c2,0,4.7-1.9,4.7-3.7l-0.3-81.5c0-1.9-2.7-2-4.7-2l-43.1,0.1
			c-2,0-3,0.2-3,2.1L165.2,259.6z"/>
	</g>
	<g>
		<path fill="#607132" d="M171.1,216.9c0,1.6,1.5,3.2,3.5,3.2l30.6-0.1c2,0,4-1.6,4-3.2l-0.1-31.8c0-1.6-2-2.5-4-2.5l-30.6,0.1
			c-2,0-3.5,0.9-3.5,2.5L171.1,216.9z"/>
	</g>
	<g>
		<path fill="#738140" d="M171.1,216.9c0,1.6,1.5,3.2,3.5,3.2l30.6-0.1c2,0,4-1.6,4-3.2l-0.1-31.8c0-1.6-2-2.5-4-2.5l-30.6,0.1
			c-2,0-3.5,0.9-3.5,2.5L171.1,216.9z"/>
	</g>
	<g>
		<path fill="#FFF0E7" d="M172.8,216.9c0,1.6,1.5,3.2,3.5,3.2l30.6-0.1c1.9,0,4-1.6,4-3.2l-0.1-31.8c0-1.6-2.1-2.5-4-2.5l-30.6,0.1
			c-2,0-3.5,0.9-3.5,2.5L172.8,216.9z"/>
	</g>
	<g>
		<path fill="#432C31" d="M196.3,202.5c0,2.8,0.9,5,2.1,5c1.1,0,2-2.3,2-5.1c0-2.8-0.9-5-2.1-5C197.2,197.5,196.3,199.7,196.3,202.5
			z"/>
	</g>
	<g>
		<path fill="#432C31" d="M178.1,202.6c0,2.8,0.9,5,2.1,5c1.1,0,2-2.3,2-5.1c0-2.8-0.9-5-2.1-5C179,197.5,178.1,199.8,178.1,202.6z"
			/>
	</g>
	<g opacity="0.2">
		<path fill="#607132" d="M206.1,226.1c1.2,1.9,0.8,4.8-0.9,6.4l-8.3,8.1c-1.7,1.7-4.1,1.5-5.3-0.4l0,0c-1.2-1.9-0.8-4.7,0.9-6.4
			l8.3-8.1C202.5,224.1,204.9,224.2,206.1,226.1L206.1,226.1z"/>
	</g>
	<g>
		<path fill="#607132" d="M198.3,234.7c0.9,1.4,0.6,3.5-0.7,4.7c-1.3,1.2-3,1.1-3.9-0.3c-0.9-1.4-0.6-3.5,0.7-4.7
			C195.7,233.2,197.4,233.3,198.3,234.7z"/>
	</g>
	<g>
		<path fill="#607132" d="M205.2,228c0.9,1.4,0.6,3.5-0.7,4.7c-1.3,1.2-3,1.1-3.9-0.3c-0.9-1.4-0.6-3.5,0.7-4.7
			C202.5,226.5,204.3,226.6,205.2,228z"/>
	</g>
	<g>
		<path fill="#F47E67" d="M197.3,234.4c0.9,1.4,0.6,3.5-0.7,4.7c-1.3,1.2-3,1.1-3.9-0.3c-0.9-1.4-0.6-3.5,0.7-4.7
			C194.6,232.9,196.4,233,197.3,234.4z"/>
	</g>
	<g>
		<path fill="#F47E67" d="M204.1,227.7c0.9,1.4,0.6,3.5-0.7,4.7c-1.3,1.2-3,1.1-3.9-0.3c-0.9-1.4-0.6-3.5,0.7-4.7
			C201.5,226.2,203.3,226.3,204.1,227.7z"/>
	</g>
	<g>
		<g>
			<path fill="#465224" d="M174,231.1l2.8,0l0-3.2c0-0.7,0.4-1.2,1-1.2l2.9,0c0.6,0,1,0.5,1,1.2l0,3.2l2.8,0c0.6,0,1,0.5,1,1.2
				l0,3.4c0,0.7-0.4,1.2-1,1.2l-2.8,0l0,3.2c0,0.7-0.4,1.2-1,1.2l-2.9,0c-0.6,0-1-0.5-1-1.2l0-3.2l-2.8,0c-0.6,0-1-0.5-1-1.2l0-3.4
				C172.9,231.7,173.4,231.1,174,231.1z"/>
		</g>
		<g>
			<path fill="#607132" d="M172.9,231.1l2.8,0l0-3.2c0-0.7,0.4-1.2,1-1.2l2.9,0c0.6,0,1,0.5,1,1.2l0,3.2l2.8,0c0.6,0,1,0.5,1,1.2
				l0,3.4c0,0.7-0.4,1.2-1,1.2l-2.8,0l0,3.2c0,0.6-0.4,1.2-1,1.2l-2.9,0c-0.6,0-1-0.5-1-1.2l0-3.2l-2.8,0c-0.6,0-1-0.5-1-1.2l0-3.4
				C171.9,231.7,172.3,231.1,172.9,231.1z"/>
		</g>
	</g>
	<g>
		<path fill="#432C31" d="M189.1,213.3c-2.1,0-3.7-2.1-3.7-7.1h1.4c0,5,1.3,5.7,2.2,5.7c0.9,0,2.2-0.7,2.2-5.7h1.4
			C192.8,211.2,191.2,213.3,189.1,213.3z"/>
	</g>
	<g>
		<g>
			<path fill="#F15B4C" d="M216.2,254c-2.5,0-4.6-0.6-6.3-1.9c-5.7-4.3-5.5-14.4-5.3-25c0-0.8,0-1.7,0.1-2.5
				c0.1-5.2,1.7-8.9,4.9-11.2c5.4-3.9,13.1-1.6,13.4-1.5l-1.1,3.7c-0.1,0-6.2-1.8-10,0.9c-2.1,1.5-3.2,4.2-3.3,8.1
				c0,0.8,0,1.7-0.1,2.5c-0.2,9.2-0.4,18.7,3.7,21.8c2,1.5,5.2,1.5,9.6,0.1l1.2,3.7C220.5,253.6,218.2,254,216.2,254z"/>
		</g>
	</g>
	<g>
		<g>
			<path fill="#334755" d="M197.3,232.8c0,0.8-0.7,1.5-1.5,1.5h-20.6c-0.8,0-1.5-0.7-1.5-1.5v-16.2c0-0.8,0.7-1.5,1.5-1.5h20.6
				c0.8,0,1.5,0.7,1.5,1.5V232.8z"/>
		</g>
		<g>
			<polygon fill="#FFFFFF" points="172.2,234.3 173.7,232.1 197.3,232.1 198.8,234.3 			"/>
		</g>
		<g opacity="0.2">
			<g>
				<defs>
					<rect id="SVGID_1_" x="179.6" y="220.3" width="11.8" height="11.8"/>
				</defs>
				<clipPath id="SVGID_2_">
					<use xlink:href="#SVGID_1_"  overflow="visible"/>
				</clipPath>
				<g clip-path="url(#SVGID_2_)">
					<path fill="#1A1819" d="M191.4,226.2c0,3.3-2.6,5.9-5.9,5.9c-3.3,0-5.9-2.6-5.9-5.9c0-3.3,2.6-5.9,5.9-5.9
						C188.7,220.3,191.4,222.9,191.4,226.2"/>
				</g>
			</g>
		</g>
		<g>
			<path fill="#67A4CA" d="M185.5,229.5c-2.6,0-4.8-2.1-4.8-4.8c0-2.6,2.2-4.8,4.8-4.8c2.6,0,4.8,2.1,4.8,4.8
				C190.3,227.4,188.1,229.5,185.5,229.5"/>
		</g>
		<g>
			<path fill="#E5E5E5" d="M185.5,221c2,0,3.7,1.7,3.7,3.7c0,2-1.7,3.7-3.7,3.7c-2,0-3.7-1.7-3.7-3.7
				C181.8,222.7,183.5,221,185.5,221 M185.5,218.8c-3.3,0-5.9,2.6-5.9,5.9s2.6,5.9,5.9,5.9c3.3,0,5.9-2.6,5.9-5.9
				S188.7,218.8,185.5,218.8"/>
		</g>
		<g opacity="0.2">
			<g>
				<defs>
					<rect id="SVGID_3_" x="175.2" y="228.4" width="3.7" height="3.7"/>
				</defs>
				<clipPath id="SVGID_4_">
					<use xlink:href="#SVGID_3_"  overflow="visible"/>
				</clipPath>
				<g clip-path="url(#SVGID_4_)">
					<path fill="#1A1819" d="M178.9,230.2c0,1-0.8,1.8-1.8,1.8c-1,0-1.8-0.8-1.8-1.8c0-1,0.8-1.8,1.8-1.8
						C178,228.4,178.9,229.2,178.9,230.2"/>
				</g>
			</g>
		</g>
		<g>
			<path fill="#C77967" d="M178.9,228.8c0,1-0.8,1.8-1.8,1.8c-1,0-1.8-0.8-1.8-1.8c0-1,0.8-1.8,1.8-1.8
				C178,226.9,178.9,227.8,178.9,228.8"/>
		</g>
		<g>
			<rect x="172.2" y="234.3" fill="#D9D9C6" width="26.5" height="1.5"/>
		</g>
		<g opacity="0.2">
			<g>
				<defs>
					<rect id="SVGID_5_" x="172.2" y="237.3" width="26.5" height="5.9"/>
				</defs>
				<clipPath id="SVGID_6_">
					<use xlink:href="#SVGID_5_"  overflow="visible"/>
				</clipPath>
				<g clip-path="url(#SVGID_6_)">
					<path fill="#1A1819" d="M172.2,238.7c0,2.4,2,4.4,4.4,4.4h17.7c2.4,0,4.4-2,4.4-4.4v-1.5h-26.5V238.7z"/>
				</g>
			</g>
		</g>
		<g>
			<path fill="#334755" d="M172.2,237.3c0,2.4,2,4.4,4.4,4.4h17.7c2.4,0,4.4-2,4.4-4.4v-1.5h-26.5V237.3z"/>
		</g>
	</g>
	<g>
		<path fill="#333333" d="M160.7,242.9c-0.1,0-0.2,0-0.3,0c-1-0.1-1.8-0.5-2.3-1.3l3.2-2.3c-0.2-0.2-0.4-0.3-0.5-0.3c0,0,0,0,0,0
			c1.5,0,6.8-4,11.4-8.6l2.7,2.8C172,236.1,164.7,242.9,160.7,242.9z"/>
	</g>
	<g>
		<g>
			<path fill="#333333" d="M205.1,242.7c-4,0-7.7-3.3-11.1-9.7l3.9-2.1c2.7,5,5.3,7.6,7.5,7.4c4.3-0.5,9-10.9,11-18.2l4.3,1.2
				c-0.1,0.2-1.4,5-3.7,10c-3.3,7.2-7.1,11.1-11.1,11.5C205.7,242.7,205.4,242.7,205.1,242.7z"/>
		</g>
	</g>
	<g>
		<path fill="#B03531" d="M240.1,247.9c0,4.9-4,8.9-8.9,8.9l0,0c-4.9,0-8.9-4-8.9-8.9v-29c0-4.9,4-8.9,8.9-8.9l0,0
			c4.9,0,8.9,4,8.9,8.9V247.9z"/>
	</g>
	<g>
		<g>
			<path fill="#F15B4C" d="M223.5,252.7h-3.9v-34.3c0-6.4,5.2-11.6,11.6-11.6c6.4,0,11.6,5.2,11.6,11.6v8h-3.9v-8
				c0-4.2-3.4-7.7-7.7-7.7c-4.2,0-7.7,3.4-7.7,7.7V252.7z"/>
		</g>
	</g>
</g>
<g>
	<g>
		<path fill="#333333" d="M248.9,239.9c-0.7,0-1.3-0.3-1.8-0.7c-2.5-2.2-0.2-6.5,2.3-10.3c2.1-3.3,4.5-6.2,4.6-6.3l3,2.5
			c-3.2,3.9-5.9,8.2-6.8,10.4c2.7-2.1,8.1-8.8,12.3-15l3.2,2.2c-3.4,5-11.8,16.8-16.2,17.4C249.3,240,249.1,240,248.9,239.9z"/>
	</g>
</g>
<g>
	<path fill="#333333" d="M298.3,292.4c0.4-7.1-1.5-35.8-1.6-37l-4.4,0.3c0,0.3,2,29.6,1.6,36.4L298.3,292.4z"/>
</g>
<g>
	<path fill="#333333" d="M269.6,292.6c0.6-7-0.5-35.8-0.6-37l-4.4,0.2c0,0.3,1.2,29.7,0.6,36.5L269.6,292.6z"/>
</g>
<g>
	<path fill="#697736" d="M252.4,257.5c-0.1,1.9,1.1,3.2,3,3.4l49.2,3.6c1.9,0.1,4.7-0.9,4.9-2.8l5.8-80.4c0.1-1.9-2.5-3.5-4.4-3.6
		l-49.2-3.6c-1.9-0.1-3.4,1.2-3.5,3.1L252.4,257.5z"/>
</g>
<g>
	<path fill="#9FBC3D" d="M252.4,257c-0.1,1.9,0.7,3.8,2.7,3.9L298,264c2,0.1,4.8-1.5,4.9-3.4l5.8-81.1c0.1-1.8-2.5-2.2-4.5-2.4
		l-42.9-3.1c-2-0.1-3,0-3.1,1.8L252.4,257z"/>
</g>
<g>
	<path fill="#FFF0E7" d="M263.1,215.1c-0.1,1.6,1.3,3.3,3.2,3.5l30.4,2.2c1.9,0.1,4.1-1.3,4.2-2.9l2.3-31.6c0.1-1.6-1.9-2.6-3.8-2.8
		l-30.4-2.2c-1.9-0.1-3.5,0.6-3.6,2.2L263.1,215.1z"/>
</g>
<g>
	<path fill="#432C31" d="M289.2,204.3c-0.2,2.8,0.6,5.1,1.7,5.2c1.1,0.1,2.2-2.1,2.4-4.9c0.2-2.8-0.6-5.1-1.7-5.2
		C290.5,199.4,289.4,201.5,289.2,204.3z"/>
</g>
<g>
	<path fill="#432C31" d="M271,203c-0.2,2.8,0.6,5.1,1.7,5.2c1.1,0.1,2.2-2.1,2.4-4.9c0.2-2.8-0.6-5.1-1.7-5.2
		C272.3,198,271.2,200.2,271,203z"/>
</g>
<g opacity="0.2">
	<path fill="#607132" d="M295.6,226.7c1.1,2,0.4,4.8-1.4,6.3l-8.9,7.4c-1.8,1.5-4.2,1.2-5.3-0.8l0,0c-1.1-2-0.4-4.8,1.4-6.3l8.9-7.4
		C292.2,224.4,294.6,224.8,295.6,226.7L295.6,226.7z"/>
</g>
<g>
	<path fill="#F47E67" d="M293.5,228.1c0.8,1.4,0.3,3.5-1,4.7c-1.4,1.1-3.1,0.9-3.9-0.6c-0.8-1.4-0.3-3.5,1-4.7
		C291,226.5,292.8,226.7,293.5,228.1z"/>
</g>
<g>
	<g>
		<path fill="#465224" d="M263.2,229.3l2.7,0.2l0.2-3.2c0-0.6,0.5-1.1,1.1-1.1l2.9,0.2c0.6,0,1,0.6,0.9,1.2l-0.2,3.2l2.7,0.2
			c0.6,0,1,0.6,0.9,1.3l-0.2,3.4c0,0.6-0.5,1.1-1.1,1.1l-2.7-0.2l-0.2,3.2c0,0.6-0.5,1.1-1.1,1.1l-2.9-0.2c-0.6,0-1-0.6-0.9-1.2
			l0.2-3.2l-2.7-0.2c-0.6,0-1-0.6-0.9-1.2l0.2-3.4C262.2,229.8,262.7,229.3,263.2,229.3z"/>
	</g>
	<g>
		<path fill="#697736" d="M262.1,229.2l2.7,0.2l0.2-3.2c0-0.6,0.5-1.1,1.1-1.1l2.9,0.2c0.6,0,1,0.6,0.9,1.2l-0.2,3.2l2.7,0.2
			c0.6,0,1,0.6,0.9,1.2l-0.2,3.4c0,0.6-0.5,1.1-1.1,1.1l-2.7-0.2l-0.2,3.2c0,0.6-0.5,1.1-1.1,1.1l-2.9-0.2c-0.6,0-1-0.6-0.9-1.2
			l0.2-3.2l-2.7-0.2c-0.6,0-1-0.6-0.9-1.2l0.2-3.4C261.1,229.7,261.6,229.2,262.1,229.2z"/>
	</g>
</g>
<g>
	<path fill="#333333" d="M249.5,240c-0.2,0-0.4,0-0.5,0c-0.9-0.1-1.7-0.7-2.2-1.4l3.3-2.1c-0.2-0.3-0.4-0.4-0.5-0.4c0,0,0.1,0,0.1,0
		c1.6,0,7-3.5,11.9-7.7l2.5,3C260.9,234,253.5,240,249.5,240z"/>
</g>
<g>
	<g>
		<circle fill="#D35327" cx="283.8" cy="218.7" r="6.3"/>
	</g>
	<g>
		<circle fill="#954C52" cx="278.5" cy="221" r="5.5"/>
	</g>
	<g>
		<path fill="#508781" d="M281.9,221c0-3.2,2.6-5.8,5.8-5.8c3.2,0,5.8,2.6,5.8,5.8c0,3.2-2.6,5.8-5.8,5.8
			C284.5,226.8,281.9,224.2,281.9,221z"/>
	</g>
	<g>
		<path fill="#FFCD37" d="M284.9,245.4c-0.2,0.6-0.8,1.1-1.5,1.1c-0.7,0-1.3-0.4-1.5-1.1l-7.4-20.8h17.9L284.9,245.4z"/>
	</g>
	<g>
		<g>
			<polygon fill="none" points="288.8,234.4 289.2,233.2 288.5,234 			"/>
		</g>
		<g>
			
				<rect x="282.2" y="239.6" transform="matrix(0.7075 -0.7067 0.7067 0.7075 -87.2387 270.6368)" fill="none" width="2.3" height="2.3"/>
		</g>
		<g>
			<polygon fill="none" points="285.6,240.1 287.2,238.5 285.6,236.9 284,238.5 			"/>
		</g>
		<g>
			
				<rect x="280" y="228.4" transform="matrix(0.7071 -0.7071 0.7071 0.7071 -79.9593 266.0061)" fill="none" width="2.3" height="2.3"/>
		</g>
		<g>
			<polygon fill="none" points="285,227.3 281.8,227.3 283.4,228.9 			"/>
		</g>
		<g>
			<polygon fill="none" points="275.4,227.3 275.5,227.8 276,227.3 			"/>
		</g>
		<g>
			
				<rect x="280" y="232.9" transform="matrix(0.7073 -0.7069 0.7069 0.7073 -83.1361 267.2043)" fill="none" width="2.3" height="2.3"/>
		</g>
		<g>
			
				<rect x="286.7" y="230.6" transform="matrix(-0.7067 0.7075 -0.7075 -0.7067 655.2234 191.8807)" fill="none" width="2.3" height="2.3"/>
		</g>
		<g>
			<polygon fill="none" points="286.5,241 286.7,240.2 286.2,240.7 			"/>
		</g>
		<g>
			<polygon fill="none" points="291.2,227.8 291.4,227.3 290.7,227.3 			"/>
		</g>
		<g>
			<polygon fill="none" points="286.2,236.2 287.6,237.7 288.5,235.3 287.8,234.6 			"/>
		</g>
		<g>
			<polygon fill="none" points="288.5,229.5 290,231.1 290.9,228.7 290.1,227.9 			"/>
		</g>
		<g>
			
				<rect x="277.7" y="230.6" transform="matrix(0.7071 -0.7071 0.7071 0.7071 -82.1982 265.0784)" fill="none" width="2.3" height="2.3"/>
		</g>
		<g>
			<polygon fill="none" points="284,243 285.3,244.3 286.1,241.9 285.6,241.4 			"/>
		</g>
		<g>
			
				<rect x="280" y="237.3" transform="matrix(0.7071 -0.7071 0.7071 0.7071 -86.2939 268.6299)" fill="none" width="2.3" height="2.3"/>
		</g>
		<g>
			
				<rect x="282.2" y="235.1" transform="matrix(0.7069 -0.7073 0.7073 0.7069 -84.0438 269.6709)" fill="none" width="2.3" height="2.3"/>
		</g>
		<g>
			
				<rect x="282.2" y="230.6" transform="matrix(0.7069 -0.7073 0.7073 0.7069 -80.8754 268.3579)" fill="none" width="2.3" height="2.3"/>
		</g>
		<g>
			<polygon fill="none" points="278.9,234.6 278.2,235.3 279.1,237.7 280.5,236.2 			"/>
		</g>
		<g>
			<polygon fill="none" points="285.6,235.6 287.2,234 285.6,232.4 284,234 			"/>
		</g>
		<g>
			<polygon fill="none" points="281.1,241.4 280.6,241.9 281.4,244.3 282.7,243 			"/>
		</g>
		<g>
			<polygon fill="none" points="280,240.2 280.2,241 280.5,240.7 			"/>
		</g>
		<g>
			<polygon fill="none" points="277.3,227.3 278.9,228.9 280.5,227.3 			"/>
		</g>
		<g>
			<path fill="none" d="M283.4,243.6l-1.6,1.6l0.1,0.2c0.2,0.6,0.8,1.1,1.5,1.1c0.7,0,1.3-0.4,1.5-1.1l0.1-0.2L283.4,243.6z"/>
		</g>
		<g>
			<polygon fill="none" points="289.4,227.3 286.2,227.3 287.8,228.9 			"/>
		</g>
		<g>
			<polygon fill="none" points="284,229.5 285.6,231.1 287.2,229.5 285.6,227.9 			"/>
		</g>
		<g>
			<polygon fill="none" points="276.6,227.9 275.9,228.7 276.7,231.1 278.2,229.5 			"/>
		</g>
		<g>
			<polygon fill="none" points="277.5,233.2 277.9,234.4 278.2,234 			"/>
		</g>
		<g>
			<path fill="#D1A033" d="M290.7,227.3h-1.3l-1.6,1.6l-1.6-1.6H285l-1.6,1.6l-1.6-1.6h-1.3l-1.6,1.6l-1.6-1.6H276l-0.5,0.5l0.3,0.9
				l0.8-0.8l1.6,1.6l-1.5,1.5l0.1,0.2l0.3,0.7l0.4,1.3l0.8,0.8l-0.4,0.4l0.3,0.9l0.7-0.7l1.6,1.6l-1.4,1.4l0.2,0.6l0.1,0.4l0.6,1.6
				l0.5,0.5l-0.2,0.2l0.3,0.9l0.5-0.5l1.6,1.6l-1.3,1.3l0.3,0.9l1.6-1.6l1.6,1.6l0.3-0.9L284,243l1.6-1.6l0.5,0.5l0.3-0.9l-0.2-0.2
				l0.5-0.5l0.6-1.6l0.1-0.4l0.2-0.6l-1.4-1.4l1.6-1.6l0.7,0.7l0.3-0.9l-0.4-0.4l0.8-0.8l0.4-1.3l0.3-0.7l0.1-0.2l-1.5-1.5l1.6-1.6
				l0.8,0.8l0.3-0.9L290.7,227.3z M285.6,227.9l1.6,1.6l-1.6,1.6l-1.6-1.6L285.6,227.9z M285,231.8l-1.6,1.6l-1.6-1.6l1.6-1.6
				L285,231.8z M281.1,227.9l1.6,1.6l-1.6,1.6l-1.6-1.6L281.1,227.9z M277.3,231.8l1.6-1.6l1.6,1.6l-1.6,1.6L277.3,231.8z
				 M279.5,234l1.6-1.6l1.6,1.6l-1.6,1.6L279.5,234z M283.4,234.6l1.6,1.6l-1.6,1.6l-1.6-1.6L283.4,234.6z M279.5,238.5l1.6-1.6
				l1.6,1.6l-1.6,1.6L279.5,238.5z M283.4,242.3l-1.6-1.6l1.6-1.6l1.6,1.6L283.4,242.3z M287.2,238.5l-1.6,1.6l-1.6-1.6l1.6-1.6
				L287.2,238.5z M285.6,235.6L284,234l1.6-1.6l1.6,1.6L285.6,235.6z M289.4,231.8l-1.6,1.6l-1.6-1.6l1.6-1.6L289.4,231.8z"/>
		</g>
		<g>
			<path fill="#FFCD37" d="M292.1,224.6c-5.9,0-11.8,0-17.7,0c0.3,0.9,0.9,2.7,0.9,2.7l16,0c0,0,0.3-0.9,0.4-1.2
				c0.2-0.5,0.4-1,0.5-1.5C292.3,224.6,292.2,224.6,292.1,224.6z"/>
		</g>
	</g>
	<g>
		<path fill="#954C52" d="M279.4,228.8c0,0.3,0,0.6-0.2,0.8c-0.2,0.2-0.5,0.3-0.7,0.3c-0.4,0-0.8-0.2-1-0.5
			c-0.3-0.3-0.4-0.7-0.3-1.1l0.7-4.7h0.9L279.4,228.8z"/>
	</g>
	<g>
		<path fill="#508781" d="M288.9,227.4c0,0.2,0,0.4-0.2,0.6c-0.1,0.2-0.3,0.2-0.5,0.2c-0.3,0-0.5-0.1-0.7-0.3
			c-0.2-0.2-0.3-0.5-0.2-0.8l0.5-3.4h0.6L288.9,227.4z"/>
	</g>
</g>
<g>
	<g>
		<path fill="#333333" d="M293.4,243.2c-3.9-0.3-7.4-3.8-10.4-10.5l4.1-1.8c2.3,5.2,4.7,8,6.9,7.9c4.4-0.2,9.8-10.2,12.3-17.3
			l4.2,1.5c-0.1,0.2-1.7,4.9-4.4,9.6c-3.9,6.9-7.9,10.5-12,10.6C293.9,243.2,293.7,243.2,293.4,243.2z"/>
	</g>
</g>
<g>
	
		<path fill="none" stroke="#59558E" stroke-width="3.3372" stroke-linecap="round" stroke-linejoin="round" stroke-miterlimit="10" d="
		M337.3,285.9l-22.1-59.9c0-3.3-2.7-6-6-6c-3.3,0-6,2.7-6,6"/>
	<g>
		<path fill="#42375A" d="M352.2,289.1c-0.3,0.1-0.6,0.2-0.9,0.4c-6.3,2.3-13.3-0.9-15.6-7.2l-10.1-27.2c-2.2-5.9,0.6-12.7,6.3-15.3
			c0.3-0.1,0.6-0.2,0.9-0.4c3-1.1,6.3-1,9.3,0.3c3,1.4,5.2,3.8,6.3,6.8l10.1,27.2C360.7,279.8,358,286.5,352.2,289.1z"/>
		<path fill="#59558E" d="M355.4,275c1.7,4.6-0.6,9.7-5.2,11.4l0,0c-4.6,1.7-9.7-0.6-11.4-5.2L328.7,254c-1.7-4.6,0.6-9.7,5.2-11.4
			l0,0c4.6-1.7,9.7,0.6,11.4,5.2L355.4,275z"/>
	</g>
	<circle fill="#42375A" cx="339.9" cy="288" r="5.5"/>
</g>
<g>
	
		<path fill="none" stroke="#881C55" stroke-width="4.5276" stroke-linecap="round" stroke-linejoin="round" stroke-miterlimit="10" d="
		M141.4,299.8l-32-70.9c-0.2-4.7-4.2-8.4-9-8.2c-4.7,0.2-8.4,4.2-8.2,9"/>
	<g>
		<path fill="#AF3D70" d="M162.9,303.4c-0.4,0.2-0.8,0.4-1.2,0.6c-8.9,3.8-19.1-0.4-22.9-9.2l-16.3-38.3c-3.6-8.4,0-18.2,8-22.3
			c0.4-0.2,0.8-0.4,1.2-0.6c4.3-1.8,9-1.9,13.4-0.1c4.3,1.7,7.7,5.1,9.5,9.4l16.3,38.3C174.5,289.4,171,299.2,162.9,303.4z"/>
		<path fill="#C75E8E" d="M166.6,283c2.7,6.4-0.3,13.9-6.7,16.6l0,0c-6.4,2.7-13.9-0.3-16.6-6.7L127,254.6
			c-2.7-6.4,0.3-13.9,6.7-16.6l0,0c6.4-2.7,13.9,0.3,16.6,6.7L166.6,283z"/>
	</g>
	<path fill="#881C55" d="M153.1,302.3c0.2,4.4-3.2,8.1-7.6,8.3c-4.4,0.2-8.1-3.2-8.3-7.6c-0.2-4.4,3.2-8.1,7.6-8.3
		C149.2,294.5,152.9,297.9,153.1,302.3z"/>
</g>
<path fill="#B4B4B4" d="M20.4,206.3l-4.7,0.8c-0.7,0.1-1.2,0.8-1,1.4c0.2,1-0.1,2-0.7,2.8c-1.2,1.7-3.6,2.1-5.3,0.9
	c-0.8-0.6-1.4-1.5-1.5-2.5c-0.1-0.3-0.2-0.6-0.5-0.8c-0.3-0.2-0.6-0.3-0.9-0.2l-4.7,0.8c-0.7,0.1-1.2,0.8-1,1.4l7.4,44
	c0.1,0.3,0.2,0.6,0.5,0.8c0.3,0.2,0.6,0.3,0.9,0.2l4.7-0.8c0.7-0.1,1.2-0.8,1-1.4c-0.2-1,0.1-2,0.7-2.8c1.2-1.7,3.6-2.1,5.3-0.9
	c0.8,0.6,1.4,1.5,1.5,2.5c0.1,0.3,0.2,0.6,0.5,0.8c0.3,0.2,0.6,0.3,0.9,0.2l4.7-0.8c0.3-0.1,0.6-0.2,0.8-0.5
	c0.2-0.3,0.3-0.6,0.2-0.9l-7.4-44c-0.1-0.3-0.2-0.6-0.5-0.8C21.1,206.3,20.7,206.2,20.4,206.3z M6.9,223.3c-0.2,0.3-0.5,0.5-0.8,0.5
	l-1.8,0.3c-0.7,0.1-1.3-0.4-1.4-1c-0.1-0.7,0.4-1.3,1-1.4l1.8-0.3c0.7-0.1,1.3,0.4,1.4,1C7.2,222.7,7.1,223.1,6.9,223.3z
	 M12.4,221.5c0.1,0.3,0,0.7-0.2,0.9c-0.2,0.3-0.5,0.5-0.8,0.5l-1.8,0.3c-0.7,0.1-1.3-0.4-1.4-1c-0.1-0.7,0.4-1.3,1-1.4l1.8-0.3
	C11.7,220.4,12.3,220.8,12.4,221.5z M17.5,221.6c-0.2,0.3-0.5,0.5-0.8,0.5l-1.8,0.3c-0.7,0.1-1.3-0.4-1.4-1c-0.1-0.7,0.4-1.3,1-1.4
	l1.8-0.3c0.7-0.1,1.3,0.4,1.4,1C17.8,221,17.7,221.3,17.5,221.6z M23,219.8c0.1,0.3,0,0.7-0.2,0.9c-0.2,0.3-0.5,0.5-0.8,0.5
	l-1.8,0.3c-0.7,0.1-1.3-0.4-1.4-1c-0.1-0.7,0.4-1.3,1-1.4l1.8-0.3C22.2,218.6,22.9,219.1,23,219.8z"/>
</svg>
