<?xml version="1.0" encoding="utf-8"?>
<!-- Generator: Adobe Illustrator 18.1.1, SVG Export Plug-In . SVG Version: 6.00 Build 0)  -->
<svg version="1.1" id="Layer_1" xmlns="http://www.w3.org/2000/svg" xmlns:xlink="http://www.w3.org/1999/xlink" x="0px" y="0px"
	 viewBox="0 0 197.4 154" enable-background="new 0 0 197.4 154" xml:space="preserve">
<g>
	<linearGradient id="SVGID_1_" gradientUnits="userSpaceOnUse" x1="98.7051" y1="56.542" x2="98.7051" y2="143.0821">
		<stop  offset="2.140550e-02" style="stop-color:#FFFFFF"/>
		<stop  offset="1" style="stop-color:#FFFFFF;stop-opacity:0"/>
	</linearGradient>
	<polygon fill="url(#SVGID_1_)" points="122.3,78.3 99.5,56.5 75.9,78.3 0,154 99.5,154 197.4,154 	"/>
	<path fill="#FFFFFF" d="M114.7,79.5c0,8.8-7.2,16-16,16c-8.8,0-16-7.2-16-16c0-8.8,7.2-16,16-16C107.5,63.5,114.7,70.6,114.7,79.5z
		"/>
	<rect x="97.4" fill="#565758" width="4" height="51"/>
	<polygon fill="#565758" points="99,84 134.5,84 116.7,68.2 99,53.6 81.2,68.8 63.5,84 	"/>
	<rect x="94.4" y="50" fill="#868787" width="10" height="7"/>
</g>
</svg>
