<?xml version="1.0" encoding="utf-8"?>
<!-- Generator: Adobe Illustrator 18.1.1, SVG Export Plug-In . SVG Version: 6.00 Build 0)  -->
<svg version="1.1" id="Layer_1" xmlns="http://www.w3.org/2000/svg" xmlns:xlink="http://www.w3.org/1999/xlink" x="0px" y="0px"
	 viewBox="0 0 611.6 78.4" enable-background="new 0 0 611.6 78.4" xml:space="preserve">
<g>
	<g>
		<path fill="#7DAF43" d="M29.4,50.3c0,0-4.9-16.1-6.3-27.8C21.7,10.7,14.5,3.6,9.1,0c1.4,13.3-1.3,20.9,3.1,26.7
			C16.6,32.5,29.4,50.3,29.4,50.3z"/>
		<path fill="#697736" d="M32,44.1c0,0-2.4,1.4,2.7-10.9C39.8,21,35.1,4.5,35.1,4.5s-9.8,6.4-9.4,16.7c0.4,10.3-0.1,17,0.9,21.6
			C27.5,47.5,32,44.1,32,44.1z"/>
		<path fill="#7DAF43" d="M32.1,48c0,0-3.7-7.7,7.7-9.1c11.4-1.4,16-9.1,17.8-13.9C51,27.5,43.1,26,42,27.3
			C40.9,28.5,27.6,41.3,32.1,48z"/>
		<path fill="#697736" d="M24.3,47.6c0,0,0.9-7.8-6.6-8.2C10.3,38.9,2,30.5,0,25.9c4.6,1.8,12.1,2.7,14.5,3.6
			C15.8,30.1,25.9,40.6,24.3,47.6z"/>
	</g>
	<path fill="#553A3D" d="M11,43.4c6.9,0,13.2,0,16.4,0c0,0,0.9,0,2.4,0c3.3,0,9.8,0,16.7,0c7.1,6-3.3,35-3.3,35H29.8h-2.4H14.4
		C14.4,78.4,3.9,49.4,11,43.4z"/>
	<path fill="#432C31" d="M51.4,48c-0.3,0.9-1.3,1.4-2.2,1.4H8c-0.9,0-1.9-0.5-2.2-1.4l-1.5-4.2c-0.3-0.9,0.2-1.4,1.2-1.4h46.3
		c0.9,0,1.4,0.5,1.1,1.4L51.4,48z"/>
</g>
<g>
	<g>
		<path fill="#7DAF43" d="M583.4,50.3c0,0-4.9-16.1-6.3-27.8c-1.4-11.8-8.7-18.9-14-22.5c1.4,13.3-1.3,20.9,3.1,26.7
			C570.6,32.5,583.4,50.3,583.4,50.3z"/>
		<path fill="#697736" d="M586,44.1c0,0-2.4,1.4,2.7-10.9c5.1-12.3,0.4-28.8,0.4-28.8s-9.8,6.4-9.4,16.7c0.4,10.3-0.1,17,0.9,21.6
			C581.5,47.5,586,44.1,586,44.1z"/>
		<path fill="#7DAF43" d="M586.1,48c0,0-3.7-7.7,7.7-9.1c11.4-1.4,16-9.1,17.8-13.9c-6.6,2.4-14.4,0.9-15.5,2.2
			C594.9,28.5,581.6,41.3,586.1,48z"/>
		<path fill="#697736" d="M578.3,47.6c0,0,0.9-7.8-6.6-8.2c-7.5-0.4-15.7-8.9-17.7-13.4c4.6,1.8,12.1,2.7,14.5,3.6
			C569.8,30.1,579.9,40.6,578.3,47.6z"/>
	</g>
	<path fill="#553A3D" d="M565,43.4c6.9,0,13.2,0,16.4,0c0,0,0.9,0,2.4,0c3.3,0,9.8,0,16.7,0c7.1,6-3.3,35-3.3,35h-13.4h-2.4h-13.1
		C568.4,78.4,557.9,49.4,565,43.4z"/>
	<path fill="#432C31" d="M605.4,48c-0.3,0.9-1.3,1.4-2.2,1.4H562c-0.9,0-1.9-0.5-2.2-1.4l-1.5-4.2c-0.3-0.9,0.2-1.4,1.2-1.4h46.3
		c0.9,0,1.4,0.5,1.1,1.4L605.4,48z"/>
</g>
</svg>
