<?xml version="1.0" encoding="utf-8"?>
<!-- Generator: Adobe Illustrator 18.1.1, SVG Export Plug-In . SVG Version: 6.00 Build 0)  -->
<svg version="1.1" id="Layer_1" xmlns="http://www.w3.org/2000/svg" xmlns:xlink="http://www.w3.org/1999/xlink" x="0px" y="0px"
	 viewBox="0 0 605.2 291.3" enable-background="new 0 0 605.2 291.3" xml:space="preserve">
<g>
	<path opacity="0.2" fill="#010101" d="M5.4,272c0,3.2,3.6,5.7,8.1,5.7l564.4,0.8c4.5,0,8.1-2.6,8.1-5.7L574,19.1
		c0-3.1-3.6-5.7-8.1-5.7L26.5,12.7c-4.5,0-8.1,2.5-8.1,5.7L5.4,272z"/>
	<path fill="#DA4230" d="M0,266c0,3.2,3.6,5.7,8.1,5.7l564.4,0.8c4.5,0,8.1-2.6,8.1-5.7l-12-253.7c0-3.1-3.6-5.7-8.1-5.7L21.1,6.7
		c-4.5,0-8.1,2.5-8.1,5.7L0,266z"/>
	<polygon fill="#C8E5F8" points="12.4,263.2 568.1,263.9 568.2,242 12.5,241.2 	"/>
	<path fill="#FFFFFF" d="M288.2,256.1l0.5-234.5c-0.1-0.2-0.3-0.4-0.3-0.6c0-0.6,0.1-1.2,0.1-1.8c-1.2-10.5-13.7-18.9-29-18.9
		L25.5,0l-13,249.7l246.6,0.3C271.7,250,282.7,248.7,288.2,256.1z"/>
	<path fill="#FFFFFF" d="M288,262.5l0.5-240.9c0.1-0.2,0.3-0.4,0.3-0.6c0-0.6-0.1-1.2-0.1-1.8c1.3-10.5,13.8-18.8,29.1-18.8
		l238.5,0.3l12,249.7l-251-0.3C304.6,250.1,293.6,255.1,288,262.5z"/>
	<path fill="#C8E5F8" d="M288.6,19.2c0.9-7.4,7.3-13.6,16.3-16.7l-0.5,250.4c-7,2.1-12.8,5.9-16.4,10.6l0.5-241.9
		c0.1-0.2,0.3-0.4,0.3-0.6C288.8,20.4,288.7,19.8,288.6,19.2z"/>
</g>
<polygon fill="#163D67" points="307.8,257 337.1,257 337.1,291.3 322.5,284.2 307.8,291.3 "/>
<g>
	<g opacity="0.2">
		<path fill="#010101" d="M599.7,92.9L589.5,90l-4.3-1.2l-34.2,121.9c0,0,0,0,0,0l3.5,6.1l0,0l1.4,8.9l7.8-6.4l0,0l6.1-3.4
			c0,0,0,0,0,0L604,94.1L599.7,92.9z M568.2,215c-1.1-1-1.8-2.3-1.7-3.6C566.3,212.7,567,214,568.2,215z M568.9,215.5
			c-0.2-0.1-0.4-0.2-0.6-0.3C568.5,215.3,568.7,215.4,568.9,215.5z"/>
		<polygon fill="#010101" points="600.9,88.4 590.8,85.6 586.5,84.4 585.2,88.8 589.5,90 599.7,92.8 604,94 605.2,89.6 		"/>
	</g>
	<g>
		<path fill="#07888C" d="M600.3,88.9l-34.2,121.9c-2.2-0.9-3.5-2.8-3.3-4.6L596,87.7L600.3,88.9z"/>
		<path fill="#57C4C4" d="M585.8,84.8l10.2,2.9l-33.2,118.5v0c0,0,0,0,0,0c0,0,0,0,0,0c-0.9,1.9-3.4,2.8-6.1,2.1
			c-2.6-0.7-4.3-2.9-4.1-4.9c0,0,0,0,0,0c0,0,0,0,0-0.1l0,0L585.8,84.8z"/>
		<path fill="#07888C" d="M552.6,203.3c-0.8,1.7-2.9,2.6-5.2,2.2l34.2-121.9l4.3,1.2L552.6,203.3z"/>
		<path fill="#FFFFFF" d="M547.3,205.5c2.3,0.4,4.5-0.6,5.3-2.2l0,0c0,0,0,0,0,0.1c0,0,0,0,0,0c-0.2,2.1,1.5,4.2,4.1,4.9
			c2.6,0.7,5.2-0.2,6.1-2.1c0,0,0,0,0,0c0,0,0,0,0,0v0c-0.2,1.8,1.2,3.7,3.3,4.7l-12,6.7L547.3,205.5z"/>
		<path fill="#0E2942" d="M560,214.2l-8.1,9.5l-1.1-12.1c1.6,0.1,3.1,0.4,4.7,0.9C557.1,212.9,558.6,213.5,560,214.2z"/>
		<g>
			
				<rect x="596.5" y="83.7" transform="matrix(0.9629 0.27 -0.27 0.9629 45.4492 -158.4508)" fill="#D02F27" width="4.4" height="4.6"/>
			
				<rect x="586.2" y="81.7" transform="matrix(0.963 0.2696 -0.2696 0.963 44.5414 -156.3634)" fill="#E84C24" width="10.6" height="4.6"/>
			<polygon fill="#D02F27" points="585.8,84.7 581.5,83.5 582.7,79.1 587,80.3 			"/>
		</g>
	</g>
</g>
</svg>
