<?xml version="1.0" encoding="utf-8"?>
<!-- Generator: Adobe Illustrator 18.1.1, SVG Export Plug-In . SVG Version: 6.00 Build 0)  -->
<svg version="1.0" id="Layer_1" xmlns="http://www.w3.org/2000/svg" xmlns:xlink="http://www.w3.org/1999/xlink" x="0px" y="0px"
	 viewBox="0 0 799.9 659.3" enable-background="new 0 0 799.9 659.3" xml:space="preserve">
<g>
	<g>
		<path fill="#754D25" d="M18,659.3v-55.6l40.4,28l-39.8,27.6h13.3l33.2-23l33.2,23h13.3l-39.8-27.6l43.3-30v57.6h9.4V0h-9.4v41.3
			H18V0H8.6v659.3H18z M114.9,583.4l-43.3-30l43.3-30V583.4z M114.9,508.4l-43.3-30l43.3-30V508.4z M114.9,430.2l-43.3-30l43.3-30
			V430.2z M114.9,352l-43.3-30l43.3-30V352z M114.9,273.8l-43.3-30l43.3-30V273.8z M114.9,195.6l-43.3-30l43.3-30V195.6z
			 M114.9,126.6l-0.2-0.1l0.2-0.1V126.6z M114.9,117.4l-43.3-30l43.3-30V117.4z M18,48.2h96.8h0.2v0.1l-0.2-0.1L65,82.7L18,50.2
			V48.2z M18,59.4l40.4,28l-40.4,28V59.4z M18,124.6L65,92l49.8,34.5L65,161l-47-32.6V124.6z M18,137.6l40.4,28l-40.4,28V137.6z
			 M18,202.8l47-32.6l49.8,34.5l0.2-0.1v0.2l-0.2-0.1L65,239.2l-47-32.6V202.8z M18,215.8l40.4,28l-40.4,28V215.8z M18,281l47-32.6
			l49.8,34.5l0.2-0.1v0.2l-0.2-0.1L65,317.4l-47-32.6V281z M18,294l40.4,28L18,350V294z M18,359.2l47-32.6l49.8,34.5l0.2-0.1v0.2
			l-0.2-0.1L65,395.6L18,363V359.2z M18,372.2l40.4,28l-40.4,28V372.2z M18,437.4l47-32.6l49.8,34.5l0.2-0.1v0.2l-0.2-0.1L65,473.8
			l-47-32.6V437.4z M18,450.4l40.4,28l-40.4,28V450.4z M18,515.6L65,483l47.4,32.9L65,548.8l-47-32.6V515.6z M18,525.5l40.4,28
			l-40.4,28V525.5z M18,590.6L65,558l49.8,34.5l0.2-0.1v0.2l-0.2-0.1L65,627l-47-32.6V590.6z"/>
		<path fill="#754D25" d="M693.6,659.3v-54.8l40.4,28l-38.6,26.8h13.3l32-22.2l32,22.2h13.3l-38.6-26.8l43.3-30v56.8h9.4V0.8h-9.4
			v41.3h-96.9V0.8h-9.4v658.4H693.6z M790.5,584.3l-43.3-30l43.3-30V584.3z M790.5,509.2l-43.3-30l43.3-30V509.2z M790.5,431
			l-43.3-30l43.3-30V431z M790.5,352.8l-43.3-30l43.3-30V352.8z M790.5,274.6l-43.3-30l43.3-30V274.6z M790.5,196.4l-43.3-30
			l43.3-30V196.4z M790.5,127.4l-0.2-0.1l0.2-0.1V127.4z M790.5,118.2l-43.3-30l43.3-30V118.2z M693.6,49.1h96.8h0.2v0.1l-0.2-0.1
			l-49.8,34.5l-47-32.6V49.1z M693.6,60.2l40.4,28l-40.4,28V60.2z M693.6,125.4l47-32.6l49.8,34.5l-49.8,34.5l-47-32.6V125.4z
			 M693.6,138.4l40.4,28l-40.4,28V138.4z M693.6,203.6l47-32.6l49.8,34.5l0.2-0.1v0.2l-0.2-0.1L740.6,240l-47-32.6V203.6z
			 M693.6,216.6l40.4,28l-40.4,28V216.6z M693.6,281.8l47-32.6l49.8,34.5l0.2-0.1v0.2l-0.2-0.1l-49.8,34.5l-47-32.6V281.8z
			 M693.6,294.8l40.4,28l-40.4,28V294.8z M693.6,360l47-32.6l49.8,34.5l0.2-0.1v0.2l-0.2-0.1l-49.8,34.5l-47-32.6V360z M693.6,373
			l40.4,28l-40.4,28V373z M693.6,438.2l47-32.6l49.8,34.5l0.2-0.1v0.2l-0.2-0.1l-49.8,34.5l-47-32.6V438.2z M693.6,451.3l40.4,28
			l-40.4,28V451.3z M693.6,516.4l47-32.6l47.4,32.9l-47.4,32.9l-47-32.6V516.4z M693.6,526.3l40.4,28l-40.4,28V526.3z M693.6,591.5
			l47-32.6l49.8,34.5l0.2-0.1v0.2l-0.2-0.1l-49.8,34.5l-47-32.6V591.5z"/>
	</g>
	<g>
		<path fill="#FFE6B1" d="M685,659.3v-54.8l40.4,28l-38.6,26.8H700l32-22.2l32,22.2h13.3l-38.6-26.8l43.3-30v56.8h9.4V0.8h-9.4v41.3
			H685V0.8h-9.4v658.4H685z M781.9,584.3l-43.3-30l43.3-30V584.3z M781.9,509.2l-43.3-30l43.3-30V509.2z M781.9,431l-43.3-30
			l43.3-30V431z M781.9,352.8l-43.3-30l43.3-30V352.8z M781.9,274.6l-43.3-30l43.3-30V274.6z M781.9,196.4l-43.3-30l43.3-30V196.4z
			 M781.9,127.4l-0.2-0.1l0.2-0.1V127.4z M781.9,118.2l-43.3-30l43.3-30V118.2z M685,49.1h96.8h0.2v0.1l-0.2-0.1L732,83.6L685,51
			V49.1z M685,60.2l40.4,28l-40.4,28V60.2z M685,125.4l47-32.6l49.8,34.5L732,161.8l-47-32.6V125.4z M685,138.4l40.4,28l-40.4,28
			V138.4z M685,203.6l47-32.6l49.8,34.5l0.2-0.1v0.2l-0.2-0.1L732,240l-47-32.6V203.6z M685,216.6l40.4,28l-40.4,28V216.6z
			 M685,281.8l47-32.6l49.8,34.5l0.2-0.1v0.2l-0.2-0.1L732,318.2l-47-32.6V281.8z M685,294.8l40.4,28l-40.4,28V294.8z M685,360
			l47-32.6l49.8,34.5l0.2-0.1v0.2l-0.2-0.1L732,396.4l-47-32.6V360z M685,373l40.4,28L685,429V373z M685,438.2l47-32.6l49.8,34.5
			l0.2-0.1v0.2l-0.2-0.1L732,474.6L685,442V438.2z M685,451.3l40.4,28l-40.4,28V451.3z M685,516.4l47-32.6l47.4,32.9L732,549.6
			l-47-32.6V516.4z M685,526.3l40.4,28l-40.4,28V526.3z M685,591.5l47-32.6l49.8,34.5l0.2-0.1v0.2l-0.2-0.1L732,627.9l-47-32.6
			V591.5z"/>
		<path fill="#FFE6B1" d="M9.4,659.3v-55.6l40.4,28L10,659.3h13.3l33.2-23l33.2,23h13.3L63,631.7l43.3-30v57.6h9.4V0h-9.4v41.3H9.4
			V0H0v659.3H9.4z M106.3,583.4l-43.3-30l43.3-30V583.4z M106.3,508.4l-43.3-30l43.3-30V508.4z M106.3,430.2l-43.3-30l43.3-30V430.2
			z M106.3,352L63,322l43.3-30V352z M106.3,273.8l-43.3-30l43.3-30V273.8z M106.3,195.6l-43.3-30l43.3-30V195.6z M106.3,126.6
			l-0.2-0.1l0.2-0.1V126.6z M106.3,117.4L63,87.4l43.3-30V117.4z M9.4,48.2h96.8h0.2v0.1l-0.2-0.1L56.4,82.7l-47-32.6V48.2z
			 M9.4,59.4l40.4,28l-40.4,28V59.4z M9.4,124.6l47-32.6l49.8,34.5L56.4,161l-47-32.6V124.6z M9.4,137.6l40.4,28l-40.4,28V137.6z
			 M9.4,202.8l47-32.6l49.8,34.5l0.2-0.1v0.2l-0.2-0.1l-49.8,34.5l-47-32.6V202.8z M9.4,215.8l40.4,28l-40.4,28V215.8z M9.4,281
			l47-32.6l49.8,34.5l0.2-0.1v0.2l-0.2-0.1l-49.8,34.5l-47-32.6V281z M9.4,294l40.4,28L9.4,350V294z M9.4,359.2l47-32.6l49.8,34.5
			l0.2-0.1v0.2l-0.2-0.1l-49.8,34.5L9.4,363V359.2z M9.4,372.2l40.4,28l-40.4,28V372.2z M9.4,437.4l47-32.6l49.8,34.5l0.2-0.1v0.2
			l-0.2-0.1l-49.8,34.5l-47-32.6V437.4z M9.4,450.4l40.4,28l-40.4,28V450.4z M9.4,515.6l47-32.6l47.4,32.9l-47.4,32.9l-47-32.6
			V515.6z M9.4,525.5l40.4,28l-40.4,28V525.5z M9.4,590.6l47-32.6l49.8,34.5l0.2-0.1v0.2l-0.2-0.1L56.4,627l-47-32.6V590.6z"/>
	</g>
</g>
</svg>
