<?xml version="1.0" encoding="utf-8"?>
<!-- Generator: Adobe Illustrator 18.1.1, SVG Export Plug-In . SVG Version: 6.00 Build 0)  -->
<svg version="1.0" id="Layer_1" xmlns="http://www.w3.org/2000/svg" xmlns:xlink="http://www.w3.org/1999/xlink" x="0px" y="0px"
	 viewBox="0 0 1002.4 198.5" enable-background="new 0 0 1002.4 198.5" xml:space="preserve">
<g>
	<g>
		<polygon fill="#07888C" points="855.7,134 855.7,122.9 846.9,122.9 846.9,107.2 843.6,107.2 843.6,0 834.5,0 834.5,107.2 
			831.2,107.2 831.2,122.9 822.4,122.9 822.4,134 802.7,148.7 815.6,154.2 826.4,145.1 831.2,145.1 831.2,147.2 846.9,147.2 
			846.9,145.1 851.6,145.1 862.4,154.2 875.3,148.7 855.6,134 		"/>
		<polygon fill="#07888C" points="828.5,198.5 828.5,182.6 815.4,173.8 815.4,154.2 802.7,148.7 802.7,179.5 		"/>
		<polygon fill="#07888C" points="862.6,154.2 862.6,173.8 859.4,176 859.4,185.9 866.6,185.9 875.3,179.5 875.3,148.7 		"/>
	</g>
	<g>
		<polygon fill="#FFFFFF" points="811.8,171.2 811.8,151.8 822.7,142.5 818.8,131.4 799,146.1 799,176.9 824.8,195.8 824.8,180 		
			"/>
		<rect x="830.8" y="0" fill="#252525" width="9.1" height="104.6"/>
		<rect x="827.6" y="104.6" fill="#4E4E4E" width="15.7" height="15.7"/>
		<rect x="818.8" y="120.3" fill="#B6B7B9" width="33.3" height="11.1"/>
		<polygon fill="#FFFFFF" points="818.8,131.4 799,146.1 811.9,151.6 822.7,142.5 		"/>
		<polygon fill="#E7E7E7" points="799,146.1 799,176.9 811.8,171.2 811.8,151.6 		"/>
		<polygon fill="#FFFFFF" points="799,176.9 824.8,195.8 824.8,180 811.8,171.2 		"/>
		<polygon fill="#4E4E4E" points="837,131.4 833.6,131.4 818.8,131.4 822.7,142.5 833.6,142.5 837,142.5 848,142.5 851.9,131.4 		
			"/>
		<polygon fill="#DBDCDC" points="851.9,131.4 871.6,146.1 858.7,151.6 848,142.5 		"/>
		<polygon fill="#B6B7B9" points="871.6,146.1 871.6,176.9 858.9,171.2 858.9,151.6 		"/>
		<circle fill="#CBCBCB" cx="835.3" cy="136.9" r="2.3"/>
		<rect x="827.6" y="142.5" fill="#616161" width="15.7" height="2.1"/>
		<polygon fill="#DBDCDC" points="859.4,185.9 871.6,176.9 858.9,171.2 845.9,180 845.9,185.9 		"/>
	</g>
</g>
<g>
	<g>
		<polygon fill="#07888C" points="187.6,134 187.6,122.9 178.8,122.9 178.8,107.2 175.5,107.2 175.5,0 166.4,0 166.4,107.2 
			163.1,107.2 163.1,122.9 154.3,122.9 154.3,134 134.5,148.7 147.4,154.2 158.2,145.1 163.1,145.1 163.1,147.2 178.8,147.2 
			178.8,145.1 183.5,145.1 194.3,154.2 207.1,148.7 187.4,134 		"/>
		<polygon fill="#07888C" points="160.3,198.5 160.3,182.6 147.3,173.8 147.3,154.2 134.5,148.7 134.5,179.5 		"/>
		<polygon fill="#07888C" points="194.4,154.2 194.4,173.8 191.3,176 191.3,185.9 198.5,185.9 207.1,179.5 207.1,148.7 		"/>
	</g>
	<g>
		<polygon fill="#FFFFFF" points="143.6,171.2 143.6,151.8 154.5,142.5 150.6,131.4 130.9,146.1 130.9,176.9 156.7,195.8 156.7,180 
					"/>
		<rect x="162.7" y="0" fill="#252525" width="9.1" height="104.6"/>
		<rect x="159.4" y="104.6" fill="#4E4E4E" width="15.7" height="15.7"/>
		<rect x="150.6" y="120.3" fill="#B6B7B9" width="33.3" height="11.1"/>
		<polygon fill="#FFFFFF" points="150.6,131.4 130.9,146.1 143.8,151.6 154.5,142.5 		"/>
		<polygon fill="#E7E7E7" points="130.9,146.1 130.9,176.9 143.6,171.2 143.6,151.6 		"/>
		<polygon fill="#FFFFFF" points="130.9,176.9 156.7,195.8 156.7,180 143.6,171.2 		"/>
		<polygon fill="#4E4E4E" points="168.9,131.4 165.5,131.4 150.6,131.4 154.5,142.5 165.5,142.5 168.9,142.5 179.8,142.5 
			183.7,131.4 		"/>
		<polygon fill="#DBDCDC" points="183.7,131.4 203.5,146.1 190.6,151.6 179.8,142.5 		"/>
		<polygon fill="#B6B7B9" points="203.5,146.1 203.5,176.9 190.8,171.2 190.8,151.6 		"/>
		<circle fill="#CBCBCB" cx="167.2" cy="136.9" r="2.3"/>
		<rect x="159.4" y="142.5" fill="#616161" width="15.7" height="2.1"/>
		<polygon fill="#DBDCDC" points="191.3,185.9 203.5,176.9 190.8,171.2 177.7,180 177.7,185.9 		"/>
	</g>
</g>
<g>
	<g>
		<polygon fill="#077679" points="1002.4,48.5 732.5,48.5 732.5,114.6 1002.4,114.6 980.2,81.5 		"/>
		<polygon fill="#077679" points="0,48.5 267.6,48.5 267.6,114.6 0,114.6 20.4,81.5 		"/>
		<rect x="243.9" y="38.3" fill="#07888C" width="513.2" height="66"/>
	</g>
	<polygon fill="#024143" points="758,104.5 733.8,114.7 733.8,104.5 	"/>
	<polygon fill="#024143" points="245.6,104.5 269.8,114.7 269.8,104.5 	"/>
</g>
<text transform="matrix(1 0 0 1 444.8608 88.0049)" fill="#EFF6E7" font-family="'Oswald-Bold'" font-size="36"> VIDEOS</text>
</svg>
