<?xml version="1.0" encoding="utf-8"?>
<!-- Generator: Adobe Illustrator 16.0.0, SVG Export Plug-In . SVG Version: 6.00 Build 0)  -->
<!DOCTYPE svg PUBLIC "-//W3C//DTD SVG 1.0//EN" "http://www.w3.org/TR/2001/REC-SVG-20010904/DTD/svg10.dtd">
<svg version="1.0" id="Layer_1" xmlns="http://www.w3.org/2000/svg" xmlns:xlink="http://www.w3.org/1999/xlink" x="0px" y="0px"
	 width="34.241px" height="34.239px" viewBox="0 0 34.241 34.239" enable-background="new 0 0 34.241 34.239" xml:space="preserve">
<g>
	<path fill="#3861AD" d="M32.006,2.234C29.775,0,27.542,0,23.661,0h-13.08C6.698,0,4.466,0,2.232,2.234C0,4.465,0,6.696,0,10.579
		v13.077c0,3.884,0,6.118,2.232,8.353c2.234,2.23,4.466,2.23,8.349,2.23h13.08c3.882,0,6.114,0,8.346-2.23
		c2.234-2.234,2.234-4.469,2.234-8.353V10.579C34.241,6.696,34.241,4.465,32.006,2.234z"/>
	<path fill="#FFFFFF" d="M18.44,13.978v-1.852c0-0.692,0.461-0.854,0.785-0.854s1.994,0,1.994,0V8.215l-2.745-0.014
		c-3.046,0-3.739,2.278-3.739,3.741v2.035h-1.761v3.148h1.761c0,4.044,0,8.913,0,8.913h3.705c0,0,0-4.921,0-8.913h2.5l0.322-3.148
		H18.44z"/>
</g>
</svg>
