<?xml version="1.0" encoding="utf-8"?>
<!-- Generator: Adobe Illustrator 18.1.1, SVG Export Plug-In . SVG Version: 6.00 Build 0)  -->
<svg version="1.0" id="Layer_1" xmlns="http://www.w3.org/2000/svg" xmlns:xlink="http://www.w3.org/1999/xlink" x="0px" y="0px"
	 viewBox="0 0 130.4 91.4" enable-background="new 0 0 130.4 91.4" xml:space="preserve">
<g>
	<path fill="#F28274" d="M84.9,58c0,0-11.2,32.8-51.7,12.2C-14.6,46,7.4,0,7.4,0S-18,44.5,25.1,75.9c15,10.9,38.1,14.8,48.3,7.8
		C82.6,77.5,86.1,69.3,84.9,58z"/>
	<path fill="#F28274" d="M67.6,59.5c0,0-35.3,6.6-46.6-32.6c0,0-2.1,32.9,43.7,44.4l8.6-1.2C73.3,70.2,76.6,56.6,67.6,59.5z"/>
	<g>
		<polygon fill="#134A88" enable-background="new    " points="85.1,46.2 91.8,31.9 91.6,47.7 103.9,37.7 96.9,51.9 112.2,48.2 
			99.8,57.9 115.2,61.2 99.8,64.6 112.2,74.3 96.9,70.6 103.9,84.8 91.6,74.8 91.8,90.6 85.1,76.3 78.4,90.6 78.5,74.8 66.3,84.8 
			73.3,70.6 57.9,74.3 70.4,64.6 55,61.2 70.4,57.9 57.9,48.2 73.3,51.9 66.3,37.7 78.5,47.7 78.4,31.9 		"/>
		<path fill="#FFFFFF" d="M85.1,44.9c-0.8-1.8-6.2-13.3-6.2-13.3l-1,0.2c0,0,0.1,12.7,0.2,14.6c-1.5-1.3-11.3-9.2-11.3-9.2l-0.8,0.7
			c0,0,5.6,11.3,6.5,13.1c-1.9-0.5-14.2-3.4-14.2-3.4l-0.5,1c0,0,10,7.8,11.5,9c-1.9,0.4-14.3,3.1-14.3,3.1v1.1
			c0,0,12.4,2.7,14.3,3.1c-1.6,1.2-11.5,9-11.5,9l0.5,1c0,0,12.3-2.9,14.2-3.4c-0.9,1.8-6.5,13.1-6.5,13.1l0.8,0.7
			c0,0,9.8-8,11.3-9.2c0,2-0.2,14.6-0.2,14.6l1,0.2c0,0,5.4-11.5,6.2-13.3c0.8,1.8,6.2,13.3,6.2,13.3l1-0.2c0,0-0.1-12.7-0.2-14.6
			c1.5,1.3,11.4,9.2,11.4,9.2l0.8-0.7c0,0-5.6-11.3-6.5-13.1c1.9,0.5,14.2,3.4,14.2,3.4l0.5-1c0,0-10-7.8-11.5-9
			c1.9-0.4,14.3-3.1,14.3-3.1v-1.1c0,0-12.4-2.7-14.3-3.1c1.6-1.2,11.5-9,11.5-9l-0.5-1c0,0-12.3,2.9-14.2,3.4
			c0.9-1.8,6.5-13.1,6.5-13.1l-0.8-0.7c0,0-9.8,8-11.4,9.2c0-2,0.2-14.6,0.2-14.6l-1-0.2C91.3,31.7,85.9,43.1,85.1,44.9z M85.6,46.4
			c0,0,4.1-8.8,5.6-12c0,3.5-0.2,14.5-0.2,14.5s8.5-6.9,11.2-9.1c-1.6,3.2-6.4,13-6.4,13s10.6-2.5,14.1-3.4
			c-2.8,2.2-11.4,8.9-11.4,8.9s10.7,2.3,14.1,3.1c-3.5,0.7-14.1,3.1-14.1,3.1s8.6,6.7,11.4,8.9c-3.4-0.8-14.1-3.4-14.1-3.4
			s4.8,9.8,6.4,13c-2.7-2.2-11.2-9.1-11.2-9.1s0.1,10.9,0.2,14.5C89.7,84.9,85.1,75,85.1,75s-4.6,9.9-6.1,13.1
			c0-3.5,0.2-14.5,0.2-14.5s-8.5,6.9-11.2,9.1c1.6-3.2,6.4-13,6.4-13s-10.6,2.5-14.1,3.4c2.8-2.2,11.4-8.9,11.4-8.9S61,62,57.5,61.2
			c3.5-0.8,14.1-3.1,14.1-3.1s-8.6-6.7-11.4-8.9c3.4,0.8,14.1,3.4,14.1,3.4s-4.8-9.8-6.4-13c2.7,2.2,11.2,9.1,11.2,9.1
			S79,37.9,78.9,34.4c1.5,3.2,6.1,13.1,6.1,13.1L85.6,46.4z"/>
		<polygon fill="#FED95D" points="85.2,51.3 89.6,41.8 89.5,52.3 97.7,45.7 93,55.1 103.2,52.6 94.9,59.1 105.2,61.3 94.9,63.6 
			103.2,70 93,67.6 97.7,77 89.5,70.3 89.6,80.8 85.2,71.3 80.7,80.8 80.8,70.3 72.7,77 77.4,67.6 67.1,70 75.4,63.6 65.2,61.3 
			75.4,59.1 67.1,52.6 77.4,55.1 72.7,45.7 80.8,52.3 80.7,41.8 		"/>
	</g>
	<g>
		<g>
			<path fill="#50353D" d="M16,79.4L16,79.4c-0.1,0-2.6,1.7-3.8,2.6c-1.2-0.8-3.8-2.5-3.8-2.5l-0.1,0c-1-0.5-2-0.4-2.9,0.2
				c-1,0.7-1.2,1.5-1.2,2.1c0,0,0,7.1,0,7.1c0,0.9,0.4,1.5,0.7,1.9c0.3,0.3,0.9,0.8,1.9,0.8c1.5,0,2.6-1.1,2.7-2.6c0,0,0-1.1,0-2.1
				c0.2,0.2,0.7,0.5,0.7,0.5l-0.2-0.1c0.7,0.6,1.4,0.9,2.1,0.9c0.7,0,1.3-0.3,2-0.8L14,87.2c0,0,0.5-0.3,0.8-0.5c0,1,0,2.1,0,2.1
				c0,1.5,1.1,2.6,2.7,2.6c1.6,0,2.7-1.1,2.7-2.6v-7.1v0c0-0.9-0.5-1.7-1.3-2.2C18,78.9,16.9,78.9,16,79.4z"/>
		</g>
		<g>
			<path fill="#50353D" d="M29.7,79.5L29.7,79.5c0,0-2.5,1.7-3.7,2.5c-1.2-0.8-3.8-2.5-3.8-2.5c-1.3-0.8-2.8-0.5-3.7,0.8
				c-0.3,0.5-0.5,1-0.5,1.5c0,0.8,0.4,1.6,1.2,2.2c0,0,2.9,2,4.1,2.7c0,0.9,0,2.1,0,2.1c0,1.6,1.1,2.7,2.7,2.7
				c1.5,0,2.6-1.1,2.7-2.6v0c0,0,0-1.2,0-2.1c1.1-0.7,4-2.7,4-2.7c0.8-0.5,1.2-1.3,1.2-2.2c0-0.5-0.2-1-0.5-1.5
				C32.5,79,31,78.7,29.7,79.5z"/>
		</g>
		<g>
			<path fill="#50353D" d="M37,79.1L37,79.1c-3.3,0-5.3,2-5.3,5.3v1.7c0,3.3,2,5.3,5.3,5.3h7c2.1,0,3.5-1.4,3.6-3.5v-1.8
				c0-1-0.3-1.8-0.8-2.4c0.5-0.5,0.8-1.1,0.8-2c0,0,0,0,0,0c0-1-0.4-1.6-0.7-1.9c-0.3-0.3-0.9-0.7-1.9-0.7L37,79.1z"/>
		</g>
		<g>
			<path fill="#50353D" d="M49.9,79c-1.4,0-2.5,0.8-2.8,2.2l0,0l-1.6,7.3v0.2c0,0.9,0.3,1.5,0.6,1.8c0.5,0.5,1.1,0.8,1.9,0.8
				c1.3,0,2.4-0.9,2.7-2.2l0,0c0,0,0.1-0.6,0.3-1.2c1.5,0,3.3,0,4.8,0c0.2,0.6,0.3,1.3,0.3,1.3c0.4,1.4,1.4,2.2,2.7,2.2
				c1.5,0,2.6-1.1,2.6-2.7v-0.2l-1.7-7.2l0,0.1C59.5,80,58.4,79,57,79H49.9z M56.4,82.6c0.1,0.2,0.2,1,0.4,1.7c-0.7,0-5.9,0-6.7,0
				c0.2-0.8,0.3-1.5,0.4-1.7C51.3,82.6,55.5,82.6,56.4,82.6z"/>
			<polygon fill="#50353D" points="56.5,80.8 48.9,80.8 47.7,86.1 59.3,86.1 57.9,80.8 			"/>
		</g>
		<g>
			<path fill="#50353D" d="M71.1,79.4L71.1,79.4c-0.1,0-2.6,1.7-3.8,2.6c-1.2-0.8-3.8-2.5-3.8-2.5l-0.1,0c-1-0.5-2-0.4-2.9,0.2
				c-1,0.7-1.2,1.5-1.2,2.1c0,0,0,7.1,0,7.1c0,0.9,0.4,1.5,0.7,1.9c0.3,0.3,0.9,0.8,1.9,0.8c1.5,0,2.6-1.1,2.7-2.6c0,0,0-1.1,0-2.1
				c0.2,0.2,0.7,0.5,0.7,0.5l-0.2-0.1c0.7,0.6,1.4,0.9,2.1,0.9c0.7,0,1.3-0.3,2-0.8l-0.1,0.1c0,0,0.5-0.3,0.8-0.5c0,1,0,2.1,0,2.1
				c0,1.5,1.1,2.6,2.7,2.6c1.6,0,2.7-1.1,2.7-2.6v-7.1l0,0c0-0.9-0.5-1.7-1.3-2.2C73.1,78.9,72.1,78.9,71.1,79.4z"/>
		</g>
		<g>
			<path fill="#50353D" d="M75.8,79c-1.6,0-2.7,1.1-2.7,2.7v7.1c0,1.6,1.1,2.7,2.7,2.7h10.6c1.6,0,2.7-1.1,2.7-2.7
				c0-1.3-0.8-2.3-1.9-2.6c0.1-0.3,0.2-0.6,0.2-1c0-0.3-0.1-0.7-0.2-1C88.3,84,89,83,89,81.7c0-1.6-1.1-2.7-2.7-2.7H75.8z"/>
		</g>
		<g>
			<path fill="#50353D" d="M86.9,81.7v7.1c0,1.6,1.1,2.7,2.7,2.7h7.9c1.7,0,3-0.5,3.9-1.4c0.9-0.9,1.4-2.2,1.4-3.9v-1.7
				c0-1.7-0.5-3-1.4-3.9c-0.9-0.9-2.2-1.4-3.9-1.4l-7.9,0C88,79.1,87,80.1,86.9,81.7z M90.5,82.6c1.4,0,7,0,7,0
				c0.7,0,1.1,0.1,1.4,0.4c0.2,0.2,0.4,0.7,0.4,1.4v1.7c0,0.7-0.1,1.2-0.4,1.4c-0.3,0.3-0.9,0.4-1.4,0.4c0,0-5.6,0-7,0
				C90.5,86.7,90.5,83.8,90.5,82.6z"/>
			<path fill="#50353D" d="M97.5,80.8h-8.8l0,8.9h8.8c1.3,0,2.1-0.5,2.6-1c0.4-0.4,1-1.2,1-2.6v-1.7C101,82.2,99.7,80.8,97.5,80.8
				L97.5,80.8L97.5,80.8z M97.5,84.4C97.5,84.4,97.5,84.4,97.5,84.4c0,0,0,1.7,0,1.7c0,0-3.3,0-5.2,0c0-0.8,0-1,0-1.7
				C94.2,84.4,97.4,84.4,97.5,84.4z"/>
		</g>
		<g>
			<path fill="#50353D" d="M103.4,79c-1.6,0-2.7,1.1-2.7,2.7v7.1c0,1.6,1.1,2.7,2.7,2.7h10.6c1.6,0,2.7-1.1,2.7-2.7
				c0-1.3-0.8-2.3-1.9-2.6c0.1-0.3,0.2-0.6,0.2-1c0-0.3-0.1-0.7-0.2-1c1.2-0.3,1.9-1.3,1.9-2.6c0-1.6-1.1-2.7-2.7-2.7H103.4z"/>
		</g>
		<g>
			<path fill="#50353D" d="M127.4,79.1c-0.5,0.1-1.2,0.3-1.8,1.1l0,0c0,0-1.8,2.5-3.1,4.4c-1.4-1.9-3.2-4.6-3.2-4.6l-0.1-0.1
				c-1.1-1.1-2.6-1.1-3.7-0.1c-1,1-1.2,2.2-0.5,3.4l0,0.1l5.3,7.1l0.2,0.1c0.7,0.6,1.4,0.9,2.1,0.8c0.7,0,1.3-0.3,2-0.8l0.2-0.1
				l5.2-7.1l0,0c0.9-1.2,0.7-2.7-0.5-3.6C128.6,79.1,127.9,79,127.4,79.1z"/>
		</g>
		<path fill="#62C4C5" d="M18.3,81.7v7.1c0,0.6-0.3,0.8-0.9,0.8c-0.6,0-0.9-0.3-0.9-0.8l0-5.4L13,85.7c-0.3,0.3-0.6,0.4-0.9,0.4
			c-0.2,0-0.5-0.1-0.9-0.4l-3.5-2.4v5.4c0,0.6-0.3,0.9-0.9,0.9c-0.6,0-0.9-0.3-0.9-0.9v-7c0-0.2,0.1-0.4,0.4-0.7
			c0.3-0.2,0.6-0.2,1-0.1l4.7,3.2l4.7-3.2c0.4-0.2,0.7-0.2,1,0C18.1,81.2,18.3,81.4,18.3,81.7z"/>
		<path fill="#62C4C5" d="M31.6,82.5l-4.8,3.2l0,3c0,0.6-0.3,0.9-0.9,0.9c-0.6,0-0.9-0.3-0.9-0.9l0-3l-4.8-3.2
			c-0.5-0.3-0.6-0.7-0.2-1.2c0.3-0.5,0.7-0.6,1.2-0.3l4.7,3.2l4.7-3.2c0.5-0.3,0.9-0.2,1.2,0.3C32.2,81.8,32.1,82.2,31.6,82.5z"/>
		<path fill="#FFFFFF" d="M37,80.9l7.9,0c0.6,0,0.9,0.3,0.9,0.9c0,0.6-0.3,0.9-0.9,0.9H37c-1.2,0-1.8,0.6-1.8,1.8v1.7
			c0,1.2,0.6,1.8,1.8,1.8h7v-1.8h-4.4c-0.6,0-0.9-0.3-0.9-0.9c0-0.6,0.3-0.9,0.9-0.9H44c1.2,0,1.8,0.6,1.8,1.8v1.8
			c0,1.2-0.6,1.8-1.8,1.8h-7c-2.3,0-3.5-1.2-3.5-3.5v-1.7C33.5,82,34.7,80.9,37,80.9z"/>
		<path fill="#FFFFFF" d="M47.3,88.8l1.5-7c0.2-0.6,0.5-0.9,1.1-0.9h7c0.6,0,0.9,0.3,1,0.9l1.6,7c0,0.6-0.3,0.9-0.8,0.9
			s-0.8-0.3-1-0.9l-0.7-2.6h-7.6l-0.6,2.6c-0.1,0.6-0.5,0.9-1,0.9C47.6,89.7,47.3,89.4,47.3,88.8z M57,84.4l-0.5-1.8h-6.2l-0.4,1.8
			H57z"/>
		<path fill="#FFFFFF" d="M73.4,81.7v7.1c0,0.6-0.3,0.8-0.9,0.8c-0.6,0-0.9-0.3-0.9-0.8l0-5.4l-3.5,2.4c-0.3,0.3-0.6,0.4-0.9,0.4
			c-0.2,0-0.5-0.1-0.9-0.4l-3.5-2.4v5.4c0,0.6-0.3,0.9-0.9,0.9c-0.6,0-0.9-0.3-0.9-0.9v-7c0-0.2,0.1-0.4,0.4-0.7
			c0.3-0.2,0.6-0.2,1-0.1l4.7,3.2l4.7-3.2c0.4-0.2,0.7-0.2,1,0C73.3,81.2,73.4,81.4,73.4,81.7z"/>
		<path fill="#FFFFFF" d="M74.9,88.8v-7c0-0.6,0.3-0.9,0.9-0.9h10.6c0.6,0,0.9,0.3,0.9,0.9c0,0.6-0.3,0.9-0.9,0.9h-9.7v1.8h7.9
			c0.6,0,0.9,0.3,0.9,0.9c0,0.6-0.3,0.9-0.9,0.9h-7.9v1.8h9.7c0.6,0,0.9,0.3,0.9,0.9c0,0.6-0.3,0.9-0.9,0.9H75.8
			C75.2,89.7,74.9,89.4,74.9,88.8z"/>
		<path fill="#62C4C5" d="M101,84.4v1.7c0,2.4-1.2,3.5-3.5,3.5h-7.9c-0.6,0-0.9-0.3-0.9-0.9v-7c0-0.6,0.3-0.9,0.9-0.9l7.9,0
			C99.8,80.9,101,82,101,84.4z M90.5,87.9h7c1.2,0,1.8-0.6,1.8-1.8v-1.7c0-1.2-0.6-1.8-1.8-1.8h-7L90.5,87.9z"/>
		<path fill="#62C4C5" d="M102.5,88.8v-7c0-0.6,0.3-0.9,0.9-0.9h10.6c0.6,0,0.9,0.3,0.9,0.9c0,0.6-0.3,0.9-0.9,0.9h-9.7v1.8h7.9
			c0.6,0,0.9,0.3,0.9,0.9c0,0.6-0.3,0.9-0.9,0.9h-7.9v1.8h9.7c0.6,0,0.9,0.3,0.9,0.9c0,0.6-0.3,0.9-0.9,0.9h-10.6
			C102.8,89.7,102.5,89.4,102.5,88.8z"/>
		<path fill="#62C4C5" d="M128.4,82.3l-5.1,6.9c-0.3,0.3-0.6,0.4-0.9,0.4c-0.2,0-0.5-0.1-0.9-0.4l-5.1-6.9c-0.2-0.4-0.2-0.8,0.2-1.2
			c0.4-0.4,0.8-0.4,1.2,0l4.6,6.5l4.5-6.4c0.4-0.5,0.8-0.5,1.2-0.1C128.7,81.5,128.7,81.9,128.4,82.3z"/>
	</g>
</g>
</svg>
