<?xml version="1.0" encoding="utf-8"?>
<!-- Generator: Adobe Illustrator 18.1.1, SVG Export Plug-In . SVG Version: 6.00 Build 0)  -->
<svg version="1.0" id="Layer_1" xmlns="http://www.w3.org/2000/svg" xmlns:xlink="http://www.w3.org/1999/xlink" x="0px" y="0px"
	 viewBox="0 0 105.1 105.1" enable-background="new 0 0 105.1 105.1" xml:space="preserve">
<circle fill="#BC5459" cx="54.6" cy="54.6" r="50.6"/>
<circle fill="#FEFBDE" cx="50.6" cy="50.6" r="50.6"/>
<g>
	<rect x="48.3" y="53.7" fill="#E0B84E" width="8.9" height="12.3"/>
	<path fill="#1D394F" d="M73.8,64.7c-1.9-1.9-4.6-3.1-7.6-3.1h-6.7c0,0-3.7,1.1-6.8,6.8c-3.2-5.6-6.8-6.8-6.8-6.8h-6.7
		c-3,0-5.6,1.2-7.6,3.1c-1.9,1.9-3.1,4.6-3.1,7.6v8.2v0.7H77v-0.7v-8.2C77,69.3,75.8,66.6,73.8,64.7z"/>
	<ellipse fill="#E1434C" cx="52.8" cy="35.9" rx="19.4" ry="19.2"/>
	<circle fill="#E0B84E" cx="35.8" cy="42" r="3.3"/>
	<circle fill="#E0B84E" cx="69.8" cy="42" r="3.3"/>
	<circle fill="#E0B84E" cx="52.8" cy="39.7" r="17.8"/>
	<path fill="#26BEC9" d="M52.8,68.3c0,0-4.1,1.1-6,3.9c-0.6,0.9-1.1,1-1.5-0.1l-3.6-10.6h4.3C45.9,61.6,49.6,62.7,52.8,68.3z"/>
	<path fill="#26BEC9" d="M52.8,68.3c0,0,4.1,1.1,6,3.9c0.7,0.9,1.1,1,1.5-0.1l3.6-10.6h-4.3C59.6,61.6,55.9,62.7,52.8,68.3z"/>
	<path fill="#E0B84E" d="M52.8,68.3c3.2-5.6,6.8-6.8,6.8-6.8h-6.8h-6.8C45.9,61.6,49.6,62.7,52.8,68.3z"/>
	<path fill="#1D394F" d="M70.5,38.8c0-0.4-0.1-0.9-0.1-1.3h-2.3c0,0-8.8-3.1-13.7,1.1c0,0-0.1,0.1-0.1,0.2c-0.4-0.3-1-0.4-1.6-0.4
		c-0.7,0-1.2,0.2-1.6,0.4c0-0.1-0.1-0.1-0.1-0.2c-4.8-4.2-13.7-1.1-13.7-1.1h-2.3C35,37.9,35,38.4,35,38.8l2.4,0.4l0,0
		c0,0,0.3,0.1,0.6,1.2c0.3,1.1-0.4,6.4,6.2,6.8c5.3,0.3,7.2-4.5,7.2-7.1c0.4-0.2,0.9-0.3,1.4-0.3c0.5,0,1,0.1,1.4,0.3
		c0,2.5,1.9,7.3,7.2,7.1c6.6-0.3,5.9-5.7,6.2-6.8c0.3-1.1,0.6-1.2,0.6-1.2v0L70.5,38.8z M49.4,43.4c-0.7,1.2-2.2,2.7-4.8,2.7
		c-0.1,0-0.2,0-0.4,0c-4.8-0.2-5.2-3.3-5.2-5.1c0-1.2,0.2-3.6,5-3.6c2.7,0,4.9,0.6,6.1,2.1C50.4,40,50.4,41.7,49.4,43.4z M61.3,46.1
		c-0.1,0-0.2,0-0.4,0c0,0,0,0,0,0c-2.6,0-4-1.5-4.8-2.7c-1-1.7-1-3.5-0.7-3.9c1.2-1.6,3.4-2.1,6.1-2.1c4.8,0,5,2.4,5,3.6
		C66.5,42.8,66.1,45.9,61.3,46.1z"/>
	<path fill="#E1434C" d="M52.8,16.7c-10.7,0-19.4,8.6-19.4,19.2c0,0.6,0,1.1,0.1,1.6c15.9-2.2,19.3-8.6,19.3-8.6s3.4,6.4,19.3,8.6
		c0-0.5,0.1-1.1,0.1-1.6C72.2,25.3,63.5,16.7,52.8,16.7z"/>
</g>
</svg>
