<?xml version="1.0" encoding="utf-8"?>
<!-- Generator: Adobe Illustrator 18.1.1, SVG Export Plug-In . SVG Version: 6.00 Build 0)  -->
<svg version="1.0" id="Layer_1" xmlns="http://www.w3.org/2000/svg" xmlns:xlink="http://www.w3.org/1999/xlink" x="0px" y="0px"
	 viewBox="0 0 621.2 276.1" enable-background="new 0 0 621.2 276.1" xml:space="preserve">
<g>
	<rect x="-331.6" y="1654" fill="#00716E" width="1291.9" height="268"/>
	<g>
		<path fill="#007C79" d="M621.2,1922c-0.5-142.6-139.4-258-310.6-258C139.4,1664,0.5,1779.5,0,1922H621.2z"/>
		<path fill="#008B87" d="M578.5,1922c-0.5-122.9-120.2-222.4-267.9-222.4c-147.6,0-267.4,99.5-267.9,222.4H578.5z"/>
	</g>
	<g>
		<g>
			<path fill="#444443" d="M462.3,1824.3c-4.8,0-9.3-1.1-13.2-3.2c-12.8-6.9-16-22.3-16.2-23l4-0.8l-2,0.4l2-0.4
				c0,0.1,3,14.2,14.1,20.2c7.1,3.8,16,3.6,26.5-0.6l1.5,3.8C473,1823.1,467.4,1824.3,462.3,1824.3z"/>
		</g>
		<g>
			<path fill="#444443" d="M337.5,1824.3c4.8,0,9.3-1.1,13.2-3.2c12.8-6.9,16-22.3,16.2-23l-4-0.8l2,0.4l-2-0.4
				c0,0.1-3,14.2-14.1,20.2c-7.1,3.8-16,3.6-26.5-0.6l-1.5,3.8C326.8,1823.1,332.3,1824.3,337.5,1824.3z"/>
		</g>
		<g>
			<path fill="#444443" d="M376.7,1916.6c-0.5-7.8,1.7-39.7,1.8-41l4.8,0.3c0,0.3-2.2,32.9-1.8,40.4L376.7,1916.6z"/>
			<path fill="#444443" d="M414.1,1916.8c-0.7-7.8,0.6-39.7,0.6-41.1l4.8,0.2c0,0.3-1.3,32.9-0.6,40.4L414.1,1916.8z"/>
			<path fill="#A0BE3C" d="M437.4,1872c0,3.5-2.5,6.4-5.6,6.4h-64.5c-3.1,0-5.6-2.8-5.6-6.4v-129.2c0-3.5,2.5-6.4,5.6-6.4h64.5
				c3.1,0,5.6,2.8,5.6,6.4V1872z"/>
			<path opacity="0.2" fill="#738241" d="M428.2,1807.4c2.9,2.9,2.9,7.5,0,10.4l-13.8,13.8c-2.9,2.9-7.5,2.9-10.4,0l0,0
				c-2.9-2.9-2.9-7.5,0-10.4l13.8-13.8C420.7,1804.6,425.4,1804.6,428.2,1807.4L428.2,1807.4z"/>
			<path fill="#738241" d="M414,1821c2,2,2,5.3,0,7.4c-2,2-5.3,2-7.4,0c-2-2-2-5.3,0-7.4C408.7,1819,412,1819,414,1821z"/>
			<path fill="#738241" d="M425.1,1810c2,2,2,5.3,0,7.4c-2,2-5.3,2-7.4,0c-2-2-2-5.3,0-7.4C419.7,1807.9,423,1807.9,425.1,1810z"/>
			<path fill="#F6937B" d="M415.4,1821c2,2,2,5.3,0,7.4c-2,2-5.3,2-7.4,0c-2-2-2-5.3,0-7.4C410.1,1819,413.4,1819,415.4,1821z"/>
			<path fill="#F6937B" d="M426.5,1809.9c2,2,2,5.3,0,7.4c-2,2-5.3,2-7.4,0c-2-2-2-5.3,0-7.4
				C421.2,1807.9,424.5,1807.9,426.5,1809.9z"/>
			<g>
				<path fill="#57632B" d="M388.8,1813.8h-4v-4.7c0-0.9-0.7-1.7-1.5-1.7h-4.2c-0.8,0-1.5,0.8-1.5,1.7v4.7h-4
					c-0.8,0-1.5,0.8-1.5,1.7v4.9c0,0.9,0.6,1.7,1.5,1.7h4v4.7c0,0.9,0.6,1.7,1.5,1.7h4.2c0.8,0,1.5-0.8,1.5-1.7v-4.7h4
					c0.8,0,1.5-0.8,1.5-1.7v-4.9C390.2,1814.5,389.6,1813.8,388.8,1813.8z"/>
				<path fill="#697836" d="M390.3,1813.8h-4v-4.7c0-0.9-0.6-1.7-1.5-1.7h-4.2c-0.8,0-1.5,0.8-1.5,1.7v4.7h-4
					c-0.8,0-1.4,0.8-1.4,1.7v4.9c0,0.9,0.6,1.7,1.4,1.7h4v4.7c0,0.9,0.7,1.7,1.5,1.7h4.2c0.8,0,1.5-0.8,1.5-1.7v-4.7h4
					c0.8,0,1.5-0.8,1.5-1.7v-4.9C391.8,1814.5,391.1,1813.8,390.3,1813.8z"/>
			</g>
			<path fill="#FFF2E8" d="M430,1786.7c0,3.5-2.8,6.4-6.4,6.4h-49.3c-3.5,0-6.4-2.8-6.4-6.4v-37.6c0-3.5,2.8-6.4,6.4-6.4h49.3
				c3.5,0,6.4,2.8,6.4,6.4V1786.7z"/>
			<path fill="#553B40" d="M389.7,1765.9c0,4-1.1,7.3-2.4,7.3c-1.3,0-2.4-3.3-2.4-7.3c0-4,1.1-7.3,2.4-7.3
				C388.6,1758.7,389.7,1761.9,389.7,1765.9z"/>
			<path fill="#553B40" d="M415.5,1765.9c0,4-1.1,7.3-2.4,7.3c-1.3,0-2.4-3.3-2.4-7.3c0-4,1.1-7.3,2.4-7.3
				C414.4,1758.7,415.5,1761.9,415.5,1765.9z"/>
			<path fill="#553B40" d="M407.7,1774.5c0,5-3.3,9-7.3,9c-4,0-7.3-4-7.3-9"/>
			<g>
				<path fill="#F58F20" d="M375.6,1727.9c0,0-7.6,4.8-0.6,8.1c5.8,2.8,23.5,3.7,23.5,3.7s33-0.8,23.9-8.2
					C405.3,1717.6,375.6,1727.9,375.6,1727.9z"/>
				<path fill="#FFDC48" d="M375.7,1731.6c0,0,1.2-23.8,21-23.7c19.8,0.1,21.8,23.9,21.8,23.9S401.1,1739.4,375.7,1731.6z"/>
				<path fill="#F58F20" d="M392.4,1708.3c0,0,10.5-1.5,7.7,27.3c6.3,0,6.7-1,6.7-1S408.3,1704.6,392.4,1708.3z"/>
			</g>
		</g>
	</g>
	<g>
		<g>
			<path fill="#444443" d="M288.3,1824.3c-4.8,0-9.3-1.1-13.2-3.2c-12.8-6.9-16-22.3-16.2-23l4-0.8l-2,0.4l2-0.4
				c0,0.1,3,14.2,14.1,20.2c7.1,3.8,16,3.6,26.5-0.6l1.5,3.8C299,1823.1,293.4,1824.3,288.3,1824.3z"/>
		</g>
		<g>
			<path fill="#444443" d="M163.5,1824.3c4.8,0,9.3-1.1,13.2-3.2c12.8-6.9,16-22.3,16.2-23l-4-0.8l2,0.4l-2-0.4
				c0,0.1-3,14.2-14.1,20.2c-7.1,3.8-16,3.6-26.5-0.6l-1.5,3.8C152.8,1823.1,158.3,1824.3,163.5,1824.3z"/>
		</g>
		<g>
			<path fill="#444443" d="M202.7,1916.6c-0.5-7.8,1.7-39.7,1.8-41l4.8,0.3c0,0.3-2.2,32.9-1.8,40.4L202.7,1916.6z"/>
			<path fill="#444443" d="M240.1,1916.8c-0.7-7.8,0.6-39.7,0.6-41.1l4.8,0.2c0,0.3-1.3,32.9-0.6,40.4L240.1,1916.8z"/>
			<path fill="#A0BE3C" d="M263.4,1872c0,3.5-2.5,6.4-5.6,6.4h-64.5c-3.1,0-5.6-2.8-5.6-6.4v-129.2c0-3.5,2.5-6.4,5.6-6.4h64.5
				c3.1,0,5.6,2.8,5.6,6.4V1872z"/>
			<path opacity="0.2" fill="#738241" d="M254.2,1807.4c2.9,2.9,2.9,7.5,0,10.4l-13.8,13.8c-2.9,2.9-7.5,2.9-10.4,0l0,0
				c-2.9-2.9-2.9-7.5,0-10.4l13.8-13.8C246.7,1804.6,251.4,1804.6,254.2,1807.4L254.2,1807.4z"/>
			<path fill="#738241" d="M240,1821c2,2,2,5.3,0,7.4c-2,2-5.3,2-7.4,0c-2-2-2-5.3,0-7.4C234.7,1819,238,1819,240,1821z"/>
			<path fill="#738241" d="M251.1,1810c2,2,2,5.3,0,7.4c-2,2-5.3,2-7.4,0c-2-2-2-5.3,0-7.4C245.7,1807.9,249,1807.9,251.1,1810z"/>
			<path fill="#F6937B" d="M241.4,1821c2,2,2,5.3,0,7.4c-2,2-5.3,2-7.4,0c-2-2-2-5.3,0-7.4C236.1,1819,239.4,1819,241.4,1821z"/>
			<path fill="#F6937B" d="M252.5,1809.9c2,2,2,5.3,0,7.4c-2,2-5.3,2-7.4,0c-2-2-2-5.3,0-7.4
				C247.2,1807.9,250.5,1807.9,252.5,1809.9z"/>
			<g>
				<path fill="#57632B" d="M214.8,1813.8h-4v-4.7c0-0.9-0.7-1.7-1.5-1.7h-4.2c-0.8,0-1.5,0.8-1.5,1.7v4.7h-4
					c-0.8,0-1.5,0.8-1.5,1.7v4.9c0,0.9,0.6,1.7,1.5,1.7h4v4.7c0,0.9,0.6,1.7,1.5,1.7h4.2c0.8,0,1.5-0.8,1.5-1.7v-4.7h4
					c0.8,0,1.5-0.8,1.5-1.7v-4.9C216.2,1814.5,215.6,1813.8,214.8,1813.8z"/>
				<path fill="#697836" d="M216.3,1813.8h-4v-4.7c0-0.9-0.6-1.7-1.5-1.7h-4.2c-0.8,0-1.5,0.8-1.5,1.7v4.7h-4
					c-0.8,0-1.4,0.8-1.4,1.7v4.9c0,0.9,0.6,1.7,1.4,1.7h4v4.7c0,0.9,0.7,1.7,1.5,1.7h4.2c0.8,0,1.5-0.8,1.5-1.7v-4.7h4
					c0.8,0,1.5-0.8,1.5-1.7v-4.9C217.8,1814.5,217.1,1813.8,216.3,1813.8z"/>
			</g>
			<path fill="#FFF2E8" d="M256,1786.7c0,3.5-2.8,6.4-6.4,6.4h-49.3c-3.5,0-6.4-2.8-6.4-6.4v-37.6c0-3.5,2.8-6.4,6.4-6.4h49.3
				c3.5,0,6.4,2.8,6.4,6.4V1786.7z"/>
			<path fill="#553B40" d="M215.7,1765.9c0,4-1.1,7.3-2.4,7.3c-1.3,0-2.4-3.3-2.4-7.3c0-4,1.1-7.3,2.4-7.3
				C214.6,1758.7,215.7,1761.9,215.7,1765.9z"/>
			<path fill="#553B40" d="M241.5,1765.9c0,4-1.1,7.3-2.4,7.3c-1.3,0-2.4-3.3-2.4-7.3c0-4,1.1-7.3,2.4-7.3
				C240.4,1758.7,241.5,1761.9,241.5,1765.9z"/>
			<path fill="#553B40" d="M233.7,1774.5c0,5-3.3,9-7.3,9c-4,0-7.3-4-7.3-9"/>
			<g>
				<path fill="#F58F20" d="M201.6,1727.9c0,0-7.6,4.8-0.6,8.1c5.8,2.8,23.5,3.7,23.5,3.7s33-0.8,23.9-8.2
					C231.3,1717.6,201.6,1727.9,201.6,1727.9z"/>
				<path fill="#FFDC48" d="M201.7,1731.6c0,0,1.2-23.8,21-23.7c19.8,0.1,21.8,23.9,21.8,23.9S227.1,1739.4,201.7,1731.6z"/>
				<path fill="#F58F20" d="M218.4,1708.3c0,0,10.5-1.5,7.7,27.3c6.3,0,6.7-1,6.7-1S234.3,1704.6,218.4,1708.3z"/>
			</g>
		</g>
	</g>
	<g>
		<g>
			<path fill="#444443" d="M384.1,1811.4c-5.5,0-10.6-1.2-15.1-3.7c-14.6-7.9-18.3-25.5-18.4-26.2l4.6-0.9l-2.3,0.5l2.3-0.5
				c0,0.2,3.5,16.2,16.1,23.1c8,4.3,18.2,4.1,30.2-0.7l1.7,4.3C396.3,1810,390,1811.4,384.1,1811.4z"/>
		</g>
		<g>
			<path fill="#444443" d="M241.8,1811.4c5.5,0,10.6-1.2,15.1-3.7c14.6-7.9,18.3-25.5,18.4-26.2l-4.6-0.9l2.3,0.5l-2.3-0.5
				c0,0.2-3.5,16.2-16.1,23.1c-8,4.3-18.2,4.1-30.2-0.7l-1.7,4.3C229.6,1810,236,1811.4,241.8,1811.4z"/>
		</g>
		<g>
			<path fill="#444443" d="M286.5,1916.6c-0.5-8.9,1.9-45.2,2.1-46.8l5.5,0.4c0,0.4-2.6,37.5-2,46L286.5,1916.6z"/>
			<path fill="#444443" d="M329.1,1916.8c-0.8-8.9,0.7-45.3,0.7-46.8l5.5,0.2c0,0.4-1.5,37.5-0.7,46.1L329.1,1916.8z"/>
			<path fill="#A0BE3C" d="M355.7,1865.7c0,4-2.9,7.2-6.4,7.2h-73.6c-3.6,0-6.4-3.2-6.4-7.2v-147.3c0-4,2.9-7.2,6.4-7.2h73.6
				c3.6,0,6.4,3.2,6.4,7.2V1865.7z"/>
			<path opacity="0.2" fill="#738241" d="M345.3,1792.1c3.3,3.3,3.3,8.6,0,11.8l-15.8,15.8c-3.3,3.3-8.6,3.3-11.8,0l0,0
				c-3.3-3.3-3.3-8.6,0-11.8l15.8-15.8C336.7,1788.9,342,1788.9,345.3,1792.1L345.3,1792.1z"/>
			<path fill="#738241" d="M329.1,1807.6c2.3,2.3,2.3,6.1,0,8.4c-2.3,2.3-6.1,2.3-8.4,0c-2.3-2.3-2.3-6.1,0-8.4
				C323,1805.3,326.7,1805.3,329.1,1807.6z"/>
			<path fill="#738241" d="M341.7,1795c2.3,2.3,2.3,6.1,0,8.4c-2.3,2.3-6.1,2.3-8.4,0c-2.3-2.3-2.3-6.1,0-8.4
				C335.6,1792.7,339.4,1792.7,341.7,1795z"/>
			<path fill="#F6937B" d="M330.7,1807.6c2.3,2.3,2.3,6.1,0,8.4c-2.3,2.3-6.1,2.3-8.4,0c-2.3-2.3-2.3-6.1,0-8.4
				C324.6,1805.3,328.4,1805.3,330.7,1807.6z"/>
			<path fill="#F6937B" d="M343.3,1795c2.3,2.3,2.3,6.1,0,8.4c-2.3,2.3-6.1,2.3-8.4,0c-2.3-2.3-2.3-6.1,0-8.4
				C337.2,1792.6,341,1792.6,343.3,1795z"/>
			<g>
				<path fill="#57632B" d="M300.3,1799.4h-4.5v-5.3c0-1.1-0.7-1.9-1.7-1.9h-4.8c-0.9,0-1.7,0.9-1.7,1.9v5.3h-4.5
					c-0.9,0-1.7,0.9-1.7,1.9v5.6c0,1.1,0.7,1.9,1.7,1.9h4.5v5.3c0,1.1,0.7,1.9,1.7,1.9h4.8c0.9,0,1.7-0.9,1.7-1.9v-5.3h4.5
					c0.9,0,1.7-0.9,1.7-1.9v-5.6C301.9,1800.2,301.2,1799.4,300.3,1799.4z"/>
				<path fill="#697836" d="M302.1,1799.4h-4.5v-5.3c0-1.1-0.7-1.9-1.7-1.9h-4.8c-0.9,0-1.7,0.9-1.7,1.9v5.3h-4.5
					c-0.9,0-1.7,0.9-1.7,1.9v5.6c0,1.1,0.7,1.9,1.7,1.9h4.5v5.3c0,1.1,0.7,1.9,1.7,1.9h4.8c0.9,0,1.7-0.9,1.7-1.9v-5.3h4.5
					c0.9,0,1.7-0.9,1.7-1.9v-5.6C303.7,1800.2,303,1799.4,302.1,1799.4z"/>
			</g>
			<path fill="#FFF2E8" d="M347.2,1768.5c0,4-3.2,7.2-7.2,7.2h-56.2c-4,0-7.2-3.2-7.2-7.2v-42.8c0-4,3.2-7.2,7.2-7.2H340
				c4,0,7.2,3.2,7.2,7.2V1768.5z"/>
			<path fill="#553B40" d="M301.4,1744.8c0,4.6-1.2,8.3-2.8,8.3c-1.5,0-2.8-3.7-2.8-8.3c0-4.6,1.2-8.3,2.8-8.3
				C300.1,1736.5,301.4,1740.3,301.4,1744.8z"/>
			<path fill="#553B40" d="M330.8,1744.8c0,4.6-1.2,8.3-2.8,8.3c-1.5,0-2.8-3.7-2.8-8.3c0-4.6,1.2-8.3,2.8-8.3
				C329.6,1736.5,330.8,1740.3,330.8,1744.8z"/>
			<path fill="#553B40" d="M321.9,1754.6c0,5.7-3.7,10.3-8.3,10.3c-4.6,0-8.3-4.6-8.3-10.3"/>
			<g>
				<path fill="#F58F20" d="M285.3,1701.4c0,0-8.7,5.5-0.7,9.3c6.7,3.1,26.8,4.2,26.8,4.2s37.7-0.9,27.3-9.3
					C319.1,1689.7,285.3,1701.4,285.3,1701.4z"/>
				<path fill="#FFDC48" d="M285.3,1705.7c0,0,1.4-27.1,24-27.1c22.6,0.1,24.9,27.2,24.9,27.2S314.3,1714.6,285.3,1705.7z"/>
				<path fill="#F58F20" d="M304.4,1679.1c0,0,12-1.7,8.8,31.1c7.2,0,7.7-1.1,7.7-1.1S322.6,1675,304.4,1679.1z"/>
			</g>
		</g>
	</g>
	<g>
		<polygon fill="#E1434C" points="505.1,1865.5 494.8,1852.7 505.1,1840 515.1,1827.7 515.1,1827.2 118.8,1827.2 129.1,1840 
			139.4,1852.7 129.1,1865.5 119,1878 515.1,1878 515.1,1877.8 		"/>
	</g>
	<g>
		<polygon fill="#F37C80" points="504.1,1860 493.8,1847.3 504.1,1834.5 514.1,1822.2 514.1,1821.7 117.8,1821.7 128.1,1834.5 
			138.4,1847.3 128.1,1860 118,1872.5 514.1,1872.5 514.1,1872.3 		"/>
	</g>
	<g>
		<polygon fill="#CC6228" points="441.1,1930 434.3,1919.7 441.1,1909.4 447.7,1899.5 447.7,1899.1 185.2,1899.1 192.1,1909.4 
			198.9,1919.7 192.1,1930 185.4,1940.1 447.7,1940.1 447.7,1939.9 		"/>
	</g>
	<g>
		<polygon fill="#FBAE48" points="440.1,1925.4 433.3,1915.1 440.1,1904.8 446.7,1894.8 446.7,1894.5 184.2,1894.5 191.1,1904.8 
			197.9,1915.1 191.1,1925.4 184.4,1935.5 446.7,1935.5 446.7,1935.3 		"/>
	</g>
	<text transform="matrix(1 0 0 1 150.8941 1856.1465)" fill="#A93242" font-family="'Oswald-Bold'" font-size="21">GAME DEVELOPMENT CLUSTER MEMBERS</text>
	<text transform="matrix(1 0 0 1 244.5162 1923.541)" fill="#B74D26" font-family="'Oswald-Bold'" font-size="17">INDUSTRY PARTNERS</text>
</g>
<g>
	<path fill="#007C79" d="M621.2,258C620.7,115.5,481.8,0,310.6,0C139.4,0,0.5,115.5,0,258H621.2z"/>
	<path fill="#008B87" d="M578.5,258C578,135.1,458.2,35.6,310.6,35.6C163,35.6,43.2,135.1,42.7,258H578.5z"/>
</g>
<g>
	<g>
		<path fill="#444443" d="M462.3,160.3c-4.8,0-9.3-1.1-13.2-3.2c-12.8-6.9-16-22.3-16.2-23l4-0.8l-2,0.4l2-0.4
			c0,0.1,3,14.2,14.1,20.2c7.1,3.8,16,3.6,26.5-0.6l1.5,3.8C473,159.1,467.4,160.3,462.3,160.3z"/>
	</g>
	<g>
		<path fill="#444443" d="M337.5,160.3c4.8,0,9.3-1.1,13.2-3.2c12.8-6.9,16-22.3,16.2-23l-4-0.8l2,0.4l-2-0.4
			c0,0.1-3,14.2-14.1,20.2c-7.1,3.8-16,3.6-26.5-0.6l-1.5,3.8C326.8,159.1,332.3,160.3,337.5,160.3z"/>
	</g>
	<g>
		<path fill="#444443" d="M376.7,252.6c-0.5-7.8,1.7-39.7,1.8-41l4.8,0.3c0,0.3-2.2,32.9-1.8,40.4L376.7,252.6z"/>
		<path fill="#444443" d="M414.1,252.8c-0.7-7.8,0.6-39.7,0.6-41.1l4.8,0.2c0,0.3-1.3,32.9-0.6,40.4L414.1,252.8z"/>
		<path fill="#A0BE3C" d="M437.4,208c0,3.5-2.5,6.4-5.6,6.4h-64.5c-3.1,0-5.6-2.8-5.6-6.4V78.8c0-3.5,2.5-6.4,5.6-6.4h64.5
			c3.1,0,5.6,2.8,5.6,6.4V208z"/>
		<path opacity="0.2" fill="#738241" d="M428.2,143.4c2.9,2.9,2.9,7.5,0,10.4l-13.8,13.8c-2.9,2.9-7.5,2.9-10.4,0l0,0
			c-2.9-2.9-2.9-7.5,0-10.4l13.8-13.8C420.7,140.6,425.4,140.6,428.2,143.4L428.2,143.4z"/>
		<path fill="#738241" d="M414,157c2,2,2,5.3,0,7.4c-2,2-5.3,2-7.4,0c-2-2-2-5.3,0-7.4C408.7,155,412,155,414,157z"/>
		<path fill="#738241" d="M425.1,146c2,2,2,5.3,0,7.4c-2,2-5.3,2-7.4,0c-2-2-2-5.3,0-7.4C419.7,143.9,423,143.9,425.1,146z"/>
		<path fill="#F6937B" d="M415.4,157c2,2,2,5.3,0,7.4c-2,2-5.3,2-7.4,0c-2-2-2-5.3,0-7.4C410.1,155,413.4,155,415.4,157z"/>
		<path fill="#F6937B" d="M426.5,145.9c2,2,2,5.3,0,7.4c-2,2-5.3,2-7.4,0c-2-2-2-5.3,0-7.4C421.2,143.9,424.5,143.9,426.5,145.9z"/>
		<g>
			<path fill="#57632B" d="M388.8,149.8h-4v-4.7c0-0.9-0.7-1.7-1.5-1.7h-4.2c-0.8,0-1.5,0.8-1.5,1.7v4.7h-4c-0.8,0-1.5,0.8-1.5,1.7
				v4.9c0,0.9,0.6,1.7,1.5,1.7h4v4.7c0,0.9,0.6,1.7,1.5,1.7h4.2c0.8,0,1.5-0.8,1.5-1.7v-4.7h4c0.8,0,1.5-0.8,1.5-1.7v-4.9
				C390.2,150.5,389.6,149.8,388.8,149.8z"/>
			<path fill="#697836" d="M390.3,149.8h-4v-4.7c0-0.9-0.6-1.7-1.5-1.7h-4.2c-0.8,0-1.5,0.8-1.5,1.7v4.7h-4c-0.8,0-1.4,0.8-1.4,1.7
				v4.9c0,0.9,0.6,1.7,1.4,1.7h4v4.7c0,0.9,0.7,1.7,1.5,1.7h4.2c0.8,0,1.5-0.8,1.5-1.7v-4.7h4c0.8,0,1.5-0.8,1.5-1.7v-4.9
				C391.8,150.5,391.1,149.8,390.3,149.8z"/>
		</g>
		<path fill="#FFF2E8" d="M430,122.7c0,3.5-2.8,6.4-6.4,6.4h-49.3c-3.5,0-6.4-2.8-6.4-6.4V85.1c0-3.5,2.8-6.4,6.4-6.4h49.3
			c3.5,0,6.4,2.8,6.4,6.4V122.7z"/>
		<path fill="#553B40" d="M389.7,101.9c0,4-1.1,7.3-2.4,7.3c-1.3,0-2.4-3.3-2.4-7.3c0-4,1.1-7.3,2.4-7.3
			C388.6,94.7,389.7,97.9,389.7,101.9z"/>
		<path fill="#553B40" d="M415.5,101.9c0,4-1.1,7.3-2.4,7.3c-1.3,0-2.4-3.3-2.4-7.3c0-4,1.1-7.3,2.4-7.3
			C414.4,94.7,415.5,97.9,415.5,101.9z"/>
		<path fill="#553B40" d="M407.7,110.5c0,5-3.3,9-7.3,9c-4,0-7.3-4-7.3-9"/>
		<g>
			<path fill="#F58F20" d="M375.6,63.9c0,0-7.6,4.8-0.6,8.1c5.8,2.8,23.5,3.7,23.5,3.7s33-0.8,23.9-8.2
				C405.3,53.6,375.6,63.9,375.6,63.9z"/>
			<path fill="#FFDC48" d="M375.7,67.6c0,0,1.2-23.8,21-23.7c19.8,0.1,21.8,23.9,21.8,23.9S401.1,75.4,375.7,67.6z"/>
			<path fill="#F58F20" d="M392.4,44.3c0,0,10.5-1.5,7.7,27.3c6.3,0,6.7-1,6.7-1S408.3,40.6,392.4,44.3z"/>
		</g>
	</g>
</g>
<g>
	<g>
		<path fill="#444443" d="M288.3,160.3c-4.8,0-9.3-1.1-13.2-3.2c-12.8-6.9-16-22.3-16.2-23l4-0.8l-2,0.4l2-0.4
			c0,0.1,3,14.2,14.1,20.2c7.1,3.8,16,3.6,26.5-0.6l1.5,3.8C299,159.1,293.4,160.3,288.3,160.3z"/>
	</g>
	<g>
		<path fill="#444443" d="M163.5,160.3c4.8,0,9.3-1.1,13.2-3.2c12.8-6.9,16-22.3,16.2-23l-4-0.8l2,0.4l-2-0.4
			c0,0.1-3,14.2-14.1,20.2c-7.1,3.8-16,3.6-26.5-0.6l-1.5,3.8C152.8,159.1,158.3,160.3,163.5,160.3z"/>
	</g>
	<g>
		<path fill="#444443" d="M202.7,252.6c-0.5-7.8,1.7-39.7,1.8-41l4.8,0.3c0,0.3-2.2,32.9-1.8,40.4L202.7,252.6z"/>
		<path fill="#444443" d="M240.1,252.8c-0.7-7.8,0.6-39.7,0.6-41.1l4.8,0.2c0,0.3-1.3,32.9-0.6,40.4L240.1,252.8z"/>
		<path fill="#A0BE3C" d="M263.4,208c0,3.5-2.5,6.4-5.6,6.4h-64.5c-3.1,0-5.6-2.8-5.6-6.4V78.8c0-3.5,2.5-6.4,5.6-6.4h64.5
			c3.1,0,5.6,2.8,5.6,6.4V208z"/>
		<path opacity="0.2" fill="#738241" d="M254.2,143.4c2.9,2.9,2.9,7.5,0,10.4l-13.8,13.8c-2.9,2.9-7.5,2.9-10.4,0l0,0
			c-2.9-2.9-2.9-7.5,0-10.4l13.8-13.8C246.7,140.6,251.4,140.6,254.2,143.4L254.2,143.4z"/>
		<path fill="#738241" d="M240,157c2,2,2,5.3,0,7.4c-2,2-5.3,2-7.4,0c-2-2-2-5.3,0-7.4C234.7,155,238,155,240,157z"/>
		<path fill="#738241" d="M251.1,146c2,2,2,5.3,0,7.4c-2,2-5.3,2-7.4,0c-2-2-2-5.3,0-7.4C245.7,143.9,249,143.9,251.1,146z"/>
		<path fill="#F6937B" d="M241.4,157c2,2,2,5.3,0,7.4c-2,2-5.3,2-7.4,0c-2-2-2-5.3,0-7.4C236.1,155,239.4,155,241.4,157z"/>
		<path fill="#F6937B" d="M252.5,145.9c2,2,2,5.3,0,7.4c-2,2-5.3,2-7.4,0c-2-2-2-5.3,0-7.4C247.2,143.9,250.5,143.9,252.5,145.9z"/>
		<g>
			<path fill="#57632B" d="M214.8,149.8h-4v-4.7c0-0.9-0.7-1.7-1.5-1.7h-4.2c-0.8,0-1.5,0.8-1.5,1.7v4.7h-4c-0.8,0-1.5,0.8-1.5,1.7
				v4.9c0,0.9,0.6,1.7,1.5,1.7h4v4.7c0,0.9,0.6,1.7,1.5,1.7h4.2c0.8,0,1.5-0.8,1.5-1.7v-4.7h4c0.8,0,1.5-0.8,1.5-1.7v-4.9
				C216.2,150.5,215.6,149.8,214.8,149.8z"/>
			<path fill="#697836" d="M216.3,149.8h-4v-4.7c0-0.9-0.6-1.7-1.5-1.7h-4.2c-0.8,0-1.5,0.8-1.5,1.7v4.7h-4c-0.8,0-1.4,0.8-1.4,1.7
				v4.9c0,0.9,0.6,1.7,1.4,1.7h4v4.7c0,0.9,0.7,1.7,1.5,1.7h4.2c0.8,0,1.5-0.8,1.5-1.7v-4.7h4c0.8,0,1.5-0.8,1.5-1.7v-4.9
				C217.8,150.5,217.1,149.8,216.3,149.8z"/>
		</g>
		<path fill="#FFF2E8" d="M256,122.7c0,3.5-2.8,6.4-6.4,6.4h-49.3c-3.5,0-6.4-2.8-6.4-6.4V85.1c0-3.5,2.8-6.4,6.4-6.4h49.3
			c3.5,0,6.4,2.8,6.4,6.4V122.7z"/>
		<path fill="#553B40" d="M215.7,101.9c0,4-1.1,7.3-2.4,7.3c-1.3,0-2.4-3.3-2.4-7.3c0-4,1.1-7.3,2.4-7.3
			C214.6,94.7,215.7,97.9,215.7,101.9z"/>
		<path fill="#553B40" d="M241.5,101.9c0,4-1.1,7.3-2.4,7.3c-1.3,0-2.4-3.3-2.4-7.3c0-4,1.1-7.3,2.4-7.3
			C240.4,94.7,241.5,97.9,241.5,101.9z"/>
		<path fill="#553B40" d="M233.7,110.5c0,5-3.3,9-7.3,9c-4,0-7.3-4-7.3-9"/>
		<g>
			<path fill="#F58F20" d="M201.6,63.9c0,0-7.6,4.8-0.6,8.1c5.8,2.8,23.5,3.7,23.5,3.7s33-0.8,23.9-8.2
				C231.3,53.6,201.6,63.9,201.6,63.9z"/>
			<path fill="#FFDC48" d="M201.7,67.6c0,0,1.2-23.8,21-23.7c19.8,0.1,21.8,23.9,21.8,23.9S227.1,75.4,201.7,67.6z"/>
			<path fill="#F58F20" d="M218.4,44.3c0,0,10.5-1.5,7.7,27.3c6.3,0,6.7-1,6.7-1S234.3,40.6,218.4,44.3z"/>
		</g>
	</g>
</g>
<g>
	<g>
		<path fill="#444443" d="M384.1,147.4c-5.5,0-10.6-1.2-15.1-3.7c-14.6-7.9-18.3-25.5-18.4-26.2l4.6-0.9l-2.3,0.5l2.3-0.5
			c0,0.2,3.5,16.2,16.1,23.1c8,4.3,18.2,4.1,30.2-0.7l1.7,4.3C396.3,146,390,147.4,384.1,147.4z"/>
	</g>
	<g>
		<path fill="#444443" d="M241.8,147.4c5.5,0,10.6-1.2,15.1-3.7c14.6-7.9,18.3-25.5,18.4-26.2l-4.6-0.9l2.3,0.5l-2.3-0.5
			c0,0.2-3.5,16.2-16.1,23.1c-8,4.3-18.2,4.1-30.2-0.7l-1.7,4.3C229.6,146,236,147.4,241.8,147.4z"/>
	</g>
	<g>
		<path fill="#444443" d="M286.5,252.6c-0.5-8.9,1.9-45.2,2.1-46.8l5.5,0.4c0,0.4-2.6,37.5-2,46L286.5,252.6z"/>
		<path fill="#444443" d="M329.1,252.8c-0.8-8.9,0.7-45.3,0.7-46.8l5.5,0.2c0,0.4-1.5,37.5-0.7,46.1L329.1,252.8z"/>
		<path fill="#A0BE3C" d="M355.7,201.7c0,4-2.9,7.2-6.4,7.2h-73.6c-3.6,0-6.4-3.2-6.4-7.2V54.5c0-4,2.9-7.2,6.4-7.2h73.6
			c3.6,0,6.4,3.2,6.4,7.2V201.7z"/>
		<path opacity="0.2" fill="#738241" d="M345.3,128.1c3.3,3.3,3.3,8.6,0,11.8l-15.8,15.8c-3.3,3.3-8.6,3.3-11.8,0l0,0
			c-3.3-3.3-3.3-8.6,0-11.8l15.8-15.8C336.7,124.9,342,124.9,345.3,128.1L345.3,128.1z"/>
		<path fill="#738241" d="M329.1,143.6c2.3,2.3,2.3,6.1,0,8.4c-2.3,2.3-6.1,2.3-8.4,0c-2.3-2.3-2.3-6.1,0-8.4
			C323,141.3,326.7,141.3,329.1,143.6z"/>
		<path fill="#738241" d="M341.7,131c2.3,2.3,2.3,6.1,0,8.4c-2.3,2.3-6.1,2.3-8.4,0c-2.3-2.3-2.3-6.1,0-8.4
			C335.6,128.7,339.4,128.7,341.7,131z"/>
		<path fill="#F6937B" d="M330.7,143.6c2.3,2.3,2.3,6.1,0,8.4c-2.3,2.3-6.1,2.3-8.4,0c-2.3-2.3-2.3-6.1,0-8.4
			C324.6,141.3,328.4,141.3,330.7,143.6z"/>
		<path fill="#F6937B" d="M343.3,131c2.3,2.3,2.3,6.1,0,8.4c-2.3,2.3-6.1,2.3-8.4,0c-2.3-2.3-2.3-6.1,0-8.4
			C337.2,128.6,341,128.6,343.3,131z"/>
		<g>
			<path fill="#57632B" d="M300.3,135.4h-4.5V130c0-1.1-0.7-1.9-1.7-1.9h-4.8c-0.9,0-1.7,0.9-1.7,1.9v5.3h-4.5
				c-0.9,0-1.7,0.9-1.7,1.9v5.6c0,1.1,0.7,1.9,1.7,1.9h4.5v5.3c0,1.1,0.7,1.9,1.7,1.9h4.8c0.9,0,1.7-0.9,1.7-1.9v-5.3h4.5
				c0.9,0,1.7-0.9,1.7-1.9v-5.6C301.9,136.2,301.2,135.4,300.3,135.4z"/>
			<path fill="#697836" d="M302.1,135.4h-4.5V130c0-1.1-0.7-1.9-1.7-1.9h-4.8c-0.9,0-1.7,0.9-1.7,1.9v5.3h-4.5
				c-0.9,0-1.7,0.9-1.7,1.9v5.6c0,1.1,0.7,1.9,1.7,1.9h4.5v5.3c0,1.1,0.7,1.9,1.7,1.9h4.8c0.9,0,1.7-0.9,1.7-1.9v-5.3h4.5
				c0.9,0,1.7-0.9,1.7-1.9v-5.6C303.7,136.2,303,135.4,302.1,135.4z"/>
		</g>
		<path fill="#FFF2E8" d="M347.2,104.5c0,4-3.2,7.2-7.2,7.2h-56.2c-4,0-7.2-3.2-7.2-7.2V61.7c0-4,3.2-7.2,7.2-7.2H340
			c4,0,7.2,3.2,7.2,7.2V104.5z"/>
		<path fill="#553B40" d="M301.4,80.8c0,4.6-1.2,8.3-2.8,8.3c-1.5,0-2.8-3.7-2.8-8.3c0-4.6,1.2-8.3,2.8-8.3
			C300.1,72.5,301.4,76.3,301.4,80.8z"/>
		<path fill="#553B40" d="M330.8,80.8c0,4.6-1.2,8.3-2.8,8.3c-1.5,0-2.8-3.7-2.8-8.3c0-4.6,1.2-8.3,2.8-8.3
			C329.6,72.5,330.8,76.3,330.8,80.8z"/>
		<path fill="#553B40" d="M321.9,90.6c0,5.7-3.7,10.3-8.3,10.3c-4.6,0-8.3-4.6-8.3-10.3"/>
		<g>
			<path fill="#F58F20" d="M285.3,37.4c0,0-8.7,5.5-0.7,9.3c6.7,3.1,26.8,4.2,26.8,4.2s37.7-0.9,27.3-9.3
				C319.1,25.7,285.3,37.4,285.3,37.4z"/>
			<path fill="#FFDC48" d="M285.3,41.7c0,0,1.4-27.1,24-27.1c22.6,0.1,24.9,27.2,24.9,27.2S314.3,50.6,285.3,41.7z"/>
			<path fill="#F58F20" d="M304.4,15.1c0,0,12-1.7,8.8,31.1c7.2,0,7.7-1.1,7.7-1.1S322.6,11,304.4,15.1z"/>
		</g>
	</g>
</g>
<g>
	<polygon fill="#E1434C" points="505.1,201.5 494.8,188.7 505.1,176 515.1,163.7 515.1,163.2 118.8,163.2 129.1,176 139.4,188.7 
		129.1,201.5 119,214 515.1,214 515.1,213.8 	"/>
</g>
<g>
	<polygon fill="#F37C80" points="504.1,196 493.8,183.3 504.1,170.5 514.1,158.2 514.1,157.7 117.8,157.7 128.1,170.5 138.4,183.3 
		128.1,196 118,208.5 514.1,208.5 514.1,208.3 	"/>
</g>
<g>
	<polygon fill="#CC6228" points="441.1,266 434.3,255.7 441.1,245.4 447.7,235.5 447.7,235.1 185.2,235.1 192.1,245.4 198.9,255.7 
		192.1,266 185.4,276.1 447.7,276.1 447.7,275.9 	"/>
</g>
<g>
	<polygon fill="#FBAE48" points="440.1,261.4 433.3,251.1 440.1,240.8 446.7,230.8 446.7,230.5 184.2,230.5 191.1,240.8 
		197.9,251.1 191.1,261.4 184.4,271.5 446.7,271.5 446.7,271.3 	"/>
</g>
<text transform="matrix(1 0 0 1 150.8941 192.1465)" fill="#A93242" font-family="'Oswald-Bold'" font-size="21">GAME DEVELOPMENT CLUSTER MEMBERS</text>
<text transform="matrix(1 0 0 1 244.5162 259.541)" fill="#B74D26" font-family="'Oswald-Bold'" font-size="17">INDUSTRY PARTNERS</text>
</svg>
