<?xml version="1.0" encoding="utf-8"?>
<!-- Generator: Adobe Illustrator 18.1.1, SVG Export Plug-In . SVG Version: 6.00 Build 0)  -->
<svg version="1.0" id="Layer_1" xmlns="http://www.w3.org/2000/svg" xmlns:xlink="http://www.w3.org/1999/xlink" x="0px" y="0px"
	 viewBox="0 0 105.1 105.1" enable-background="new 0 0 105.1 105.1" xml:space="preserve">
<circle fill="#BC5459" cx="54.6" cy="54.6" r="50.6"/>
<circle fill="#1D394F" cx="50.6" cy="50.6" r="50.6"/>
<g>
	<g opacity="0.2">
		<g>
			<defs>
				<rect id="SVGID_1_" x="33.1" y="76.1" width="40.6" height="5.1"/>
			</defs>
			<clipPath id="SVGID_2_">
				<use xlink:href="#SVGID_1_"  overflow="visible"/>
			</clipPath>
			<path clip-path="url(#SVGID_2_)" fill="#231F20" d="M73.7,78.7c0,1.4-1.1,2.5-2.5,2.5H35.6c-1.4,0-2.5-1.1-2.5-2.5
				c0-1.4,1.1-2.5,2.5-2.5h35.5C72.5,76.1,73.7,77.3,73.7,78.7"/>
		</g>
	</g>
	<path fill="#EE9D4A" d="M58.4,69.8c0,2.1-1.7,3.8-3.8,3.8h-2.5c-2.1,0-3.8-1.7-3.8-3.8V57.1c0-2.1,1.7-3.8,3.8-3.8h2.5
		c2.1,0,3.8,1.7,3.8,3.8V69.8z"/>
	<g opacity="0.2">
		<g>
			<defs>
				<rect id="SVGID_3_" x="28" y="30.5" width="50.8" height="25.4"/>
			</defs>
			<clipPath id="SVGID_4_">
				<use xlink:href="#SVGID_3_"  overflow="visible"/>
			</clipPath>
			<path clip-path="url(#SVGID_4_)" fill="#231F20" d="M64.8,55.8c-1.4,0-2.5-1.1-2.5-2.5c0-1.4,1.1-2.5,2.5-2.5c4,0,8.9-7,8.9-11.3
				c0-3.4,0-3.9-5.1-3.9H38.1c-5.1,0-5.1,0.4-5.1,3.9c0,4.4,4.8,11.3,8.9,11.3c1.4,0,2.5,1.1,2.5,2.5c0,1.4-1.1,2.5-2.5,2.5
				c-7.1,0-14-9.4-14-16.4c0-8.3,4.8-9,10.2-9h30.5c5.4,0,10.2,0.7,10.2,9C78.7,46.4,71.8,55.8,64.8,55.8"/>
		</g>
	</g>
	<path fill="#EE9D4A" d="M64.8,53.3c-1.4,0-2.5-1.1-2.5-2.5c0-1.4,1.1-2.5,2.5-2.5c4,0,8.9-7,8.9-11.3c0-3.4,0-3.9-5.1-3.9H38.1
		c-5.1,0-5.1,0.4-5.1,3.9c0,4.4,4.8,11.3,8.9,11.3c1.4,0,2.5,1.1,2.5,2.5c0,1.4-1.1,2.5-2.5,2.5c-7.1,0-14-9.4-14-16.4
		c0-8.3,4.8-9,10.2-9h30.5c5.4,0,10.2,0.7,10.2,9C78.7,43.9,71.8,53.3,64.8,53.3"/>
	<path fill="#FFDA65" d="M35.6,27.9c0.8,25.3,10.6,30.5,17.7,30.5c7.1,0,16.9-5.2,17.7-30.5H35.6z"/>
	<path fill="#FFDA65" d="M68.2,76.5c-1.5-4.5-7.6-7.9-14.9-7.9c-7.3,0-13.3,3.4-14.9,7.9H68.2z"/>
	<path fill="#B0B2B5" d="M73.7,76.1c0,1.4-1.1,2.5-2.5,2.5H35.6c-1.4,0-2.5-1.1-2.5-2.5c0-1.4,1.1-2.5,2.5-2.5h35.5
		C72.5,73.6,73.7,74.7,73.7,76.1"/>
	<g opacity="0.2">
		<g>
			<defs>
				<rect id="SVGID_5_" x="45.7" y="63.5" width="15.2" height="5.1"/>
			</defs>
			<clipPath id="SVGID_6_">
				<use xlink:href="#SVGID_5_"  overflow="visible"/>
			</clipPath>
			<path clip-path="url(#SVGID_6_)" fill="#231F20" d="M61,66c0,1.4-1.1,2.5-2.5,2.5H48.3c-1.4,0-2.5-1.1-2.5-2.5
				c0-1.4,1.1-2.5,2.5-2.5h10.2C59.8,63.5,61,64.6,61,66"/>
		</g>
	</g>
	<path fill="#FFDA65" d="M61,63.5c0,1.4-1.1,2.5-2.5,2.5H48.3c-1.4,0-2.5-1.1-2.5-2.5c0-1.4,1.1-2.5,2.5-2.5h10.2
		C59.8,60.9,61,62,61,63.5"/>
	<g opacity="0.2">
		<g>
			<defs>
				<rect id="SVGID_7_" x="33.1" y="30.5" width="40.6" height="5.1"/>
			</defs>
			<clipPath id="SVGID_8_">
				<use xlink:href="#SVGID_7_"  overflow="visible"/>
			</clipPath>
			<path clip-path="url(#SVGID_8_)" fill="#231F20" d="M73.7,33c0,1.4-1.1,2.5-2.5,2.5H35.6c-1.4,0-2.5-1.1-2.5-2.5
				c0-1.4,1.1-2.5,2.5-2.5h35.5C72.5,30.5,73.7,31.6,73.7,33"/>
		</g>
	</g>
	<path fill="#FFDA65" d="M73.7,30.5c0,1.4-1.1,2.5-2.5,2.5H35.6c-1.4,0-2.5-1.1-2.5-2.5c0-1.4,1.1-2.5,2.5-2.5h35.5
		C72.5,27.9,73.7,29,73.7,30.5"/>
</g>
</svg>
