<?xml version="1.0" encoding="utf-8"?>
<!-- Generator: Adobe Illustrator 18.1.1, SVG Export Plug-In . SVG Version: 6.00 Build 0)  -->
<svg version="1.0" id="Layer_1" xmlns="http://www.w3.org/2000/svg" xmlns:xlink="http://www.w3.org/1999/xlink" x="0px" y="0px"
	 viewBox="0 0 105.1 105.1" enable-background="new 0 0 105.1 105.1" xml:space="preserve">
<circle fill="#BC5459" cx="54.6" cy="54.6" r="50.6"/>
<circle fill="#1D394F" cx="50.6" cy="50.6" r="50.6"/>
<g>
	<g>
		<g opacity="0.2">
			<g>
				<defs>
					<rect id="SVGID_1_" x="24.7" y="35.4" width="51.8" height="27.9"/>
				</defs>
				<clipPath id="SVGID_2_">
					<use xlink:href="#SVGID_1_"  overflow="visible"/>
				</clipPath>
				<path clip-path="url(#SVGID_2_)" fill="#231F20" d="M50.6,63.4c-0.4,0-0.8-0.2-1.1-0.4L24.7,38.4l4.3-2.2l21.6,23.2l24.3-22.3
					c0.2,0.2-0.2-2.2,0-1.7c0.3,0.6,1.2,2.5,1.5,2.9L51.7,62.9C51.4,63.2,51,63.4,50.6,63.4"/>
			</g>
		</g>
		<path fill="#8D9092" d="M50.6,61.6c-0.4,0-0.8-0.2-1.1-0.4L24.7,38.4l4.6,0l21.3,19.4l24.3-22.3c0.2,0.2,0.5,0.8,0.7,1.3
			c0.3,0.6,0.6,1.2,0.9,1.7L51.7,61.2C51.4,61.5,51,61.6,50.6,61.6"/>
		<g opacity="0.2">
			<g>
				<defs>
					<rect id="SVGID_3_" x="33.3" y="35" width="33.5" height="27.5"/>
				</defs>
				<clipPath id="SVGID_4_">
					<use xlink:href="#SVGID_3_"  overflow="visible"/>
				</clipPath>
				<path clip-path="url(#SVGID_4_)" fill="#231F20" d="M65.7,37.4c-0.1-0.5-0.8-0.9-1.1-1.1c-0.2-0.1-1.3,2.2-1.6,2.2
					c-0.6,0-0.7,0.6-1,1.1L50.6,59.7L39.1,39.5c-0.3-0.5,0.2-3.3-0.4-3.3c-0.3,0-0.8-1.2-1.1-1.1c-0.3,0.2-1-0.5-1.1,0
					c-0.1,0.5-3.5-0.4-3.2,0l15,27.3c1.5-0.3,3.1-0.3,4.6-0.4l13.8-24.8C67,36.9,65.7,37.9,65.7,37.4"/>
			</g>
		</g>
		<path fill="#8D9092" d="M50.6,61.6c-0.6,0-1.1-0.3-1.4-0.9L36.5,38.4c-0.2-0.4,0.2-1.3,0.2-1.8c0.1-0.5,0.3-1,0.6-1.1
			c0.2-0.1,0.5-0.2,0.8-0.2c0.6,0,0.7,0.6,1,1.1l11.5,20.2L62,36.4c0.3-0.5,0.4-1.1,1-1.1c0.3,0,0.5,0.1,0.8,0.2
			c0.3,0.2,0.5,0.6,0.6,1.1c0.1,0.5,0.5,1.4,0.2,1.8L52,60.8C51.7,61.3,51.2,61.6,50.6,61.6"/>
		<g opacity="0.2">
			<g>
				<defs>
					<rect id="SVGID_5_" x="24.7" y="14.7" width="51.8" height="25.9"/>
				</defs>
				<clipPath id="SVGID_6_">
					<use xlink:href="#SVGID_5_"  overflow="visible"/>
				</clipPath>
				<path clip-path="url(#SVGID_6_)" fill="#231F20" d="M64.6,40.6h9.5l2.3-2.2c-1.1-13.3-12.3-23.7-25.9-23.7
					C58.3,14.7,64.6,26.3,64.6,40.6"/>
				<path clip-path="url(#SVGID_6_)" fill="#231F20" d="M50.6,14.7c-13.4,0-24.6,10.7-25.9,23.7l2.3,2.2h9.5
					C36.5,26.3,42.8,14.7,50.6,14.7"/>
				<path clip-path="url(#SVGID_6_)" fill="#231F20" d="M36.5,40.6h28c0-14.3-6.3-25.9-14-25.9C42.8,14.7,36.5,26.3,36.5,40.6"/>
			</g>
		</g>
		<path fill="#E1434C" d="M64.6,38.4h11.9c0-14.3-11.6-25.9-25.9-25.9C58.3,12.6,64.6,24.1,64.6,38.4"/>
		<path fill="#E1434C" d="M50.6,12.6c-14.3,0-25.9,11.6-25.9,25.9h11.9C36.5,24.1,42.8,12.6,50.6,12.6"/>
		<path fill="#FFFFFF" d="M36.5,38.4h28c0-14.3-6.3-25.9-14-25.9C42.8,12.6,36.5,24.1,36.5,38.4"/>
	</g>
	<g id="Gift_Box">
		<g id="body_23_">
			<g>
				<rect x="32.1" y="64.1" fill="#FEFBDE" width="35.6" height="21.4"/>
			</g>
		</g>
		<g id="cover_1_">
			<g>
				<rect x="29.8" y="58.2" fill="#EE9D4A" width="40.4" height="5.9"/>
			</g>
		</g>
		<g id="Rectangle_12_copy">
			<g>
				<rect x="47" y="58.2" fill="#E1434C" width="5.9" height="27.3"/>
			</g>
		</g>
	</g>
</g>
</svg>
