<?xml version="1.0" encoding="utf-8"?>
<!-- Generator: Adobe Illustrator 18.1.1, SVG Export Plug-In . SVG Version: 6.00 Build 0)  -->
<svg version="1.0" id="Layer_1" xmlns="http://www.w3.org/2000/svg" xmlns:xlink="http://www.w3.org/1999/xlink" x="0px" y="0px"
	 viewBox="0 0 105.1 105.1" enable-background="new 0 0 105.1 105.1" xml:space="preserve">
<circle fill="#BC5459" cx="54.6" cy="54.6" r="50.6"/>
<circle fill="#FEFBDE" cx="50.6" cy="50.6" r="50.6"/>
<g>
	<g>
		<g>
			<path fill="#F27170" d="M69.2,42.2c3.2-1.5,6.9-0.1,8.4,3l4.4,9.3c1.5,3.2,0.1,6.9-3,8.4l-9.3,4.4c-3.2,1.5-6.9,0.1-8.4-3
				L56.9,55c-1.5-3.2-0.1-6.9,3-8.4L69.2,42.2z"/>
			<path fill="#F27170" d="M55.7,71.2c0.6,1.2,2,1.7,3.2,1.2l16.2-7.6c1.2-0.6,1.7-2,1.2-3.2l0,0c-0.6-1.2-2-1.7-3.2-1.2l-16.2,7.6
				C55.6,68.5,55.1,70,55.7,71.2L55.7,71.2z"/>
			<path fill="#F27170" d="M47.9,68.3c0.6,1.2,2,1.7,3.2,1.2l16.2-7.6c1.2-0.6,1.7-2,1.2-3.2l0,0c-0.6-1.2-2-1.7-3.2-1.2L49.1,65
				C47.9,65.6,47.3,67,47.9,68.3L47.9,68.3z"/>
			<path fill="#F27170" d="M42.8,57.3c0.6,1.2,2,1.7,3.2,1.2l16.2-7.6c1.2-0.6,1.7-2,1.2-3.2l0,0c-0.6-1.2-2-1.7-3.2-1.2l-16.2,7.6
				C42.7,54.7,42.2,56.1,42.8,57.3L42.8,57.3z"/>
			<path fill="#F27170" d="M40.1,65.3c0.6,1.2,2,1.7,3.2,1.2l16.2-7.6c1.2-0.6,1.7-2,1.2-3.2l0,0c-0.6-1.2-2-1.7-3.2-1.2L41.3,62
				C40.1,62.6,39.5,64,40.1,65.3L40.1,65.3z"/>
			<path fill="#F27170" d="M91.9,53.9l-15.8,7.5c-2.1,1-4.7,0.1-5.7-2.1l-3-6.3c-1-2.1-0.1-4.7,2.1-5.7l15.8-7.5L91.9,53.9z"/>
			<path fill="#F27170" d="M67.9,41.6l-8.4,3.9c-1.8,0.8-3.9,0.1-4.8-1.7l-0.5-1.1c0,0,0-0.1-0.1-0.1l7.2-3.4L67.9,41.6z"/>
			<path fill="#F27170" d="M68,44.9L60,42c-0.8-0.3-1.4-0.8-1.8-1.4l5.4-2.5L74.4,42L68,44.9z"/>
		</g>
	</g>
	<g>
		<g>
			<path fill="#1D394F" d="M32,43.3c-3.2-1.5-6.9-0.1-8.4,3l-4.4,9.3c-1.5,3.2-0.1,6.9,3,8.4l9.3,4.4c3.2,1.5,6.9,0.1,8.4-3l4.4-9.3
				c1.5-3.2,0.1-6.9-3-8.4L32,43.3z"/>
			<path fill="#1D394F" d="M45.5,72.2c-0.6,1.2-2,1.7-3.2,1.2l-16.2-7.6c-1.2-0.6-1.7-2-1.2-3.2l0,0c0.6-1.2,2-1.7,3.2-1.2L44.4,69
				C45.6,69.6,46.1,71,45.5,72.2L45.5,72.2z"/>
			<path fill="#1D394F" d="M53.3,69.3c-0.6,1.2-2,1.7-3.2,1.2l-16.2-7.6c-1.2-0.6-1.7-2-1.2-3.2l0,0c0.6-1.2,2-1.7,3.2-1.2l16.2,7.6
				C53.3,66.7,53.9,68.1,53.3,69.3L53.3,69.3z"/>
			<path fill="#1D394F" d="M58.4,58.4c-0.6,1.2-2,1.7-3.2,1.2L39,51.9c-1.2-0.6-1.7-2-1.2-3.2l0,0c0.6-1.2,2-1.7,3.2-1.2l16.2,7.6
				C58.5,55.7,59,57.2,58.4,58.4L58.4,58.4z"/>
			<path fill="#1D394F" d="M61.1,66.3c-0.6,1.2-2,1.7-3.2,1.2l-16.2-7.6c-1.2-0.6-1.7-2-1.2-3.2l0,0c0.6-1.2,2-1.7,3.2-1.2l16.2,7.6
				C61.1,63.7,61.7,65.1,61.1,66.3L61.1,66.3z"/>
			<path fill="#1D394F" d="M9.2,54.3L25,62.5c2.1,1,4.7,0.1,5.7-2l3-6.3c1-2.1,0.1-4.7-2-5.7l-15.8-8.1L9.2,54.3z"/>
			<path fill="#1D394F" d="M33.3,42.6l8.4,4c1.8,0.8,3.9,0.1,4.8-1.7l0.5-1.1c0,0,0-0.1,0.1-0.1l-7.2-3.4L33.3,42.6z"/>
			<path fill="#1D394F" d="M33.2,46l8-2.9c0.8-0.3,1.4-0.8,1.8-1.4l-5.4-2.5L26.9,43L33.2,46z"/>
		</g>
	</g>
</g>
</svg>
