<?xml version="1.0" encoding="utf-8"?>
<!-- Generator: Adobe Illustrator 18.1.1, SVG Export Plug-In . SVG Version: 6.00 Build 0)  -->
<svg version="1.0" id="Layer_1" xmlns="http://www.w3.org/2000/svg" xmlns:xlink="http://www.w3.org/1999/xlink" x="0px" y="0px"
	 viewBox="0 0 421.3 261.9" enable-background="new 0 0 421.3 261.9" xml:space="preserve">
<circle fill="#BC5459" cx="227.1" cy="94.2" r="89.7"/>
<circle fill="#FEFBDE" cx="219.3" cy="89.7" r="89.7"/>
<path fill="#1B6191" d="M291.6,89.7c0,40-32.4,72.4-72.4,72.4c-40,0-72.4-32.4-72.4-72.4c0-40,32.4-72.4,72.4-72.4
	C259.2,17.4,291.6,49.8,291.6,89.7"/>
<g>
	<path fill="#F38473" d="M242.6,81.7c0,0-13.3,38.8-61.4,14.5C124.7,67.5,150.8,13,150.8,13s-30.1,52.8,21,90
		c17.8,12.9,45.2,17.5,57.3,9.2C239.9,104.8,244,95.1,242.6,81.7z"/>
	<path fill="#F38473" d="M222.1,83.6c0,0-41.9,7.9-55.3-38.6c0,0-2.5,39.1,51.8,52.7l10.2-1.4C228.8,96.3,232.8,80.1,222.1,83.6z"/>
	<g>
		<polygon fill="#134A89" enable-background="new    " points="242.9,67.7 250.8,50.8 250.6,69.5 265.1,57.7 256.8,74.5 275,70.1 
			260.3,81.6 278.6,85.6 260.3,89.6 275,101.1 256.8,96.7 265.1,113.5 250.6,101.7 250.8,120.4 242.9,103.5 234.9,120.4 
			235.1,101.7 220.6,113.5 228.9,96.7 210.7,101.1 225.4,89.6 207.1,85.6 225.4,81.6 210.7,70.1 228.9,74.5 220.6,57.7 235.1,69.5 
			234.9,50.8 		"/>
		<path fill="#FFFFFF" d="M242.9,66.2c-1-2.1-7.4-15.7-7.4-15.7l-1.2,0.3c0,0,0.2,15,0.2,17.4c-1.8-1.5-13.5-11-13.5-11l-1,0.8
			c0,0,6.7,13.5,7.7,15.6c-2.3-0.5-16.9-4-16.9-4l-0.5,1.1c0,0,11.8,9.2,13.7,10.7c-2.3,0.5-17,3.7-17,3.7v1.3c0,0,14.7,3.2,17,3.7
			c-1.9,1.4-13.7,10.7-13.7,10.7l0.5,1.1c0,0,14.6-3.5,16.9-4c-1,2.1-7.7,15.6-7.7,15.6l1,0.8c0,0,11.6-9.5,13.5-11
			c0,2.4-0.2,17.4-0.2,17.4l1.2,0.3c0,0,6.4-13.6,7.4-15.7c1,2.1,7.4,15.7,7.4,15.7l1.2-0.3c0,0-0.2-15-0.2-17.4
			c1.8,1.5,13.5,11,13.5,11l1-0.8c0,0-6.7-13.5-7.7-15.6c2.3,0.5,16.9,4,16.9,4l0.5-1.1c0,0-11.8-9.2-13.7-10.7
			c2.3-0.5,17-3.7,17-3.7V85c0,0-14.7-3.2-17-3.7c1.9-1.4,13.7-10.7,13.7-10.7l-0.5-1.1c0,0-14.6,3.5-16.9,4
			c1-2.1,7.7-15.6,7.7-15.6l-1-0.8c0,0-11.6,9.5-13.5,11c0-2.4,0.2-17.4,0.2-17.4l-1.2-0.3C250.2,50.5,243.9,64.1,242.9,66.2z
			 M243.4,68c0,0,4.9-10.5,6.7-14.3c0,4.2-0.2,17.1-0.2,17.1s10-8.2,13.3-10.8c-1.9,3.8-7.6,15.4-7.6,15.4s12.6-3,16.7-4
			C269,74,258.8,82,258.8,82s12.7,2.7,16.8,3.6c-4.1,0.9-16.8,3.6-16.8,3.6s10.2,8,13.5,10.5c-4.1-1-16.7-4-16.7-4
			s5.7,11.6,7.6,15.4c-3.2-2.7-13.3-10.8-13.3-10.8s0.1,13,0.2,17.1c-1.8-3.8-7.3-15.5-7.3-15.5s-5.5,11.7-7.3,15.5
			c0-4.2,0.2-17.1,0.2-17.1s-10,8.2-13.3,10.8c1.9-3.8,7.6-15.4,7.6-15.4s-12.6,3-16.7,4c3.3-2.6,13.5-10.5,13.5-10.5
			s-12.7-2.7-16.8-3.6c4.1-0.9,16.8-3.6,16.8-3.6s-10.2-8-13.5-10.5c4.1,1,16.7,4,16.7,4s-5.7-11.6-7.6-15.4
			c3.3,2.6,13.3,10.8,13.3,10.8s-0.1-13-0.2-17.1c1.8,3.8,7.3,15.5,7.3,15.5L243.4,68z"/>
		<polygon fill="#FEDA5E" points="243,73.8 248.3,62.5 248.1,75 257.8,67.1 252.3,78.3 264.4,75.4 254.5,83.1 266.7,85.7 
			254.5,88.3 264.4,96 252.3,93.1 257.8,104.3 248.1,96.4 248.3,108.8 243,97.6 237.7,108.8 237.8,96.4 228.2,104.3 233.7,93.1 
			221.6,96 231.4,88.3 219.2,85.7 231.4,83.1 221.6,75.4 233.7,78.3 228.2,67.1 237.8,75 237.7,62.5 		"/>
	</g>
	<g>
		<g>
			<path fill="#62454E" d="M160.9,107.2L160.9,107.2c-0.1,0-3.1,2.1-4.6,3.1c-1.5-1-4.5-3-4.5-3l-0.1,0c-1.1-0.6-2.4-0.5-3.4,0.2
				c-1.1,0.8-1.4,1.8-1.4,2.5c0,0,0,8.4,0,8.4c0,1.1,0.5,1.8,0.9,2.2c0.4,0.4,1.1,0.9,2.3,0.9c1.8,0,3.1-1.3,3.2-3.1
				c0,0,0-1.3,0-2.5c0.3,0.2,0.9,0.6,0.9,0.6l-0.2-0.2c0.8,0.7,1.6,1,2.5,1c0.8,0,1.6-0.3,2.4-1l-0.2,0.1c0,0,0.6-0.4,0.9-0.6
				c0,1.2,0,2.5,0,2.5c0,1.8,1.3,3.1,3.1,3.1c1.9,0,3.1-1.3,3.1-3.1v-8.4l0,0c0-1.1-0.6-2-1.5-2.6
				C163.3,106.6,162,106.6,160.9,107.2z"/>
		</g>
		<g>
			<path fill="#62454E" d="M177.1,107.3L177.1,107.3c0,0-3,2-4.4,3c-1.5-1-4.5-3-4.5-3c-1.5-1-3.3-0.6-4.3,0.9
				c-0.4,0.6-0.6,1.2-0.6,1.8c0,1,0.5,1.9,1.4,2.6c0,0,3.5,2.3,4.8,3.2c0,1.1,0,2.5,0,2.5c0,1.8,1.3,3.1,3.1,3.1
				c1.8,0,3.1-1.3,3.2-3.1v0c0,0,0-1.4,0-2.5c1.3-0.9,4.7-3.2,4.7-3.2c0.9-0.6,1.4-1.6,1.4-2.6c0-0.6-0.2-1.2-0.6-1.8
				C180.5,106.6,178.7,106.3,177.1,107.3z"/>
		</g>
		<g>
			<path fill="#62454E" d="M185.8,106.8L185.8,106.8c-3.9,0-6.3,2.3-6.3,6.3v2.1c0,3.9,2.3,6.3,6.3,6.3h8.3c2.5,0,4.2-1.6,4.2-4.2
				v-2.1c0-1.2-0.4-2.2-1-2.9c0.6-0.6,1-1.4,1-2.3c0,0,0,0,0,0c0-1.1-0.5-1.8-0.9-2.2c-0.4-0.4-1.1-0.9-2.3-0.9L185.8,106.8z"/>
		</g>
		<g>
			<path fill="#62454E" d="M201.2,106.7c-1.6,0-2.9,1-3.4,2.6l0,0.1l-1.9,8.6v0.2c0,1.1,0.4,1.8,0.8,2.2c0.6,0.6,1.4,1,2.3,1
				c1.6,0,2.8-1,3.2-2.6l0-0.1c0,0,0.2-0.7,0.3-1.5c1.7,0,4,0,5.6,0c0.2,0.8,0.4,1.5,0.4,1.5c0.4,1.6,1.7,2.6,3.2,2.6
				c1.8,0,3-1.3,3-3.2V118l-2-8.6l0,0.1c-0.3-1.7-1.6-2.8-3.3-2.8H201.2z M208.8,110.9c0.1,0.3,0.3,1.2,0.5,2.1c-0.8,0-7,0-8,0
				c0.2-0.9,0.4-1.8,0.4-2.1C202.7,110.9,207.8,110.9,208.8,110.9z"/>
			<polygon fill="#62454E" points="209,108.8 200,108.8 198.5,115.1 212.2,115.1 210.6,108.8 			"/>
		</g>
		<g>
			<path fill="#62454E" d="M226.3,107.2L226.3,107.2c-0.1,0-3.1,2.1-4.6,3.1c-1.5-1-4.5-3-4.5-3l-0.1,0c-1.1-0.6-2.4-0.5-3.4,0.2
				c-1.1,0.8-1.4,1.8-1.4,2.5c0,0,0,8.4,0,8.4c0,1.1,0.5,1.8,0.9,2.2c0.4,0.4,1.1,0.9,2.3,0.9c1.8,0,3.1-1.3,3.2-3.1
				c0,0,0-1.3,0-2.5c0.3,0.2,0.9,0.6,0.9,0.6l-0.2-0.2c0.8,0.7,1.6,1,2.5,1c0.8,0,1.6-0.3,2.4-1l-0.2,0.1c0,0,0.6-0.4,0.9-0.6
				c0,1.2,0,2.5,0,2.5c0,1.8,1.3,3.1,3.1,3.1c1.9,0,3.1-1.3,3.1-3.1v-8.4l0,0c0-1.1-0.6-2-1.5-2.6
				C228.6,106.6,227.4,106.6,226.3,107.2z"/>
		</g>
		<g>
			<path fill="#62454E" d="M231.8,106.7c-1.9,0-3.2,1.3-3.2,3.2v8.4c0,1.9,1.3,3.2,3.2,3.2h12.5c1.9,0,3.2-1.3,3.2-3.2
				c0-1.5-0.9-2.7-2.3-3c0.1-0.4,0.2-0.7,0.2-1.1c0-0.4-0.1-0.8-0.2-1.1c1.4-0.3,2.3-1.5,2.3-3c0-1.9-1.3-3.2-3.2-3.2H231.8z"/>
		</g>
		<g>
			<path fill="#62454E" d="M245,109.8v8.4c0,1.9,1.3,3.2,3.2,3.2h9.4c2,0,3.5-0.6,4.6-1.7c1.1-1.1,1.7-2.7,1.7-4.6V113
				c0-2-0.6-3.5-1.7-4.6c-1.1-1.1-2.7-1.7-4.6-1.7l-9.4,0C246.4,106.7,245.1,108,245,109.8z M249.3,111c1.7,0,8.3,0,8.3,0
				c0.8,0,1.4,0.2,1.6,0.4c0.3,0.3,0.4,0.8,0.4,1.6v2.1c0,0.8-0.2,1.4-0.4,1.6c-0.3,0.3-1.1,0.4-1.6,0.4c0,0-6.6,0-8.3,0
				C249.3,115.8,249.3,112.4,249.3,111z"/>
			<path fill="#62454E" d="M257.6,108.8h-10.5l0,10.5h10.4c1.6,0,2.5-0.6,3.1-1.1c0.5-0.5,1.1-1.5,1.1-3.1V113
				C261.8,110.5,260.1,108.8,257.6,108.8L257.6,108.8L257.6,108.8z M257.5,113C257.5,113,257.6,113,257.5,113c0,0,0,2,0,2
				c0,0-3.9,0-6.2,0c0-0.9,0-1.1,0-2C253.7,113,257.5,113,257.5,113z"/>
		</g>
		<g>
			<path fill="#62454E" d="M264.5,106.7c-1.9,0-3.2,1.3-3.2,3.2v8.4c0,1.9,1.3,3.2,3.2,3.2h12.5c1.9,0,3.2-1.3,3.2-3.2
				c0-1.5-0.9-2.7-2.3-3c0.1-0.4,0.2-0.7,0.2-1.1c0-0.4-0.1-0.8-0.2-1.1c1.4-0.3,2.3-1.5,2.3-3c0-1.9-1.3-3.2-3.2-3.2H264.5z"/>
		</g>
		<g>
			<path fill="#62454E" d="M293.1,106.8c-0.6,0.1-1.4,0.3-2.1,1.2l0,0c0,0-2.1,3-3.7,5.2c-1.6-2.3-3.8-5.4-3.8-5.4l-0.1-0.1
				c-1.3-1.3-3.1-1.3-4.4-0.1c-1.2,1.1-1.4,2.7-0.6,4l0,0.1l6.3,8.5l0.2,0.2c0.8,0.7,1.6,1,2.5,1c0.8,0,1.5-0.3,2.3-1l0.2-0.2
				l6.2-8.4l0,0c1.1-1.4,0.8-3.2-0.6-4.3C294.5,106.8,293.6,106.7,293.1,106.8z"/>
		</g>
		<path fill="#62C5C6" d="M163.7,109.9v8.4c0,0.7-0.3,1-1,1c-0.7,0-1-0.3-1-1l0-6.5l-4.2,2.8c-0.4,0.3-0.8,0.5-1,0.5
			c-0.3,0-0.6-0.2-1-0.5l-4.2-2.8v6.4c0,0.7-0.4,1-1.1,1c-0.7,0-1-0.3-1-1v-8.3c0-0.3,0.2-0.5,0.5-0.8c0.3-0.3,0.7-0.3,1.1-0.1
			l5.6,3.7l5.6-3.7c0.5-0.3,0.9-0.3,1.2-0.1C163.5,109.2,163.6,109.5,163.7,109.9z"/>
		<path fill="#62C5C6" d="M179.4,110.8l-5.7,3.8l0,3.6c0,0.7-0.4,1.1-1,1.1c-0.7,0-1-0.3-1-1l0-3.6l-5.7-3.8
			c-0.6-0.4-0.7-0.9-0.3-1.4c0.4-0.6,0.9-0.7,1.4-0.3l5.6,3.7l5.6-3.7c0.6-0.4,1.1-0.3,1.4,0.3C180.1,109.9,180,110.4,179.4,110.8z"
			/>
		<path fill="#FFFFFF" d="M185.8,108.9l9.4,0c0.7,0,1,0.3,1,1c0,0.7-0.3,1-1,1h-9.4c-1.4,0-2.1,0.7-2.1,2.1v2.1
			c0,1.4,0.7,2.1,2.1,2.1h8.3v-2.1H189c-0.7,0-1-0.3-1-1.1c0-0.7,0.4-1,1.1-1h5.2c1.4,0,2.1,0.7,2.1,2.1v2.1c0,1.4-0.7,2.1-2.1,2.1
			h-8.3c-2.8,0-4.2-1.4-4.2-4.2v-2.1C181.7,110.3,183.1,108.9,185.8,108.9z"/>
		<path fill="#FFFFFF" d="M198,118.3l1.8-8.4c0.2-0.7,0.6-1,1.3-1h8.4c0.7,0,1.1,0.4,1.2,1.1l1.9,8.3c0,0.7-0.3,1-0.9,1
			c-0.6,0-1-0.4-1.2-1.1l-0.8-3.1h-9l-0.7,3.1c-0.2,0.7-0.6,1-1.2,1C198.4,119.3,198,119,198,118.3z M209.5,113L209,111h-7.3
			l-0.5,2.1H209.5z"/>
		<path fill="#FFFFFF" d="M229,109.9v8.4c0,0.7-0.3,1-1,1c-0.7,0-1-0.3-1-1l0-6.5l-4.2,2.8c-0.4,0.3-0.8,0.5-1.1,0.5
			c-0.3,0-0.6-0.2-1-0.5l-4.2-2.8v6.4c0,0.7-0.4,1-1.1,1c-0.7,0-1-0.3-1-1v-8.3c0-0.3,0.2-0.5,0.5-0.8c0.3-0.3,0.7-0.3,1.1-0.1
			l5.6,3.7l5.6-3.7c0.5-0.3,0.9-0.3,1.2-0.1C228.8,109.2,229,109.5,229,109.9z"/>
		<path fill="#FFFFFF" d="M230.8,118.3v-8.4c0-0.7,0.3-1,1-1h12.5c0.7,0,1,0.4,1,1.1c0,0.7-0.3,1.1-1,1.1h-11.5v2.1h9.4
			c0.7,0,1,0.3,1,1c0,0.7-0.3,1-1,1h-9.4v2.1h11.5c0.7,0,1,0.3,1,1c0,0.7-0.3,1-1,1h-12.5C231.1,119.3,230.8,119,230.8,118.3z"/>
		<path fill="#62C5C6" d="M261.8,113.1v2.1c0,2.8-1.4,4.2-4.2,4.2h-9.4c-0.7,0-1-0.4-1-1.1v-8.3c0-0.7,0.4-1,1-1l9.4,0
			C260.4,108.9,261.8,110.3,261.8,113.1z M249.2,117.2h8.3c1.4,0,2.1-0.7,2.1-2.1v-2.1c0-1.4-0.7-2.1-2.1-2.1h-8.3L249.2,117.2z"/>
		<path fill="#62C5C6" d="M263.5,118.3v-8.4c0-0.7,0.3-1,1-1h12.5c0.7,0,1,0.4,1,1.1c0,0.7-0.3,1.1-1,1.1h-11.5v2.1h9.4
			c0.7,0,1,0.3,1,1c0,0.7-0.3,1-1,1h-9.4v2.1h11.5c0.7,0,1,0.3,1,1c0,0.7-0.3,1-1,1h-12.5C263.8,119.3,263.5,119,263.5,118.3z"/>
		<path fill="#62C5C6" d="M294.3,110.6l-6,8.2c-0.4,0.3-0.8,0.5-1,0.5c-0.3,0-0.6-0.2-1-0.5l-6.1-8.2c-0.3-0.5-0.2-0.9,0.3-1.4
			c0.5-0.4,0.9-0.4,1.4,0.1l5.5,7.7l5.4-7.6c0.4-0.6,0.9-0.6,1.5-0.2C294.6,109.6,294.6,110.1,294.3,110.6z"/>
	</g>
</g>
<g>
	<polygon fill="#BC5459" points="410.9,234.5 400.1,206.5 410.9,178.6 421.3,151.6 421.3,150.6 7.2,150.6 18,178.6 28.8,206.5 
		18,234.5 7.4,261.9 421.3,261.9 421.3,261.4 	"/>
</g>
<g>
	<g>
		<polygon fill="#1D394F" points="403.7,227.7 392.9,198.4 403.7,169.2 414.1,141 414.1,139.9 0,139.9 10.8,169.2 21.6,198.4 
			10.8,227.7 0.2,256.4 414.1,256.4 414.1,255.9 		"/>
	</g>
</g>
<g>
	<path fill="#26BEC9" d="M53.5,167h2.8v12.7h-2.8V167z"/>
	<path fill="#26BEC9" d="M58.5,171h2.6v1.2h0c0.1-0.2,0.2-0.3,0.4-0.5c0.2-0.2,0.3-0.3,0.6-0.4s0.5-0.2,0.7-0.3s0.6-0.1,0.9-0.1
		c0.7,0,1.2,0.1,1.7,0.3c0.4,0.2,0.7,0.5,1,0.9c0.2,0.4,0.4,0.8,0.5,1.3s0.1,1,0.1,1.6v4.8h-2.7v-4.3c0-0.3,0-0.5,0-0.8
		c0-0.3-0.1-0.5-0.2-0.7c-0.1-0.2-0.2-0.4-0.4-0.6c-0.2-0.1-0.5-0.2-0.8-0.2s-0.6,0.1-0.8,0.2c-0.2,0.1-0.4,0.3-0.5,0.5
		c-0.1,0.2-0.2,0.4-0.2,0.7c0,0.3-0.1,0.5-0.1,0.8v4.4h-2.7V171z"/>
	<path fill="#26BEC9" d="M80.1,173.8c-0.1-0.2-0.3-0.4-0.6-0.5s-0.5-0.2-0.8-0.2c-0.7,0-1.2,0.2-1.6,0.6c-0.4,0.4-0.6,0.9-0.6,1.6
		s0.2,1.2,0.6,1.6c0.4,0.4,0.9,0.6,1.6,0.6c0.3,0,0.6-0.1,0.8-0.2c0.2-0.1,0.4-0.3,0.6-0.5l1.8,1.9c-0.4,0.4-0.9,0.7-1.5,0.9
		s-1.1,0.3-1.6,0.3c-0.7,0-1.3-0.1-1.9-0.3c-0.6-0.2-1.1-0.5-1.5-0.9c-0.4-0.4-0.8-0.9-1-1.4c-0.3-0.6-0.4-1.2-0.4-1.9
		c0-0.7,0.1-1.3,0.4-1.9c0.3-0.6,0.6-1,1-1.4c0.4-0.4,1-0.7,1.5-0.9c0.6-0.2,1.2-0.3,1.9-0.3c0.5,0,1.1,0.1,1.6,0.3s1.1,0.5,1.5,0.9
		L80.1,173.8z"/>
	<path fill="#26BEC9" d="M82.5,175.4c0-0.7,0.1-1.3,0.4-1.9c0.3-0.6,0.6-1,1-1.4s1-0.7,1.5-0.9c0.6-0.2,1.2-0.3,1.9-0.3
		c0.7,0,1.3,0.1,1.9,0.3c0.6,0.2,1.1,0.5,1.5,0.9s0.8,0.9,1,1.4c0.3,0.6,0.4,1.2,0.4,1.9c0,0.7-0.1,1.3-0.4,1.9
		c-0.3,0.6-0.6,1-1,1.4c-0.4,0.4-1,0.7-1.5,0.9c-0.6,0.2-1.2,0.3-1.9,0.3c-0.7,0-1.3-0.1-1.9-0.3c-0.6-0.2-1.1-0.5-1.5-0.9
		c-0.4-0.4-0.8-0.9-1-1.4C82.6,176.7,82.5,176.1,82.5,175.4z M85.2,175.4c0,0.7,0.2,1.2,0.6,1.6c0.4,0.4,0.9,0.6,1.6,0.6
		c0.7,0,1.2-0.2,1.6-0.6c0.4-0.4,0.6-0.9,0.6-1.6s-0.2-1.2-0.6-1.6c-0.4-0.4-0.9-0.6-1.6-0.6c-0.7,0-1.2,0.2-1.6,0.6
		C85.4,174.2,85.2,174.7,85.2,175.4z"/>
	<path fill="#26BEC9" d="M93.8,171h2.6v1.2h0c0.1-0.2,0.2-0.3,0.4-0.5c0.2-0.2,0.3-0.3,0.6-0.4s0.5-0.2,0.7-0.3s0.6-0.1,0.9-0.1
		c0.7,0,1.2,0.1,1.7,0.3c0.4,0.2,0.7,0.5,1,0.9c0.2,0.4,0.4,0.8,0.5,1.3s0.1,1,0.1,1.6v4.8h-2.7v-4.3c0-0.3,0-0.5,0-0.8
		c0-0.3-0.1-0.5-0.2-0.7c-0.1-0.2-0.2-0.4-0.4-0.6c-0.2-0.1-0.5-0.2-0.8-0.2s-0.6,0.1-0.8,0.2c-0.2,0.1-0.4,0.3-0.5,0.5
		c-0.1,0.2-0.2,0.4-0.2,0.7c0,0.3-0.1,0.5-0.1,0.8v4.4h-2.7V171z"/>
	<path fill="#26BEC9" d="M106.9,180.4c0,0.6-0.1,1.1-0.2,1.5c-0.1,0.5-0.3,0.8-0.5,1.2c-0.3,0.3-0.6,0.6-1,0.7
		c-0.4,0.2-0.9,0.3-1.5,0.3c-0.2,0-0.4,0-0.6,0c-0.2,0-0.4-0.1-0.6-0.1l0.1-2.4c0.2,0.1,0.5,0.2,0.7,0.2c0.2,0,0.4-0.1,0.5-0.2
		c0.1-0.1,0.2-0.3,0.3-0.4c0.1-0.2,0.1-0.4,0.1-0.6c0-0.2,0-0.4,0-0.6V171h2.7V180.4z M104,168.3c0-0.4,0.2-0.8,0.5-1.1
		c0.3-0.3,0.7-0.5,1.1-0.5c0.4,0,0.8,0.2,1.1,0.5c0.3,0.3,0.5,0.7,0.5,1.1s-0.2,0.8-0.5,1.1c-0.3,0.3-0.7,0.5-1.1,0.5
		c-0.4,0-0.8-0.2-1.1-0.5C104.1,169.1,104,168.7,104,168.3z"/>
	<path fill="#26BEC9" d="M117.3,179.8h-2.6v-1.2h0c-0.1,0.2-0.2,0.3-0.4,0.5s-0.3,0.3-0.5,0.4c-0.2,0.1-0.5,0.2-0.7,0.3
		c-0.3,0.1-0.6,0.1-0.9,0.1c-0.7,0-1.2-0.1-1.7-0.3c-0.4-0.2-0.8-0.5-1-0.9s-0.4-0.8-0.5-1.3s-0.1-1-0.1-1.6V171h2.7v4.3
		c0,0.3,0,0.5,0,0.8c0,0.3,0.1,0.5,0.2,0.7c0.1,0.2,0.2,0.4,0.4,0.6s0.5,0.2,0.8,0.2c0.3,0,0.6-0.1,0.8-0.2c0.2-0.1,0.4-0.3,0.5-0.5
		c0.1-0.2,0.2-0.4,0.2-0.7c0-0.3,0.1-0.5,0.1-0.8V171h2.7V179.8z"/>
	<path fill="#26BEC9" d="M119.2,171h2.6v1.2h0c0.1-0.2,0.2-0.3,0.4-0.5c0.2-0.2,0.3-0.3,0.6-0.4s0.5-0.2,0.7-0.3s0.6-0.1,0.9-0.1
		c0.7,0,1.2,0.1,1.7,0.3c0.4,0.2,0.7,0.5,1,0.9c0.2,0.4,0.4,0.8,0.5,1.3s0.1,1,0.1,1.6v4.8h-2.7v-4.3c0-0.3,0-0.5,0-0.8
		c0-0.3-0.1-0.5-0.2-0.7c-0.1-0.2-0.2-0.4-0.4-0.6c-0.2-0.1-0.5-0.2-0.8-0.2s-0.6,0.1-0.8,0.2c-0.2,0.1-0.4,0.3-0.5,0.5
		c-0.1,0.2-0.2,0.4-0.2,0.7c0,0.3-0.1,0.5-0.1,0.8v4.4h-2.7V171z"/>
	<path fill="#26BEC9" d="M135.4,173.8c-0.1-0.2-0.3-0.4-0.6-0.5s-0.5-0.2-0.8-0.2c-0.7,0-1.2,0.2-1.6,0.6c-0.4,0.4-0.6,0.9-0.6,1.6
		s0.2,1.2,0.6,1.6c0.4,0.4,0.9,0.6,1.6,0.6c0.3,0,0.6-0.1,0.8-0.2c0.2-0.1,0.4-0.3,0.6-0.5l1.8,1.9c-0.4,0.4-0.9,0.7-1.5,0.9
		s-1.1,0.3-1.6,0.3c-0.7,0-1.3-0.1-1.9-0.3c-0.6-0.2-1.1-0.5-1.5-0.9c-0.4-0.4-0.8-0.9-1-1.4c-0.3-0.6-0.4-1.2-0.4-1.9
		c0-0.7,0.1-1.3,0.4-1.9c0.3-0.6,0.6-1,1-1.4c0.4-0.4,1-0.7,1.5-0.9c0.6-0.2,1.2-0.3,1.9-0.3c0.5,0,1.1,0.1,1.6,0.3s1.1,0.5,1.5,0.9
		L135.4,173.8z"/>
	<path fill="#26BEC9" d="M144.1,173.2h-2.4v2.9c0,0.2,0,0.5,0,0.7c0,0.2,0.1,0.4,0.2,0.5c0.1,0.1,0.2,0.3,0.4,0.3
		c0.2,0.1,0.4,0.1,0.7,0.1c0.1,0,0.3,0,0.6,0c0.2,0,0.4-0.1,0.5-0.2v2.2c-0.3,0.1-0.6,0.2-0.9,0.2c-0.3,0-0.6,0.1-1,0.1
		c-0.5,0-0.9,0-1.3-0.1c-0.4-0.1-0.7-0.2-1-0.5s-0.5-0.5-0.7-0.8s-0.2-0.7-0.2-1.2v-4.2h-1.7V171h1.7v-2.6h2.7v2.6h2.4V173.2z"/>
	<path fill="#26BEC9" d="M145.3,168.3c0-0.4,0.2-0.8,0.5-1.1c0.3-0.3,0.7-0.5,1.1-0.5c0.4,0,0.8,0.2,1.1,0.5
		c0.3,0.3,0.5,0.7,0.5,1.1s-0.2,0.8-0.5,1.1c-0.3,0.3-0.7,0.5-1.1,0.5c-0.4,0-0.8-0.2-1.1-0.5C145.5,169.1,145.3,168.7,145.3,168.3z
		 M145.5,171h2.7v8.7h-2.7V171z"/>
	<path fill="#26BEC9" d="M149.9,175.4c0-0.7,0.1-1.3,0.4-1.9c0.3-0.6,0.6-1,1-1.4s1-0.7,1.5-0.9c0.6-0.2,1.2-0.3,1.9-0.3
		c0.7,0,1.3,0.1,1.9,0.3c0.6,0.2,1.1,0.5,1.5,0.9s0.8,0.9,1,1.4c0.3,0.6,0.4,1.2,0.4,1.9c0,0.7-0.1,1.3-0.4,1.9
		c-0.3,0.6-0.6,1-1,1.4c-0.4,0.4-1,0.7-1.5,0.9c-0.6,0.2-1.2,0.3-1.9,0.3c-0.7,0-1.3-0.1-1.9-0.3c-0.6-0.2-1.1-0.5-1.5-0.9
		c-0.4-0.4-0.8-0.9-1-1.4C150,176.7,149.9,176.1,149.9,175.4z M152.6,175.4c0,0.7,0.2,1.2,0.6,1.6c0.4,0.4,0.9,0.6,1.6,0.6
		c0.7,0,1.2-0.2,1.6-0.6c0.4-0.4,0.6-0.9,0.6-1.6s-0.2-1.2-0.6-1.6c-0.4-0.4-0.9-0.6-1.6-0.6c-0.7,0-1.2,0.2-1.6,0.6
		C152.7,174.2,152.6,174.7,152.6,175.4z"/>
	<path fill="#26BEC9" d="M161.2,171h2.6v1.2h0c0.1-0.2,0.2-0.3,0.4-0.5c0.2-0.2,0.3-0.3,0.6-0.4s0.5-0.2,0.7-0.3s0.6-0.1,0.9-0.1
		c0.7,0,1.2,0.1,1.7,0.3c0.4,0.2,0.7,0.5,1,0.9c0.2,0.4,0.4,0.8,0.5,1.3s0.1,1,0.1,1.6v4.8h-2.7v-4.3c0-0.3,0-0.5,0-0.8
		c0-0.3-0.1-0.5-0.2-0.7c-0.1-0.2-0.2-0.4-0.4-0.6c-0.2-0.1-0.5-0.2-0.8-0.2s-0.6,0.1-0.8,0.2c-0.2,0.1-0.4,0.3-0.5,0.5
		c-0.1,0.2-0.2,0.4-0.2,0.7c0,0.3-0.1,0.5-0.1,0.8v4.4h-2.7V171z"/>
	<path fill="#26BEC9" d="M175.8,171h2.9l1.8,5.5h0l1.5-5.5h3l1.6,5.5h0l1.6-5.5h2.7l-3.1,8.7h-2.7l-1.8-5.8h0l-1.6,5.8H179
		L175.8,171z"/>
	<path fill="#26BEC9" d="M191.6,168.3c0-0.4,0.2-0.8,0.5-1.1c0.3-0.3,0.7-0.5,1.1-0.5c0.4,0,0.8,0.2,1.1,0.5
		c0.3,0.3,0.5,0.7,0.5,1.1s-0.2,0.8-0.5,1.1c-0.3,0.3-0.7,0.5-1.1,0.5c-0.4,0-0.8-0.2-1.1-0.5C191.8,169.1,191.6,168.7,191.6,168.3z
		 M191.8,171h2.7v8.7h-2.7V171z"/>
	<path fill="#26BEC9" d="M202.4,173.2h-2.4v2.9c0,0.2,0,0.5,0,0.7c0,0.2,0.1,0.4,0.2,0.5c0.1,0.1,0.2,0.3,0.4,0.3
		c0.2,0.1,0.4,0.1,0.7,0.1c0.1,0,0.3,0,0.6,0c0.2,0,0.4-0.1,0.5-0.2v2.2c-0.3,0.1-0.6,0.2-0.9,0.2c-0.3,0-0.6,0.1-1,0.1
		c-0.5,0-0.9,0-1.3-0.1c-0.4-0.1-0.7-0.2-1-0.5s-0.5-0.5-0.7-0.8s-0.2-0.7-0.2-1.2v-4.2h-1.7V171h1.7v-2.6h2.7v2.6h2.4V173.2z"/>
	<path fill="#26BEC9" d="M206.5,166.2v6h0c0.1-0.2,0.2-0.3,0.3-0.5c0.1-0.2,0.3-0.3,0.5-0.4c0.2-0.1,0.4-0.2,0.7-0.3
		s0.6-0.1,0.9-0.1c0.7,0,1.2,0.1,1.7,0.3c0.4,0.2,0.7,0.5,1,0.9c0.2,0.4,0.4,0.8,0.5,1.3s0.1,1,0.1,1.6v4.8h-2.7v-4.3
		c0-0.3,0-0.5,0-0.8c0-0.3-0.1-0.5-0.2-0.7c-0.1-0.2-0.2-0.4-0.4-0.6c-0.2-0.1-0.5-0.2-0.8-0.2s-0.6,0.1-0.8,0.2
		c-0.2,0.1-0.4,0.3-0.5,0.5c-0.1,0.2-0.2,0.4-0.2,0.7c0,0.3-0.1,0.5-0.1,0.8v4.4h-2.7v-13.6H206.5z"/>
	<path fill="#26BEC9" d="M225.4,173.2h-2.4v2.9c0,0.2,0,0.5,0,0.7c0,0.2,0.1,0.4,0.2,0.5c0.1,0.1,0.2,0.3,0.4,0.3
		c0.2,0.1,0.4,0.1,0.7,0.1c0.1,0,0.3,0,0.6,0c0.2,0,0.4-0.1,0.5-0.2v2.2c-0.3,0.1-0.6,0.2-0.9,0.2c-0.3,0-0.6,0.1-1,0.1
		c-0.5,0-0.9,0-1.3-0.1c-0.4-0.1-0.7-0.2-1-0.5s-0.5-0.5-0.7-0.8s-0.2-0.7-0.2-1.2v-4.2h-1.7V171h1.7v-2.6h2.7v2.6h2.4V173.2z"/>
	<path fill="#26BEC9" d="M229.5,166.2v6h0c0.1-0.2,0.2-0.3,0.3-0.5c0.1-0.2,0.3-0.3,0.5-0.4c0.2-0.1,0.4-0.2,0.7-0.3
		s0.6-0.1,0.9-0.1c0.7,0,1.2,0.1,1.7,0.3c0.4,0.2,0.7,0.5,1,0.9c0.2,0.4,0.4,0.8,0.5,1.3s0.1,1,0.1,1.6v4.8h-2.7v-4.3
		c0-0.3,0-0.5,0-0.8c0-0.3-0.1-0.5-0.2-0.7c-0.1-0.2-0.2-0.4-0.4-0.6c-0.2-0.1-0.5-0.2-0.8-0.2s-0.6,0.1-0.8,0.2
		c-0.2,0.1-0.4,0.3-0.5,0.5c-0.1,0.2-0.2,0.4-0.2,0.7c0,0.3-0.1,0.5-0.1,0.8v4.4h-2.7v-13.6H229.5z"/>
	<path fill="#26BEC9" d="M245.4,178.2c-0.4,0.6-1,1-1.6,1.3c-0.7,0.3-1.3,0.5-2.1,0.5c-0.7,0-1.3-0.1-1.9-0.3
		c-0.6-0.2-1.1-0.5-1.5-0.9c-0.4-0.4-0.8-0.9-1-1.4c-0.3-0.6-0.4-1.2-0.4-1.9c0-0.7,0.1-1.3,0.4-1.9c0.3-0.6,0.6-1,1-1.4
		c0.4-0.4,1-0.7,1.5-0.9c0.6-0.2,1.2-0.3,1.9-0.3c0.6,0,1.2,0.1,1.7,0.3c0.5,0.2,0.9,0.5,1.3,0.9s0.6,0.9,0.8,1.4
		c0.2,0.6,0.3,1.2,0.3,1.9v0.8h-6.3c0.1,0.5,0.3,0.9,0.7,1.2s0.8,0.5,1.3,0.5c0.4,0,0.8-0.1,1.1-0.3s0.6-0.5,0.8-0.8L245.4,178.2z
		 M243.1,174.4c0-0.5-0.1-0.8-0.5-1.2s-0.7-0.5-1.2-0.5c-0.3,0-0.6,0-0.8,0.1s-0.4,0.2-0.6,0.4s-0.3,0.3-0.4,0.5
		c-0.1,0.2-0.1,0.4-0.2,0.6H243.1z"/>
	<path fill="#26BEC9" d="M252.8,171h2.6v1.2h0c0.1-0.2,0.2-0.3,0.4-0.5c0.2-0.2,0.3-0.3,0.6-0.4s0.5-0.2,0.7-0.3s0.6-0.1,0.9-0.1
		c0.7,0,1.2,0.1,1.7,0.3c0.4,0.2,0.7,0.5,1,0.9c0.2,0.4,0.4,0.8,0.5,1.3s0.1,1,0.1,1.6v4.8h-2.7v-4.3c0-0.3,0-0.5,0-0.8
		c0-0.3-0.1-0.5-0.2-0.7c-0.1-0.2-0.2-0.4-0.4-0.6c-0.2-0.1-0.5-0.2-0.8-0.2s-0.6,0.1-0.8,0.2c-0.2,0.1-0.4,0.3-0.5,0.5
		c-0.1,0.2-0.2,0.4-0.2,0.7c0,0.3-0.1,0.5-0.1,0.8v4.4h-2.7V171z"/>
	<path fill="#26BEC9" d="M268.6,178.7L268.6,178.7c-0.3,0.5-0.7,0.8-1.2,1s-1,0.3-1.6,0.3c-0.4,0-0.8-0.1-1.2-0.2s-0.7-0.3-1-0.5
		c-0.3-0.2-0.5-0.5-0.7-0.8c-0.2-0.3-0.3-0.7-0.3-1.2c0-0.5,0.1-0.9,0.3-1.3c0.2-0.3,0.4-0.6,0.8-0.9c0.3-0.2,0.7-0.4,1.1-0.5
		c0.4-0.1,0.8-0.2,1.3-0.3c0.4-0.1,0.9-0.1,1.3-0.1s0.8,0,1.2,0c0-0.5-0.2-0.9-0.5-1.1c-0.3-0.3-0.7-0.4-1.2-0.4
		c-0.4,0-0.8,0.1-1.2,0.3c-0.4,0.2-0.7,0.4-1,0.8l-1.4-1.5c0.5-0.5,1.1-0.8,1.8-1.1c0.7-0.2,1.4-0.4,2.1-0.4c0.8,0,1.4,0.1,2,0.3
		c0.5,0.2,0.9,0.5,1.2,0.9c0.3,0.4,0.5,0.9,0.6,1.4c0.1,0.6,0.2,1.2,0.2,1.9v4.4h-2.5V178.7z M267.9,175.9c-0.2,0-0.5,0-0.8,0
		c-0.3,0-0.6,0.1-0.9,0.2s-0.5,0.2-0.7,0.4c-0.2,0.2-0.3,0.4-0.3,0.7c0,0.3,0.1,0.6,0.4,0.7c0.3,0.2,0.6,0.2,0.9,0.2
		c0.3,0,0.5,0,0.8-0.1c0.2-0.1,0.5-0.2,0.7-0.3c0.2-0.1,0.3-0.3,0.5-0.5c0.1-0.2,0.2-0.4,0.2-0.7v-0.6H267.9z"/>
	<path fill="#26BEC9" d="M278.7,173.2h-2.4v2.9c0,0.2,0,0.5,0,0.7c0,0.2,0.1,0.4,0.2,0.5c0.1,0.1,0.2,0.3,0.4,0.3
		c0.2,0.1,0.4,0.1,0.7,0.1c0.1,0,0.3,0,0.6,0c0.2,0,0.4-0.1,0.5-0.2v2.2c-0.3,0.1-0.6,0.2-0.9,0.2c-0.3,0-0.6,0.1-1,0.1
		c-0.5,0-0.9,0-1.3-0.1c-0.4-0.1-0.7-0.2-1-0.5s-0.5-0.5-0.7-0.8s-0.2-0.7-0.2-1.2v-4.2h-1.7V171h1.7v-2.6h2.7v2.6h2.4V173.2z"/>
	<path fill="#26BEC9" d="M279.9,168.3c0-0.4,0.2-0.8,0.5-1.1c0.3-0.3,0.7-0.5,1.1-0.5c0.4,0,0.8,0.2,1.1,0.5
		c0.3,0.3,0.5,0.7,0.5,1.1s-0.2,0.8-0.5,1.1c-0.3,0.3-0.7,0.5-1.1,0.5c-0.4,0-0.8-0.2-1.1-0.5C280.1,169.1,279.9,168.7,279.9,168.3z
		 M280.2,171h2.7v8.7h-2.7V171z"/>
	<path fill="#26BEC9" d="M284.5,175.4c0-0.7,0.1-1.3,0.4-1.9c0.3-0.6,0.6-1,1-1.4s1-0.7,1.5-0.9c0.6-0.2,1.2-0.3,1.9-0.3
		c0.7,0,1.3,0.1,1.9,0.3c0.6,0.2,1.1,0.5,1.5,0.9s0.8,0.9,1,1.4c0.3,0.6,0.4,1.2,0.4,1.9c0,0.7-0.1,1.3-0.4,1.9
		c-0.3,0.6-0.6,1-1,1.4c-0.4,0.4-1,0.7-1.5,0.9c-0.6,0.2-1.2,0.3-1.9,0.3c-0.7,0-1.3-0.1-1.9-0.3c-0.6-0.2-1.1-0.5-1.5-0.9
		c-0.4-0.4-0.8-0.9-1-1.4C284.6,176.7,284.5,176.1,284.5,175.4z M287.2,175.4c0,0.7,0.2,1.2,0.6,1.6c0.4,0.4,0.9,0.6,1.6,0.6
		c0.7,0,1.2-0.2,1.6-0.6c0.4-0.4,0.6-0.9,0.6-1.6s-0.2-1.2-0.6-1.6c-0.4-0.4-0.9-0.6-1.6-0.6c-0.7,0-1.2,0.2-1.6,0.6
		C287.4,174.2,287.2,174.7,287.2,175.4z"/>
	<path fill="#26BEC9" d="M295.8,171h2.6v1.2h0c0.1-0.2,0.2-0.3,0.4-0.5c0.2-0.2,0.3-0.3,0.6-0.4s0.5-0.2,0.7-0.3s0.6-0.1,0.9-0.1
		c0.7,0,1.2,0.1,1.7,0.3c0.4,0.2,0.7,0.5,1,0.9c0.2,0.4,0.4,0.8,0.5,1.3s0.1,1,0.1,1.6v4.8h-2.7v-4.3c0-0.3,0-0.5,0-0.8
		c0-0.3-0.1-0.5-0.2-0.7c-0.1-0.2-0.2-0.4-0.4-0.6c-0.2-0.1-0.5-0.2-0.8-0.2s-0.6,0.1-0.8,0.2c-0.2,0.1-0.4,0.3-0.5,0.5
		c-0.1,0.2-0.2,0.4-0.2,0.7c0,0.3-0.1,0.5-0.1,0.8v4.4h-2.7V171z"/>
	<path fill="#26BEC9" d="M308.2,172.1h-2.3l1.3-5.1h2.6L308.2,172.1z"/>
	<path fill="#26BEC9" d="M315.1,173.6c-0.4-0.5-0.9-0.7-1.6-0.7c-0.2,0-0.4,0.1-0.7,0.2c-0.2,0.1-0.3,0.3-0.3,0.6
		c0,0.2,0.1,0.4,0.3,0.5c0.2,0.1,0.5,0.2,0.8,0.3c0.3,0.1,0.7,0.2,1.1,0.3c0.4,0.1,0.8,0.2,1.1,0.4c0.3,0.2,0.6,0.5,0.8,0.8
		s0.3,0.8,0.3,1.3c0,0.6-0.1,1-0.4,1.4c-0.2,0.4-0.6,0.7-0.9,0.9c-0.4,0.2-0.8,0.4-1.3,0.5s-1,0.1-1.4,0.1c-0.6,0-1.2-0.1-1.9-0.3
		c-0.6-0.2-1.2-0.5-1.6-0.9l1.6-1.8c0.3,0.3,0.5,0.5,0.8,0.7c0.3,0.2,0.7,0.2,1.1,0.2c0.3,0,0.6,0,0.8-0.1c0.3-0.1,0.4-0.3,0.4-0.5
		c0-0.2-0.1-0.4-0.3-0.5c-0.2-0.1-0.5-0.2-0.8-0.3c-0.3-0.1-0.7-0.2-1.1-0.3c-0.4-0.1-0.8-0.2-1.1-0.4c-0.3-0.2-0.6-0.4-0.8-0.8
		c-0.2-0.3-0.3-0.8-0.3-1.3c0-0.5,0.1-1,0.3-1.3s0.5-0.7,0.8-0.9s0.7-0.4,1.2-0.5c0.4-0.1,0.9-0.2,1.3-0.2c0.6,0,1.2,0.1,1.7,0.3
		s1.1,0.5,1.5,0.9L315.1,173.6z"/>
	<path fill="#26BEC9" d="M323.7,176.9l5-4.4c0.3-0.2,0.5-0.5,0.8-0.8s0.4-0.6,0.4-1c0-0.4-0.2-0.8-0.5-1c-0.3-0.2-0.7-0.4-1.1-0.4
		c-0.5,0-0.9,0.2-1.2,0.5c-0.3,0.3-0.4,0.7-0.5,1.2l-2.7-0.2c0-0.7,0.2-1.2,0.4-1.7c0.2-0.5,0.6-0.9,1-1.2c0.4-0.3,0.9-0.6,1.4-0.7
		c0.5-0.2,1.1-0.2,1.7-0.2c0.6,0,1.1,0.1,1.6,0.2s0.9,0.4,1.3,0.7c0.4,0.3,0.7,0.7,0.9,1.2c0.2,0.5,0.3,1,0.3,1.7
		c0,0.4,0,0.8-0.1,1.1s-0.2,0.6-0.4,0.9c-0.2,0.3-0.3,0.5-0.5,0.7c-0.2,0.2-0.4,0.5-0.7,0.7l-3.9,3.3h5.7v2.4h-8.9V176.9z"/>
	<path fill="#26BEC9" d="M334.1,173.4c0-0.8,0.1-1.5,0.2-2.3c0.1-0.8,0.4-1.5,0.7-2.1c0.4-0.6,0.8-1.2,1.4-1.6
		c0.6-0.4,1.4-0.6,2.3-0.6c0.9,0,1.7,0.2,2.3,0.6c0.6,0.4,1.1,0.9,1.4,1.6c0.4,0.6,0.6,1.3,0.7,2.1c0.1,0.8,0.2,1.5,0.2,2.3
		s-0.1,1.5-0.2,2.3c-0.1,0.8-0.4,1.5-0.7,2.1c-0.4,0.6-0.8,1.2-1.4,1.6c-0.6,0.4-1.4,0.6-2.3,0.6c-0.9,0-1.7-0.2-2.3-0.6
		c-0.6-0.4-1.1-0.9-1.4-1.6c-0.4-0.6-0.6-1.3-0.7-2.1C334.1,174.9,334.1,174.1,334.1,173.4z M336.8,173.4c0,0.3,0,0.7,0,1.2
		s0.1,0.9,0.2,1.3c0.1,0.4,0.3,0.8,0.6,1.1s0.7,0.5,1.1,0.5c0.5,0,0.9-0.2,1.1-0.5s0.5-0.7,0.6-1.1c0.1-0.4,0.2-0.9,0.2-1.3
		s0-0.9,0-1.2s0-0.7,0-1.2s-0.1-0.9-0.2-1.3c-0.1-0.4-0.3-0.8-0.6-1.1c-0.3-0.3-0.7-0.4-1.1-0.4c-0.5,0-0.9,0.1-1.1,0.4
		c-0.3,0.3-0.5,0.7-0.6,1.1c-0.1,0.4-0.2,0.9-0.2,1.3S336.8,173.1,336.8,173.4z"/>
	<path fill="#26BEC9" d="M345,176.9l5-4.4c0.3-0.2,0.5-0.5,0.8-0.8s0.4-0.6,0.4-1c0-0.4-0.2-0.8-0.5-1c-0.3-0.2-0.7-0.4-1.1-0.4
		c-0.5,0-0.9,0.2-1.2,0.5c-0.3,0.3-0.4,0.7-0.5,1.2l-2.7-0.2c0-0.7,0.2-1.2,0.4-1.7c0.2-0.5,0.6-0.9,1-1.2c0.4-0.3,0.9-0.6,1.4-0.7
		c0.5-0.2,1.1-0.2,1.7-0.2c0.6,0,1.1,0.1,1.6,0.2s0.9,0.4,1.3,0.7c0.4,0.3,0.7,0.7,0.9,1.2c0.2,0.5,0.3,1,0.3,1.7
		c0,0.4,0,0.8-0.1,1.1s-0.2,0.6-0.4,0.9c-0.2,0.3-0.3,0.5-0.5,0.7c-0.2,0.2-0.4,0.5-0.7,0.7l-3.9,3.3h5.7v2.4H345V176.9z"/>
	<path fill="#26BEC9" d="M355.4,173.4c0-0.8,0.1-1.5,0.2-2.3c0.1-0.8,0.4-1.5,0.7-2.1c0.4-0.6,0.8-1.2,1.4-1.6
		c0.6-0.4,1.4-0.6,2.3-0.6c0.9,0,1.7,0.2,2.3,0.6c0.6,0.4,1.1,0.9,1.4,1.6c0.4,0.6,0.6,1.3,0.7,2.1c0.1,0.8,0.2,1.5,0.2,2.3
		s-0.1,1.5-0.2,2.3c-0.1,0.8-0.4,1.5-0.7,2.1c-0.4,0.6-0.8,1.2-1.4,1.6c-0.6,0.4-1.4,0.6-2.3,0.6c-0.9,0-1.7-0.2-2.3-0.6
		c-0.6-0.4-1.1-0.9-1.4-1.6c-0.4-0.6-0.6-1.3-0.7-2.1C355.4,174.9,355.4,174.1,355.4,173.4z M358.1,173.4c0,0.3,0,0.7,0,1.2
		s0.1,0.9,0.2,1.3c0.1,0.4,0.3,0.8,0.6,1.1s0.7,0.5,1.1,0.5c0.5,0,0.9-0.2,1.1-0.5s0.5-0.7,0.6-1.1c0.1-0.4,0.2-0.9,0.2-1.3
		s0-0.9,0-1.2s0-0.7,0-1.2s-0.1-0.9-0.2-1.3c-0.1-0.4-0.3-0.8-0.6-1.1c-0.3-0.3-0.7-0.4-1.1-0.4c-0.5,0-0.9,0.1-1.1,0.4
		c-0.3,0.3-0.5,0.7-0.6,1.1c-0.1,0.4-0.2,0.9-0.2,1.3S358.1,173.1,358.1,173.4z"/>
	<path fill="#26BEC9" d="M60.5,193h2.9l2.2,5.9h0l2.1-5.9h2.7l-3.5,8.7h-2.9L60.5,193z"/>
	<path fill="#26BEC9" d="M71.3,190.3c0-0.4,0.2-0.8,0.5-1.1c0.3-0.3,0.7-0.5,1.1-0.5c0.4,0,0.8,0.2,1.1,0.5c0.3,0.3,0.5,0.7,0.5,1.1
		s-0.2,0.8-0.5,1.1c-0.3,0.3-0.7,0.5-1.1,0.5c-0.4,0-0.8-0.2-1.1-0.5C71.4,191.1,71.3,190.7,71.3,190.3z M71.5,193h2.7v8.7h-2.7V193
		z"/>
	<path fill="#26BEC9" d="M81.1,195.6c-0.4-0.5-0.9-0.7-1.6-0.7c-0.2,0-0.4,0.1-0.7,0.2c-0.2,0.1-0.3,0.3-0.3,0.6
		c0,0.2,0.1,0.4,0.3,0.5c0.2,0.1,0.5,0.2,0.8,0.3c0.3,0.1,0.7,0.2,1.1,0.3c0.4,0.1,0.8,0.2,1.1,0.4c0.3,0.2,0.6,0.5,0.8,0.8
		s0.3,0.8,0.3,1.3c0,0.6-0.1,1-0.4,1.4c-0.2,0.4-0.6,0.7-0.9,0.9c-0.4,0.2-0.8,0.4-1.3,0.5s-1,0.1-1.4,0.1c-0.6,0-1.2-0.1-1.9-0.3
		c-0.6-0.2-1.2-0.5-1.6-0.9l1.6-1.8c0.3,0.3,0.5,0.5,0.8,0.7c0.3,0.2,0.7,0.2,1.1,0.2c0.3,0,0.6,0,0.8-0.1c0.3-0.1,0.4-0.3,0.4-0.5
		c0-0.2-0.1-0.4-0.3-0.5c-0.2-0.1-0.5-0.2-0.8-0.3c-0.3-0.1-0.7-0.2-1.1-0.3c-0.4-0.1-0.8-0.2-1.1-0.4c-0.3-0.2-0.6-0.4-0.8-0.8
		c-0.2-0.3-0.3-0.8-0.3-1.3c0-0.5,0.1-1,0.3-1.3s0.5-0.7,0.8-0.9s0.7-0.4,1.2-0.5c0.4-0.1,0.9-0.2,1.3-0.2c0.6,0,1.2,0.1,1.7,0.3
		s1.1,0.5,1.5,0.9L81.1,195.6z"/>
	<path fill="#26BEC9" d="M84.3,190.3c0-0.4,0.2-0.8,0.5-1.1c0.3-0.3,0.7-0.5,1.1-0.5c0.4,0,0.8,0.2,1.1,0.5c0.3,0.3,0.5,0.7,0.5,1.1
		s-0.2,0.8-0.5,1.1c-0.3,0.3-0.7,0.5-1.1,0.5c-0.4,0-0.8-0.2-1.1-0.5C84.5,191.1,84.3,190.7,84.3,190.3z M84.5,193h2.7v8.7h-2.7V193
		z"/>
	<path fill="#26BEC9" d="M88.8,197.4c0-0.7,0.1-1.3,0.4-1.9c0.3-0.6,0.6-1,1-1.4s1-0.7,1.5-0.9c0.6-0.2,1.2-0.3,1.9-0.3
		c0.7,0,1.3,0.1,1.9,0.3c0.6,0.2,1.1,0.5,1.5,0.9s0.8,0.9,1,1.4c0.3,0.6,0.4,1.2,0.4,1.9c0,0.7-0.1,1.3-0.4,1.9
		c-0.3,0.6-0.6,1-1,1.4c-0.4,0.4-1,0.7-1.5,0.9c-0.6,0.2-1.2,0.3-1.9,0.3c-0.7,0-1.3-0.1-1.9-0.3c-0.6-0.2-1.1-0.5-1.5-0.9
		c-0.4-0.4-0.8-0.9-1-1.4C89,198.7,88.8,198.1,88.8,197.4z M91.5,197.4c0,0.7,0.2,1.2,0.6,1.6c0.4,0.4,0.9,0.6,1.6,0.6
		c0.7,0,1.2-0.2,1.6-0.6c0.4-0.4,0.6-0.9,0.6-1.6s-0.2-1.2-0.6-1.6c-0.4-0.4-0.9-0.6-1.6-0.6c-0.7,0-1.2,0.2-1.6,0.6
		C91.7,196.2,91.5,196.7,91.5,197.4z"/>
	<path fill="#26BEC9" d="M100.1,193h2.6v1.2h0c0.1-0.2,0.2-0.3,0.4-0.5c0.2-0.2,0.3-0.3,0.6-0.4s0.5-0.2,0.7-0.3s0.6-0.1,0.9-0.1
		c0.7,0,1.2,0.1,1.7,0.3c0.4,0.2,0.7,0.5,1,0.9c0.2,0.4,0.4,0.8,0.5,1.3s0.1,1,0.1,1.6v4.8h-2.7v-4.3c0-0.3,0-0.5,0-0.8
		c0-0.3-0.1-0.5-0.2-0.7c-0.1-0.2-0.2-0.4-0.4-0.6c-0.2-0.1-0.5-0.2-0.8-0.2s-0.6,0.1-0.8,0.2c-0.2,0.1-0.4,0.3-0.5,0.5
		c-0.1,0.2-0.2,0.4-0.2,0.7c0,0.3-0.1,0.5-0.1,0.8v4.4h-2.7V193z"/>
	<path fill="#26BEC9" d="M111.2,198.9h2.6l-1.6,5.1h-2.3L111.2,198.9z"/>
	<path fill="#26BEC9" d="M121.5,189h4.2l2.9,8.3h0l3-8.3h4.2v12.7h-2.8V192h0l-3.3,9.8h-2.1l-3.2-9.8h0v9.8h-2.8V189z"/>
	<path fill="#26BEC9" d="M143.2,203.2c-0.2,0.5-0.4,0.9-0.5,1.2c-0.2,0.4-0.4,0.7-0.6,0.9c-0.3,0.2-0.6,0.4-1,0.6s-0.9,0.2-1.6,0.2
		c-0.7,0-1.4-0.1-2-0.3l0.4-2.2c0.4,0.2,0.8,0.3,1.3,0.3c0.3,0,0.5,0,0.7-0.1c0.2-0.1,0.4-0.2,0.5-0.3s0.2-0.3,0.3-0.5
		s0.2-0.4,0.3-0.6l0.2-0.5l-3.8-8.8h2.9l2.2,5.8h0l1.9-5.8h2.8L143.2,203.2z"/>
	<path fill="#26BEC9" d="M160,200.9c-0.8,0.4-1.7,0.7-2.6,0.9c-0.9,0.2-1.8,0.3-2.8,0.3c-1,0-1.9-0.2-2.8-0.5
		c-0.8-0.3-1.6-0.8-2.2-1.3c-0.6-0.6-1.1-1.3-1.4-2.1c-0.3-0.8-0.5-1.8-0.5-2.8c0-1,0.2-1.9,0.5-2.8c0.3-0.8,0.8-1.5,1.4-2.1
		c0.6-0.6,1.3-1,2.2-1.3c0.8-0.3,1.8-0.5,2.8-0.5c1,0,2,0.1,2.8,0.4c0.9,0.2,1.6,0.7,2.3,1.3l-2,2.2c-0.4-0.4-0.8-0.7-1.3-0.9
		c-0.5-0.2-1.1-0.3-1.8-0.3c-0.6,0-1.1,0.1-1.6,0.3c-0.5,0.2-0.9,0.5-1.3,0.9c-0.3,0.4-0.6,0.8-0.8,1.3c-0.2,0.5-0.3,1-0.3,1.6
		c0,0.6,0.1,1.1,0.3,1.6c0.2,0.5,0.5,0.9,0.8,1.3s0.8,0.7,1.3,0.9c0.5,0.2,1,0.3,1.6,0.3c0.6,0,1.1-0.1,1.6-0.2
		c0.4-0.1,0.8-0.3,1.1-0.4v-2.1H155v-2.6h5V200.9z"/>
	<path fill="#26BEC9" d="M167.6,200.7L167.6,200.7c-0.3,0.5-0.7,0.8-1.2,1s-1,0.3-1.6,0.3c-0.4,0-0.8-0.1-1.2-0.2s-0.7-0.3-1-0.5
		c-0.3-0.2-0.5-0.5-0.7-0.8c-0.2-0.3-0.3-0.7-0.3-1.2c0-0.5,0.1-0.9,0.3-1.3c0.2-0.3,0.4-0.6,0.8-0.9c0.3-0.2,0.7-0.4,1.1-0.5
		c0.4-0.1,0.8-0.2,1.3-0.3c0.4-0.1,0.9-0.1,1.3-0.1s0.8,0,1.2,0c0-0.5-0.2-0.9-0.5-1.1c-0.3-0.3-0.7-0.4-1.2-0.4
		c-0.4,0-0.8,0.1-1.2,0.3c-0.4,0.2-0.7,0.4-1,0.8l-1.4-1.5c0.5-0.5,1.1-0.8,1.8-1.1c0.7-0.2,1.4-0.4,2.1-0.4c0.8,0,1.4,0.1,2,0.3
		c0.5,0.2,0.9,0.5,1.2,0.9c0.3,0.4,0.5,0.9,0.6,1.4c0.1,0.6,0.2,1.2,0.2,1.9v4.4h-2.5V200.7z M167,197.9c-0.2,0-0.5,0-0.8,0
		c-0.3,0-0.6,0.1-0.9,0.2s-0.5,0.2-0.7,0.4c-0.2,0.2-0.3,0.4-0.3,0.7c0,0.3,0.1,0.6,0.4,0.7c0.3,0.2,0.6,0.2,0.9,0.2
		c0.3,0,0.5,0,0.8-0.1c0.2-0.1,0.5-0.2,0.7-0.3c0.2-0.1,0.3-0.3,0.5-0.5c0.1-0.2,0.2-0.4,0.2-0.7v-0.6H167z"/>
	<path fill="#26BEC9" d="M171.8,193h2.6v1.2h0c0.1-0.2,0.2-0.3,0.4-0.5c0.2-0.2,0.3-0.3,0.6-0.4s0.5-0.2,0.7-0.3s0.6-0.1,0.9-0.1
		c0.6,0,1.2,0.1,1.6,0.4c0.5,0.3,0.8,0.6,1.1,1.2c0.3-0.6,0.7-1,1.1-1.2c0.4-0.2,1-0.4,1.6-0.4c0.6,0,1.1,0.1,1.5,0.3
		c0.4,0.2,0.7,0.5,1,0.8c0.2,0.3,0.4,0.7,0.5,1.2c0.1,0.5,0.2,1,0.2,1.5v5.2h-2.7v-5.1c0-0.4-0.1-0.8-0.3-1.1
		c-0.2-0.3-0.5-0.4-0.9-0.4c-0.3,0-0.6,0.1-0.8,0.2c-0.2,0.1-0.4,0.2-0.5,0.4c-0.1,0.2-0.2,0.4-0.3,0.6c-0.1,0.2-0.1,0.5-0.1,0.8
		v4.6h-2.7v-4.6c0-0.2,0-0.3,0-0.6c0-0.2-0.1-0.4-0.1-0.6c-0.1-0.2-0.2-0.4-0.4-0.5c-0.2-0.1-0.4-0.2-0.7-0.2
		c-0.3,0-0.6,0.1-0.8,0.2c-0.2,0.1-0.4,0.3-0.5,0.5c-0.1,0.2-0.2,0.4-0.2,0.7c0,0.3-0.1,0.5-0.1,0.8v4.4h-2.7V193z"/>
	<path fill="#26BEC9" d="M195.7,200.3c-0.4,0.6-1,1-1.6,1.3c-0.7,0.3-1.3,0.5-2.1,0.5c-0.7,0-1.3-0.1-1.9-0.3
		c-0.6-0.2-1.1-0.5-1.5-0.9c-0.4-0.4-0.8-0.9-1-1.4c-0.3-0.6-0.4-1.2-0.4-1.9c0-0.7,0.1-1.3,0.4-1.9c0.3-0.6,0.6-1,1-1.4
		c0.4-0.4,1-0.7,1.5-0.9c0.6-0.2,1.2-0.3,1.9-0.3c0.6,0,1.2,0.1,1.7,0.3c0.5,0.2,0.9,0.5,1.3,0.9s0.6,0.9,0.8,1.4
		c0.2,0.6,0.3,1.2,0.3,1.9v0.8h-6.3c0.1,0.5,0.3,0.9,0.7,1.2s0.8,0.5,1.3,0.5c0.4,0,0.8-0.1,1.1-0.3s0.6-0.5,0.8-0.8L195.7,200.3z
		 M193.5,196.4c0-0.5-0.1-0.8-0.5-1.2s-0.7-0.5-1.2-0.5c-0.3,0-0.6,0-0.8,0.1s-0.4,0.2-0.6,0.4s-0.3,0.3-0.4,0.5
		c-0.1,0.2-0.1,0.4-0.2,0.6H193.5z"/>
	<path fill="#26BEC9" d="M198.1,189h4.2c1,0,2,0.1,2.9,0.3c0.9,0.2,1.7,0.6,2.4,1.1s1.2,1.2,1.6,2c0.4,0.8,0.6,1.8,0.6,3
		c0,1-0.2,1.9-0.6,2.7c-0.4,0.8-0.9,1.4-1.6,2c-0.7,0.5-1.4,0.9-2.3,1.2c-0.9,0.3-1.8,0.4-2.7,0.4h-4.6V189z M200.9,199.2h1.5
		c0.6,0,1.3-0.1,1.8-0.2s1-0.4,1.4-0.7c0.4-0.3,0.7-0.7,1-1.2c0.2-0.5,0.4-1.1,0.4-1.8c0-0.6-0.1-1.2-0.4-1.6
		c-0.2-0.5-0.5-0.8-0.9-1.1s-0.9-0.5-1.4-0.7s-1.1-0.2-1.7-0.2h-1.7V199.2z"/>
	<path fill="#26BEC9" d="M219.7,200.3c-0.4,0.6-1,1-1.6,1.3c-0.7,0.3-1.3,0.5-2.1,0.5c-0.7,0-1.3-0.1-1.9-0.3
		c-0.6-0.2-1.1-0.5-1.5-0.9c-0.4-0.4-0.8-0.9-1-1.4c-0.3-0.6-0.4-1.2-0.4-1.9c0-0.7,0.1-1.3,0.4-1.9c0.3-0.6,0.6-1,1-1.4
		c0.4-0.4,1-0.7,1.5-0.9c0.6-0.2,1.2-0.3,1.9-0.3c0.6,0,1.2,0.1,1.7,0.3c0.5,0.2,0.9,0.5,1.3,0.9s0.6,0.9,0.8,1.4
		c0.2,0.6,0.3,1.2,0.3,1.9v0.8h-6.3c0.1,0.5,0.3,0.9,0.7,1.2s0.8,0.5,1.3,0.5c0.4,0,0.8-0.1,1.1-0.3s0.6-0.5,0.8-0.8L219.7,200.3z
		 M217.4,196.4c0-0.5-0.1-0.8-0.5-1.2s-0.7-0.5-1.2-0.5c-0.3,0-0.6,0-0.8,0.1s-0.4,0.2-0.6,0.4s-0.3,0.3-0.4,0.5
		c-0.1,0.2-0.1,0.4-0.2,0.6H217.4z"/>
	<path fill="#26BEC9" d="M220.9,193h2.9l2.2,5.9h0l2.1-5.9h2.7l-3.5,8.7h-2.9L220.9,193z"/>
	<path fill="#26BEC9" d="M231.7,198.9l5-4.4c0.3-0.2,0.5-0.5,0.8-0.8s0.4-0.6,0.4-1c0-0.4-0.2-0.8-0.5-1c-0.3-0.2-0.7-0.4-1.1-0.4
		c-0.5,0-0.9,0.2-1.2,0.5c-0.3,0.3-0.4,0.7-0.5,1.2l-2.7-0.2c0-0.7,0.2-1.2,0.4-1.7c0.2-0.5,0.6-0.9,1-1.2c0.4-0.3,0.9-0.6,1.4-0.7
		c0.5-0.2,1.1-0.2,1.7-0.2c0.6,0,1.1,0.1,1.6,0.2s0.9,0.4,1.3,0.7c0.4,0.3,0.7,0.7,0.9,1.2c0.2,0.5,0.3,1,0.3,1.7
		c0,0.4,0,0.8-0.1,1.1s-0.2,0.6-0.4,0.9c-0.2,0.3-0.3,0.5-0.5,0.7c-0.2,0.2-0.4,0.5-0.7,0.7l-3.9,3.3h5.7v2.4h-8.9V198.9z"/>
	<path fill="#26BEC9" d="M242.1,195.4c0-0.8,0.1-1.5,0.2-2.3c0.1-0.8,0.4-1.5,0.7-2.1c0.4-0.6,0.8-1.2,1.4-1.6
		c0.6-0.4,1.4-0.6,2.3-0.6c0.9,0,1.7,0.2,2.3,0.6c0.6,0.4,1.1,0.9,1.4,1.6c0.4,0.6,0.6,1.3,0.7,2.1c0.1,0.8,0.2,1.5,0.2,2.3
		s-0.1,1.5-0.2,2.3c-0.1,0.8-0.4,1.5-0.7,2.1c-0.4,0.6-0.8,1.2-1.4,1.6c-0.6,0.4-1.4,0.6-2.3,0.6c-0.9,0-1.7-0.2-2.3-0.6
		c-0.6-0.4-1.1-0.9-1.4-1.6c-0.4-0.6-0.6-1.3-0.7-2.1C242.2,196.9,242.1,196.2,242.1,195.4z M244.8,195.4c0,0.3,0,0.7,0,1.2
		s0.1,0.9,0.2,1.3c0.1,0.4,0.3,0.8,0.6,1.1s0.7,0.5,1.1,0.5c0.5,0,0.9-0.2,1.1-0.5s0.5-0.7,0.6-1.1c0.1-0.4,0.2-0.9,0.2-1.3
		s0-0.9,0-1.2s0-0.7,0-1.2s-0.1-0.9-0.2-1.3c-0.1-0.4-0.3-0.8-0.6-1.1c-0.3-0.3-0.7-0.4-1.1-0.4c-0.5,0-0.9,0.1-1.1,0.4
		c-0.3,0.3-0.5,0.7-0.6,1.1c-0.1,0.4-0.2,0.9-0.2,1.3S244.8,195.1,244.8,195.4z"/>
	<path fill="#26BEC9" d="M253,198.9l5-4.4c0.3-0.2,0.5-0.5,0.8-0.8s0.4-0.6,0.4-1c0-0.4-0.2-0.8-0.5-1c-0.3-0.2-0.7-0.4-1.1-0.4
		c-0.5,0-0.9,0.2-1.2,0.5c-0.3,0.3-0.4,0.7-0.5,1.2l-2.7-0.2c0-0.7,0.2-1.2,0.4-1.7c0.2-0.5,0.6-0.9,1-1.2c0.4-0.3,0.9-0.6,1.4-0.7
		c0.5-0.2,1.1-0.2,1.7-0.2c0.6,0,1.1,0.1,1.6,0.2s0.9,0.4,1.3,0.7c0.4,0.3,0.7,0.7,0.9,1.2c0.2,0.5,0.3,1,0.3,1.7
		c0,0.4,0,0.8-0.1,1.1s-0.2,0.6-0.4,0.9c-0.2,0.3-0.3,0.5-0.5,0.7c-0.2,0.2-0.4,0.5-0.7,0.7l-3.9,3.3h5.7v2.4H253V198.9z"/>
	<path fill="#26BEC9" d="M263.4,195.4c0-0.8,0.1-1.5,0.2-2.3c0.1-0.8,0.4-1.5,0.7-2.1c0.4-0.6,0.8-1.2,1.4-1.6
		c0.6-0.4,1.4-0.6,2.3-0.6c0.9,0,1.7,0.2,2.3,0.6c0.6,0.4,1.1,0.9,1.4,1.6c0.4,0.6,0.6,1.3,0.7,2.1c0.1,0.8,0.2,1.5,0.2,2.3
		s-0.1,1.5-0.2,2.3c-0.1,0.8-0.4,1.5-0.7,2.1c-0.4,0.6-0.8,1.2-1.4,1.6c-0.6,0.4-1.4,0.6-2.3,0.6c-0.9,0-1.7-0.2-2.3-0.6
		c-0.6-0.4-1.1-0.9-1.4-1.6c-0.4-0.6-0.6-1.3-0.7-2.1C263.5,196.9,263.4,196.2,263.4,195.4z M266.1,195.4c0,0.3,0,0.7,0,1.2
		s0.1,0.9,0.2,1.3c0.1,0.4,0.3,0.8,0.6,1.1s0.7,0.5,1.1,0.5c0.5,0,0.9-0.2,1.1-0.5s0.5-0.7,0.6-1.1c0.1-0.4,0.2-0.9,0.2-1.3
		s0-0.9,0-1.2s0-0.7,0-1.2s-0.1-0.9-0.2-1.3c-0.1-0.4-0.3-0.8-0.6-1.1c-0.3-0.3-0.7-0.4-1.1-0.4c-0.5,0-0.9,0.1-1.1,0.4
		c-0.3,0.3-0.5,0.7-0.6,1.1c-0.1,0.4-0.2,0.9-0.2,1.3S266.1,195.1,266.1,195.4z"/>
	<path fill="#26BEC9" d="M279.6,190.3c0-0.4,0.2-0.8,0.5-1.1c0.3-0.3,0.7-0.5,1.1-0.5c0.4,0,0.8,0.2,1.1,0.5
		c0.3,0.3,0.5,0.7,0.5,1.1s-0.2,0.8-0.5,1.1c-0.3,0.3-0.7,0.5-1.1,0.5c-0.4,0-0.8-0.2-1.1-0.5C279.7,191.1,279.6,190.7,279.6,190.3z
		 M279.8,193h2.7v8.7h-2.7V193z"/>
	<path fill="#26BEC9" d="M289.4,195.6c-0.4-0.5-0.9-0.7-1.6-0.7c-0.2,0-0.4,0.1-0.7,0.2c-0.2,0.1-0.3,0.3-0.3,0.6
		c0,0.2,0.1,0.4,0.3,0.5c0.2,0.1,0.5,0.2,0.8,0.3c0.3,0.1,0.7,0.2,1.1,0.3c0.4,0.1,0.8,0.2,1.1,0.4c0.3,0.2,0.6,0.5,0.8,0.8
		s0.3,0.8,0.3,1.3c0,0.6-0.1,1-0.4,1.4c-0.2,0.4-0.6,0.7-0.9,0.9c-0.4,0.2-0.8,0.4-1.3,0.5s-1,0.1-1.4,0.1c-0.6,0-1.2-0.1-1.9-0.3
		c-0.6-0.2-1.2-0.5-1.6-0.9l1.6-1.8c0.3,0.3,0.5,0.5,0.8,0.7c0.3,0.2,0.7,0.2,1.1,0.2c0.3,0,0.6,0,0.8-0.1c0.3-0.1,0.4-0.3,0.4-0.5
		c0-0.2-0.1-0.4-0.3-0.5c-0.2-0.1-0.5-0.2-0.8-0.3c-0.3-0.1-0.7-0.2-1.1-0.3c-0.4-0.1-0.8-0.2-1.1-0.4c-0.3-0.2-0.6-0.4-0.8-0.8
		c-0.2-0.3-0.3-0.8-0.3-1.3c0-0.5,0.1-1,0.3-1.3s0.5-0.7,0.8-0.9s0.7-0.4,1.2-0.5c0.4-0.1,0.9-0.2,1.3-0.2c0.6,0,1.2,0.1,1.7,0.3
		s1.1,0.5,1.5,0.9L289.4,195.6z"/>
	<path fill="#26BEC9" d="M307.3,201c0,1.7-0.4,2.9-1.3,3.8c-0.8,0.9-2.1,1.3-3.8,1.3c-0.8,0-1.5-0.1-2.3-0.3s-1.5-0.5-2.1-1l1.5-2.2
		c0.4,0.3,0.9,0.6,1.3,0.8s1,0.3,1.5,0.3c0.8,0,1.4-0.2,1.8-0.6c0.4-0.4,0.6-0.9,0.6-1.5v-0.8h0c-0.3,0.4-0.7,0.7-1.2,0.9
		s-0.9,0.3-1.3,0.3c-0.6,0-1.2-0.1-1.8-0.3c-0.5-0.2-1-0.5-1.4-0.9c-0.4-0.4-0.7-0.9-0.9-1.4s-0.3-1.2-0.3-1.8
		c0-0.6,0.1-1.1,0.3-1.7c0.2-0.6,0.4-1,0.8-1.5c0.3-0.4,0.8-0.8,1.3-1c0.5-0.3,1-0.4,1.7-0.4c0.4,0,0.7,0,1.1,0.1
		c0.3,0.1,0.6,0.2,0.9,0.3s0.5,0.3,0.6,0.4c0.2,0.2,0.3,0.3,0.4,0.5h0V193h2.5V201z M300.5,197.3c0,0.3,0.1,0.6,0.2,0.8
		c0.1,0.3,0.3,0.5,0.5,0.7c0.2,0.2,0.4,0.4,0.7,0.5c0.3,0.1,0.5,0.2,0.9,0.2c0.3,0,0.6-0.1,0.8-0.2c0.3-0.1,0.5-0.3,0.7-0.5
		c0.2-0.2,0.4-0.4,0.5-0.7c0.1-0.3,0.2-0.5,0.2-0.8s-0.1-0.6-0.2-0.8c-0.1-0.3-0.3-0.5-0.5-0.7c-0.2-0.2-0.4-0.4-0.7-0.5
		c-0.3-0.1-0.5-0.2-0.8-0.2c-0.3,0-0.6,0.1-0.9,0.2c-0.3,0.1-0.5,0.3-0.7,0.5c-0.2,0.2-0.4,0.4-0.5,0.7
		C300.5,196.8,300.5,197.1,300.5,197.3z"/>
	<path fill="#26BEC9" d="M317.7,200.3c-0.4,0.6-1,1-1.6,1.3c-0.7,0.3-1.3,0.5-2.1,0.5c-0.7,0-1.3-0.1-1.9-0.3
		c-0.6-0.2-1.1-0.5-1.5-0.9c-0.4-0.4-0.8-0.9-1-1.4c-0.3-0.6-0.4-1.2-0.4-1.9c0-0.7,0.1-1.3,0.4-1.9c0.3-0.6,0.6-1,1-1.4
		c0.4-0.4,1-0.7,1.5-0.9c0.6-0.2,1.2-0.3,1.9-0.3c0.6,0,1.2,0.1,1.7,0.3c0.5,0.2,0.9,0.5,1.3,0.9s0.6,0.9,0.8,1.4
		c0.2,0.6,0.3,1.2,0.3,1.9v0.8h-6.3c0.1,0.5,0.3,0.9,0.7,1.2s0.8,0.5,1.3,0.5c0.4,0,0.8-0.1,1.1-0.3s0.6-0.5,0.8-0.8L317.7,200.3z
		 M315.4,196.4c0-0.5-0.1-0.8-0.5-1.2s-0.7-0.5-1.2-0.5c-0.3,0-0.6,0-0.8,0.1s-0.4,0.2-0.6,0.4s-0.3,0.3-0.4,0.5
		c-0.1,0.2-0.1,0.4-0.2,0.6H315.4z"/>
	<path fill="#26BEC9" d="M325.2,200.7L325.2,200.7c-0.3,0.5-0.7,0.8-1.2,1s-1,0.3-1.6,0.3c-0.4,0-0.8-0.1-1.2-0.2s-0.7-0.3-1-0.5
		c-0.3-0.2-0.5-0.5-0.7-0.8c-0.2-0.3-0.3-0.7-0.3-1.2c0-0.5,0.1-0.9,0.3-1.3c0.2-0.3,0.4-0.6,0.8-0.9c0.3-0.2,0.7-0.4,1.1-0.5
		c0.4-0.1,0.8-0.2,1.3-0.3c0.4-0.1,0.9-0.1,1.3-0.1s0.8,0,1.2,0c0-0.5-0.2-0.9-0.5-1.1c-0.3-0.3-0.7-0.4-1.2-0.4
		c-0.4,0-0.8,0.1-1.2,0.3c-0.4,0.2-0.7,0.4-1,0.8l-1.4-1.5c0.5-0.5,1.1-0.8,1.8-1.1c0.7-0.2,1.4-0.4,2.1-0.4c0.8,0,1.4,0.1,2,0.3
		c0.5,0.2,0.9,0.5,1.2,0.9c0.3,0.4,0.5,0.9,0.6,1.4c0.1,0.6,0.2,1.2,0.2,1.9v4.4h-2.5V200.7z M324.6,197.9c-0.2,0-0.5,0-0.8,0
		c-0.3,0-0.6,0.1-0.9,0.2s-0.5,0.2-0.7,0.4c-0.2,0.2-0.3,0.4-0.3,0.7c0,0.3,0.1,0.6,0.4,0.7c0.3,0.2,0.6,0.2,0.9,0.2
		c0.3,0,0.5,0,0.8-0.1c0.2-0.1,0.5-0.2,0.7-0.3c0.2-0.1,0.3-0.3,0.5-0.5c0.1-0.2,0.2-0.4,0.2-0.7v-0.6H324.6z"/>
	<path fill="#26BEC9" d="M329.4,193h2.7v1.4h0c0.3-0.5,0.6-0.9,1-1.2c0.4-0.3,0.9-0.4,1.5-0.4c0.2,0,0.3,0,0.5,0
		c0.2,0,0.3,0,0.4,0.1v2.5c-0.2-0.1-0.4-0.1-0.6-0.1s-0.4,0-0.6,0c-0.5,0-0.9,0.1-1.2,0.2c-0.3,0.1-0.5,0.3-0.7,0.6
		c-0.2,0.3-0.3,0.6-0.3,0.9c0,0.4-0.1,0.8-0.1,1.2v3.7h-2.7V193z"/>
	<path fill="#26BEC9" d="M344.7,200.3c-0.4,0.6-1,1-1.6,1.3c-0.7,0.3-1.3,0.5-2.1,0.5c-0.7,0-1.3-0.1-1.9-0.3
		c-0.6-0.2-1.1-0.5-1.5-0.9c-0.4-0.4-0.8-0.9-1-1.4c-0.3-0.6-0.4-1.2-0.4-1.9c0-0.7,0.1-1.3,0.4-1.9c0.3-0.6,0.6-1,1-1.4
		c0.4-0.4,1-0.7,1.5-0.9c0.6-0.2,1.2-0.3,1.9-0.3c0.6,0,1.2,0.1,1.7,0.3c0.5,0.2,0.9,0.5,1.3,0.9s0.6,0.9,0.8,1.4
		c0.2,0.6,0.3,1.2,0.3,1.9v0.8h-6.3c0.1,0.5,0.3,0.9,0.7,1.2s0.8,0.5,1.3,0.5c0.4,0,0.8-0.1,1.1-0.3s0.6-0.5,0.8-0.8L344.7,200.3z
		 M342.4,196.4c0-0.5-0.1-0.8-0.5-1.2s-0.7-0.5-1.2-0.5c-0.3,0-0.6,0-0.8,0.1s-0.4,0.2-0.6,0.4s-0.3,0.3-0.4,0.5
		c-0.1,0.2-0.1,0.4-0.2,0.6H342.4z"/>
	<path fill="#26BEC9" d="M355.9,201.8h-2.5v-1.2h0c-0.1,0.2-0.2,0.3-0.4,0.5s-0.4,0.3-0.6,0.4c-0.2,0.1-0.5,0.2-0.8,0.3
		c-0.3,0.1-0.6,0.1-0.9,0.1c-0.6,0-1.2-0.1-1.8-0.3c-0.5-0.2-1-0.5-1.4-0.9s-0.7-0.9-0.9-1.4c-0.2-0.6-0.3-1.2-0.3-1.8
		c0-0.6,0.1-1.2,0.3-1.8c0.2-0.6,0.4-1.1,0.8-1.5c0.3-0.4,0.8-0.8,1.3-1c0.5-0.3,1-0.4,1.7-0.4c0.6,0,1.1,0.1,1.6,0.3
		c0.5,0.2,0.9,0.5,1.2,0.9h0v-5.8h2.7V201.8z M353.5,197.4c0-0.7-0.2-1.2-0.6-1.6c-0.4-0.4-0.9-0.6-1.6-0.6c-0.7,0-1.2,0.2-1.6,0.6
		c-0.4,0.4-0.6,0.9-0.6,1.6s0.2,1.2,0.6,1.6c0.4,0.4,0.9,0.6,1.6,0.6c0.7,0,1.2-0.2,1.6-0.6C353.3,198.6,353.5,198.1,353.5,197.4z"
		/>
	<path fill="#26BEC9" d="M41.1,217.2h-2.4v2.9c0,0.2,0,0.5,0,0.7c0,0.2,0.1,0.4,0.2,0.5c0.1,0.1,0.2,0.3,0.4,0.3
		c0.2,0.1,0.4,0.1,0.7,0.1c0.1,0,0.3,0,0.6,0c0.2,0,0.4-0.1,0.5-0.2v2.2c-0.3,0.1-0.6,0.2-0.9,0.2c-0.3,0-0.6,0.1-1,0.1
		c-0.5,0-0.9,0-1.3-0.1c-0.4-0.1-0.7-0.2-1-0.5s-0.5-0.5-0.7-0.8s-0.2-0.7-0.2-1.2v-4.2h-1.7V215H36v-2.6h2.7v2.6h2.4V217.2z"/>
	<path fill="#26BEC9" d="M42.1,219.4c0-0.7,0.1-1.3,0.4-1.9c0.3-0.6,0.6-1,1-1.4s1-0.7,1.5-0.9c0.6-0.2,1.2-0.3,1.9-0.3
		c0.7,0,1.3,0.1,1.9,0.3c0.6,0.2,1.1,0.5,1.5,0.9s0.8,0.9,1,1.4c0.3,0.6,0.4,1.2,0.4,1.9c0,0.7-0.1,1.3-0.4,1.9
		c-0.3,0.6-0.6,1-1,1.4c-0.4,0.4-1,0.7-1.5,0.9c-0.6,0.2-1.2,0.3-1.9,0.3c-0.7,0-1.3-0.1-1.9-0.3c-0.6-0.2-1.1-0.5-1.5-0.9
		c-0.4-0.4-0.8-0.9-1-1.4C42.3,220.7,42.1,220.1,42.1,219.4z M44.8,219.4c0,0.7,0.2,1.2,0.6,1.6c0.4,0.4,0.9,0.6,1.6,0.6
		c0.7,0,1.2-0.2,1.6-0.6c0.4-0.4,0.6-0.9,0.6-1.6s-0.2-1.2-0.6-1.6c-0.4-0.4-0.9-0.6-1.6-0.6c-0.7,0-1.2,0.2-1.6,0.6
		C45,218.2,44.8,218.8,44.8,219.4z"/>
	<path fill="#26BEC9" d="M52.4,215h2.9l1.8,5.5h0l1.5-5.5h3l1.6,5.5h0l1.6-5.5h2.7l-3.1,8.7h-2.7L60,218h0l-1.6,5.8h-2.7L52.4,215z"
		/>
	<path fill="#26BEC9" d="M73.9,222.7L73.9,222.7c-0.3,0.5-0.7,0.8-1.2,1s-1,0.3-1.6,0.3c-0.4,0-0.8-0.1-1.2-0.2s-0.7-0.3-1-0.5
		c-0.3-0.2-0.5-0.5-0.7-0.8c-0.2-0.3-0.3-0.7-0.3-1.2c0-0.5,0.1-0.9,0.3-1.3c0.2-0.3,0.4-0.6,0.8-0.9c0.3-0.2,0.7-0.4,1.1-0.5
		c0.4-0.1,0.8-0.2,1.3-0.3c0.4-0.1,0.9-0.1,1.3-0.1s0.8,0,1.2,0c0-0.5-0.2-0.9-0.5-1.1c-0.3-0.3-0.7-0.4-1.2-0.4
		c-0.4,0-0.8,0.1-1.2,0.3c-0.4,0.2-0.7,0.4-1,0.8l-1.4-1.5c0.5-0.5,1.1-0.8,1.8-1.1c0.7-0.2,1.4-0.4,2.1-0.4c0.8,0,1.4,0.1,2,0.3
		c0.5,0.2,0.9,0.5,1.2,0.9c0.3,0.4,0.5,0.9,0.6,1.4c0.1,0.6,0.2,1.2,0.2,1.9v4.4h-2.5V222.7z M73.3,220c-0.2,0-0.5,0-0.8,0
		c-0.3,0-0.6,0.1-0.9,0.2s-0.5,0.2-0.7,0.4c-0.2,0.2-0.3,0.4-0.3,0.7c0,0.3,0.1,0.6,0.4,0.7c0.3,0.2,0.6,0.2,0.9,0.2
		c0.3,0,0.5,0,0.8-0.1c0.2-0.1,0.5-0.2,0.7-0.3c0.2-0.1,0.3-0.3,0.5-0.5c0.1-0.2,0.2-0.4,0.2-0.7V220H73.3z"/>
	<path fill="#26BEC9" d="M78.1,215h2.7v1.4h0c0.3-0.5,0.6-0.9,1-1.2c0.4-0.3,0.9-0.4,1.5-0.4c0.2,0,0.3,0,0.5,0c0.2,0,0.3,0,0.4,0.1
		v2.5c-0.2-0.1-0.4-0.1-0.6-0.1s-0.4,0-0.6,0c-0.5,0-0.9,0.1-1.2,0.2c-0.3,0.1-0.5,0.3-0.7,0.6c-0.2,0.3-0.3,0.6-0.3,0.9
		c0,0.4-0.1,0.8-0.1,1.2v3.7h-2.7V215z"/>
	<path fill="#26BEC9" d="M94.3,223.8h-2.5v-1.2h0c-0.1,0.2-0.2,0.3-0.4,0.5s-0.4,0.3-0.6,0.4c-0.2,0.1-0.5,0.2-0.8,0.3
		c-0.3,0.1-0.6,0.1-0.9,0.1c-0.6,0-1.2-0.1-1.8-0.3c-0.5-0.2-1-0.5-1.4-0.9s-0.7-0.9-0.9-1.4c-0.2-0.6-0.3-1.2-0.3-1.8
		c0-0.6,0.1-1.2,0.3-1.8c0.2-0.6,0.4-1.1,0.8-1.5c0.3-0.4,0.8-0.8,1.3-1c0.5-0.3,1-0.4,1.7-0.4c0.6,0,1.1,0.1,1.6,0.3
		c0.5,0.2,0.9,0.5,1.2,0.9h0v-5.8h2.7V223.8z M91.8,219.4c0-0.7-0.2-1.2-0.6-1.6c-0.4-0.4-0.9-0.6-1.6-0.6c-0.7,0-1.2,0.2-1.6,0.6
		c-0.4,0.4-0.6,0.9-0.6,1.6s0.2,1.2,0.6,1.6c0.4,0.4,0.9,0.6,1.6,0.6c0.7,0,1.2-0.2,1.6-0.6C91.6,220.6,91.8,220.1,91.8,219.4z"/>
	<path fill="#26BEC9" d="M101.4,217.6c-0.4-0.5-0.9-0.7-1.6-0.7c-0.2,0-0.4,0.1-0.7,0.2c-0.2,0.1-0.3,0.3-0.3,0.6
		c0,0.2,0.1,0.4,0.3,0.5c0.2,0.1,0.5,0.2,0.8,0.3c0.3,0.1,0.7,0.2,1.1,0.3c0.4,0.1,0.8,0.2,1.1,0.4c0.3,0.2,0.6,0.5,0.8,0.8
		s0.3,0.8,0.3,1.3c0,0.6-0.1,1-0.4,1.4c-0.2,0.4-0.6,0.7-0.9,0.9c-0.4,0.2-0.8,0.4-1.3,0.5s-1,0.1-1.4,0.1c-0.6,0-1.2-0.1-1.9-0.3
		c-0.6-0.2-1.2-0.5-1.6-0.9l1.6-1.8c0.3,0.3,0.5,0.5,0.8,0.7c0.3,0.2,0.7,0.2,1.1,0.2c0.3,0,0.6,0,0.8-0.1c0.3-0.1,0.4-0.3,0.4-0.5
		c0-0.2-0.1-0.4-0.3-0.5c-0.2-0.1-0.5-0.2-0.8-0.3c-0.3-0.1-0.7-0.2-1.1-0.3c-0.4-0.1-0.8-0.2-1.1-0.4c-0.3-0.2-0.6-0.4-0.8-0.8
		c-0.2-0.3-0.3-0.8-0.3-1.3c0-0.5,0.1-1,0.3-1.3s0.5-0.7,0.8-0.9s0.7-0.4,1.2-0.5c0.4-0.1,0.9-0.2,1.3-0.2c0.6,0,1.2,0.1,1.7,0.3
		s1.1,0.5,1.5,0.9L101.4,217.6z"/>
	<path fill="#26BEC9" d="M118.4,222.3c-0.4,0.6-1,1-1.6,1.3c-0.7,0.3-1.3,0.5-2.1,0.5c-0.7,0-1.3-0.1-1.9-0.3
		c-0.6-0.2-1.1-0.5-1.5-0.9c-0.4-0.4-0.8-0.9-1-1.4c-0.3-0.6-0.4-1.2-0.4-1.9c0-0.7,0.1-1.3,0.4-1.9c0.3-0.6,0.6-1,1-1.4
		c0.4-0.4,1-0.7,1.5-0.9c0.6-0.2,1.2-0.3,1.9-0.3c0.6,0,1.2,0.1,1.7,0.3c0.5,0.2,0.9,0.5,1.3,0.9s0.6,0.9,0.8,1.4
		c0.2,0.6,0.3,1.2,0.3,1.9v0.8h-6.3c0.1,0.5,0.3,0.9,0.7,1.2s0.8,0.5,1.3,0.5c0.4,0,0.8-0.1,1.1-0.3s0.6-0.5,0.8-0.8L118.4,222.3z
		 M116.1,218.4c0-0.5-0.1-0.8-0.5-1.2s-0.7-0.5-1.2-0.5c-0.3,0-0.6,0-0.8,0.1s-0.4,0.2-0.6,0.4s-0.3,0.3-0.4,0.5
		c-0.1,0.2-0.1,0.4-0.2,0.6H116.1z"/>
	<path fill="#26BEC9" d="M120.4,215h2.6v1.2h0c0.1-0.2,0.2-0.3,0.4-0.5c0.2-0.2,0.3-0.3,0.6-0.4s0.5-0.2,0.7-0.3s0.6-0.1,0.9-0.1
		c0.7,0,1.2,0.1,1.7,0.3c0.4,0.2,0.7,0.5,1,0.9c0.2,0.4,0.4,0.8,0.5,1.3s0.1,1,0.1,1.6v4.8h-2.7v-4.3c0-0.3,0-0.5,0-0.8
		c0-0.3-0.1-0.5-0.2-0.7c-0.1-0.2-0.2-0.4-0.4-0.6c-0.2-0.1-0.5-0.2-0.8-0.2s-0.6,0.1-0.8,0.2c-0.2,0.1-0.4,0.3-0.5,0.5
		c-0.1,0.2-0.2,0.4-0.2,0.7c0,0.3-0.1,0.5-0.1,0.8v4.4h-2.7V215z"/>
	<path fill="#26BEC9" d="M136.3,222.7L136.3,222.7c-0.3,0.5-0.7,0.8-1.2,1s-1,0.3-1.6,0.3c-0.4,0-0.8-0.1-1.2-0.2s-0.7-0.3-1-0.5
		c-0.3-0.2-0.5-0.5-0.7-0.8c-0.2-0.3-0.3-0.7-0.3-1.2c0-0.5,0.1-0.9,0.3-1.3c0.2-0.3,0.4-0.6,0.8-0.9c0.3-0.2,0.7-0.4,1.1-0.5
		c0.4-0.1,0.8-0.2,1.3-0.3c0.4-0.1,0.9-0.1,1.3-0.1s0.8,0,1.2,0c0-0.5-0.2-0.9-0.5-1.1c-0.3-0.3-0.7-0.4-1.2-0.4
		c-0.4,0-0.8,0.1-1.2,0.3c-0.4,0.2-0.7,0.4-1,0.8l-1.4-1.5c0.5-0.5,1.1-0.8,1.8-1.1c0.7-0.2,1.4-0.4,2.1-0.4c0.8,0,1.4,0.1,2,0.3
		c0.5,0.2,0.9,0.5,1.2,0.9c0.3,0.4,0.5,0.9,0.6,1.4c0.1,0.6,0.2,1.2,0.2,1.9v4.4h-2.5V222.7z M135.6,220c-0.2,0-0.5,0-0.8,0
		c-0.3,0-0.6,0.1-0.9,0.2s-0.5,0.2-0.7,0.4c-0.2,0.2-0.3,0.4-0.3,0.7c0,0.3,0.1,0.6,0.4,0.7c0.3,0.2,0.6,0.2,0.9,0.2
		c0.3,0,0.5,0,0.8-0.1c0.2-0.1,0.5-0.2,0.7-0.3c0.2-0.1,0.3-0.3,0.5-0.5c0.1-0.2,0.2-0.4,0.2-0.7V220H135.6z"/>
	<path fill="#26BEC9" d="M140.7,210.2h2.7v5.8h0c0.3-0.4,0.7-0.7,1.2-0.9c0.5-0.2,1-0.3,1.6-0.3c0.6,0,1.2,0.1,1.7,0.4
		c0.5,0.3,0.9,0.6,1.3,1c0.3,0.4,0.6,0.9,0.8,1.5c0.2,0.6,0.3,1.1,0.3,1.8c0,0.7-0.1,1.3-0.3,1.8c-0.2,0.6-0.5,1-0.9,1.4
		c-0.4,0.4-0.8,0.7-1.4,0.9s-1.1,0.3-1.8,0.3c-0.3,0-0.6,0-0.9-0.1s-0.5-0.2-0.8-0.3c-0.2-0.1-0.4-0.3-0.6-0.4s-0.3-0.3-0.4-0.5h0
		v1.2h-2.5V210.2z M143.2,219.4c0,0.7,0.2,1.2,0.6,1.6c0.4,0.4,0.9,0.6,1.6,0.6s1.2-0.2,1.6-0.6c0.4-0.4,0.6-0.9,0.6-1.6
		s-0.2-1.2-0.6-1.6c-0.4-0.4-0.9-0.6-1.6-0.6s-1.2,0.2-1.6,0.6C143.4,218.2,143.2,218.8,143.2,219.4z"/>
	<path fill="#26BEC9" d="M151.8,210.2h2.7v13.6h-2.7V210.2z"/>
	<path fill="#26BEC9" d="M156.3,212.3c0-0.4,0.2-0.8,0.5-1.1c0.3-0.3,0.7-0.5,1.1-0.5c0.4,0,0.8,0.2,1.1,0.5
		c0.3,0.3,0.5,0.7,0.5,1.1s-0.2,0.8-0.5,1.1c-0.3,0.3-0.7,0.5-1.1,0.5c-0.4,0-0.8-0.2-1.1-0.5C156.4,213.1,156.3,212.7,156.3,212.3z
		 M156.5,215h2.7v8.7h-2.7V215z"/>
	<path fill="#26BEC9" d="M161.1,215h2.6v1.2h0c0.1-0.2,0.2-0.3,0.4-0.5c0.2-0.2,0.3-0.3,0.6-0.4s0.5-0.2,0.7-0.3s0.6-0.1,0.9-0.1
		c0.7,0,1.2,0.1,1.7,0.3c0.4,0.2,0.7,0.5,1,0.9c0.2,0.4,0.4,0.8,0.5,1.3s0.1,1,0.1,1.6v4.8h-2.7v-4.3c0-0.3,0-0.5,0-0.8
		c0-0.3-0.1-0.5-0.2-0.7c-0.1-0.2-0.2-0.4-0.4-0.6c-0.2-0.1-0.5-0.2-0.8-0.2s-0.6,0.1-0.8,0.2c-0.2,0.1-0.4,0.3-0.5,0.5
		c-0.1,0.2-0.2,0.4-0.2,0.7c0,0.3-0.1,0.5-0.1,0.8v4.4h-2.7V215z"/>
	<path fill="#26BEC9" d="M180.6,223.1c0,1.7-0.4,2.9-1.3,3.8c-0.8,0.9-2.1,1.3-3.8,1.3c-0.8,0-1.5-0.1-2.3-0.3s-1.5-0.5-2.1-1
		l1.5-2.2c0.4,0.3,0.9,0.6,1.3,0.8s1,0.3,1.5,0.3c0.8,0,1.4-0.2,1.8-0.6c0.4-0.4,0.6-0.9,0.6-1.5v-0.8h0c-0.3,0.4-0.7,0.7-1.2,0.9
		s-0.9,0.3-1.3,0.3c-0.6,0-1.2-0.1-1.8-0.3c-0.5-0.2-1-0.5-1.4-0.9c-0.4-0.4-0.7-0.9-0.9-1.4s-0.3-1.2-0.3-1.8
		c0-0.6,0.1-1.1,0.3-1.7c0.2-0.6,0.4-1,0.8-1.5c0.3-0.4,0.8-0.8,1.3-1c0.5-0.3,1-0.4,1.7-0.4c0.4,0,0.7,0,1.1,0.1
		c0.3,0.1,0.6,0.2,0.9,0.3s0.5,0.3,0.6,0.4c0.2,0.2,0.3,0.3,0.4,0.5h0V215h2.5V223.1z M173.8,219.4c0,0.3,0.1,0.6,0.2,0.8
		c0.1,0.3,0.3,0.5,0.5,0.7c0.2,0.2,0.4,0.4,0.7,0.5c0.3,0.1,0.5,0.2,0.9,0.2c0.3,0,0.6-0.1,0.8-0.2c0.3-0.1,0.5-0.3,0.7-0.5
		c0.2-0.2,0.4-0.4,0.5-0.7c0.1-0.3,0.2-0.5,0.2-0.8s-0.1-0.6-0.2-0.8c-0.1-0.3-0.3-0.5-0.5-0.7c-0.2-0.2-0.4-0.4-0.7-0.5
		c-0.3-0.1-0.5-0.2-0.8-0.2c-0.3,0-0.6,0.1-0.9,0.2c-0.3,0.1-0.5,0.3-0.7,0.5c-0.2,0.2-0.4,0.4-0.5,0.7
		C173.9,218.8,173.8,219.1,173.8,219.4z"/>
	<path fill="#26BEC9" d="M188.5,211h4.2l2.9,8.3h0l3-8.3h4.2v12.7h-2.8V214h0l-3.3,9.8h-2.1l-3.2-9.8h0v9.8h-2.8V211z"/>
	<path fill="#26BEC9" d="M210.6,222.7L210.6,222.7c-0.3,0.5-0.7,0.8-1.2,1s-1,0.3-1.6,0.3c-0.4,0-0.8-0.1-1.2-0.2s-0.7-0.3-1-0.5
		c-0.3-0.2-0.5-0.5-0.7-0.8c-0.2-0.3-0.3-0.7-0.3-1.2c0-0.5,0.1-0.9,0.3-1.3c0.2-0.3,0.4-0.6,0.8-0.9c0.3-0.2,0.7-0.4,1.1-0.5
		c0.4-0.1,0.8-0.2,1.3-0.3c0.4-0.1,0.9-0.1,1.3-0.1s0.8,0,1.2,0c0-0.5-0.2-0.9-0.5-1.1c-0.3-0.3-0.7-0.4-1.2-0.4
		c-0.4,0-0.8,0.1-1.2,0.3c-0.4,0.2-0.7,0.4-1,0.8l-1.4-1.5c0.5-0.5,1.1-0.8,1.8-1.1c0.7-0.2,1.4-0.4,2.1-0.4c0.8,0,1.4,0.1,2,0.3
		c0.5,0.2,0.9,0.5,1.2,0.9c0.3,0.4,0.5,0.9,0.6,1.4c0.1,0.6,0.2,1.2,0.2,1.9v4.4h-2.5V222.7z M209.9,220c-0.2,0-0.5,0-0.8,0
		c-0.3,0-0.6,0.1-0.9,0.2s-0.5,0.2-0.7,0.4c-0.2,0.2-0.3,0.4-0.3,0.7c0,0.3,0.1,0.6,0.4,0.7c0.3,0.2,0.6,0.2,0.9,0.2
		c0.3,0,0.5,0,0.8-0.1c0.2-0.1,0.5-0.2,0.7-0.3c0.2-0.1,0.3-0.3,0.5-0.5c0.1-0.2,0.2-0.4,0.2-0.7V220H209.9z"/>
	<path fill="#26BEC9" d="M214.8,210.2h2.7v13.6h-2.7V210.2z"/>
	<path fill="#26BEC9" d="M225,222.7L225,222.7c-0.3,0.5-0.7,0.8-1.2,1s-1,0.3-1.6,0.3c-0.4,0-0.8-0.1-1.2-0.2s-0.7-0.3-1-0.5
		c-0.3-0.2-0.5-0.5-0.7-0.8c-0.2-0.3-0.3-0.7-0.3-1.2c0-0.5,0.1-0.9,0.3-1.3c0.2-0.3,0.4-0.6,0.8-0.9c0.3-0.2,0.7-0.4,1.1-0.5
		c0.4-0.1,0.8-0.2,1.3-0.3c0.4-0.1,0.9-0.1,1.3-0.1s0.8,0,1.2,0c0-0.5-0.2-0.9-0.5-1.1c-0.3-0.3-0.7-0.4-1.2-0.4
		c-0.4,0-0.8,0.1-1.2,0.3c-0.4,0.2-0.7,0.4-1,0.8l-1.4-1.5c0.5-0.5,1.1-0.8,1.8-1.1c0.7-0.2,1.4-0.4,2.1-0.4c0.8,0,1.4,0.1,2,0.3
		c0.5,0.2,0.9,0.5,1.2,0.9c0.3,0.4,0.5,0.9,0.6,1.4c0.1,0.6,0.2,1.2,0.2,1.9v4.4H225V222.7z M224.3,220c-0.2,0-0.5,0-0.8,0
		c-0.3,0-0.6,0.1-0.9,0.2s-0.5,0.2-0.7,0.4c-0.2,0.2-0.3,0.4-0.3,0.7c0,0.3,0.1,0.6,0.4,0.7c0.3,0.2,0.6,0.2,0.9,0.2
		c0.3,0,0.5,0,0.8-0.1c0.2-0.1,0.5-0.2,0.7-0.3c0.2-0.1,0.3-0.3,0.5-0.5c0.1-0.2,0.2-0.4,0.2-0.7V220H224.3z"/>
	<path fill="#26BEC9" d="M234.2,225.2c-0.2,0.5-0.4,0.9-0.5,1.2c-0.2,0.4-0.4,0.7-0.6,0.9c-0.3,0.2-0.6,0.4-1,0.6s-0.9,0.2-1.6,0.2
		c-0.7,0-1.4-0.1-2-0.3l0.4-2.2c0.4,0.2,0.8,0.3,1.3,0.3c0.3,0,0.5,0,0.7-0.1c0.2-0.1,0.4-0.2,0.5-0.3s0.2-0.3,0.3-0.5
		s0.2-0.4,0.3-0.6l0.2-0.5l-3.8-8.8h2.9l2.2,5.8h0l1.9-5.8h2.8L234.2,225.2z"/>
	<path fill="#26BEC9" d="M244.1,217.6c-0.4-0.5-0.9-0.7-1.6-0.7c-0.2,0-0.4,0.1-0.7,0.2c-0.2,0.1-0.3,0.3-0.3,0.6
		c0,0.2,0.1,0.4,0.3,0.5c0.2,0.1,0.5,0.2,0.8,0.3c0.3,0.1,0.7,0.2,1.1,0.3c0.4,0.1,0.8,0.2,1.1,0.4c0.3,0.2,0.6,0.5,0.8,0.8
		s0.3,0.8,0.3,1.3c0,0.6-0.1,1-0.4,1.4c-0.2,0.4-0.6,0.7-0.9,0.9c-0.4,0.2-0.8,0.4-1.3,0.5s-1,0.1-1.4,0.1c-0.6,0-1.2-0.1-1.9-0.3
		c-0.6-0.2-1.2-0.5-1.6-0.9l1.6-1.8c0.3,0.3,0.5,0.5,0.8,0.7c0.3,0.2,0.7,0.2,1.1,0.2c0.3,0,0.6,0,0.8-0.1c0.3-0.1,0.4-0.3,0.4-0.5
		c0-0.2-0.1-0.4-0.3-0.5c-0.2-0.1-0.5-0.2-0.8-0.3c-0.3-0.1-0.7-0.2-1.1-0.3c-0.4-0.1-0.8-0.2-1.1-0.4c-0.3-0.2-0.6-0.4-0.8-0.8
		c-0.2-0.3-0.3-0.8-0.3-1.3c0-0.5,0.1-1,0.3-1.3s0.5-0.7,0.8-0.9s0.7-0.4,1.2-0.5c0.4-0.1,0.9-0.2,1.3-0.2c0.6,0,1.2,0.1,1.7,0.3
		s1.1,0.5,1.5,0.9L244.1,217.6z"/>
	<path fill="#26BEC9" d="M247.3,212.3c0-0.4,0.2-0.8,0.5-1.1c0.3-0.3,0.7-0.5,1.1-0.5c0.4,0,0.8,0.2,1.1,0.5
		c0.3,0.3,0.5,0.7,0.5,1.1s-0.2,0.8-0.5,1.1c-0.3,0.3-0.7,0.5-1.1,0.5c-0.4,0-0.8-0.2-1.1-0.5C247.4,213.1,247.3,212.7,247.3,212.3z
		 M247.5,215h2.7v8.7h-2.7V215z"/>
	<path fill="#26BEC9" d="M257.6,222.7L257.6,222.7c-0.3,0.5-0.7,0.8-1.2,1c-0.5,0.2-1,0.3-1.6,0.3c-0.4,0-0.8-0.1-1.2-0.2
		s-0.7-0.3-1-0.5c-0.3-0.2-0.5-0.5-0.7-0.8c-0.2-0.3-0.3-0.7-0.3-1.2c0-0.5,0.1-0.9,0.3-1.3c0.2-0.3,0.4-0.6,0.8-0.9
		c0.3-0.2,0.7-0.4,1.1-0.5c0.4-0.1,0.8-0.2,1.3-0.3c0.4-0.1,0.9-0.1,1.3-0.1c0.4,0,0.8,0,1.2,0c0-0.5-0.2-0.9-0.5-1.1
		c-0.3-0.3-0.7-0.4-1.2-0.4c-0.4,0-0.8,0.1-1.2,0.3c-0.4,0.2-0.7,0.4-1,0.8l-1.4-1.5c0.5-0.5,1.1-0.8,1.8-1.1
		c0.7-0.2,1.4-0.4,2.1-0.4c0.8,0,1.4,0.1,2,0.3c0.5,0.2,0.9,0.5,1.2,0.9c0.3,0.4,0.5,0.9,0.6,1.4c0.1,0.6,0.2,1.2,0.2,1.9v4.4h-2.5
		V222.7z M257,220c-0.2,0-0.5,0-0.8,0c-0.3,0-0.6,0.1-0.9,0.2s-0.5,0.2-0.7,0.4c-0.2,0.2-0.3,0.4-0.3,0.7c0,0.3,0.1,0.6,0.4,0.7
		c0.3,0.2,0.6,0.2,0.9,0.2c0.3,0,0.5,0,0.8-0.1c0.2-0.1,0.5-0.2,0.7-0.3c0.2-0.1,0.3-0.3,0.5-0.5c0.1-0.2,0.2-0.4,0.2-0.7V220H257z"
		/>
	<path fill="#26BEC9" d="M273.1,217.2h-2.4v2.9c0,0.2,0,0.5,0,0.7c0,0.2,0.1,0.4,0.2,0.5c0.1,0.1,0.2,0.3,0.4,0.3
		c0.2,0.1,0.4,0.1,0.7,0.1c0.1,0,0.3,0,0.6,0c0.2,0,0.4-0.1,0.5-0.2v2.2c-0.3,0.1-0.6,0.2-0.9,0.2c-0.3,0-0.6,0.1-1,0.1
		c-0.5,0-0.9,0-1.3-0.1c-0.4-0.1-0.7-0.2-1-0.5s-0.5-0.5-0.7-0.8s-0.2-0.7-0.2-1.2v-4.2h-1.7V215h1.7v-2.6h2.7v2.6h2.4V217.2z"/>
	<path fill="#26BEC9" d="M274.1,219.4c0-0.7,0.1-1.3,0.4-1.9c0.3-0.6,0.6-1,1-1.4s1-0.7,1.5-0.9c0.6-0.2,1.2-0.3,1.9-0.3
		c0.7,0,1.3,0.1,1.9,0.3c0.6,0.2,1.1,0.5,1.5,0.9s0.8,0.9,1,1.4c0.3,0.6,0.4,1.2,0.4,1.9c0,0.7-0.1,1.3-0.4,1.9
		c-0.3,0.6-0.6,1-1,1.4c-0.4,0.4-1,0.7-1.5,0.9c-0.6,0.2-1.2,0.3-1.9,0.3c-0.7,0-1.3-0.1-1.9-0.3c-0.6-0.2-1.1-0.5-1.5-0.9
		c-0.4-0.4-0.8-0.9-1-1.4C274.3,220.7,274.1,220.1,274.1,219.4z M276.8,219.4c0,0.7,0.2,1.2,0.6,1.6c0.4,0.4,0.9,0.6,1.6,0.6
		c0.7,0,1.2-0.2,1.6-0.6c0.4-0.4,0.6-0.9,0.6-1.6s-0.2-1.2-0.6-1.6c-0.4-0.4-0.9-0.6-1.6-0.6c-0.7,0-1.2,0.2-1.6,0.6
		C277,218.2,276.8,218.8,276.8,219.4z"/>
	<path fill="#26BEC9" d="M299.1,222.3c-0.4,0.6-1,1-1.6,1.3c-0.7,0.3-1.3,0.5-2.1,0.5c-0.7,0-1.3-0.1-1.9-0.3
		c-0.6-0.2-1.1-0.5-1.5-0.9c-0.4-0.4-0.8-0.9-1-1.4c-0.3-0.6-0.4-1.2-0.4-1.9c0-0.7,0.1-1.3,0.4-1.9c0.3-0.6,0.6-1,1-1.4
		c0.4-0.4,1-0.7,1.5-0.9c0.6-0.2,1.2-0.3,1.9-0.3c0.6,0,1.2,0.1,1.7,0.3c0.5,0.2,0.9,0.5,1.3,0.9s0.6,0.9,0.8,1.4
		c0.2,0.6,0.3,1.2,0.3,1.9v0.8h-6.3c0.1,0.5,0.3,0.9,0.7,1.2s0.8,0.5,1.3,0.5c0.4,0,0.8-0.1,1.1-0.3s0.6-0.5,0.8-0.8L299.1,222.3z
		 M296.8,218.4c0-0.5-0.1-0.8-0.5-1.2s-0.7-0.5-1.2-0.5c-0.3,0-0.6,0-0.8,0.1s-0.4,0.2-0.6,0.4s-0.3,0.3-0.4,0.5
		c-0.1,0.2-0.1,0.4-0.2,0.6H296.8z"/>
	<path fill="#26BEC9" d="M301.1,215h2.6v1.2h0c0.1-0.2,0.2-0.3,0.4-0.5c0.2-0.2,0.3-0.3,0.6-0.4s0.5-0.2,0.7-0.3s0.6-0.1,0.9-0.1
		c0.6,0,1.2,0.1,1.6,0.4c0.5,0.3,0.8,0.6,1.1,1.2c0.3-0.6,0.7-1,1.1-1.2c0.4-0.2,1-0.4,1.6-0.4c0.6,0,1.1,0.1,1.5,0.3
		c0.4,0.2,0.7,0.5,1,0.8c0.2,0.3,0.4,0.7,0.5,1.2c0.1,0.5,0.2,1,0.2,1.5v5.2h-2.7v-5.1c0-0.4-0.1-0.8-0.3-1.1
		c-0.2-0.3-0.5-0.4-0.9-0.4c-0.3,0-0.6,0.1-0.8,0.2c-0.2,0.1-0.4,0.2-0.5,0.4c-0.1,0.2-0.2,0.4-0.3,0.6c-0.1,0.2-0.1,0.5-0.1,0.8
		v4.6h-2.7v-4.6c0-0.2,0-0.3,0-0.6c0-0.2-0.1-0.4-0.1-0.6c-0.1-0.2-0.2-0.4-0.4-0.5c-0.2-0.1-0.4-0.2-0.7-0.2
		c-0.3,0-0.6,0.1-0.8,0.2c-0.2,0.1-0.4,0.3-0.5,0.5c-0.1,0.2-0.2,0.4-0.2,0.7c0,0.3-0.1,0.5-0.1,0.8v4.4h-2.7V215z"/>
	<path fill="#26BEC9" d="M325.1,222.3c-0.4,0.6-1,1-1.6,1.3c-0.7,0.3-1.3,0.5-2.1,0.5c-0.7,0-1.3-0.1-1.9-0.3
		c-0.6-0.2-1.1-0.5-1.5-0.9c-0.4-0.4-0.8-0.9-1-1.4c-0.3-0.6-0.4-1.2-0.4-1.9c0-0.7,0.1-1.3,0.4-1.9c0.3-0.6,0.6-1,1-1.4
		c0.4-0.4,1-0.7,1.5-0.9c0.6-0.2,1.2-0.3,1.9-0.3c0.6,0,1.2,0.1,1.7,0.3c0.5,0.2,0.9,0.5,1.3,0.9s0.6,0.9,0.8,1.4
		c0.2,0.6,0.3,1.2,0.3,1.9v0.8h-6.3c0.1,0.5,0.3,0.9,0.7,1.2s0.8,0.5,1.3,0.5c0.4,0,0.8-0.1,1.1-0.3s0.6-0.5,0.8-0.8L325.1,222.3z
		 M322.8,218.4c0-0.5-0.1-0.8-0.5-1.2s-0.7-0.5-1.2-0.5c-0.3,0-0.6,0-0.8,0.1s-0.4,0.2-0.6,0.4s-0.3,0.3-0.4,0.5
		c-0.1,0.2-0.1,0.4-0.2,0.6H322.8z"/>
	<path fill="#26BEC9" d="M327.1,215h2.7v1.4h0c0.3-0.5,0.6-0.9,1-1.2c0.4-0.3,0.9-0.4,1.5-0.4c0.2,0,0.3,0,0.5,0
		c0.2,0,0.3,0,0.4,0.1v2.5c-0.2-0.1-0.4-0.1-0.6-0.1s-0.4,0-0.6,0c-0.5,0-0.9,0.1-1.2,0.2c-0.3,0.1-0.5,0.3-0.7,0.6
		c-0.2,0.3-0.3,0.6-0.3,0.9c0,0.4-0.1,0.8-0.1,1.2v3.7h-2.7V215z"/>
	<path fill="#26BEC9" d="M343.3,223.1c0,1.7-0.4,2.9-1.3,3.8c-0.8,0.9-2.1,1.3-3.8,1.3c-0.8,0-1.5-0.1-2.3-0.3s-1.5-0.5-2.1-1
		l1.5-2.2c0.4,0.3,0.9,0.6,1.3,0.8s1,0.3,1.5,0.3c0.8,0,1.4-0.2,1.8-0.6c0.4-0.4,0.6-0.9,0.6-1.5v-0.8h0c-0.3,0.4-0.7,0.7-1.2,0.9
		s-0.9,0.3-1.3,0.3c-0.6,0-1.2-0.1-1.8-0.3c-0.5-0.2-1-0.5-1.4-0.9c-0.4-0.4-0.7-0.9-0.9-1.4s-0.3-1.2-0.3-1.8
		c0-0.6,0.1-1.1,0.3-1.7c0.2-0.6,0.4-1,0.8-1.5c0.3-0.4,0.8-0.8,1.3-1c0.5-0.3,1-0.4,1.7-0.4c0.4,0,0.7,0,1.1,0.1
		c0.3,0.1,0.6,0.2,0.9,0.3s0.5,0.3,0.6,0.4c0.2,0.2,0.3,0.3,0.4,0.5h0V215h2.5V223.1z M336.5,219.4c0,0.3,0.1,0.6,0.2,0.8
		c0.1,0.3,0.3,0.5,0.5,0.7c0.2,0.2,0.4,0.4,0.7,0.5c0.3,0.1,0.5,0.2,0.9,0.2c0.3,0,0.6-0.1,0.8-0.2c0.3-0.1,0.5-0.3,0.7-0.5
		c0.2-0.2,0.4-0.4,0.5-0.7c0.1-0.3,0.2-0.5,0.2-0.8s-0.1-0.6-0.2-0.8c-0.1-0.3-0.3-0.5-0.5-0.7c-0.2-0.2-0.4-0.4-0.7-0.5
		c-0.3-0.1-0.5-0.2-0.8-0.2c-0.3,0-0.6,0.1-0.9,0.2c-0.3,0.1-0.5,0.3-0.7,0.5c-0.2,0.2-0.4,0.4-0.5,0.7
		C336.5,218.8,336.5,219.1,336.5,219.4z"/>
	<path fill="#26BEC9" d="M353.7,222.3c-0.4,0.6-1,1-1.6,1.3c-0.7,0.3-1.3,0.5-2.1,0.5c-0.7,0-1.3-0.1-1.9-0.3
		c-0.6-0.2-1.1-0.5-1.5-0.9c-0.4-0.4-0.8-0.9-1-1.4c-0.3-0.6-0.4-1.2-0.4-1.9c0-0.7,0.1-1.3,0.4-1.9c0.3-0.6,0.6-1,1-1.4
		c0.4-0.4,1-0.7,1.5-0.9c0.6-0.2,1.2-0.3,1.9-0.3c0.6,0,1.2,0.1,1.7,0.3c0.5,0.2,0.9,0.5,1.3,0.9s0.6,0.9,0.8,1.4
		c0.2,0.6,0.3,1.2,0.3,1.9v0.8h-6.3c0.1,0.5,0.3,0.9,0.7,1.2s0.8,0.5,1.3,0.5c0.4,0,0.8-0.1,1.1-0.3s0.6-0.5,0.8-0.8L353.7,222.3z
		 M351.4,218.4c0-0.5-0.1-0.8-0.5-1.2s-0.7-0.5-1.2-0.5c-0.3,0-0.6,0-0.8,0.1s-0.4,0.2-0.6,0.4s-0.3,0.3-0.4,0.5
		c-0.1,0.2-0.1,0.4-0.2,0.6H351.4z"/>
	<path fill="#26BEC9" d="M366.6,222.7L366.6,222.7c-0.3,0.5-0.7,0.8-1.2,1s-1,0.3-1.6,0.3c-0.4,0-0.8-0.1-1.2-0.2s-0.7-0.3-1-0.5
		c-0.3-0.2-0.5-0.5-0.7-0.8c-0.2-0.3-0.3-0.7-0.3-1.2c0-0.5,0.1-0.9,0.3-1.3c0.2-0.3,0.4-0.6,0.8-0.9c0.3-0.2,0.7-0.4,1.1-0.5
		c0.4-0.1,0.8-0.2,1.3-0.3c0.4-0.1,0.9-0.1,1.3-0.1s0.8,0,1.2,0c0-0.5-0.2-0.9-0.5-1.1c-0.3-0.3-0.7-0.4-1.2-0.4
		c-0.4,0-0.8,0.1-1.2,0.3c-0.4,0.2-0.7,0.4-1,0.8l-1.4-1.5c0.5-0.5,1.1-0.8,1.8-1.1c0.7-0.2,1.4-0.4,2.1-0.4c0.8,0,1.4,0.1,2,0.3
		c0.5,0.2,0.9,0.5,1.2,0.9c0.3,0.4,0.5,0.9,0.6,1.4c0.1,0.6,0.2,1.2,0.2,1.9v4.4h-2.5V222.7z M365.9,220c-0.2,0-0.5,0-0.8,0
		c-0.3,0-0.6,0.1-0.9,0.2s-0.5,0.2-0.7,0.4c-0.2,0.2-0.3,0.4-0.3,0.7c0,0.3,0.1,0.6,0.4,0.7c0.3,0.2,0.6,0.2,0.9,0.2
		c0.3,0,0.5,0,0.8-0.1c0.2-0.1,0.5-0.2,0.7-0.3c0.2-0.1,0.3-0.3,0.5-0.5c0.1-0.2,0.2-0.4,0.2-0.7V220H365.9z"/>
	<path fill="#26BEC9" d="M375.7,217.6c-0.4-0.5-0.9-0.7-1.6-0.7c-0.2,0-0.4,0.1-0.7,0.2c-0.2,0.1-0.3,0.3-0.3,0.6
		c0,0.2,0.1,0.4,0.3,0.5c0.2,0.1,0.5,0.2,0.8,0.3c0.3,0.1,0.7,0.2,1.1,0.3c0.4,0.1,0.8,0.2,1.1,0.4c0.3,0.2,0.6,0.5,0.8,0.8
		s0.3,0.8,0.3,1.3c0,0.6-0.1,1-0.4,1.4c-0.2,0.4-0.6,0.7-0.9,0.9c-0.4,0.2-0.8,0.4-1.3,0.5s-1,0.1-1.4,0.1c-0.6,0-1.2-0.1-1.9-0.3
		c-0.6-0.2-1.2-0.5-1.6-0.9l1.6-1.8c0.3,0.3,0.5,0.5,0.8,0.7c0.3,0.2,0.7,0.2,1.1,0.2c0.3,0,0.6,0,0.8-0.1c0.3-0.1,0.4-0.3,0.4-0.5
		c0-0.2-0.1-0.4-0.3-0.5c-0.2-0.1-0.5-0.2-0.8-0.3c-0.3-0.1-0.7-0.2-1.1-0.3c-0.4-0.1-0.8-0.2-1.1-0.4c-0.3-0.2-0.6-0.4-0.8-0.8
		c-0.2-0.3-0.3-0.8-0.3-1.3c0-0.5,0.1-1,0.3-1.3s0.5-0.7,0.8-0.9s0.7-0.4,1.2-0.5c0.4-0.1,0.9-0.2,1.3-0.2c0.6,0,1.2,0.1,1.7,0.3
		s1.1,0.5,1.5,0.9L375.7,217.6z"/>
	<path fill="#26BEC9" d="M379.2,216.5c0-0.2,0-0.4,0.1-0.6s0.2-0.4,0.4-0.5c0.1-0.1,0.3-0.3,0.5-0.4c0.2-0.1,0.4-0.1,0.6-0.1
		c0.2,0,0.4,0,0.6,0.1s0.4,0.2,0.5,0.4c0.1,0.2,0.3,0.3,0.4,0.5s0.1,0.4,0.1,0.6c0,0.2,0,0.4-0.1,0.6s-0.2,0.4-0.4,0.5
		s-0.3,0.3-0.5,0.4c-0.2,0.1-0.4,0.1-0.6,0.1c-0.2,0-0.4,0-0.6-0.1c-0.2-0.1-0.4-0.2-0.5-0.4s-0.3-0.3-0.4-0.5
		S379.2,216.7,379.2,216.5z M379.2,222.2c0-0.2,0-0.4,0.1-0.6s0.2-0.4,0.4-0.5c0.1-0.2,0.3-0.3,0.5-0.4c0.2-0.1,0.4-0.1,0.6-0.1
		c0.2,0,0.4,0,0.6,0.1s0.4,0.2,0.5,0.4c0.1,0.1,0.3,0.3,0.4,0.5s0.1,0.4,0.1,0.6s0,0.4-0.1,0.6c-0.1,0.2-0.2,0.4-0.4,0.5
		c-0.1,0.2-0.3,0.3-0.5,0.4c-0.2,0.1-0.4,0.1-0.6,0.1c-0.2,0-0.4,0-0.6-0.1c-0.2-0.1-0.4-0.2-0.5-0.4c-0.1-0.1-0.3-0.3-0.4-0.5
		C379.2,222.7,379.2,222.5,379.2,222.2z"/>
</g>
</svg>
