<?xml version="1.0" encoding="utf-8"?>
<!-- Generator: Adobe Illustrator 18.1.1, SVG Export Plug-In . SVG Version: 6.00 Build 0)  -->
<svg version="1.0" id="Layer_1" xmlns="http://www.w3.org/2000/svg" xmlns:xlink="http://www.w3.org/1999/xlink" x="0px" y="0px"
	 viewBox="0 0 421.3 261.9" enable-background="new 0 0 421.3 261.9" xml:space="preserve">
<circle fill="#BC5459" cx="227.1" cy="94.2" r="89.7"/>
<circle fill="#FEFBDE" cx="219.3" cy="89.7" r="89.7"/>
<path fill="#1B6191" d="M291.6,89.7c0,40-32.4,72.4-72.4,72.4c-40,0-72.4-32.4-72.4-72.4c0-40,32.4-72.4,72.4-72.4
	C259.2,17.4,291.6,49.8,291.6,89.7"/>
<rect x="146.9" y="39" fill="none" width="144.7" height="144.7"/>
<g>
	<path fill="#F38473" d="M242.6,81.7c0,0-13.3,38.8-61.4,14.5C124.7,67.5,150.8,13,150.8,13s-30.1,52.8,21,90
		c17.8,12.9,45.2,17.5,57.3,9.2C239.9,104.8,244,95.1,242.6,81.7z"/>
	<path fill="#F38473" d="M222.1,83.6c0,0-41.9,7.9-55.3-38.6c0,0-2.5,39.1,51.8,52.7l10.2-1.4C228.8,96.3,232.8,80.1,222.1,83.6z"/>
	<g>
		<polygon fill="#134A89" enable-background="new    " points="242.9,67.7 250.8,50.8 250.6,69.5 265.1,57.7 256.8,74.5 275,70.1 
			260.3,81.6 278.6,85.6 260.3,89.6 275,101.1 256.8,96.7 265.1,113.5 250.6,101.7 250.8,120.4 242.9,103.5 234.9,120.4 
			235.1,101.7 220.6,113.5 228.9,96.7 210.7,101.1 225.4,89.6 207.1,85.6 225.4,81.6 210.7,70.1 228.9,74.5 220.6,57.7 235.1,69.5 
			234.9,50.8 		"/>
		<path fill="#FFFFFF" d="M242.9,66.2c-1-2.1-7.4-15.7-7.4-15.7l-1.2,0.3c0,0,0.2,15,0.2,17.4c-1.8-1.5-13.5-11-13.5-11l-1,0.8
			c0,0,6.7,13.5,7.7,15.6c-2.3-0.5-16.9-4-16.9-4l-0.5,1.1c0,0,11.8,9.2,13.7,10.7c-2.3,0.5-17,3.7-17,3.7v1.3c0,0,14.7,3.2,17,3.7
			c-1.9,1.4-13.7,10.7-13.7,10.7l0.5,1.1c0,0,14.6-3.5,16.9-4c-1,2.1-7.7,15.6-7.7,15.6l1,0.8c0,0,11.6-9.5,13.5-11
			c0,2.4-0.2,17.4-0.2,17.4l1.2,0.3c0,0,6.4-13.6,7.4-15.7c1,2.1,7.4,15.7,7.4,15.7l1.2-0.3c0,0-0.2-15-0.2-17.4
			c1.8,1.5,13.5,11,13.5,11l1-0.8c0,0-6.7-13.5-7.7-15.6c2.3,0.5,16.9,4,16.9,4l0.5-1.1c0,0-11.8-9.2-13.7-10.7
			c2.3-0.5,17-3.7,17-3.7V85c0,0-14.7-3.2-17-3.7c1.9-1.4,13.7-10.7,13.7-10.7l-0.5-1.1c0,0-14.6,3.5-16.9,4
			c1-2.1,7.7-15.6,7.7-15.6l-1-0.8c0,0-11.6,9.5-13.5,11c0-2.4,0.2-17.4,0.2-17.4l-1.2-0.3C250.2,50.5,243.9,64.1,242.9,66.2z
			 M243.4,68c0,0,4.9-10.5,6.7-14.3c0,4.2-0.2,17.1-0.2,17.1s10-8.2,13.3-10.8c-1.9,3.8-7.6,15.4-7.6,15.4s12.6-3,16.7-4
			C269,74,258.8,82,258.8,82s12.7,2.7,16.8,3.6c-4.1,0.9-16.8,3.6-16.8,3.6s10.2,8,13.5,10.5c-4.1-1-16.7-4-16.7-4
			s5.7,11.6,7.6,15.4c-3.2-2.7-13.3-10.8-13.3-10.8s0.1,13,0.2,17.1c-1.8-3.8-7.3-15.5-7.3-15.5s-5.5,11.7-7.3,15.5
			c0-4.2,0.2-17.1,0.2-17.1s-10,8.2-13.3,10.8c1.9-3.8,7.6-15.4,7.6-15.4s-12.6,3-16.7,4c3.3-2.6,13.5-10.5,13.5-10.5
			s-12.7-2.7-16.8-3.6c4.1-0.9,16.8-3.6,16.8-3.6s-10.2-8-13.5-10.5c4.1,1,16.7,4,16.7,4s-5.7-11.6-7.6-15.4
			c3.3,2.6,13.3,10.8,13.3,10.8s-0.1-13-0.2-17.1c1.8,3.8,7.3,15.5,7.3,15.5L243.4,68z"/>
		<polygon fill="#FEDA5E" points="243,73.8 248.3,62.5 248.1,75 257.8,67.1 252.3,78.3 264.4,75.4 254.5,83.1 266.7,85.7 
			254.5,88.3 264.4,96 252.3,93.1 257.8,104.3 248.1,96.4 248.3,108.8 243,97.6 237.7,108.8 237.8,96.4 228.2,104.3 233.7,93.1 
			221.6,96 231.4,88.3 219.2,85.7 231.4,83.1 221.6,75.4 233.7,78.3 228.2,67.1 237.8,75 237.7,62.5 		"/>
	</g>
	<g>
		<g>
			<path fill="#62454E" d="M160.9,107.2L160.9,107.2c-0.1,0-3.1,2.1-4.6,3.1c-1.5-1-4.5-3-4.5-3l-0.1,0c-1.1-0.6-2.4-0.5-3.4,0.2
				c-1.1,0.8-1.4,1.8-1.4,2.5c0,0,0,8.4,0,8.4c0,1.1,0.5,1.8,0.9,2.2c0.4,0.4,1.1,0.9,2.3,0.9c1.8,0,3.1-1.3,3.2-3.1
				c0,0,0-1.3,0-2.5c0.3,0.2,0.9,0.6,0.9,0.6l-0.2-0.2c0.8,0.7,1.6,1,2.5,1c0.8,0,1.6-0.3,2.4-1l-0.2,0.1c0,0,0.6-0.4,0.9-0.6
				c0,1.2,0,2.5,0,2.5c0,1.8,1.3,3.1,3.1,3.1c1.9,0,3.1-1.3,3.1-3.1v-8.4l0,0c0-1.1-0.6-2-1.5-2.6
				C163.3,106.6,162,106.6,160.9,107.2z"/>
		</g>
		<g>
			<path fill="#62454E" d="M177.1,107.3L177.1,107.3c0,0-3,2-4.4,3c-1.5-1-4.5-3-4.5-3c-1.5-1-3.3-0.6-4.3,0.9
				c-0.4,0.6-0.6,1.2-0.6,1.8c0,1,0.5,1.9,1.4,2.6c0,0,3.5,2.3,4.8,3.2c0,1.1,0,2.5,0,2.5c0,1.8,1.3,3.1,3.1,3.1
				c1.8,0,3.1-1.3,3.2-3.1v0c0,0,0-1.4,0-2.5c1.3-0.9,4.7-3.2,4.7-3.2c0.9-0.6,1.4-1.6,1.4-2.6c0-0.6-0.2-1.2-0.6-1.8
				C180.5,106.6,178.7,106.3,177.1,107.3z"/>
		</g>
		<g>
			<path fill="#62454E" d="M185.8,106.8L185.8,106.8c-3.9,0-6.3,2.3-6.3,6.3v2.1c0,3.9,2.3,6.3,6.3,6.3h8.3c2.5,0,4.2-1.6,4.2-4.2
				v-2.1c0-1.2-0.4-2.2-1-2.9c0.6-0.6,1-1.4,1-2.3c0,0,0,0,0,0c0-1.1-0.5-1.8-0.9-2.2c-0.4-0.4-1.1-0.9-2.3-0.9L185.8,106.8z"/>
		</g>
		<g>
			<path fill="#62454E" d="M201.2,106.7c-1.6,0-2.9,1-3.4,2.6l0,0.1l-1.9,8.6v0.2c0,1.1,0.4,1.8,0.8,2.2c0.6,0.6,1.4,1,2.3,1
				c1.6,0,2.8-1,3.2-2.6l0-0.1c0,0,0.2-0.7,0.3-1.5c1.7,0,4,0,5.6,0c0.2,0.8,0.4,1.5,0.4,1.5c0.4,1.6,1.7,2.6,3.2,2.6
				c1.8,0,3-1.3,3-3.2V118l-2-8.6l0,0.1c-0.3-1.7-1.6-2.8-3.3-2.8H201.2z M208.8,110.9c0.1,0.3,0.3,1.2,0.5,2.1c-0.8,0-7,0-8,0
				c0.2-0.9,0.4-1.8,0.4-2.1C202.7,110.9,207.8,110.9,208.8,110.9z"/>
			<polygon fill="#62454E" points="209,108.8 200,108.8 198.5,115.1 212.2,115.1 210.6,108.8 			"/>
		</g>
		<g>
			<path fill="#62454E" d="M226.3,107.2L226.3,107.2c-0.1,0-3.1,2.1-4.6,3.1c-1.5-1-4.5-3-4.5-3l-0.1,0c-1.1-0.6-2.4-0.5-3.4,0.2
				c-1.1,0.8-1.4,1.8-1.4,2.5c0,0,0,8.4,0,8.4c0,1.1,0.5,1.8,0.9,2.2c0.4,0.4,1.1,0.9,2.3,0.9c1.8,0,3.1-1.3,3.2-3.1
				c0,0,0-1.3,0-2.5c0.3,0.2,0.9,0.6,0.9,0.6l-0.2-0.2c0.8,0.7,1.6,1,2.5,1c0.8,0,1.6-0.3,2.4-1l-0.2,0.1c0,0,0.6-0.4,0.9-0.6
				c0,1.2,0,2.5,0,2.5c0,1.8,1.3,3.1,3.1,3.1c1.9,0,3.1-1.3,3.1-3.1v-8.4l0,0c0-1.1-0.6-2-1.5-2.6
				C228.6,106.6,227.4,106.6,226.3,107.2z"/>
		</g>
		<g>
			<path fill="#62454E" d="M231.8,106.7c-1.9,0-3.2,1.3-3.2,3.2v8.4c0,1.9,1.3,3.2,3.2,3.2h12.5c1.9,0,3.2-1.3,3.2-3.2
				c0-1.5-0.9-2.7-2.3-3c0.1-0.4,0.2-0.7,0.2-1.1c0-0.4-0.1-0.8-0.2-1.1c1.4-0.3,2.3-1.5,2.3-3c0-1.9-1.3-3.2-3.2-3.2H231.8z"/>
		</g>
		<g>
			<path fill="#62454E" d="M245,109.8v8.4c0,1.9,1.3,3.2,3.2,3.2h9.4c2,0,3.5-0.6,4.6-1.7c1.1-1.1,1.7-2.7,1.7-4.6V113
				c0-2-0.6-3.5-1.7-4.6c-1.1-1.1-2.7-1.7-4.6-1.7l-9.4,0C246.4,106.7,245.1,108,245,109.8z M249.3,111c1.7,0,8.3,0,8.3,0
				c0.8,0,1.4,0.2,1.6,0.4c0.3,0.3,0.4,0.8,0.4,1.6v2.1c0,0.8-0.2,1.4-0.4,1.6c-0.3,0.3-1.1,0.4-1.6,0.4c0,0-6.6,0-8.3,0
				C249.3,115.8,249.3,112.4,249.3,111z"/>
			<path fill="#62454E" d="M257.6,108.8h-10.5l0,10.5h10.4c1.6,0,2.5-0.6,3.1-1.1c0.5-0.5,1.1-1.5,1.1-3.1V113
				C261.8,110.5,260.1,108.8,257.6,108.8L257.6,108.8L257.6,108.8z M257.5,113C257.5,113,257.6,113,257.5,113c0,0,0,2,0,2
				c0,0-3.9,0-6.2,0c0-0.9,0-1.1,0-2C253.7,113,257.5,113,257.5,113z"/>
		</g>
		<g>
			<path fill="#62454E" d="M264.5,106.7c-1.9,0-3.2,1.3-3.2,3.2v8.4c0,1.9,1.3,3.2,3.2,3.2h12.5c1.9,0,3.2-1.3,3.2-3.2
				c0-1.5-0.9-2.7-2.3-3c0.1-0.4,0.2-0.7,0.2-1.1c0-0.4-0.1-0.8-0.2-1.1c1.4-0.3,2.3-1.5,2.3-3c0-1.9-1.3-3.2-3.2-3.2H264.5z"/>
		</g>
		<g>
			<path fill="#62454E" d="M293.1,106.8c-0.6,0.1-1.4,0.3-2.1,1.2l0,0c0,0-2.1,3-3.7,5.2c-1.6-2.3-3.8-5.4-3.8-5.4l-0.1-0.1
				c-1.3-1.3-3.1-1.3-4.4-0.1c-1.2,1.1-1.4,2.7-0.6,4l0,0.1l6.3,8.5l0.2,0.2c0.8,0.7,1.6,1,2.5,1c0.8,0,1.5-0.3,2.3-1l0.2-0.2
				l6.2-8.4l0,0c1.1-1.4,0.8-3.2-0.6-4.3C294.5,106.8,293.6,106.7,293.1,106.8z"/>
		</g>
		<path fill="#62C5C6" d="M163.7,109.9v8.4c0,0.7-0.3,1-1,1c-0.7,0-1-0.3-1-1l0-6.5l-4.2,2.8c-0.4,0.3-0.8,0.5-1,0.5
			c-0.3,0-0.6-0.2-1-0.5l-4.2-2.8v6.4c0,0.7-0.4,1-1.1,1c-0.7,0-1-0.3-1-1v-8.3c0-0.3,0.2-0.5,0.5-0.8c0.3-0.3,0.7-0.3,1.1-0.1
			l5.6,3.7l5.6-3.7c0.5-0.3,0.9-0.3,1.2-0.1C163.5,109.2,163.6,109.5,163.7,109.9z"/>
		<path fill="#62C5C6" d="M179.4,110.8l-5.7,3.8l0,3.6c0,0.7-0.4,1.1-1,1.1c-0.7,0-1-0.3-1-1l0-3.6l-5.7-3.8
			c-0.6-0.4-0.7-0.9-0.3-1.4c0.4-0.6,0.9-0.7,1.4-0.3l5.6,3.7l5.6-3.7c0.6-0.4,1.1-0.3,1.4,0.3C180.1,109.9,180,110.4,179.4,110.8z"
			/>
		<path fill="#FFFFFF" d="M185.8,108.9l9.4,0c0.7,0,1,0.3,1,1c0,0.7-0.3,1-1,1h-9.4c-1.4,0-2.1,0.7-2.1,2.1v2.1
			c0,1.4,0.7,2.1,2.1,2.1h8.3v-2.1H189c-0.7,0-1-0.3-1-1.1c0-0.7,0.4-1,1.1-1h5.2c1.4,0,2.1,0.7,2.1,2.1v2.1c0,1.4-0.7,2.1-2.1,2.1
			h-8.3c-2.8,0-4.2-1.4-4.2-4.2v-2.1C181.7,110.3,183.1,108.9,185.8,108.9z"/>
		<path fill="#FFFFFF" d="M198,118.3l1.8-8.4c0.2-0.7,0.6-1,1.3-1h8.4c0.7,0,1.1,0.4,1.2,1.1l1.9,8.3c0,0.7-0.3,1-0.9,1
			c-0.6,0-1-0.4-1.2-1.1l-0.8-3.1h-9l-0.7,3.1c-0.2,0.7-0.6,1-1.2,1C198.4,119.3,198,119,198,118.3z M209.5,113L209,111h-7.3
			l-0.5,2.1H209.5z"/>
		<path fill="#FFFFFF" d="M229,109.9v8.4c0,0.7-0.3,1-1,1c-0.7,0-1-0.3-1-1l0-6.5l-4.2,2.8c-0.4,0.3-0.8,0.5-1.1,0.5
			c-0.3,0-0.6-0.2-1-0.5l-4.2-2.8v6.4c0,0.7-0.4,1-1.1,1c-0.7,0-1-0.3-1-1v-8.3c0-0.3,0.2-0.5,0.5-0.8c0.3-0.3,0.7-0.3,1.1-0.1
			l5.6,3.7l5.6-3.7c0.5-0.3,0.9-0.3,1.2-0.1C228.8,109.2,229,109.5,229,109.9z"/>
		<path fill="#FFFFFF" d="M230.8,118.3v-8.4c0-0.7,0.3-1,1-1h12.5c0.7,0,1,0.4,1,1.1c0,0.7-0.3,1.1-1,1.1h-11.5v2.1h9.4
			c0.7,0,1,0.3,1,1c0,0.7-0.3,1-1,1h-9.4v2.1h11.5c0.7,0,1,0.3,1,1c0,0.7-0.3,1-1,1h-12.5C231.1,119.3,230.8,119,230.8,118.3z"/>
		<path fill="#62C5C6" d="M261.8,113.1v2.1c0,2.8-1.4,4.2-4.2,4.2h-9.4c-0.7,0-1-0.4-1-1.1v-8.3c0-0.7,0.4-1,1-1l9.4,0
			C260.4,108.9,261.8,110.3,261.8,113.1z M249.2,117.2h8.3c1.4,0,2.1-0.7,2.1-2.1v-2.1c0-1.4-0.7-2.1-2.1-2.1h-8.3L249.2,117.2z"/>
		<path fill="#62C5C6" d="M263.5,118.3v-8.4c0-0.7,0.3-1,1-1h12.5c0.7,0,1,0.4,1,1.1c0,0.7-0.3,1.1-1,1.1h-11.5v2.1h9.4
			c0.7,0,1,0.3,1,1c0,0.7-0.3,1-1,1h-9.4v2.1h11.5c0.7,0,1,0.3,1,1c0,0.7-0.3,1-1,1h-12.5C263.8,119.3,263.5,119,263.5,118.3z"/>
		<path fill="#62C5C6" d="M294.3,110.6l-6,8.2c-0.4,0.3-0.8,0.5-1,0.5c-0.3,0-0.6-0.2-1-0.5l-6.1-8.2c-0.3-0.5-0.2-0.9,0.3-1.4
			c0.5-0.4,0.9-0.4,1.4,0.1l5.5,7.7l5.4-7.6c0.4-0.6,0.9-0.6,1.5-0.2C294.6,109.6,294.6,110.1,294.3,110.6z"/>
	</g>
</g>
<g>
	<polygon fill="#BC5459" points="410.9,234.5 400.1,206.5 410.9,178.6 421.3,151.6 421.3,150.6 7.2,150.6 18,178.6 28.8,206.5 
		18,234.5 7.4,261.9 421.3,261.9 421.3,261.4 	"/>
</g>
<g>
	<g>
		<polygon fill="#1D394F" points="403.7,227.7 392.9,198.4 403.7,169.2 414.1,141 414.1,139.9 0,139.9 10.8,169.2 21.6,198.4 
			10.8,227.7 0.2,256.4 414.1,256.4 414.1,255.9 		"/>
	</g>
</g>
<rect x="26.8" y="166.2" fill="none" width="364.1" height="89.6"/>
<text transform="matrix(1 0 0 1 51.5544 179.7609)"><tspan x="0" y="0" fill="#26BEC9" font-family="'Avenir-Black'" font-size="18">In conjunction with the nation’s 2020 </tspan><tspan x="8.8" y="22" fill="#26BEC9" font-family="'Avenir-Black'" font-size="18">vision, MyGameDev2020 is geared </tspan><tspan x="-17.7" y="44" fill="#26BEC9" font-family="'Avenir-Black'" font-size="18">towards enabling Malaysia to emerge as:</tspan></text>
</svg>
