<?xml version="1.0" encoding="utf-8"?>
<!-- Generator: Adobe Illustrator 18.1.1, SVG Export Plug-In . SVG Version: 6.00 Build 0)  -->
<svg version="1.0" id="Layer_1" xmlns="http://www.w3.org/2000/svg" xmlns:xlink="http://www.w3.org/1999/xlink" x="0px" y="0px"
	 viewBox="0 0 95.8 95.8" enable-background="new 0 0 95.8 95.8" xml:space="preserve">
<circle fill="#08524A" cx="49.4" cy="49.4" r="46.4"/>
<circle fill="#009CA6" cx="46.4" cy="46.4" r="46.4"/>
<g>
	<path opacity="0.2" fill="#231F20" d="M62.9,67c1.7,2.9,5.2,4.1,8.3,3c3.1-1.1,5-4.3,4.4-7.6L73,47.6c-0.6-3.6-2.8-6.8-6-8.6
		c-3.2-1.8-7-2.2-10.5-0.9l-3.9,1.4c-1.9,0.7-3.9,0.7-5.8,0L43,38.1c-3.5-1.3-7.3-0.9-10.5,0.9c-3.2,1.8-5.4,5-6,8.6l-2.5,14.8
		c-0.6,3.3,1.3,6.5,4.4,7.6c3.1,1.1,6.6-0.1,8.3-3l0.3-0.5c1.5-2.6,4.3-4.2,7.3-4.2h11c3,0,5.8,1.6,7.3,4.2L62.9,67z"/>
	<path fill="#FAF9ED" d="M59.9,65c1.7,2.9,5.2,4.1,8.3,3c3.1-1.1,5-4.3,4.4-7.6L70,45.6c-0.6-3.6-2.8-6.8-6-8.6
		c-3.2-1.8-7-2.2-10.5-0.9l-3.9,1.4c-1.9,0.7-3.9,0.7-5.8,0L40,36.1c-3.5-1.3-7.3-0.9-10.5,0.9c-3.2,1.8-5.4,5-6,8.6l-2.5,14.8
		c-0.6,3.3,1.3,6.5,4.4,7.6c3.1,1.1,6.6-0.1,8.3-3l0.3-0.5c1.5-2.6,4.3-4.2,7.3-4.2h11c3,0,5.8,1.6,7.3,4.2L59.9,65z"/>
	<circle fill="#C84C5A" cx="58.2" cy="42.6" r="2.5"/>
	<circle fill="#C84C5A" cx="58.2" cy="52.7" r="2.5"/>
	<circle fill="#C84C5A" cx="63.3" cy="47.6" r="2.5"/>
	<circle fill="#C84C5A" cx="53.2" cy="47.6" r="2.5"/>
	<g>
		<g>
			<g>
				<path fill="#1F384F" d="M60.2,26c-0.1,0.1-0.2,0.3-0.3,0.4c-0.7,0.7-2,0.7-2.7,0c-5.2-5.2-13.7-5.2-18.9,0c-0.7,0.7-2,0.7-2.7,0
					c-0.7-0.7-0.7-2,0-2.7c6.7-6.7,17.6-6.7,24.3,0C60.5,24.3,60.6,25.3,60.2,26z"/>
			</g>
			<g>
				<path fill="#1F384F" d="M54.8,31.4c-0.1,0.1-0.2,0.3-0.3,0.4c-0.7,0.7-2,0.7-2.7,0c-1.1-1.1-2.5-1.7-4-1.7c-1.5,0-3,0.6-4,1.7
					c-0.7,0.7-2,0.7-2.7,0c-0.7-0.7-0.7-2,0-2.7c1.8-1.8,4.2-2.8,6.7-2.8c2.5,0,4.9,1,6.7,2.8C55.1,29.7,55.2,30.7,54.8,31.4z"/>
			</g>
		</g>
	</g>
	<g>
		<path fill="#C84C5A" d="M36.6,52.1c0,0.7-0.6,1.3-1.3,1.3h-1.3c-0.7,0-1.3-0.6-1.3-1.3V41.9c0-0.7,0.6-1.3,1.3-1.3h1.3
			c0.7,0,1.3,0.6,1.3,1.3V52.1z"/>
		<path fill="#C84C5A" d="M29.6,48.9c-0.7,0-1.3-0.6-1.3-1.3v-1.3c0-0.7,0.6-1.3,1.3-1.3h10.2c0.7,0,1.3,0.6,1.3,1.3v1.3
			c0,0.7-0.6,1.3-1.3,1.3H29.6z"/>
	</g>
</g>
</svg>
