<?xml version="1.0" encoding="utf-8"?>
<!-- Generator: Adobe Illustrator 18.1.1, SVG Export Plug-In . SVG Version: 6.00 Build 0)  -->
<svg version="1.0" id="Layer_1" xmlns="http://www.w3.org/2000/svg" xmlns:xlink="http://www.w3.org/1999/xlink" x="0px" y="0px"
	 viewBox="0 0 96.8 94.8" enable-background="new 0 0 96.8 94.8" xml:space="preserve">
<circle opacity="0.2" fill="#231F20" cx="50.4" cy="48.4" r="46.4"/>
<circle fill="#1F384F" cx="46.4" cy="46.4" r="46.4"/>
<g>
	<g opacity="0.2">
		<g>
			<defs>
				<rect id="SVGID_1_" x="22.5" y="44.4" width="47.7" height="28.6"/>
			</defs>
			<clipPath id="SVGID_2_">
				<use xlink:href="#SVGID_1_"  overflow="visible"/>
			</clipPath>
			<path clip-path="url(#SVGID_2_)" fill="#231F20" d="M48.5,72.6c-1.2,0.7-3,0.7-4.2,0L23.4,60c-1.2-0.7-1.2-1.8,0-2.5L44.3,45
				c1.2-0.7,3-0.7,4.2,0l20.9,12.5c1.2,0.7,1.2,1.8,0,2.5L48.5,72.6z"/>
		</g>
	</g>
	<path fill="#C85D5D" d="M48.5,70.2c-1.2,0.7-3,0.7-4.2,0L23.4,57.6c-1.2-0.7-1.2-1.8,0-2.5l20.9-12.5c1.2-0.7,3-0.7,4.2,0
		l20.9,12.5c1.2,0.7,1.2,1.8,0,2.5L48.5,70.2z"/>
	<g opacity="0.2">
		<g>
			<defs>
				<rect id="SVGID_3_" x="22.5" y="34.9" width="47.7" height="28.6"/>
			</defs>
			<clipPath id="SVGID_4_">
				<use xlink:href="#SVGID_3_"  overflow="visible"/>
			</clipPath>
			<path clip-path="url(#SVGID_4_)" fill="#231F20" d="M48.5,63c-1.2,0.7-3,0.7-4.2,0L23.4,50.5c-1.2-0.7-1.2-1.8,0-2.5l20.9-12.5
				c1.2-0.7,3-0.7,4.2,0L69.4,48c1.2,0.7,1.2,1.8,0,2.5L48.5,63z"/>
		</g>
	</g>
	<path fill="#3EC0C0" d="M48.5,60.6c-1.2,0.7-3,0.7-4.2,0L23.4,48.1c-1.2-0.7-1.2-1.8,0-2.5L44.3,33c1.2-0.7,3-0.7,4.2,0l20.9,12.5
		c1.2,0.7,1.2,1.8,0,2.5L48.5,60.6z"/>
	<g opacity="0.2">
		<g>
			<defs>
				<rect id="SVGID_5_" x="22.5" y="25.4" width="47.7" height="28.6"/>
			</defs>
			<clipPath id="SVGID_6_">
				<use xlink:href="#SVGID_5_"  overflow="visible"/>
			</clipPath>
			<path clip-path="url(#SVGID_6_)" fill="#231F20" d="M48.5,53.5c-1.2,0.7-3,0.7-4.2,0L23.4,40.9c-1.2-0.7-1.2-1.8,0-2.5l20.9-12.5
				c1.2-0.7,3-0.7,4.2,0l20.9,12.5c1.2,0.7,1.2,1.8,0,2.5L48.5,53.5z"/>
		</g>
	</g>
	<path fill="#FAF9ED" d="M48.5,51.1c-1.2,0.7-3,0.7-4.2,0L23.4,38.5c-1.2-0.7-1.2-1.8,0-2.5l20.9-12.5c1.2-0.7,3-0.7,4.2,0L69.4,36
		c1.2,0.7,1.2,1.8,0,2.5L48.5,51.1z"/>
</g>
</svg>
