<?xml version="1.0" encoding="utf-8"?>
<!-- Generator: Adobe Illustrator 18.1.1, SVG Export Plug-In . SVG Version: 6.00 Build 0)  -->
<svg version="1.0" id="Layer_1" xmlns="http://www.w3.org/2000/svg" xmlns:xlink="http://www.w3.org/1999/xlink" x="0px" y="0px"
	 viewBox="0 0 96.8 94.8" enable-background="new 0 0 96.8 94.8" xml:space="preserve">
<circle opacity="0.2" fill="#231F20" cx="50.4" cy="48.4" r="46.4"/>
<circle fill="#1F384F" cx="46.4" cy="46.4" r="46.4"/>
<g>
	<g>
		<polygon fill="#5A9EAA" points="71.9,57.3 71.9,57.3 71.9,57.3 		"/>
		<path fill="#42BFB7" d="M53.9,62.5c-2.8,0-5.1-2.3-5.1-5.2c0-2.8,2.3-5.2,5.1-5.2h16.7c0.7,0,1.3-0.6,1.3-1.3v-1.3
			c0-0.7-0.6-1.3-1.3-1.3H30.7c-5,0-9,4-9,9c0,5,4,9,9,9h39.9c0.7,0,1.3-0.6,1.3-1.3v-1.3c0-0.7-0.6-1.3-1.3-1.3H53.9z"/>
	</g>
	<g>
		<polygon fill="#FAF9ED" points="70.6,52.2 70.6,52.2 70.6,52.2 		"/>
		<polygon fill="#FAF9ED" points="70.6,62.5 70.6,62.5 70.6,62.5 		"/>
		<path fill="#FAF9ED" d="M68,57.3c0-2.8,1.2-5.2,2.6-5.2H53.9c-2.8,0-5.1,2.3-5.1,5.2c0,2.8,2.3,5.2,5.1,5.2h16.7
			C69.2,62.5,68,60.2,68,57.3z"/>
	</g>
	<g>
		<path fill="#F6D889" d="M28.1,57.3c0-1.7,0.7-3.5,1.8-4.6c0.1-0.1,0.1-0.2,0.1-0.4c-0.1-0.1-0.2-0.2-0.3-0.2h-1.4
			c-0.1,0-0.1,0-0.2,0c-1.5,0.8-2.5,3-2.5,5.1c0,2.1,1.2,4.4,2.5,5.1c0.1,0,0.1,0,0.2,0h1.5c0.1,0,0.3-0.1,0.3-0.2
			c0.1-0.1,0-0.3-0.1-0.4C28.9,60.9,28.1,59,28.1,57.3z"/>
		<path fill="#F6D889" d="M33.3,57.3c0-1.7,0.7-3.5,1.8-4.6c0.1-0.1,0.1-0.2,0.1-0.4c-0.1-0.1-0.2-0.2-0.3-0.2h-1.4
			c-0.1,0-0.1,0-0.2,0c-1.5,0.8-2.5,3-2.5,5.1c0,2.1,1.2,4.4,2.5,5.1c0.1,0,0.1,0,0.2,0h1.5c0.1,0,0.3-0.1,0.3-0.2
			c0.1-0.1,0-0.3-0.1-0.4C34.1,60.9,33.3,59,33.3,57.3z"/>
		<path fill="#F6D889" d="M43.6,57.3c0-1.7,0.7-3.5,1.8-4.6c0.1-0.1,0.1-0.2,0.1-0.4c-0.1-0.1-0.2-0.2-0.3-0.2h-1.4
			c-0.1,0-0.1,0-0.2,0C42,53,41,55.2,41,57.3c0,2.1,1.2,4.4,2.5,5.1c0.1,0,0.1,0,0.2,0h1.5c0.1,0,0.3-0.1,0.3-0.2
			c0.1-0.1,0-0.3-0.1-0.4C44.4,60.9,43.6,59,43.6,57.3z"/>
	</g>
	<path fill="#F29850" d="M30.7,26.4c0-3.6,2.9-6.4,6.4-6.4h23.2c0.7,0,1.3,0.6,1.3,1.3v1.3c0,0.7-0.6,1.3-1.3,1.3H47.4
		c-1.4,0-2.6,1.2-2.6,2.6c0,1.4,1.2,2.6,2.6,2.6h12.9c0.7,0,1.3,0.6,1.3,1.3v1.3c0,0.7-0.6,1.3-1.3,1.3H37.1
		C33.6,32.8,30.7,30,30.7,26.4z"/>
	<g>
		<polygon fill="#FAF9ED" points="59,29 59,29 59,29 		"/>
		<polygon fill="#FAF9ED" points="59,23.8 59,23.8 59,23.8 		"/>
		<path fill="#FAF9ED" d="M44.9,26.4c0-1.4,1.2-2.6,2.6-2.6H59c-0.7,0-1.3,1.2-1.3,2.6c0,1.4,0.6,2.6,1.3,2.6H47.4
			C46,29,44.9,27.8,44.9,26.4z"/>
	</g>
	<path fill="#C84C5A" d="M66.8,40.6c0-4.3-3.5-7.7-7.7-7.7H28.1c-0.7,0-1.3,0.6-1.3,1.3v1.3c0,0.7,0.6,1.3,1.3,1.3h15.5
		c2.1,0,3.9,1.7,3.9,3.9s-1.7,3.9-3.9,3.9H28.1c-0.7,0-1.3,0.6-1.3,1.3V47c0,0.7,0.6,1.3,1.3,1.3H59C63.3,48.3,66.8,44.8,66.8,40.6z
		"/>
	<path fill="#FAF9ED" d="M43.6,36.7H28.1c1.4,0,2.6,1.7,2.6,3.9c0,2.1-1.2,3.9-2.6,3.9v0h15.5c2.1,0,3.9-1.7,3.9-3.9
		S45.7,36.7,43.6,36.7z"/>
	<g>
		<path fill="#F6D889" d="M61,40.6c0,1.2-0.5,2.5-1.2,3.3c-0.1,0.1-0.1,0.2-0.1,0.4c0.1,0.1,0.2,0.2,0.3,0.2h0.8c0.1,0,0.1,0,0.2,0
			c1.1-0.6,1.9-2.3,1.9-3.8c0-1.5-0.9-3.3-1.9-3.8c0,0-0.1,0-0.2,0H60c-0.1,0-0.3,0.1-0.3,0.2c-0.1,0.1,0,0.3,0.1,0.4
			C60.4,38.1,61,39.4,61,40.6z"/>
		<path fill="#F6D889" d="M52,40.6c0,1.2-0.5,2.5-1.2,3.3c-0.1,0.1-0.1,0.2-0.1,0.4c0.1,0.1,0.2,0.2,0.3,0.2h0.8c0.1,0,0.1,0,0.2,0
			c1.1-0.6,1.9-2.3,1.9-3.8c0-1.5-0.9-3.3-1.9-3.8c-0.1,0-0.1,0-0.2,0H51c-0.1,0-0.3,0.1-0.3,0.2c-0.1,0.1,0,0.3,0.1,0.4
			C51.4,38.1,52,39.4,52,40.6z"/>
	</g>
	<path fill="#F6D889" d="M35.9,26.4c0-0.5,0.2-1.4,0.7-2c0.1-0.1,0.1-0.2,0-0.4c-0.1-0.1-0.2-0.2-0.3-0.2h-1.5c-0.1,0-0.3,0-0.4,0.1
		c-0.7,0.4-1.1,1.5-1.1,2.5c0,0.9,0.5,2,1.1,2.4c0.1,0.1,0.3,0.1,0.4,0.1h1.5c0.1,0,0.2-0.1,0.3-0.2c0.1-0.1,0-0.3,0-0.4
		C36.1,27.8,35.9,26.9,35.9,26.4z"/>
	<path fill="#F6D889" d="M40.6,26.4c0-0.5,0.2-1.4,0.7-2c0.1-0.1,0.1-0.2,0-0.4c-0.1-0.1-0.2-0.2-0.3-0.2h-1.5c-0.1,0-0.3,0-0.4,0.1
		c-0.7,0.4-1.1,1.5-1.1,2.5c0,0.9,0.5,2,1.1,2.4c0.1,0.1,0.3,0.1,0.4,0.1h1.5c0.1,0,0.2-0.1,0.3-0.2c0.1-0.1,0.1-0.3,0-0.4
		C40.9,27.8,40.6,26.9,40.6,26.4z"/>
</g>
</svg>
