<?xml version="1.0" encoding="utf-8"?>
<!-- Generator: Adobe Illustrator 18.1.1, SVG Export Plug-In . SVG Version: 6.00 Build 0)  -->
<svg version="1.0" id="Layer_1" xmlns="http://www.w3.org/2000/svg" xmlns:xlink="http://www.w3.org/1999/xlink" x="0px" y="0px"
	 viewBox="0 0 96.8 94.8" enable-background="new 0 0 96.8 94.8" xml:space="preserve">
<circle fill="#772337" cx="50.4" cy="48.4" r="46.4"/>
<circle fill="#C84C5A" cx="46.4" cy="46.4" r="46.4"/>
<g>
	<g opacity="0.2">
		<g>
			<defs>
				<rect id="SVGID_1_" x="24.3" y="25.6" width="47.7" height="47.7"/>
			</defs>
			<clipPath id="SVGID_2_">
				<use xlink:href="#SVGID_1_"  overflow="visible"/>
			</clipPath>
			<path clip-path="url(#SVGID_2_)" fill="#231F20" d="M64.6,72.6l6.7-6.7c1.1-1.1,0.8-3.2-0.7-4.8L66,56.6l-0.9-0.9L40.7,31.2
				l-10.9-3.7l-5.5-1.9l1.9,5.5L29.9,42l24.4,24.4l0.9,0.9l4.6,4.6C61.4,73.4,63.5,73.8,64.6,72.6"/>
		</g>
	</g>
	<path fill="#3EC0C0" d="M54.4,63.4c-1.5-1.5-1.8-3.6-0.7-4.8l6.7-6.7c1.1-1.1,3.2-0.8,4.8,0.7l5.5,5.5c1.5,1.5,1.8,3.6,0.7,4.8
		l-6.7,6.7c-1.1,1.1-3.2,0.8-4.8-0.7L54.4,63.4z"/>
	
		<rect x="50.1" y="24.3" transform="matrix(-0.707 0.7072 -0.7072 -0.707 118.6526 35.2215)" fill="#1F384F" width="3.8" height="35.8"/>
	
		<rect x="43.3" y="26.1" transform="matrix(-0.7071 0.7071 -0.7071 -0.7071 112.4057 44.0631)" fill="#1F384F" width="7.6" height="38.4"/>
	
		<rect x="42.1" y="32.4" transform="matrix(-0.707 0.7073 -0.7073 -0.707 110.5792 54.7098)" fill="#1F384F" width="3.8" height="35.8"/>
	<polygon fill="#1F384F" points="24.3,22.6 26.2,28 29.8,24.4 	"/>
	<polygon fill="#F6D889" points="40.7,28.2 29.8,24.4 26.2,28 29.9,38.9 31.3,37.6 34.5,38.1 33.5,31.7 39.9,32.7 39.4,29.5 	"/>
	<g opacity="0.2">
		<g>
			<defs>
				<rect id="SVGID_3_" x="21.5" y="26.5" width="49.4" height="45.2"/>
			</defs>
			<clipPath id="SVGID_4_">
				<use xlink:href="#SVGID_3_"  overflow="visible"/>
			</clipPath>
			<path clip-path="url(#SVGID_4_)" fill="#231F20" d="M70.5,26.9c-2.5-2.5-16.9,7.8-25.7,16.7c-4.3,4.4-6.5,7.5-7.4,9.9
				c-2.7-0.3-5.7,0.7-7.7,2.7c-1.3,1.3-1.9,2.6-2.5,4.1c-1,2.9-1.9,6.5-5.8,9.1c2.9,2.9,14.2,3.7,19.7-1.8c0.6-0.6,1.1-1.3,1.5-2
				c1-1.7,1.4-3.8,1.2-5.7c2.4-0.8,5.6-3,10-7.4C62.7,43.8,73,29.4,70.5,26.9"/>
		</g>
	</g>
	<path fill="#F6D889" d="M44.8,40.9C36,49.8,36,53.8,38.5,56.3C41,58.8,45,58.9,53.9,50c8.8-8.8,19.2-23.2,16.7-25.7
		C68,21.8,53.7,32.1,44.8,40.9"/>
	<path fill="#64C9D7" d="M21.5,66.8c2.9,2.9,14.2,3.7,19.7-1.8c0.6-0.6,1.1-1.3,1.5-2c-8.6-0.3-13.1-3.1-15.4-5.3
		C26.4,60.6,25.4,64.2,21.5,66.8"/>
	<path fill="#FFFFFF" d="M41.9,52.9c-3.2-3.2-9-2.5-12.1,0.7c-1.3,1.3-1.9,2.6-2.5,4.1c2.2,2.2,6.6,9,15.4,5.3
		C44.5,59.8,44.5,55.5,41.9,52.9"/>
	<path fill="#64C9D7" d="M27.3,57.7c0,0,5.2-1,7.7,2.7c2.5,3.7,7.7,2.7,7.7,2.7L36,66.8l-6.7-4.9L27.3,57.7z"/>
	<rect x="6" y="6" fill="none" width="82.9" height="82.9"/>
	<rect x="6" y="6" fill="none" width="82.9" height="82.9"/>
</g>
</svg>
