<?xml version="1.0" encoding="utf-8"?>
<!-- Generator: Adobe Illustrator 18.1.1, SVG Export Plug-In . SVG Version: 6.00 Build 0)  -->
<svg version="1.0" id="Layer_1" xmlns="http://www.w3.org/2000/svg" xmlns:xlink="http://www.w3.org/1999/xlink" x="0px" y="0px"
	 viewBox="0 0 95.8 95.8" enable-background="new 0 0 95.8 95.8" xml:space="preserve">
<circle fill="#08524A" cx="49.4" cy="49.4" r="46.4"/>
<circle fill="#009CA6" cx="46.4" cy="46.4" r="46.4"/>
<g>
	<g opacity="0.2">
		<g>
			<defs>
				<rect id="SVGID_1_" x="34.5" y="68.7" width="27.9" height="4.6"/>
			</defs>
			<clipPath id="SVGID_2_">
				<use xlink:href="#SVGID_1_"  overflow="visible"/>
			</clipPath>
			<path clip-path="url(#SVGID_2_)" fill="#231F20" d="M62.3,71c0,1.3-1,2.3-2.3,2.3H36.8c-1.3,0-2.3-1-2.3-2.3c0-1.3,1-2.3,2.3-2.3
				H60C61.3,68.7,62.3,69.7,62.3,71"/>
		</g>
	</g>
	<path fill="#1F384F" d="M62.3,68.7c0,1.3-1,2.3-2.3,2.3H36.8c-1.3,0-2.3-1-2.3-2.3c0-1.3,1-2.3,2.3-2.3H60
		C61.3,66.4,62.3,67.4,62.3,68.7"/>
	<path fill="#F4DFBB" d="M54.2,59.4c0,0-1.2,7,3.5,7H39.1c4.6,0,3.5-7,3.5-7H54.2z"/>
	<g opacity="0.2">
		<g>
			<defs>
				<rect id="SVGID_3_" x="25.2" y="26.9" width="46.5" height="34.8"/>
			</defs>
			<clipPath id="SVGID_4_">
				<use xlink:href="#SVGID_3_"  overflow="visible"/>
			</clipPath>
			<path clip-path="url(#SVGID_4_)" fill="#231F20" d="M71.6,57.1c0,2.6-2.1,4.6-4.6,4.6H29.8c-2.6,0-4.6-2.1-4.6-4.6V31.5
				c0-2.6,2.1-4.6,4.6-4.6H67c2.6,0,4.6,2.1,4.6,4.6V57.1z"/>
		</g>
	</g>
	<path fill="#C84C5A" d="M29.8,57.7c-1.6,0-2.9-1.3-2.9-2.9V29.2c0-1.6,1.3-2.9,2.9-2.9H67c1.6,0,2.9,1.3,2.9,2.9v25.6
		c0,1.6-1.3,2.9-2.9,2.9H29.8z"/>
	<path fill="#FAF9ED" d="M67,28c0.6,0,1.2,0.5,1.2,1.2v25.6c0,0.6-0.5,1.2-1.2,1.2H29.8c-0.6,0-1.2-0.5-1.2-1.2V29.2
		c0-0.6,0.5-1.2,1.2-1.2H67 M67,24.6H29.8c-2.6,0-4.6,2.1-4.6,4.6v25.6c0,2.6,2.1,4.6,4.6,4.6H67c2.6,0,4.6-2.1,4.6-4.6V29.2
		C71.6,26.6,69.6,24.6,67,24.6"/>
	<g opacity="0.2">
		<g>
			<defs>
				<rect id="SVGID_5_" x="41.7" y="26.7" width="27.6" height="30.2"/>
			</defs>
			<clipPath id="SVGID_6_">
				<use xlink:href="#SVGID_5_"  overflow="visible"/>
			</clipPath>
			<polygon clip-path="url(#SVGID_6_)" fill="#FFFFFF" points="69.3,56.9 69.3,26.7 41.7,26.7 59.1,56.9 			"/>
		</g>
	</g>
	<rect x="11.2" y="10.6" fill="none" width="74.3" height="74.3"/>
	<rect x="11.2" y="10.6" fill="none" width="74.3" height="74.3"/>
</g>
</svg>
