<?xml version="1.0" encoding="utf-8"?>
<!-- Generator: Adobe Illustrator 18.1.1, SVG Export Plug-In . SVG Version: 6.00 Build 0)  -->
<svg version="1.0" id="Layer_1" xmlns="http://www.w3.org/2000/svg" xmlns:xlink="http://www.w3.org/1999/xlink" x="0px" y="0px"
	 viewBox="0 0 351.6 313.7" enable-background="new 0 0 351.6 313.7" xml:space="preserve">
<ellipse fill="#C84C5A" cx="175.8" cy="263.3" rx="175.8" ry="50.4"/>
<g>
	<rect x="188" y="155.8" fill="#818181" width="91.5" height="5"/>
	<rect x="205.2" y="142.7" fill="#818181" width="57.2" height="14.5"/>
	<path fill="#818181" d="M325.1,135.2c0,5.4-4.7,9.7-10.6,9.7H146.8c-5.9,0-10.6-4.3-10.6-9.7V9.7c0-5.4,4.7-9.7,10.6-9.7h167.7
		c5.9,0,10.6,4.3,10.6,9.7V135.2z"/>
	<path fill="#E6E6E5" d="M318.4,135.2c0,5.4-4.7,9.7-10.6,9.7H140.1c-5.9,0-10.6-4.3-10.6-9.7V9.7c0-5.4,4.7-9.7,10.6-9.7h167.7
		c5.9,0,10.6,4.3,10.6,9.7V135.2z"/>
	<path fill="#009CA6" d="M308.7,106.8c0,5.4-4.7,9.7-10.6,9.7H149.7c-5.9,0-10.6-4.3-10.6-9.7V17c0-5.4,4.7-9.7,10.6-9.7h148.3
		c5.9,0,10.6,4.3,10.6,9.7V106.8z"/>
	<g opacity="0.1">
		<g>
			<defs>
				<rect id="SVGID_1_" x="189.5" y="7.3" width="119.2" height="109.2"/>
			</defs>
			<clipPath id="SVGID_2_">
				<use xlink:href="#SVGID_1_"  overflow="visible"/>
			</clipPath>
			<path clip-path="url(#SVGID_2_)" fill="#FFFFFF" d="M308.7,106.8V17c0-5.4-4.7-9.7-10.6-9.7H189.5l61.3,109.2h47.3
				C303.9,116.5,308.7,112.2,308.7,106.8"/>
		</g>
	</g>
	<g opacity="0.2">
		<g>
			<defs>
				<rect id="SVGID_3_" x="139.2" y="7.3" width="169.5" height="15.2"/>
			</defs>
			<clipPath id="SVGID_4_">
				<use xlink:href="#SVGID_3_"  overflow="visible"/>
			</clipPath>
			<path clip-path="url(#SVGID_4_)" fill="#1A1819" d="M298.1,7.3H149.7c-5.9,0-10.6,4.3-10.6,9.7v5.5c0-5.4,4.7-9.7,10.6-9.7h148.3
				c5.9,0,10.6,4.4,10.6,9.7V17C308.7,11.6,303.9,7.3,298.1,7.3"/>
		</g>
	</g>
	<g opacity="0.2">
		<g>
			<defs>
				<rect id="SVGID_5_" x="174.4" y="124.6" width="12.4" height="11.4"/>
			</defs>
			<clipPath id="SVGID_6_">
				<use xlink:href="#SVGID_5_"  overflow="visible"/>
			</clipPath>
			<path clip-path="url(#SVGID_6_)" fill="#1A1819" d="M186.8,130.3c0,3.1-2.8,5.7-6.2,5.7c-3.4,0-6.2-2.5-6.2-5.7
				c0-3.1,2.8-5.7,6.2-5.7C184,124.6,186.8,127.1,186.8,130.3"/>
		</g>
	</g>
	<g opacity="0.2">
		<g>
			<defs>
				<rect id="SVGID_7_" x="261.1" y="124.6" width="12.4" height="11.4"/>
			</defs>
			<clipPath id="SVGID_8_">
				<use xlink:href="#SVGID_7_"  overflow="visible"/>
			</clipPath>
			<path clip-path="url(#SVGID_8_)" fill="#1A1819" d="M273.5,130.3c0,3.1-2.8,5.7-6.2,5.7c-3.4,0-6.2-2.5-6.2-5.7
				c0-3.1,2.8-5.7,6.2-5.7C270.7,124.6,273.5,127.1,273.5,130.3"/>
		</g>
	</g>
	<path fill="#C84C5A" d="M186.8,127.4c0,3.1-2.8,5.7-6.2,5.7c-3.4,0-6.2-2.5-6.2-5.7c0-3.1,2.8-5.7,6.2-5.7
		C184,121.8,186.8,124.3,186.8,127.4"/>
	<path fill="#C84C5A" d="M273.5,127.4c0,3.1-2.8,5.7-6.2,5.7c-3.4,0-6.2-2.5-6.2-5.7c0-3.1,2.8-5.7,6.2-5.7
		C270.7,121.8,273.5,124.3,273.5,127.4"/>
	<path fill="#9ECE69" d="M202.2,130.3c0,1.6-1.4,2.8-3.1,2.8c-1.7,0-3.1-1.3-3.1-2.8v-5.7c0-1.6,1.4-2.8,3.1-2.8
		c1.7,0,3.1,1.3,3.1,2.8V130.3z"/>
	<path fill="#9ECE69" d="M214.6,130.3c0,1.6-1.4,2.8-3.1,2.8c-1.7,0-3.1-1.3-3.1-2.8v-5.7c0-1.6,1.4-2.8,3.1-2.8
		c1.7,0,3.1,1.3,3.1,2.8V130.3z"/>
	<path fill="#9ECE69" d="M239.4,130.3c0,1.6-1.4,2.8-3.1,2.8c-1.7,0-3.1-1.3-3.1-2.8v-5.7c0-1.6,1.4-2.8,3.1-2.8
		c1.7,0,3.1,1.3,3.1,2.8V130.3z"/>
	<path fill="#9ECE69" d="M251.8,130.3c0,1.6-1.4,2.8-3.1,2.8c-1.7,0-3.1-1.3-3.1-2.8v-5.7c0-1.6,1.4-2.8,3.1-2.8
		c1.7,0,3.1,1.3,3.1,2.8V130.3z"/>
	<path fill="#9ECE69" d="M227,130.3c0,1.6-1.4,2.8-3.1,2.8c-1.7,0-3.1-1.3-3.1-2.8v-5.7c0-1.6,1.4-2.8,3.1-2.8
		c1.7,0,3.1,1.3,3.1,2.8V130.3z"/>
	<g opacity="0.2">
		<g>
			<defs>
				<rect id="SVGID_9_" x="196" y="121.8" width="55.8" height="5.7"/>
			</defs>
			<clipPath id="SVGID_10_">
				<use xlink:href="#SVGID_9_"  overflow="visible"/>
			</clipPath>
			<path clip-path="url(#SVGID_10_)" fill="#1A1819" d="M199.1,121.8c-1.7,0-3.1,1.3-3.1,2.8v2.8c0-1.6,1.4-2.8,3.1-2.8
				c1.7,0,3.1,1.3,3.1,2.8v-2.8C202.2,123,200.8,121.8,199.1,121.8"/>
			<path clip-path="url(#SVGID_10_)" fill="#1A1819" d="M211.5,121.8c-1.7,0-3.1,1.3-3.1,2.8v2.8c0-1.6,1.4-2.8,3.1-2.8
				c1.7,0,3.1,1.3,3.1,2.8v-2.8C214.6,123,213.2,121.8,211.5,121.8"/>
			<path clip-path="url(#SVGID_10_)" fill="#1A1819" d="M236.3,121.8c-1.7,0-3.1,1.3-3.1,2.8v2.8c0-1.6,1.4-2.8,3.1-2.8
				c1.7,0,3.1,1.3,3.1,2.8v-2.8C239.4,123,238,121.8,236.3,121.8"/>
			<path clip-path="url(#SVGID_10_)" fill="#1A1819" d="M248.7,121.8c-1.7,0-3.1,1.3-3.1,2.8v2.8c0-1.6,1.4-2.8,3.1-2.8
				c1.7,0,3.1,1.3,3.1,2.8v-2.8C251.8,123,250.4,121.8,248.7,121.8"/>
			<path clip-path="url(#SVGID_10_)" fill="#1A1819" d="M223.9,121.8c-1.7,0-3.1,1.3-3.1,2.8v2.8c0-1.6,1.4-2.8,3.1-2.8
				c1.7,0,3.1,1.3,3.1,2.8v-2.8C227,123,225.6,121.8,223.9,121.8"/>
		</g>
	</g>
	<rect x="181.3" y="155.8" fill="#E6E6E5" width="91.5" height="5"/>
	<rect x="198.5" y="142.7" fill="#E6E6E5" width="57.2" height="14.5"/>
</g>
<g>
	<rect x="56.9" y="165.3" fill="#B98B67" width="266.5" height="96.7"/>
	<rect x="56.9" y="165.3" fill="#976748" width="266.5" height="10.3"/>
	<rect x="52.2" y="160.4" fill="#624331" width="276" height="4.9"/>
	<path fill="#589DA7" d="M49,117.7c0,5.3-3.8,9.6-8.5,9.6c-4.7,0-8.5-4.4-8.4-9.7c0-5.3,3.8-9.6,8.5-9.6C45.2,108,49,112.4,49,117.7
		z"/>
	
		<ellipse transform="matrix(1 5.464072e-03 -5.464072e-03 1 0.6436 -0.2294)" fill="#CDEAE4" cx="42.3" cy="117.7" rx="7.5" ry="9.7"/>
	<path fill="#755A5E" d="M57.5,117.7c0,6.7-4.8,12.1-10.7,12.1c-5.9,0-10.6-5.5-10.6-12.2c0-6.7,4.8-12.1,10.7-12.1
		C52.8,105.6,57.6,111,57.5,117.7z"/>
	<path fill="#412312" d="M59.4,117.8c0,6.7-4.8,12.1-10.7,12.1c-5.9,0-10.6-5.5-10.6-12.2c0-6.7,4.8-12.1,10.7-12.1
		C54.7,105.6,59.5,111,59.4,117.8z"/>
	<path fill="none" stroke="#333333" stroke-width="4.864" stroke-miterlimit="10" d="M103.2,210.7c0.5-0.9,24.8-10.6,34.7,0
		c6.1,6.5-1,52.6-1,52.6"/>
	<path fill="none" stroke="#333333" stroke-width="4.864" stroke-miterlimit="10" d="M64.3,210.7c0.5-0.9,24.8-10.6,34.7,0
		c6.1,6.5-1,52.6-1,52.6"/>
	<path fill="#607132" d="M44.4,206.4c0,2.7,1.9,4.5,4.6,4.5l70.2,0.2c2.8,0,6.6-1.8,6.7-4.5l0.4-111.1c0-2.7-3.9-4.7-6.6-4.7
		l-70.2-0.2c-2.8,0-4.6,2-4.7,4.7L44.4,206.4z"/>
	<path fill="#A1BF3C" d="M44.4,205.6c0,2.6,1.4,5.3,4.2,5.3l61.2,0.2c2.8,0,6.7-2.6,6.7-5.3l0.4-112.1c0-2.6-3.8-2.9-6.6-2.9
		l-61.2-0.2c-2.8,0-4.2,0.3-4.2,2.9L44.4,205.6z"/>
	<path fill="#412312" d="M134.6,120.1c0,7.3-5.2,13.1-11.6,13.1c-6.4,0-11.5-5.9-11.5-13.2c0-7.2,5.2-13.1,11.6-13.1
		C129.5,107,134.6,112.9,134.6,120.1z"/>
	<path fill="#62474C" d="M137.8,120.1c0,7.3-5.2,13.1-11.6,13.1c-6.4,0-11.5-5.9-11.5-13.2c0-7.3,5.2-13.1,11.6-13.1
		C132.7,107,137.8,112.9,137.8,120.1z"/>
	<g>
		<path fill="none" stroke="#333333" stroke-width="3.648" stroke-miterlimit="10" d="M41.9,111.5L42,92.7c0-5.7,4.7-10.3,10.4-10.3
			l61.5,0.3c5.7,0,10.3,4.7,10.3,10.4l-0.1,25.7"/>
	</g>
	<path fill="#589DA7" d="M136.9,120.1c0,5.8-4.2,10.4-9.2,10.4c-5.1,0-9.1-4.7-9.1-10.5c0-5.8,4.2-10.4,9.2-10.4
		C132.8,109.7,136.9,114.4,136.9,120.1z"/>
	<path fill="#CDEAE4" d="M137.8,120.1c0,5.8-3.7,10.4-8.2,10.4c-4.5,0-8.1-4.7-8.1-10.5c0-5.8,3.7-10.4,8.2-10.4
		C134.2,109.7,137.8,114.4,137.8,120.1z"/>
	<path fill="none" stroke="#333333" stroke-width="4.864" stroke-miterlimit="10" d="M121,149.1c0,0,9.7,29.1,38.6,6.2"/>
</g>
<g>
	<circle fill="#3D3D3D" cx="106.1" cy="268.5" r="4.1"/>
	<circle fill="#3D3D3D" cx="82.8" cy="268.5" r="4.1"/>
	<circle fill="#3D3D3D" cx="59.5" cy="268.5" r="4.1"/>
	<g>
		<rect x="78.3" y="225.6" fill="#F2F2F2" width="9.1" height="25.3"/>
	</g>
	<g>
		<path fill="#F2F2F2" d="M106.1,264.8c-0.4,0-0.9-0.1-1.3-0.3l-22-12.6l-22,12.6c-1.2,0.7-2.8,0.3-3.5-1c-0.7-1.2-0.3-2.8,1-3.5
			l24.6-14l24.6,14c1.2,0.7,1.7,2.3,1,3.5C107.9,264.3,107,264.8,106.1,264.8z"/>
	</g>
	<g>
		<path fill="#F2F2F2" d="M82.8,264.8c-1.4,0-2.6-1.2-2.6-2.6v-13.3c0-1.4,1.2-2.6,2.6-2.6c1.4,0,2.6,1.2,2.6,2.6v13.3
			C85.4,263.7,84.3,264.8,82.8,264.8z"/>
	</g>
	<path fill="#333333" d="M104.2,221.1c0,6.1-4.9,11-11,11H36.6c-6.1,0-11-4.9-11-11v-72.3c0-6.1,4.9-11,11-11h56.6
		c6.1,0,11,4.9,11,11V221.1z"/>
	<path fill="#333333" d="M137.8,221.1c0,6.1-4.9,11-11,11H36.6c-6.1,0-11-4.9-11-11v0.7c0-6.1,4.9-11,11-11h90.2c6.1,0,11,4.9,11,11
		V221.1z"/>
</g>
<g>
	<g opacity="0.2">
		<g>
			<defs>
				<rect id="SVGID_11_" x="207.3" y="89" width="32" height="5.3"/>
			</defs>
			<clipPath id="SVGID_12_">
				<use xlink:href="#SVGID_11_"  overflow="visible"/>
			</clipPath>
			<path clip-path="url(#SVGID_12_)" fill="#231F20" d="M239.4,91.7c0,1.5-1.2,2.7-2.7,2.7H210c-1.5,0-2.7-1.2-2.7-2.7
				c0-1.5,1.2-2.7,2.7-2.7h26.7C238.2,89,239.4,90.2,239.4,91.7"/>
		</g>
	</g>
	<path fill="#1F384F" d="M239.4,89c0,1.5-1.2,2.7-2.7,2.7H210c-1.5,0-2.7-1.2-2.7-2.7c0-1.5,1.2-2.7,2.7-2.7h26.7
		C238.2,86.3,239.4,87.5,239.4,89"/>
	<path fill="#F4DFBB" d="M230,78.3c0,0-1.3,8,4,8h-21.4c5.3,0,4-8,4-8H230z"/>
	<g opacity="0.2">
		<g>
			<defs>
				<rect id="SVGID_13_" x="196.6" y="41" width="53.4" height="40"/>
			</defs>
			<clipPath id="SVGID_14_">
				<use xlink:href="#SVGID_13_"  overflow="visible"/>
			</clipPath>
			<path clip-path="url(#SVGID_14_)" fill="#231F20" d="M250,75.7c0,2.9-2.4,5.3-5.3,5.3H202c-3,0-5.3-2.4-5.3-5.3V46.3
				c0-2.9,2.4-5.3,5.3-5.3h42.7c3,0,5.3,2.4,5.3,5.3V75.7z"/>
		</g>
	</g>
	<path fill="#C84C5A" d="M202,76.3c-1.8,0-3.3-1.5-3.3-3.3V43.6c0-1.8,1.5-3.3,3.3-3.3h42.7c1.8,0,3.3,1.5,3.3,3.3V73
		c0,1.8-1.5,3.3-3.3,3.3H202z"/>
	<path fill="#FAF9ED" d="M244.7,42.3c0.7,0,1.3,0.6,1.3,1.3V73c0,0.7-0.6,1.3-1.3,1.3H202c-0.7,0-1.3-0.6-1.3-1.3V43.6
		c0-0.7,0.6-1.3,1.3-1.3H244.7 M244.7,38.3H202c-3,0-5.3,2.4-5.3,5.3V73c0,2.9,2.4,5.3,5.3,5.3h42.7c3,0,5.3-2.4,5.3-5.3V43.6
		C250,40.7,247.7,38.3,244.7,38.3"/>
	<g opacity="0.2">
		<g>
			<defs>
				<rect id="SVGID_15_" x="215.7" y="40.8" width="31.7" height="34.7"/>
			</defs>
			<clipPath id="SVGID_16_">
				<use xlink:href="#SVGID_15_"  overflow="visible"/>
			</clipPath>
			<polygon clip-path="url(#SVGID_16_)" fill="#FFFFFF" points="247.4,75.5 247.4,40.8 215.7,40.8 235.6,75.5 			"/>
		</g>
	</g>
	<rect x="180.6" y="22.3" fill="none" width="85.4" height="85.4"/>
	<rect x="180.6" y="22.3" fill="none" width="85.4" height="85.4"/>
</g>
<g>
	<g>
		<path fill="#B0C536" d="M273.1,239.1c0,0-5.2-17.2-6.7-29.8c-1.5-12.6-9.3-20.2-15-24.1c1.5,14.2-1.4,22.4,3.3,28.5
			C259.4,220.1,273.1,239.1,273.1,239.1z"/>
		<path fill="#486236" d="M275.9,232.5c0,0-2.6,1.5,2.9-11.7c5.5-13.2,0.4-30.8,0.4-30.8s-10.5,6.8-10.1,17.8
			c0.5,11-0.1,18.1,0.9,23.2C271,236.1,275.9,232.5,275.9,232.5z"/>
		<path fill="#B0C536" d="M275.9,236.7c0,0-3.9-8.2,8.3-9.7c12.2-1.5,17.1-9.7,19-14.8c-7,2.6-15.5,1-16.6,2.3
			C285.4,215.8,271.1,229.5,275.9,236.7z"/>
		<path fill="#486236" d="M267.6,236.2c0,0,1-8.4-7-8.8c-8-0.4-16.8-9.5-19-14.4c4.9,2,12.9,2.9,15.5,3.9
			C258.6,217.5,269.3,228.8,267.6,236.2z"/>
	</g>
	<path fill="#624331" d="M253.4,231c7.4,0,14.1,0,17.6,0c0,0,0.9,0,2.5,0c3.6,0,10.5,0,17.9,0c7.6,7-3.6,38-3.6,38h-14.3H271h-14
		C257,269,245.8,238,253.4,231z"/>
	<path fill="#624331" d="M296.7,236.6c-0.3,0.9-1.4,1.4-2.4,1.4h-44.1c-1,0-2.1-0.5-2.4-1.4l-1.6-4.8c-0.3-0.9,0.2-1.8,1.2-1.8H297
		c1,0,1.5,0.9,1.2,1.8L296.7,236.6z"/>
</g>
</svg>
