<?xml version="1.0" encoding="utf-8"?>
<!-- Generator: Adobe Illustrator 18.1.1, SVG Export Plug-In . SVG Version: 6.00 Build 0)  -->
<svg version="1.0" id="Layer_1" xmlns="http://www.w3.org/2000/svg" xmlns:xlink="http://www.w3.org/1999/xlink" x="0px" y="0px"
	 viewBox="0 0 96.8 94.8" enable-background="new 0 0 96.8 94.8" xml:space="preserve">
<circle fill="#772337" cx="50.4" cy="48.4" r="46.4"/>
<circle fill="#C84C5A" cx="46.4" cy="46.4" r="46.4"/>
<g>
	<g opacity="0.2">
		<g>
			<defs>
				<rect id="SVGID_1_" x="39.6" y="59.3" width="16.3" height="14.8"/>
			</defs>
			<clipPath id="SVGID_2_">
				<use xlink:href="#SVGID_1_"  overflow="visible"/>
			</clipPath>
			<path clip-path="url(#SVGID_2_)" fill="#231F20" d="M39.6,59.3v9.2c0,0.6,0.7,1.5,1.1,1.8l6.1,3.5c0.5,0.3,1.3,0.3,1.8,0l6.1-3.5
				c0.5-0.3,1.1-1.2,1.1-1.8v-9.2c-2.5,1.2-5.2,1.9-8.2,1.9C44.9,61.3,42.1,60.6,39.6,59.3"/>
		</g>
	</g>
	<path fill="#3EC0C0" d="M39.6,57v9.2c0,0.6,0.7,1.5,1.1,1.8l6.1,3.5c0.5,0.3,1.3,0.3,1.8,0l6.1-3.5c0.5-0.3,1.1-1.2,1.1-1.8V57
		c-2.5,1.2-5.2,1.9-8.2,1.9C44.9,58.9,42.1,58.2,39.6,57"/>
	<g opacity="0.2">
		<g>
			<defs>
				<rect id="SVGID_3_" x="31" y="32.3" width="33.7" height="33.7"/>
			</defs>
			<clipPath id="SVGID_4_">
				<use xlink:href="#SVGID_3_"  overflow="visible"/>
			</clipPath>
			<path clip-path="url(#SVGID_4_)" fill="#231F20" d="M47.8,32.3c-9.3,0-16.8,7.5-16.8,16.8s7.5,16.8,16.8,16.8
				c9.3,0,16.8-7.5,16.8-16.8S57.1,32.3,47.8,32.3"/>
		</g>
	</g>
	<path fill="#FFFFFF" d="M47.8,29.3c-9.3,0-16.8,7.5-16.8,16.8C31,55.4,38.5,63,47.8,63c9.3,0,16.8-7.5,16.8-16.8
		C64.6,36.8,57.1,29.3,47.8,29.3"/>
	<g opacity="0.2">
		<g>
			<defs>
				<rect id="SVGID_5_" x="46" y="22.8" width="3.5" height="5.8"/>
			</defs>
			<clipPath id="SVGID_6_">
				<use xlink:href="#SVGID_5_"  overflow="visible"/>
			</clipPath>
			<path clip-path="url(#SVGID_6_)" fill="#231F20" d="M49.5,26.9c0,1-0.8,1.8-1.7,1.8c-1,0-1.8-0.8-1.8-1.8v-2.3
				c0-1,0.8-1.8,1.8-1.8c1,0,1.7,0.8,1.7,1.8V26.9z"/>
		</g>
	</g>
	<g opacity="0.2">
		<g>
			<defs>
				<rect id="SVGID_7_" x="67.6" y="46.7" width="5.8" height="3.5"/>
			</defs>
			<clipPath id="SVGID_8_">
				<use xlink:href="#SVGID_7_"  overflow="visible"/>
			</clipPath>
			<path clip-path="url(#SVGID_8_)" fill="#231F20" d="M69.4,50.2c-1,0-1.8-0.8-1.8-1.8c0-1,0.8-1.8,1.8-1.8h2.3
				c1,0,1.8,0.8,1.8,1.8c0,1-0.8,1.8-1.8,1.8H69.4z"/>
		</g>
	</g>
	<g opacity="0.2">
		<g>
			<defs>
				<rect id="SVGID_9_" x="22.1" y="46.7" width="5.8" height="3.5"/>
			</defs>
			<clipPath id="SVGID_10_">
				<use xlink:href="#SVGID_9_"  overflow="visible"/>
			</clipPath>
			<path clip-path="url(#SVGID_10_)" fill="#231F20" d="M26.2,46.7c1,0,1.8,0.8,1.8,1.8c0,1-0.8,1.8-1.8,1.8h-2.3
				c-1,0-1.8-0.8-1.8-1.8c0-1,0.8-1.8,1.8-1.8H26.2z"/>
		</g>
	</g>
	<g opacity="0.2">
		<g>
			<defs>
				<rect id="SVGID_11_" x="34.1" y="26" width="4.7" height="5.5"/>
			</defs>
			<clipPath id="SVGID_12_">
				<use xlink:href="#SVGID_11_"  overflow="visible"/>
			</clipPath>
			<path clip-path="url(#SVGID_12_)" fill="#231F20" d="M38.5,28.9c0.5,0.8,0.2,1.9-0.6,2.4c-0.8,0.5-1.9,0.2-2.4-0.6l-1.2-2
				c-0.5-0.8-0.2-1.9,0.6-2.4c0.8-0.5,1.9-0.2,2.4,0.6L38.5,28.9z"/>
		</g>
	</g>
	<g opacity="0.2">
		<g>
			<defs>
				<rect id="SVGID_13_" x="64.7" y="34.7" width="5.5" height="4.7"/>
			</defs>
			<clipPath id="SVGID_14_">
				<use xlink:href="#SVGID_13_"  overflow="visible"/>
			</clipPath>
			<path clip-path="url(#SVGID_14_)" fill="#231F20" d="M67.4,39.2c-0.8,0.5-1.9,0.2-2.4-0.6c-0.5-0.8-0.2-1.9,0.6-2.4l2-1.2
				c0.8-0.5,1.9-0.2,2.4,0.6c0.5,0.8,0.2,1.9-0.6,2.4L67.4,39.2z"/>
		</g>
	</g>
	<g opacity="0.2">
		<g>
			<defs>
				<rect id="SVGID_15_" x="25.3" y="57.5" width="5.5" height="4.7"/>
			</defs>
			<clipPath id="SVGID_16_">
				<use xlink:href="#SVGID_15_"  overflow="visible"/>
			</clipPath>
			<path clip-path="url(#SVGID_16_)" fill="#231F20" d="M28.2,57.7c0.8-0.5,1.9-0.2,2.4,0.6c0.5,0.8,0.2,1.9-0.6,2.4l-2,1.2
				c-0.8,0.5-1.9,0.2-2.4-0.6c-0.5-0.8-0.2-1.9,0.6-2.4L28.2,57.7z"/>
		</g>
	</g>
	<g opacity="0.2">
		<g>
			<defs>
				<rect id="SVGID_17_" x="25.3" y="34.7" width="5.5" height="4.7"/>
			</defs>
			<clipPath id="SVGID_18_">
				<use xlink:href="#SVGID_17_"  overflow="visible"/>
			</clipPath>
			<path clip-path="url(#SVGID_18_)" fill="#231F20" d="M30,36.1c0.8,0.5,1.1,1.6,0.6,2.4c-0.5,0.8-1.6,1.1-2.4,0.6l-2-1.2
				c-0.8-0.5-1.1-1.6-0.6-2.4c0.5-0.8,1.6-1.1,2.4-0.6L30,36.1z"/>
		</g>
	</g>
	<g opacity="0.2">
		<g>
			<defs>
				<rect id="SVGID_19_" x="64.7" y="57.5" width="5.5" height="4.7"/>
			</defs>
			<clipPath id="SVGID_20_">
				<use xlink:href="#SVGID_19_"  overflow="visible"/>
			</clipPath>
			<path clip-path="url(#SVGID_20_)" fill="#231F20" d="M65.6,60.8c-0.8-0.5-1.1-1.6-0.6-2.4c0.5-0.8,1.6-1.1,2.4-0.6l2,1.2
				c0.8,0.5,1.1,1.6,0.6,2.4c-0.5,0.8-1.6,1.1-2.4,0.6L65.6,60.8z"/>
		</g>
	</g>
	<g opacity="0.2">
		<g>
			<defs>
				<rect id="SVGID_21_" x="56.8" y="26" width="4.7" height="5.5"/>
			</defs>
			<clipPath id="SVGID_22_">
				<use xlink:href="#SVGID_21_"  overflow="visible"/>
			</clipPath>
			<path clip-path="url(#SVGID_22_)" fill="#231F20" d="M60.1,30.6c-0.5,0.8-1.6,1.1-2.4,0.6s-1.1-1.6-0.6-2.4l1.2-2
				c0.5-0.8,1.6-1.1,2.4-0.6c0.8,0.5,1.1,1.6,0.6,2.4L60.1,30.6z"/>
		</g>
	</g>
	<path fill="#FFF2CF" d="M47.8,29.3c-9.3,0-16.8,7.5-16.8,16.8C31,55.4,38.5,63,47.8,63c9.3,0,16.8-7.5,16.8-16.8
		C64.6,36.8,57.1,29.3,47.8,29.3"/>
	<path fill="#FAF9ED" d="M49.5,24.5c0,1-0.8,1.8-1.7,1.8c-1,0-1.8-0.8-1.8-1.8v-2.3c0-1,0.8-1.8,1.8-1.8c1,0,1.7,0.8,1.7,1.8V24.5z"
		/>
	<path fill="#FAF9ED" d="M69.4,47.9c-1,0-1.8-0.8-1.8-1.8c0-1,0.8-1.8,1.8-1.8h2.3c1,0,1.8,0.8,1.8,1.8c0,1-0.8,1.8-1.8,1.8H69.4z"
		/>
	<path fill="#FAF9ED" d="M26.2,44.4c1,0,1.8,0.8,1.8,1.8c0,1-0.8,1.8-1.8,1.8h-2.3c-1,0-1.8-0.8-1.8-1.8c0-1,0.8-1.8,1.8-1.8H26.2z"
		/>
	<path fill="#FAF9ED" d="M38.5,26.5c0.5,0.8,0.2,1.9-0.6,2.4c-0.8,0.5-1.9,0.2-2.4-0.6l-1.2-2c-0.5-0.8-0.2-1.9,0.6-2.4
		c0.8-0.5,1.9-0.2,2.4,0.6L38.5,26.5z"/>
	<path fill="#FAF9ED" d="M67.4,36.8c-0.8,0.5-1.9,0.2-2.4-0.6c-0.5-0.8-0.2-1.9,0.6-2.4l2-1.2c0.8-0.5,1.9-0.2,2.4,0.6
		c0.5,0.8,0.2,1.9-0.6,2.4L67.4,36.8z"/>
	<path fill="#FAF9ED" d="M28.2,55.4c0.8-0.5,1.9-0.2,2.4,0.6c0.5,0.8,0.2,1.9-0.6,2.4l-2,1.2c-0.8,0.5-1.9,0.2-2.4-0.6
		c-0.5-0.8-0.2-1.9,0.6-2.4L28.2,55.4z"/>
	<path fill="#FAF9ED" d="M30,33.8c0.8,0.5,1.1,1.6,0.6,2.4c-0.5,0.8-1.6,1.1-2.4,0.6l-2-1.2c-0.8-0.5-1.1-1.6-0.6-2.4
		c0.5-0.8,1.6-1.1,2.4-0.6L30,33.8z"/>
	<path fill="#FAF9ED" d="M65.6,58.4c-0.8-0.5-1.1-1.6-0.6-2.4c0.5-0.8,1.6-1.1,2.4-0.6l2,1.2c0.8,0.5,1.1,1.6,0.6,2.4
		c-0.5,0.8-1.6,1.1-2.4,0.6L65.6,58.4z"/>
	<path fill="#FAF9ED" d="M60.1,28.3c-0.5,0.8-1.6,1.1-2.4,0.6c-0.8-0.5-1.1-1.6-0.6-2.4l1.2-2c0.5-0.8,1.6-1.1,2.4-0.6
		c0.8,0.5,1.1,1.6,0.6,2.4L60.1,28.3z"/>
</g>
</svg>
